<svg width="96" height="96" viewBox="0 0 96 96" fill="none" xmlns="http://www.w3.org/2000/svg">
<path d="M48.5251 27.8257C46.5929 27.5413 44.621 27.3971 42.6646 27.3971C31.8762 27.3971 21.5557 31.7332 14.0227 39.3622L2.73656 15.6873C2.44743 15.0808 1.77731 14.7553 1.12106 14.9034C0.465374 15.0517 0 15.6341 0 16.3061V41.0688C0 48.0003 3.43293 54.458 9.18336 58.3433C9.43011 58.5102 9.71023 58.5901 9.98717 58.5901C10.4488 58.5901 10.9022 58.3683 11.1802 57.9569C11.6248 57.2986 11.4517 56.4046 10.7936 55.96C5.83611 52.6103 2.87624 47.0435 2.87624 41.0686V22.6646L11.8978 41.5885L8.90511 44.5951C8.34486 45.1582 8.34692 46.0687 8.90979 46.6287C9.19048 46.9081 9.55742 47.0478 9.92436 47.0478C10.2935 47.0478 10.6627 46.9064 10.9436 46.6242L14.6512 42.8994C14.6683 42.8821 14.6833 42.8637 14.6994 42.8459C14.7018 42.8431 14.705 42.8407 14.7077 42.8379C21.7901 34.8528 31.9799 30.2733 42.6646 30.2733C44.4815 30.2733 46.312 30.4072 48.1064 30.6712C48.8917 30.7874 49.6227 30.2437 49.7386 29.4579C49.8543 28.6721 49.3109 27.9414 48.5251 27.8257Z" fill="white"/>
<path d="M95.5125 15.3015C95.0726 14.9137 84.6319 5.80518 75.2892 5.80518C68.3117 5.80518 60.8133 11.4283 56.9643 14.7802C56.1848 15.4592 55.7172 16.4409 55.6816 17.4735C55.6461 18.5058 56.045 19.5172 56.7755 20.2479C58.0257 21.498 60.0057 21.698 61.4839 20.7238C62.1398 20.2916 63.0858 19.706 64.2456 19.0858C62.2512 25.1626 62.7194 30.0213 63.6552 33.3202C60.7263 31.5226 57.5916 30.1132 54.3083 29.1185C53.5484 28.8883 52.7453 29.3178 52.5151 30.0778C52.2848 30.8377 52.7144 31.6408 53.4745 31.871C57.2311 33.0091 60.7788 34.7328 64.0189 36.9954L66.1658 38.4941C66.4195 38.6825 66.7204 38.7762 67.0206 38.7762C67.4001 38.7762 67.7789 38.6268 68.0616 38.3306C68.3271 38.0523 68.4589 37.6951 68.4589 37.3383C68.4589 37.0306 68.3607 36.7229 68.1659 36.467C68.0584 36.3174 66.76 34.4568 66.1064 31.2487C65.2249 26.9227 65.8587 22.2526 67.9808 17.3623C68.6817 17.09 69.4144 16.8337 70.174 16.6057C70.9349 16.3775 71.3665 15.5758 71.1381 14.8149C70.9097 14.054 70.1082 13.6224 69.3473 13.8508C65.3074 15.0626 61.9804 16.9513 59.9007 18.3219C59.557 18.5486 59.098 18.5027 58.8093 18.2139C58.5777 17.9823 58.5511 17.7125 58.5559 17.5723C58.5608 17.4318 58.606 17.1643 58.8531 16.9488C61.7074 14.463 69.0231 8.68123 75.289 8.68123C81.8631 8.68123 89.5283 14.1973 92.4233 16.4844L89.4354 19.4722H81.5104C81.5038 19.4722 81.4971 19.472 81.4907 19.4722H79.7423C79.3609 19.4722 78.9953 19.6237 78.7253 19.8935L77.3798 21.239C75.9728 22.646 73.6834 22.6458 72.2764 21.239L71.6987 20.6615C71.137 20.1 70.2263 20.1 69.6651 20.6617C69.1036 21.2233 69.1036 22.134 69.6653 22.6953L70.2428 23.2728C71.4677 24.4978 73.0962 25.1722 74.8283 25.1722C75.9015 25.1722 76.9347 24.9127 77.8568 24.4246C75.9584 28.9248 75.0546 35.129 76.8445 42.2898C78.6032 49.3263 74.3262 53.659 69.8387 56.1925C69.4133 55.1796 68.6438 54.3333 67.6609 53.8208C66.4977 53.2141 65.1214 53.1181 63.8852 53.5566L60.8588 54.6306L58.7924 49.1768C57.5159 45.808 54.2423 43.624 50.6382 43.7405C49.8443 43.7664 49.2217 44.4309 49.2477 45.2245C49.2736 46.0186 49.9443 46.6375 50.7318 46.615C53.0952 46.537 55.2618 47.9768 56.1027 50.1957L58.6681 56.966C58.9454 57.6974 59.7571 58.0731 60.4938 57.8118L64.8471 56.267C65.3401 56.092 65.8671 56.129 66.3312 56.3708C66.7951 56.6129 67.1269 57.0239 67.2657 57.5285L67.5653 58.6186C67.5655 58.6193 67.5657 58.6203 67.5659 58.621L68.6474 62.5538C68.6579 62.5924 68.6558 62.6089 68.656 62.6089C68.644 62.6388 68.5705 62.6791 68.5399 62.6719C68.5397 62.6719 68.5247 62.6648 68.4977 62.6339L65.4023 59.0721C64.9534 58.5556 64.2025 58.4268 63.6074 58.7646L59.9866 60.8183C59.4951 61.0971 58.8854 60.9768 58.5366 60.5322L52.6671 53.0485C52.177 52.4236 51.2731 52.3143 50.648 52.8044C50.023 53.2945 49.9137 54.1986 50.404 54.8236L54.1403 59.5872C49.5335 59.6061 43.0092 59.6189 40.1459 59.6236V56.9851C40.1459 56.1908 39.5022 55.547 38.7078 55.547C37.9134 55.547 37.2697 56.1908 37.2697 56.9851V66.67C37.2697 71.7649 33.1246 75.91 28.0297 75.91C27.2353 75.91 26.5916 76.5539 26.5916 77.3481V84.9632C26.5916 85.7575 27.2353 86.4013 28.0297 86.4013H29.4534C30.2096 86.4013 30.884 86.76 31.3147 87.3163H26.0859C24.6643 87.3163 23.5078 86.1596 23.5078 84.738V75.4236C23.5078 74.4355 23.9797 73.4916 24.77 72.8987L28.8924 69.8069C29.2708 69.5232 29.4854 69.0715 29.4665 68.5988C29.4476 68.1263 29.1976 67.6932 28.7979 67.4404L25.9916 65.6671C23.6113 64.1629 22.1536 61.5843 22.0931 58.7689C22.0325 55.9536 23.3775 53.3146 25.6908 51.7092C26.3433 51.2566 26.5053 50.3605 26.0527 49.7077C25.6001 49.0555 24.7044 48.8932 24.0511 49.346C20.9428 51.5028 19.136 55.0484 19.2176 58.8306C19.2183 58.8706 19.2206 58.9101 19.2219 58.9501C17.9531 58.8374 16.7034 58.5942 15.4914 58.217C14.733 57.9811 13.9269 58.4048 13.691 59.1631C13.4552 59.9217 13.8787 60.7276 14.6372 60.9636C16.2782 61.474 17.9771 61.7744 19.7013 61.8668C20.4753 64.4157 22.1398 66.6355 24.4548 68.0986L25.4975 68.7574L23.0441 70.5976C21.5332 71.7306 20.6313 73.5347 20.6313 75.4234V84.738C20.6313 87.7457 23.0782 90.1926 26.0857 90.1926H33.2442C34.0387 90.1926 34.6824 89.5487 34.6824 88.7545C34.6824 85.8758 32.3446 83.533 29.4674 83.5251V78.703C31.5633 78.4542 33.4957 77.6669 35.1249 76.4856V84.7393C35.1249 87.7476 37.5721 90.1946 40.5802 90.1946H47.738C48.5324 90.1946 49.1761 89.5508 49.1761 88.7565C49.1761 85.8784 46.8389 83.5358 43.9627 83.5275V78.6647C47.8591 77.9815 50.8293 74.5727 50.8293 70.4828V62.476C52.9143 62.4694 54.8907 62.4619 56.3984 62.4535C57.6492 63.9044 59.7222 64.2756 61.4054 63.3211L64.003 61.8477L66.3267 64.5214C66.9147 65.1979 67.7162 65.5536 68.5424 65.5534C69.0199 65.5534 69.5059 65.4344 69.963 65.1895C71.2099 64.5214 71.7959 63.1561 71.4207 61.7916L70.6587 59.0204C78.2575 54.9788 81.4435 48.8283 79.635 41.5927C78.285 36.1925 78.2012 28.0239 82.2493 22.349H90.0311C90.4125 22.349 90.7781 22.1975 91.0481 21.9277L95.5785 17.3975C95.8592 17.1168 96.0114 16.7323 95.9989 16.3353C95.9867 15.9384 95.8106 15.5642 95.5125 15.3015ZM42.5247 75.9126C41.7303 75.9126 41.0866 76.5565 41.0866 77.3507V84.9651C41.0866 85.7593 41.7303 86.4032 42.5247 86.4032H43.9475C44.7035 86.4032 45.3775 86.7617 45.8082 87.3178H40.5804C39.1584 87.3178 38.0013 86.1608 38.0013 84.7388V73.5435C39.3524 71.5892 40.1461 69.2213 40.1461 66.6707V62.5C41.845 62.4972 44.8364 62.4916 47.9532 62.4835V70.4821C47.953 73.4766 45.5182 75.9126 42.5247 75.9126Z" fill="white"/>
<path d="M75.7654 11.8963C75.3029 12.378 75.2374 13.1343 75.6049 13.6916C75.9585 14.2083 76.617 14.4534 77.2197 14.2685C77.7715 14.0992 78.1733 13.6085 78.2323 13.0346C78.3687 11.7095 76.6888 10.934 75.7654 11.8963Z" fill="white"/>
</svg>
