<svg width="200" height="100" viewBox="0 0 200 100" fill="none" xmlns="http://www.w3.org/2000/svg">
<path d="M13.0353 4H7V18.4903L13.0353 4Z" fill="white"/>
<path d="M17.2815 3.99997H23.309V18.4903L17.2815 3.99997Z" fill="white"/>
<path d="M15.1585 9.34042L18.9999 18.4901H16.4796L15.3315 15.5771H12.5203L15.1585 9.34042Z" fill="white"/>
<path d="M33.1553 13.215L33.867 15.2636C33.8906 15.3149 33.926 15.3386 33.9889 15.3386H35.3572C35.4319 15.3386 35.4437 15.3031 35.4319 15.2281L32.6049 7.34541C32.5931 7.28226 32.5813 7.27042 32.5184 7.27042H30.8198C30.7727 7.27042 30.7451 7.30594 30.7451 7.35726C30.7215 7.77172 30.6862 7.89803 30.635 8.02039L28.1148 15.2162C28.103 15.3031 28.1305 15.3386 28.2013 15.3386H29.4241C29.4988 15.3386 29.5341 15.3149 29.5617 15.2399L30.234 13.215H33.1553ZM30.6233 11.8768C30.9928 10.7558 31.4804 9.31904 31.677 8.49801H31.6888C31.9326 9.35851 32.5066 11.0637 32.7661 11.8768H30.6233Z" fill="white"/>
<path d="M39.0661 15.4608C39.8014 15.4608 40.5838 15.3266 41.378 14.9832C41.4409 14.9595 41.4527 14.9319 41.4527 14.8727C41.4291 14.6517 41.4016 14.3319 41.4016 14.0872V6.66639C41.4016 6.61902 41.4016 6.59534 41.3426 6.59534H40.0098C39.9586 6.59534 39.9351 6.61902 39.9351 6.68218V9.19657C39.7267 9.17289 39.5812 9.16105 39.4082 9.16105C37.2575 9.16105 35.9364 10.586 35.9364 12.3662C35.9364 14.4306 37.2929 15.4608 39.0661 15.4608V15.4608ZM39.935 14.0872C39.7149 14.1583 39.4711 14.1859 39.2234 14.1859C38.2483 14.1859 37.4501 13.6333 37.4501 12.2912C37.4501 11.1031 38.2719 10.4005 39.361 10.4005C39.5812 10.4005 39.7738 10.4242 39.935 10.4873V14.0872Z" fill="white"/>
<path d="M45.7049 9.16098C43.8687 9.16098 42.7324 10.5741 42.7324 12.3188C42.7324 13.8779 43.6367 15.4608 45.6773 15.4608C47.4034 15.4608 48.6144 14.1858 48.6144 12.2793C48.6144 10.5978 47.5882 9.16098 45.7049 9.16098ZM45.6302 10.4004C46.6682 10.4004 47.1085 11.2964 47.1085 12.3188C47.1085 13.5819 46.4598 14.2095 45.7049 14.2095C44.773 14.2095 44.2226 13.424 44.2226 12.2911C44.2226 11.1267 44.8084 10.4004 45.6302 10.4004V10.4004Z" fill="white"/>
<path d="M49.9924 6.59534C49.9413 6.59534 49.9059 6.61902 49.9059 6.68218V15.0819C49.9059 15.1174 49.9413 15.1806 49.9924 15.1924C50.5783 15.374 51.1916 15.4608 51.8247 15.4608C53.6372 15.4608 55.3987 14.3319 55.3987 12.0583C55.3987 10.4123 54.2742 9.16105 52.5127 9.16105C52.1078 9.16105 51.7303 9.2242 51.4 9.33472L51.3843 6.69402C51.3843 6.60718 51.3607 6.59534 51.2742 6.59534H49.9924ZM53.8928 12.2083C53.8928 13.5701 52.9649 14.2096 51.9623 14.2096C51.7539 14.2096 51.5691 14.1977 51.4 14.1464V10.5623C51.5927 10.4873 51.8247 10.4242 52.2532 10.4242C53.2205 10.4242 53.8928 11.0399 53.8928 12.2083Z" fill="white"/>
<path d="M60.3729 12.6503C60.9706 12.6503 61.462 12.6385 61.6311 12.599C61.694 12.5872 61.7176 12.5635 61.7294 12.5122C61.7648 12.378 61.7805 12.0977 61.7805 11.7543C61.7805 10.5859 61.0807 9.16098 59.272 9.16098C57.4241 9.16098 56.3979 10.6728 56.3979 12.378C56.3979 13.8898 57.1921 15.4608 59.4175 15.4608C60.2511 15.4608 60.7897 15.3266 61.2537 15.1055C61.3008 15.0818 61.3244 15.0424 61.3244 14.9713V13.949C61.3244 13.8898 61.289 13.8779 61.2537 13.9016C60.7897 14.099 60.2864 14.1977 59.736 14.1977C58.4896 14.1977 57.9234 13.5069 57.888 12.6503H60.3729ZM57.888 11.5925C57.9863 10.9925 58.3638 10.3412 59.2091 10.3412C60.141 10.3412 60.3847 11.1267 60.3847 11.482C60.3847 11.4938 60.3847 11.5451 60.3847 11.5806C60.3336 11.5925 60.1763 11.5925 59.7124 11.5925H57.888Z" fill="white"/>
<path d="M38.6414 91.1978V61.4047H54.9407V76.4011C54.9407 80.6459 51.8579 84.1839 47.8139 84.8929V89.9399C50.8017 89.9488 53.2292 92.3842 53.2251 95.3749C53.2239 96.1958 52.5534 96.8596 51.7325 96.8596H44.3032C41.1763 96.8596 38.6414 94.3247 38.6414 91.1978Z" fill="white"/>
<path d="M46.3209 82.0366C49.4276 82.0366 51.9552 79.5082 51.9552 76.4005V63.5583H41.6263V91.1972C41.6263 92.6729 42.8271 93.8738 44.303 93.8738H49.7289C49.2819 93.2967 48.5823 92.9246 47.7976 92.9246H46.3209C45.4964 92.9246 44.8283 92.2562 44.8283 91.432V83.5292C44.8283 82.705 45.4964 82.0366 46.3209 82.0366Z" fill="#0F0F0F"/>
<path d="M16.6566 63.9696L21.7864 65.0689H42.3055H54.7636L60.2598 64.7025C64.0461 63.7253 71.6919 61.7711 71.9851 61.7711C72.2782 61.7711 74.3057 60.3055 75.2828 59.5727L80.0462 54.4429L80.4126 49.3131L79.6797 39.4199L80.4126 31.7252L82.6111 25.4962L92.1378 25.1298L95.8019 20.3664L88.4737 14.5038L78.5805 11.2061L70.5194 13.0381L59.8934 19.6336L59.527 23.2977L61.7255 24.0305L67.9545 21.8321L66.1224 29.5267L67.5881 40.1527L57.6949 35.0229L50.0002 33.1909H38.6414L25.8169 37.9543L15.1909 45.2825L3.83211 21.8321L3.4657 43.084L4.56494 53.71L11.8932 61.7711L16.6566 63.9696Z" fill="#0F0F0F" stroke="black"/>
<path d="M50.5253 32.07C48.5931 31.7856 46.6212 31.6414 44.6648 31.6414C33.8764 31.6414 23.5558 35.9775 16.0228 43.6065L4.73657 19.9316C4.44744 19.325 3.77732 18.9995 3.12106 19.1477C2.46538 19.296 2 19.8784 2 20.5504V45.3132C2 52.2447 5.43294 58.7024 11.1834 62.5878C11.4301 62.7546 11.7103 62.8345 11.9872 62.8345C12.4488 62.8345 12.9022 62.6127 13.1803 62.2013C13.6248 61.543 13.4518 60.649 12.7936 60.2044C7.83614 56.8547 4.87626 51.2879 4.87626 45.313V26.9089L13.8978 45.8329L10.9051 48.8395C10.3449 49.4025 10.347 50.313 10.9098 50.8731C11.1905 51.1525 11.5575 51.2922 11.9244 51.2922C12.2936 51.2922 12.6628 51.1508 12.9436 50.8686L16.6513 47.1437C16.6683 47.1265 16.6833 47.1081 16.6995 47.0903C16.7019 47.0875 16.7051 47.085 16.7077 47.0822C23.7902 39.0971 33.9801 34.5176 44.6648 34.5176C46.4817 34.5176 48.3122 34.6515 50.1066 34.9155C50.8919 35.0318 51.6229 34.488 51.7388 33.7022C51.8545 32.9164 51.3111 32.1857 50.5253 32.07Z" fill="white"/>
<path d="M77.2894 10.0494C86.6322 10.0494 97.073 19.158 97.5129 19.5457C97.811 19.8084 97.9871 20.1827 97.9992 20.5796C98.0118 20.9765 97.8596 21.3611 97.5789 21.6418L93.0485 26.172C92.7785 26.4418 92.4129 26.5933 92.0315 26.5933H84.2497C80.2015 32.2682 80.2853 40.4368 81.6353 45.837C83.4438 53.0727 80.2578 59.2232 72.6589 63.2648L58.3986 66.6979C56.8909 66.7064 54.9145 66.7139 52.8295 66.7204L49.9534 66.7279C46.8366 66.736 43.8452 66.7416 42.1462 66.7444L21.7014 66.1113C19.9771 66.0188 18.2782 65.7184 16.6372 65.2081C15.8788 64.972 15.4552 64.1661 15.6911 63.4075C15.9269 62.6492 16.733 62.2255 17.4914 62.4614C18.7034 62.8386 19.9531 63.0818 21.222 63.1945C21.2206 63.1546 21.2184 63.115 21.2176 63.0751L42.1461 63.868C45.0094 63.8633 51.5336 63.8506 56.1405 63.8316L71.839 60.4369C76.3264 57.9034 80.6035 53.5707 78.8448 46.5341C77.0549 39.3733 77.9586 33.1691 79.8571 28.6689C78.935 29.157 77.9018 29.4165 76.8286 29.4165C75.0964 29.4165 73.468 28.742 72.2431 27.5171L71.6656 26.9396C71.1038 26.3782 71.1038 25.4675 71.6654 24.906C72.2266 24.3442 73.1373 24.3442 73.699 24.9058L74.2767 25.4833C75.6837 26.8901 77.9731 26.8903 79.3801 25.4833L80.7256 24.1378C80.9956 23.868 81.3612 23.7165 81.7426 23.7165H83.491C83.4974 23.7163 83.5042 23.7165 83.5107 23.7165H91.4358L94.4236 20.7287C91.5286 18.4415 83.8634 12.9254 77.2893 12.9254C71.0234 12.9254 63.7077 18.7072 60.8534 21.1931C60.6062 21.4085 60.561 21.6761 60.5562 21.8165C60.5513 21.9568 60.5779 22.2266 60.8095 22.4582C61.0982 22.7469 61.5572 22.7928 61.9009 22.5662C63.9807 21.1955 67.3077 19.3068 71.3476 18.095C72.1084 17.8666 72.91 18.2983 73.1384 19.0591C73.3668 19.82 72.9351 20.6218 72.1742 20.85C71.4147 21.078 70.6819 21.3343 69.9811 21.6065C67.8589 26.4969 67.2252 31.167 68.1066 35.493C68.7602 38.7011 70.0587 40.5617 70.1661 40.7113C70.3609 40.9673 70.4592 41.2749 70.4592 41.5826C70.4592 41.9394 70.3274 42.2966 70.0619 42.5749C69.7791 42.8711 69.4004 43.0206 69.0209 43.0206C68.7207 43.0206 68.4197 42.9268 68.1661 42.7384L66.0192 41.2397C62.779 38.9771 59.2313 37.2534 55.4747 36.1153C54.7146 35.8851 54.285 35.082 54.5153 34.3221C54.7455 33.5621 55.5486 33.1326 56.3085 33.3628C59.5918 34.3575 62.7265 35.7669 65.6554 37.5645C64.7196 34.2656 64.2514 29.4069 66.2459 23.33C65.086 23.9503 64.14 24.5358 63.4842 24.968C62.0059 25.9423 60.0259 25.7422 58.7757 24.4922C58.0452 23.7615 57.6463 22.7501 57.6818 21.7177C57.7174 20.6852 58.185 19.7034 58.9645 19.0245C62.8135 15.6725 70.312 10.0494 77.2894 10.0494Z" fill="white"/>
<path d="M77.7657 16.1405C77.3032 16.6222 77.2377 17.3786 77.6052 17.9358C77.9589 18.4526 78.6174 18.6976 79.22 18.5128C79.7718 18.3435 80.1736 17.8528 80.2327 17.2788C80.369 15.9538 78.6892 15.1783 77.7657 16.1405Z" fill="white"/>
<path d="M54.759 60.7641L50.8809 50.7899L54.3293 45.7071L56.7847 46.4484L59.9019 50.0688L60.7619 59.8973L62.4828 59.2686L66.9039 59.8379C67.301 60.213 68.2355 61.0054 68.7967 61.1749C69.3579 61.3443 69.1848 66.6506 69.0281 69.2825L67.2013 70.262L65.6593 69.0309L63.8063 65.0267L59.769 65.7215L56.612 64.7683L54.759 60.7641Z" fill="#0F0F0F"/>
<path d="M69.2184 59.484C69.5422 59.8004 69.8179 60.1576 70.043 60.543C70.5089 61.187 70.6916 62.8217 70.7246 63.5586L70.5955 68.7492C70.5583 70.2522 69.5429 71.4616 68.069 71.7584C67.5287 71.8669 66.9978 71.8389 66.5115 71.6921C65.671 71.4383 64.9646 70.8303 64.5743 69.9614L63.0316 66.5274L59.9361 67.2284C57.907 67.6878 55.8891 66.6446 55.08 64.7437L53.7091 61.2464L49.6644 50.8756C49.352 50.0746 49.7613 49.1702 50.5771 48.8798C51.3654 48.5992 52.2314 49.0448 52.5354 49.8245L57.8734 63.5105C58.0918 64.0697 58.6749 64.3797 59.2606 64.247L63.5756 63.27C64.2849 63.109 65.0094 63.4711 65.3074 64.1343L67.3627 68.7089C67.3805 68.7487 67.3939 68.7605 67.3939 68.7605C67.4237 68.776 67.5098 68.7584 67.5313 68.7319C67.5313 68.7319 67.5383 68.7155 67.5393 68.6732L67.6754 63.1973C67.689 62.6496 67.5036 62.1057 67.1228 61.7121C66.7203 61.2962 66.1786 61.0818 65.6035 61.1091L60.6999 61.3436C59.8702 61.3832 59.1597 60.7517 59.1023 59.9223L58.5718 52.246C58.3982 49.7299 56.6465 47.6047 54.2073 46.953C53.3386 46.7183 52.843 45.7833 53.1777 44.9188C53.4638 44.18 54.2946 43.8066 55.0585 44.0165C58.7278 45.0235 61.3594 48.2373 61.6216 52.0351L62.0488 58.2184L65.4578 58.0553C66.8503 57.9886 68.2212 58.5094 69.2184 59.484Z" fill="white"/>
<path d="M22.1527 62.1375L26.9161 54.8092L41.5726 61.4047V71.2979L41.2062 74.5956L39.3742 78.9926L34.2444 82.2903L30.5802 84.1223L30.2138 90.3514L31.6795 91.0842L34.2444 92.1834L35.3436 94.3819L34.2444 95.1148H28.0153L25.084 94.3819L24.3512 92.1834V89.2521L23.9848 83.3895L25.084 78.2597L29.1146 74.962L28.3817 72.7635L23.252 68.0001L22.1527 62.1375Z" fill="#0F0F0F"/>
<path d="M41.7523 60.1851C42.5863 60.21 43.2293 60.9376 43.2293 61.7719V64.5065L43.2291 67.5533V71.9687C43.2291 74.6711 42.3883 77.1798 40.9568 79.2504L37.9096 82.3673C36.1835 83.6187 34.1362 84.4529 31.9156 84.7166V89.8273C34.9664 89.8355 37.4449 92.322 37.4407 95.3756C37.4395 96.2136 36.755 96.8913 35.917 96.8913H28.3326C25.1411 96.8913 22.5536 94.304 22.5536 91.1123V81.2438C22.5536 79.2321 23.5006 77.3375 25.11 76.1306L27.7092 74.1811L26.6047 73.483C24.1528 71.9339 22.3899 69.5836 21.5693 66.8847C21.3999 66.4495 21.0609 65.222 21.0609 63.7932C21.0597 63.7503 21.0573 63.7076 21.0563 63.6645C20.97 59.6571 22.8844 55.9006 26.1777 53.6154C26.8872 53.1235 27.8677 53.3169 28.3342 54.0533C28.7722 54.7448 28.5518 55.6727 27.8813 56.1424C25.2587 57.9797 23.8222 61.0756 24.1454 64.3044C24.4209 67.057 26.0154 69.5062 28.354 70.9841L31.206 72.7863C31.7621 73.1373 32.0448 73.818 31.8593 74.4901C31.7673 74.8238 31.5507 75.1101 31.2738 75.3177L26.9389 78.5689C26.1013 79.1969 25.6014 80.197 25.6014 81.2438V91.1127C25.6014 92.6212 26.8241 93.8441 28.3328 93.8441H33.8727C33.4162 93.2548 32.7019 92.8747 31.9005 92.8747H30.3921C29.5507 92.8747 28.8684 92.1924 28.8684 91.351V83.2828C28.8684 82.4507 29.5359 81.7571 30.368 81.7591C35.7771 81.7722 40.1819 77.3756 40.1819 71.9693V61.7082C40.1819 60.851 40.8894 60.1593 41.7523 60.1851Z" fill="white"/>
<path d="M113.035 4H107V18.4903L113.035 4Z" fill="white"/>
<path d="M117.281 3.99997H123.309V18.4903L117.281 3.99997Z" fill="white"/>
<path d="M115.158 9.34042L119 18.4901H116.48L115.331 15.5771H112.52L115.158 9.34042Z" fill="white"/>
<path d="M133.155 13.215L133.867 15.2636C133.891 15.3149 133.926 15.3386 133.989 15.3386H135.357C135.432 15.3386 135.444 15.3031 135.432 15.2281L132.605 7.34541C132.593 7.28226 132.581 7.27042 132.518 7.27042H130.82C130.773 7.27042 130.745 7.30594 130.745 7.35726C130.722 7.77172 130.686 7.89803 130.635 8.02039L128.115 15.2162C128.103 15.3031 128.13 15.3386 128.201 15.3386H129.424C129.499 15.3386 129.534 15.3149 129.562 15.2399L130.234 13.215H133.155ZM130.623 11.8768C130.993 10.7558 131.48 9.31904 131.677 8.49801H131.689C131.933 9.35851 132.507 11.0637 132.766 11.8768H130.623Z" fill="white"/>
<path d="M139.066 15.4608C139.801 15.4608 140.584 15.3266 141.378 14.9832C141.441 14.9595 141.453 14.9319 141.453 14.8727C141.429 14.6517 141.402 14.3319 141.402 14.0872V6.66639C141.402 6.61902 141.402 6.59534 141.343 6.59534H140.01C139.959 6.59534 139.935 6.61902 139.935 6.68218V9.19657C139.727 9.17289 139.581 9.16105 139.408 9.16105C137.257 9.16105 135.936 10.586 135.936 12.3662C135.936 14.4306 137.293 15.4608 139.066 15.4608V15.4608ZM139.935 14.0872C139.715 14.1583 139.471 14.1859 139.223 14.1859C138.248 14.1859 137.45 13.6333 137.45 12.2912C137.45 11.1031 138.272 10.4005 139.361 10.4005C139.581 10.4005 139.774 10.4242 139.935 10.4873V14.0872Z" fill="white"/>
<path d="M145.705 9.16098C143.869 9.16098 142.732 10.5741 142.732 12.3188C142.732 13.8779 143.637 15.4608 145.677 15.4608C147.403 15.4608 148.614 14.1858 148.614 12.2793C148.614 10.5978 147.588 9.16098 145.705 9.16098ZM145.63 10.4004C146.668 10.4004 147.109 11.2964 147.109 12.3188C147.109 13.5819 146.46 14.2095 145.705 14.2095C144.773 14.2095 144.223 13.424 144.223 12.2911C144.223 11.1267 144.808 10.4004 145.63 10.4004V10.4004Z" fill="white"/>
<path d="M149.992 6.59534C149.941 6.59534 149.906 6.61902 149.906 6.68218V15.0819C149.906 15.1174 149.941 15.1806 149.992 15.1924C150.578 15.374 151.192 15.4608 151.825 15.4608C153.637 15.4608 155.399 14.3319 155.399 12.0583C155.399 10.4123 154.274 9.16105 152.513 9.16105C152.108 9.16105 151.73 9.2242 151.4 9.33472L151.384 6.69402C151.384 6.60718 151.361 6.59534 151.274 6.59534H149.992ZM153.893 12.2083C153.893 13.5701 152.965 14.2096 151.962 14.2096C151.754 14.2096 151.569 14.1977 151.4 14.1464V10.5623C151.593 10.4873 151.825 10.4242 152.253 10.4242C153.22 10.4242 153.893 11.0399 153.893 12.2083Z" fill="white"/>
<path d="M160.373 12.6503C160.971 12.6503 161.462 12.6385 161.631 12.599C161.694 12.5872 161.718 12.5635 161.729 12.5122C161.765 12.378 161.781 12.0977 161.781 11.7543C161.781 10.5859 161.081 9.16098 159.272 9.16098C157.424 9.16098 156.398 10.6728 156.398 12.378C156.398 13.8898 157.192 15.4608 159.418 15.4608C160.251 15.4608 160.79 15.3266 161.254 15.1055C161.301 15.0818 161.324 15.0424 161.324 14.9713V13.949C161.324 13.8898 161.289 13.8779 161.254 13.9016C160.79 14.099 160.286 14.1977 159.736 14.1977C158.49 14.1977 157.923 13.5069 157.888 12.6503H160.373ZM157.888 11.5925C157.986 10.9925 158.364 10.3412 159.209 10.3412C160.141 10.3412 160.385 11.1267 160.385 11.482C160.385 11.4938 160.385 11.5451 160.385 11.5806C160.334 11.5925 160.176 11.5925 159.712 11.5925H157.888Z" fill="white"/>
<path d="M142.042 92.8959L134.331 64.1181L150.075 59.8995L153.956 74.3849C155.055 78.485 152.993 82.7003 149.27 84.4318L150.576 89.3069C153.465 88.5422 156.44 90.2663 157.21 93.1562C157.421 93.9494 156.945 94.7642 156.152 94.9766L148.976 96.8995C145.956 97.7088 142.851 95.9163 142.042 92.8959Z" fill="white"/>
<path d="M147.089 82.0594C150.089 81.2553 151.877 78.1588 151.072 75.157L147.748 62.7524L137.772 65.4257L144.925 92.1228C145.307 93.5482 146.778 94.3975 148.203 94.0155L153.444 92.6111C152.863 92.1694 152.091 91.991 151.333 92.1941L149.907 92.5763C149.11 92.7897 148.292 92.317 148.079 91.5209L146.033 83.8874C145.82 83.0913 146.292 82.2727 147.089 82.0594Z" fill="#0F0F0F"/>
<path d="M116.657 63.9696L121.786 65.0689H142.306H154.764L160.26 64.7025C164.046 63.7253 171.692 61.7711 171.985 61.7711C172.278 61.7711 174.306 60.3055 175.283 59.5727L180.046 54.4429L180.413 49.3131L179.68 39.4199L180.413 31.7252L182.611 25.4962L192.138 25.1298L195.802 20.3664L188.474 14.5038L178.58 11.2061L170.519 13.0381L159.893 19.6336L159.527 23.2977L161.725 24.0305L167.954 21.8321L166.122 29.5267L167.588 40.1527L157.695 35.0229L150 33.1909H138.641L125.817 37.9543L115.191 45.2825L103.832 21.8321L103.466 43.084L104.565 53.71L111.893 61.7711L116.657 63.9696Z" fill="#0F0F0F" stroke="black"/>
<path d="M150.525 32.07C148.593 31.7856 146.621 31.6414 144.665 31.6414C133.876 31.6414 123.556 35.9775 116.023 43.6065L104.737 19.9316C104.447 19.325 103.777 18.9995 103.121 19.1477C102.465 19.296 102 19.8784 102 20.5504V45.3132C102 52.2447 105.433 58.7024 111.183 62.5878C111.43 62.7546 111.71 62.8345 111.987 62.8345C112.449 62.8345 112.902 62.6127 113.18 62.2013C113.625 61.543 113.452 60.649 112.794 60.2044C107.836 56.8547 104.876 51.2879 104.876 45.313V26.9089L113.898 45.8329L110.905 48.8395C110.345 49.4025 110.347 50.313 110.91 50.8731C111.191 51.1525 111.557 51.2922 111.924 51.2922C112.294 51.2922 112.663 51.1508 112.944 50.8686L116.651 47.1437C116.668 47.1265 116.683 47.1081 116.699 47.0903C116.702 47.0875 116.705 47.085 116.708 47.0822C123.79 39.0971 133.98 34.5176 144.665 34.5176C146.482 34.5176 148.312 34.6515 150.107 34.9155C150.892 35.0318 151.623 34.488 151.739 33.7022C151.854 32.9164 151.311 32.1857 150.525 32.07Z" fill="white"/>
<path d="M177.289 10.0494C186.632 10.0494 197.073 19.158 197.513 19.5457C197.811 19.8084 197.987 20.1827 197.999 20.5796C198.012 20.9765 197.86 21.3611 197.579 21.6418L193.048 26.172C192.778 26.4418 192.413 26.5933 192.031 26.5933H184.25C180.202 32.2682 180.285 40.4368 181.635 45.837C183.444 53.0727 180.258 59.2232 172.659 63.2648L158.399 66.6979C156.891 66.7064 154.914 66.7139 152.829 66.7204L149.953 66.7279C146.837 66.736 143.845 66.7416 142.146 66.7444L121.701 66.1113C119.977 66.0188 118.278 65.7184 116.637 65.2081C115.879 64.972 115.455 64.1661 115.691 63.4075C115.927 62.6492 116.733 62.2255 117.491 62.4614C118.703 62.8386 119.953 63.0818 121.222 63.1945C121.221 63.1546 121.218 63.115 121.218 63.0751L142.146 63.868C145.009 63.8633 151.534 63.8506 156.141 63.8316L171.839 60.4369C176.326 57.9034 180.604 53.5707 178.845 46.5341C177.055 39.3733 177.959 33.1691 179.857 28.6689C178.935 29.157 177.902 29.4165 176.829 29.4165C175.096 29.4165 173.468 28.742 172.243 27.5171L171.666 26.9396C171.104 26.3782 171.104 25.4675 171.665 24.906C172.227 24.3442 173.137 24.3442 173.699 24.9058L174.277 25.4833C175.684 26.8901 177.973 26.8903 179.38 25.4833L180.726 24.1378C180.996 23.868 181.361 23.7165 181.743 23.7165H183.491C183.497 23.7163 183.504 23.7165 183.511 23.7165H191.436L194.424 20.7287C191.529 18.4415 183.863 12.9254 177.289 12.9254C171.023 12.9254 163.708 18.7072 160.853 21.1931C160.606 21.4085 160.561 21.6761 160.556 21.8165C160.551 21.9568 160.578 22.2266 160.809 22.4582C161.098 22.7469 161.557 22.7928 161.901 22.5662C163.981 21.1955 167.308 19.3068 171.348 18.095C172.108 17.8666 172.91 18.2983 173.138 19.0591C173.367 19.82 172.935 20.6218 172.174 20.85C171.415 21.078 170.682 21.3343 169.981 21.6065C167.859 26.4969 167.225 31.167 168.107 35.493C168.76 38.7011 170.059 40.5617 170.166 40.7113C170.361 40.9673 170.459 41.2749 170.459 41.5826C170.459 41.9394 170.327 42.2966 170.062 42.5749C169.779 42.8711 169.4 43.0206 169.021 43.0206C168.721 43.0206 168.42 42.9268 168.166 42.7384L166.019 41.2397C162.779 38.9771 159.231 37.2534 155.475 36.1153C154.715 35.8851 154.285 35.082 154.515 34.3221C154.746 33.5621 155.549 33.1326 156.309 33.3628C159.592 34.3575 162.726 35.7669 165.655 37.5645C164.72 34.2656 164.251 29.4069 166.246 23.33C165.086 23.9503 164.14 24.5358 163.484 24.968C162.006 25.9423 160.026 25.7422 158.776 24.4922C158.045 23.7615 157.646 22.7501 157.682 21.7177C157.717 20.6852 158.185 19.7034 158.964 19.0245C162.813 15.6725 170.312 10.0494 177.289 10.0494Z" fill="white"/>
<path d="M177.766 16.1405C177.303 16.6222 177.238 17.3786 177.605 17.9358C177.959 18.4526 178.617 18.6976 179.22 18.5128C179.772 18.3435 180.174 17.8528 180.233 17.2788C180.369 15.9538 178.689 15.1783 177.766 16.1405Z" fill="white"/>
<path d="M160.441 60.0783L152.638 52.7552L153.554 46.6818L156.089 46.2906L160.464 48.2108L165.482 56.7051L166.763 55.3952L170.997 54.0003C171.517 54.1672 172.702 54.4787 173.281 54.3893C173.861 54.2999 175.995 59.161 176.99 61.6028L175.765 63.2748L173.842 62.83L170.442 60.0179L167.1 62.3874L163.841 62.8903L160.441 60.0783Z" fill="#0F0F0F"/>
<path d="M172.932 52.682C173.36 52.8276 173.763 53.0308 174.133 53.2814C174.831 53.6611 175.701 55.0568 176.049 55.7072L178.173 60.4451C178.789 61.8169 178.395 63.3461 177.193 64.2501C176.753 64.5812 176.262 64.7851 175.76 64.8626C174.892 64.9965 173.992 64.753 173.265 64.1377L170.391 61.706L167.902 63.6745C166.27 64.9648 163.999 64.8949 162.449 63.5294L159.703 60.9666L151.577 53.3577C150.95 52.77 150.929 51.7775 151.539 51.1634C152.129 50.57 153.103 50.5982 153.713 51.1702L164.436 61.2113C164.874 61.6214 165.534 61.6493 166.005 61.2768L169.476 58.5329C170.046 58.0815 170.856 58.0954 171.411 58.565L175.24 61.8042C175.273 61.8325 175.29 61.8373 175.29 61.8373C175.324 61.8385 175.394 61.7853 175.402 61.7522C175.402 61.7522 175.401 61.7344 175.384 61.6958L173.143 56.6976C172.919 56.1977 172.517 55.7871 172.003 55.5964C171.461 55.395 170.879 55.4355 170.372 55.7083L166.05 58.0365C165.319 58.4305 164.406 58.1675 163.996 57.4441L160.204 50.7488C158.961 48.5541 156.463 47.3932 153.982 47.8584C153.097 48.0216 152.246 47.3922 152.175 46.4678C152.114 45.6779 152.702 44.9825 153.482 44.8421C157.227 44.1666 160.988 45.9295 162.864 49.2421L165.918 54.6353L168.923 53.0166C170.15 52.3553 171.611 52.2333 172.932 52.682Z" fill="white"/>
<path d="M123.853 59.9945L130.35 54.1488L142.8 64.3129L140.24 73.869L139.032 76.9595L136.125 80.7325L130.316 82.5901L126.303 83.4114L124.337 89.3334L125.563 90.4206L127.756 92.1462L128.248 94.5543L126.997 94.9776L120.98 93.3654L118.339 91.8989L118.2 89.5857L118.958 86.7542L120.122 80.9965L122.511 76.3261L127.258 74.1839L127.119 71.8706L123.397 65.9419L123.853 59.9945Z" fill="#0F0F0F"/>
<path d="M143.29 63.1814C144.089 63.4212 144.522 64.2904 144.306 65.0964L143.598 67.7378L142.809 70.6808L141.666 74.9457C140.967 77.5559 139.505 79.7616 137.587 81.3911L133.837 83.6131C131.845 84.3751 129.652 84.651 127.439 84.331L126.116 89.2676C129.061 90.0651 130.811 93.1084 130.017 96.0569C129.799 96.866 128.962 97.3434 128.153 97.1265L120.827 95.1635C117.744 94.3375 115.914 91.1687 116.741 88.0858L119.295 78.5535C119.815 76.6104 121.22 75.0254 123.087 74.2762L126.103 73.0659L125.216 72.1057C123.249 69.9747 122.154 67.2482 122.06 64.4289C122.009 63.9647 122 62.6913 122.369 61.3112C122.379 61.2695 122.388 61.2276 122.398 61.1857C123.352 57.2925 126.174 54.1595 129.946 52.8045C130.759 52.513 131.656 52.9536 131.916 53.7856C132.16 54.5669 131.707 55.4062 130.938 55.6864C127.929 56.7823 125.74 59.4009 125.217 62.6033C124.77 65.3334 125.676 68.1119 127.553 70.1446L129.841 72.6236C130.288 73.1066 130.384 73.8373 130.031 74.4384C129.856 74.7369 129.573 74.9574 129.252 75.0863L124.223 77.1047C123.251 77.4945 122.51 78.3312 122.239 79.3423L119.684 88.875C119.294 90.332 120.158 91.8298 121.616 92.2202L126.967 93.6541C126.679 92.9667 126.087 92.4146 125.313 92.2072L123.856 91.8168C123.043 91.5991 122.561 90.7634 122.778 89.9507L124.867 82.1575C125.082 81.3536 125.906 80.8565 126.709 81.0738C131.931 82.4864 137.323 79.3797 138.723 74.1576L141.378 64.2461C141.6 63.4181 142.463 62.9331 143.29 63.1814Z" fill="white"/>
</svg>
