<svg width="184" height="260" viewBox="0 0 184 260" fill="none" xmlns="http://www.w3.org/2000/svg">
<path d="M90.9494 260C78.9429 260 67.5367 258.169 56.7308 254.507C45.925 250.601 36.2197 244.986 27.615 237.662C19.2104 230.338 12.5068 221.305 7.50408 210.563C2.70147 199.822 0.200109 187.371 0 173.211C0 171.014 0.600326 169.183 1.80098 167.718C3.00163 166.009 4.50245 165.155 6.30343 165.155H57.3312C60.5329 165.155 62.8341 166.009 64.2349 167.718C65.8358 169.427 67.2365 172.235 68.4372 176.141C69.838 181.023 71.5389 185.174 73.54 188.592C75.7412 191.765 78.4426 194.085 81.6444 195.549C84.8461 197.014 88.5481 197.746 92.7504 197.746C100.555 197.746 106.558 194.695 110.76 188.592C115.163 182.488 117.364 172.845 117.364 159.662L117.364 64.4507L24.0131 64.4507C21.8119 64.4507 19.9108 63.5962 18.3099 61.8873C16.9092 59.9343 16.2088 57.615 16.2088 54.9296L16.2088 9.52114C16.2088 6.83568 16.9092 4.6385 18.3099 2.92959C19.9108 0.976533 21.8119 0 24.0131 0L176.196 0C178.397 0 180.198 0.976533 181.599 2.92959C183.2 4.6385 184 6.83568 184 9.52114L184 162.225C184 183.953 179.898 202.141 171.693 216.789C163.689 231.193 152.583 242.056 138.375 249.38C124.368 256.46 108.559 260 90.9494 260Z" fill="white" fill-opacity="0.22"/>
</svg>
