<svg width="50" height="57" viewBox="0 0 50 57" fill="none" xmlns="http://www.w3.org/2000/svg">
<path d="M25.1781 56.8C21.9781 56.8 18.9381 56.4 16.0581 55.6C13.1781 54.7467 10.5914 53.52 8.29811 51.92C6.05811 50.32 4.27144 48.3467 2.93811 46C1.65811 43.6533 0.991444 40.9333 0.93811 37.84C0.93811 37.36 1.09811 36.96 1.41811 36.64C1.73811 36.2667 2.13811 36.08 2.61811 36.08H16.2181C17.0714 36.08 17.6848 36.2667 18.0581 36.64C18.4848 37.0133 18.8581 37.6267 19.1781 38.48C19.5514 39.5467 20.0048 40.4533 20.5381 41.2C21.1248 41.8933 21.8448 42.4 22.6981 42.72C23.5514 43.04 24.5381 43.2 25.6581 43.2C27.7381 43.2 29.3381 42.5333 30.4581 41.2C31.6314 39.8667 32.2181 37.76 32.2181 34.88V14.08L7.33811 14.08C6.75144 14.08 6.24478 13.8933 5.81811 13.52C5.44478 13.0933 5.25811 12.5867 5.25811 12L5.25811 2.08C5.25811 1.49333 5.44478 1.01333 5.81811 0.640001C6.24478 0.213334 6.75144 0 7.33811 0L47.8981 0C48.4848 0 48.9648 0.213334 49.3381 0.640001C49.7648 1.01333 49.9781 1.49333 49.9781 2.08L49.9781 35.44C49.9781 40.1867 48.8848 44.16 46.6981 47.36C44.5648 50.5067 41.6048 52.88 37.8181 54.48C34.0848 56.0267 29.8714 56.8 25.1781 56.8Z" fill="white"/>
</svg>
