<svg width="72" height="58" viewBox="0 0 72 58" fill="none" xmlns="http://www.w3.org/2000/svg">
<path d="M56.3 58C51.37 58 47.6 54.23 47.6 49.3V37.7C47.6 32.77 51.37 29 56.3 29C61.23 29 65 32.77 65 37.7V49.3C65 54.23 61.23 58 56.3 58ZM56.3 34.8C54.56 34.8 53.4 35.96 53.4 37.7V49.3C53.4 51.04 54.56 52.2 56.3 52.2C58.04 52.2 59.2 51.04 59.2 49.3V37.7C59.2 35.96 58.04 34.8 56.3 34.8ZM36 58C31.07 58 27.3 54.23 27.3 49.3V23.2C27.3 18.27 31.07 14.5 36 14.5C40.93 14.5 44.7 18.27 44.7 23.2V49.3C44.7 54.23 40.93 58 36 58ZM36 20.3C34.26 20.3 33.1 21.46 33.1 23.2V49.3C33.1 51.04 34.26 52.2 36 52.2C37.74 52.2 38.9 51.04 38.9 49.3V23.2C38.9 21.46 37.74 20.3 36 20.3ZM15.7 58C10.77 58 7 54.23 7 49.3V8.7C7 3.77 10.77 0 15.7 0C20.63 0 24.4 3.77 24.4 8.7V49.3C24.4 54.23 20.63 58 15.7 58ZM15.7 5.8C13.96 5.8 12.8 6.96 12.8 8.7V49.3C12.8 51.04 13.96 52.2 15.7 52.2C17.44 52.2 18.6 51.04 18.6 49.3V8.7C18.6 6.96 17.44 5.8 15.7 5.8Z" fill="#CE4D45"/>
</svg>
