<svg width="53" height="65" viewBox="0 0 53 65" fill="none" xmlns="http://www.w3.org/2000/svg">
<path d="M18.197 13.5279C17.7573 13.5279 17.35 13.7474 17.1068 14.1137C16.7782 14.6087 12.7402 20.6916 8.78425 27.7877C6.8063 31.3357 4.84834 35.1379 3.38473 38.6221C1.92191 42.1044 0.95 45.2757 0.95 47.5593C0.95 57.0695 8.6874 64.804 18.1969 64.804C27.7085 64.804 35.4453 57.0695 35.4453 47.5593C35.4453 45.2758 34.4734 42.1047 33.0104 38.6224C31.5467 35.1382 29.5885 31.336 27.6103 27.788C23.6539 20.6923 19.6151 14.6096 19.2842 14.1137C19.0417 13.7474 18.6359 13.5279 18.197 13.5279H18.197ZM18.197 62.1885C10.1289 62.1885 3.56705 55.6259 3.56705 47.5592C3.56705 45.8187 4.24885 43.4112 5.3342 40.6838C6.4189 37.9581 7.90425 34.9186 9.50634 31.9163C12.6865 25.9567 16.3247 20.147 18.197 17.2345C20.0703 20.1466 23.7084 25.9554 26.8881 31.9147C28.49 34.9168 29.9751 37.9562 31.0595 40.6822C32.1447 43.4098 32.8263 45.8178 32.8263 47.5592C32.8263 55.6265 26.2665 62.1885 18.197 62.1885Z" fill="white" stroke="black" stroke-width="0.1"/>
<path d="M19.3835 61.3895L19.3869 61.3939H19.2853C18.6991 61.3939 18.1922 60.9448 18.0839 60.3344C18.0839 60.3344 18.0839 60.3344 18.0839 60.3344L18.1332 60.3257C18.011 59.6467 18.4249 58.9854 19.0543 58.8514C24.1192 57.7628 28.0992 53.9723 29.1944 49.1962L19.3835 61.3895ZM19.3835 61.3895C19.4313 61.3853 19.4795 61.378 19.5276 61.3675C25.5028 60.0833 30.2137 55.5466 31.5253 49.8058C31.6856 49.1161 31.2874 48.4093 30.6376 48.2291V48.2291L30.6374 48.229C29.9852 48.052 29.3031 48.4938 29.1457 49.1851M19.3835 61.3895L29.1457 49.1851M29.1457 49.1851C28.0551 53.9408 24.0911 57.7177 19.0438 58.8025L29.1457 49.1851Z" fill="white" stroke="black" stroke-width="0.1"/>
<path d="M38.5888 47.8099V47.8089C38.004 47.7868 37.5031 47.3777 37.3654 46.8015L37.3653 46.8008L37.3653 46.8008C37.2892 46.4603 37.3445 46.1131 37.5253 45.814L37.5256 45.8134L37.5256 45.8134C37.7126 45.5134 37.9991 45.3084 38.3407 45.2276L38.3407 45.2276C41.944 44.3765 44.7802 41.3881 45.5666 37.6059L45.5666 37.6059C45.7122 36.9078 46.4238 36.4487 47.1147 36.5919M38.5888 47.8099L47.1147 36.5919M38.5888 47.8099H38.6388M38.5888 47.8099H38.6388M47.1147 36.5919C47.1147 36.5919 47.1147 36.5919 47.1147 36.5919L47.1046 36.6409M47.1147 36.5919L47.1046 36.6409M38.6388 47.8099C38.7414 47.8099 38.8452 47.7969 38.9418 47.7746L38.942 47.7746M38.6388 47.8099L38.942 47.7746M38.942 47.7746C43.5319 46.691 47.135 42.9101 48.1302 38.1374C48.2827 37.4316 47.8264 36.7389 47.1148 36.5919L47.1046 36.6409M38.942 47.7746L38.6888 47.7589M37.5681 45.8398C37.748 45.551 38.0235 45.3541 38.3522 45.2763L37.5681 45.8398ZM37.5681 45.8398C37.3941 46.1279 37.3408 46.4618 37.4141 46.7898L37.5681 45.8398ZM38.6888 47.7589C38.7709 47.7554 38.853 47.7437 38.9306 47.7259C43.5007 46.647 47.0899 42.8816 48.0813 38.127C48.2279 37.4487 47.7895 36.7823 47.1046 36.6409M38.6888 47.7589V47.7599V47.7599H38.6388L38.6888 47.7589Z" fill="white" stroke="black" stroke-width="0.1"/>
<path d="M35.8177 1.4271L35.8165 1.43555C35.5698 1.1292 35.1988 0.95 34.7996 0.95C34.3638 0.95 33.9543 1.16861 33.711 1.53567C33.65 1.62568 28.5738 9.25859 24.1771 17.423L24.1771 17.4231C24.0118 17.7306 23.9731 18.0879 24.0733 18.4187L24.0734 18.419C24.177 18.7536 24.397 19.0319 24.7056 19.1955C25.3243 19.5267 26.146 19.2824 26.4791 18.6687L26.4792 18.6686C29.6282 12.8236 33.1817 7.173 34.7982 4.6549C36.6723 7.56709 40.3103 13.3759 43.4899 19.3351C45.0916 22.3372 46.5766 25.3766 47.6609 28.1026C48.7459 30.8302 49.4274 33.2382 49.4274 34.9796C49.4274 41.7742 44.8212 47.6208 38.226 49.206C37.8872 49.2869 37.6 49.4964 37.417 49.7918L37.4168 49.792C37.2337 50.0913 37.1775 50.444 37.2583 50.7827L37.2583 50.7829C37.4008 51.3734 37.9252 51.7837 38.5309 51.7837C38.6374 51.7837 38.7373 51.7706 38.8372 51.7485L38.838 51.7483C46.6148 49.885 52.0502 42.9843 52.0502 34.979C52.0504 32.6956 51.0785 29.5245 49.6154 26.0423C48.1517 22.5582 46.1934 18.7561 44.215 15.2081C40.2583 8.11214 36.2192 2.02938 35.8898 1.53515L35.8177 1.4271Z" fill="white" stroke="black" stroke-width="0.1"/>
<path d="M29.2538 45.0658C29.3043 45.3409 29.3218 45.626 29.3122 45.8419L29.3119 45.8488C29.2779 46.5717 29.8398 47.1148 30.5548 47.1148H30.6925C31.3627 47.1148 31.8939 46.648 31.928 45.9803L31.928 45.9797C31.9321 45.8777 31.9505 45.4023 31.8604 44.7989C31.7703 44.1961 31.5712 43.4617 31.1377 42.8442L31.1375 42.8439C30.7329 42.2758 29.8829 42.1289 29.3123 42.5314L29.3123 42.5314C28.7248 42.9464 28.5816 43.7654 28.9989 44.3546C29.1185 44.5241 29.2026 44.7865 29.2538 45.0658Z" fill="white" stroke="black" stroke-width="0.1"/>
</svg>
