<svg width="54" height="60" viewBox="0 0 54 60" fill="none" xmlns="http://www.w3.org/2000/svg">
<path d="M8.09972 0.181641H2.45446C1.8035 0.181641 1.1792 0.440235 0.718895 0.900536C0.258594 1.36084 0 1.98514 0 2.6361C0 3.28707 0.258594 3.91137 0.718895 4.37167C1.1792 4.83197 1.8035 5.09056 2.45446 5.09056H8.09972L16.1688 27.285C14.3646 27.5876 12.7377 28.551 11.6049 29.9875C10.4722 31.4239 9.91466 33.2306 10.041 35.0556C10.1674 36.8806 10.9686 38.5932 12.2885 39.8598C13.6084 41.1265 15.3526 41.8564 17.1812 41.9075H46.6348C47.2857 41.9075 47.91 41.6489 48.3703 41.1886C48.8306 40.7283 49.0892 40.104 49.0892 39.453C49.0892 38.8021 48.8306 38.1778 48.3703 37.7175C47.91 37.2572 47.2857 36.9986 46.6348 36.9986H17.1812C16.5303 36.9986 15.906 36.74 15.4457 36.2797C14.9854 35.8194 14.7268 35.1951 14.7268 34.5441C14.7268 33.8931 14.9854 33.2688 15.4457 32.8085C15.906 32.3482 16.5303 32.0896 17.1812 32.0896H38.7866C40.8685 32.0832 42.8994 31.445 44.6108 30.2595C46.3222 29.074 47.6335 27.3971 48.3713 25.4503L53.8448 10.8585C53.9835 10.4871 54.0303 10.0876 53.9809 9.69419C53.9316 9.30077 53.7877 8.92515 53.5616 8.59947C53.3354 8.2738 53.0337 8.00776 52.6823 7.82413C52.3309 7.64049 51.9402 7.54473 51.5437 7.54503H14.7268C14.5619 7.54554 14.3975 7.56198 14.2359 7.59411L12.7141 3.41539C12.3701 2.46779 11.7427 1.64908 10.9171 1.07052C10.0915 0.491966 9.10784 0.181613 8.09972 0.181641V0.181641ZM47.9847 12.4539L43.7753 23.7261C43.3921 24.7398 42.7098 25.613 41.8188 26.23C40.9278 26.847 39.8704 27.1786 38.7866 27.1807H21.3538L15.997 12.4539H47.9847Z" fill="white"/>
<path d="M12.2723 51.7253C12.2723 53.1817 12.7042 54.6053 13.5133 55.8162C14.3224 57.0271 15.4724 57.9709 16.8179 58.5282C18.1634 59.0855 19.6439 59.2314 21.0722 58.9472C22.5006 58.6631 23.8126 57.9618 24.8424 56.932C25.8722 55.9023 26.5735 54.5902 26.8576 53.1619C27.1417 51.7335 26.9959 50.253 26.4386 48.9075C25.8813 47.562 24.9375 46.412 23.7266 45.6029C22.5157 44.7938 21.0921 44.362 19.6357 44.362C17.6828 44.362 15.8099 45.1377 14.429 46.5186C13.0481 47.8995 12.2723 49.7724 12.2723 51.7253ZM22.0902 51.7253C22.0902 52.2108 21.9462 52.6853 21.6765 53.089C21.4068 53.4926 21.0235 53.8072 20.575 53.993C20.1265 54.1787 19.633 54.2273 19.1569 54.1326C18.6808 54.0379 18.2434 53.8042 17.9002 53.4609C17.5569 53.1176 17.3231 52.6803 17.2284 52.2042C17.1337 51.7281 17.1823 51.2346 17.3681 50.7861C17.5539 50.3376 17.8685 49.9542 18.2721 49.6845C18.6757 49.4148 19.1503 49.2709 19.6357 49.2709C20.2867 49.2709 20.911 49.5295 21.3713 49.9898C21.8316 50.4501 22.0902 51.0744 22.0902 51.7253Z" fill="white"/>
<path d="M41.7258 44.362C40.2695 44.362 38.8458 44.7938 37.6349 45.6029C36.424 46.412 35.4803 47.562 34.9229 48.9075C34.3656 50.253 34.2198 51.7335 34.5039 53.1619C34.788 54.5902 35.4893 55.9023 36.5191 56.932C37.5489 57.9618 38.8609 58.6631 40.2893 58.9472C41.7176 59.2314 43.1982 59.0855 44.5437 58.5282C45.8891 57.9709 47.0391 57.0271 47.8482 55.8162C48.6573 54.6053 49.0892 53.1817 49.0892 51.7253C49.0892 49.7724 48.3134 47.8995 46.9325 46.5186C45.5516 45.1377 43.6787 44.362 41.7258 44.362ZM41.7258 54.1798C41.2404 54.1798 40.7658 54.0359 40.3622 53.7662C39.9586 53.4965 39.644 53.1131 39.4582 52.6646C39.2724 52.2161 39.2238 51.7226 39.3185 51.2465C39.4132 50.7704 39.647 50.333 39.9902 49.9898C40.3335 49.6465 40.7709 49.4127 41.247 49.318C41.7231 49.2233 42.2166 49.2719 42.6651 49.4577C43.1136 49.6435 43.4969 49.9581 43.7666 50.3617C44.0363 50.7653 44.1803 51.2399 44.1803 51.7253C44.1803 52.3763 43.9217 53.0006 43.4614 53.4609C43.0011 53.9212 42.3768 54.1798 41.7258 54.1798Z" fill="white"/>
</svg>
