<svg width="309" height="309" viewBox="0 0 309 309" fill="none" xmlns="http://www.w3.org/2000/svg">
<path d="M78.3021 308V154.5" stroke="#202527"/>
<path d="M231.802 308V154.5" stroke="#202527"/>
<path d="M231.802 154.5V1" stroke="#202527"/>
<path d="M78.3021 154.5V1" stroke="#202527"/>
<path d="M78.3021 308V154.5" stroke="#202527" stroke-width="3"/>
<path d="M231.802 308V154.5" stroke="#202527" stroke-width="3"/>
<path d="M231.802 154.5V1" stroke="#202527" stroke-width="3"/>
<path d="M78.3021 154.5V1" stroke="#202527" stroke-width="3"/>
<path d="M154.5 308V154.5" stroke="#202527"/>
<path d="M308 308V154.5" stroke="#202527"/>
<path d="M308 154.5V1" stroke="#202527"/>
<path d="M154.5 154.5V1" stroke="#202527"/>
<path d="M154.5 154.5L1 154.5" stroke="#202527"/>
<path d="M308 154.5L154.5 154.5" stroke="#202527"/>
<path d="M308 0.999993L154.5 1" stroke="#202527"/>
<path d="M154.5 0.999993L1 1" stroke="#202527"/>
<path d="M39.6511 308V154.5" stroke="#202527"/>
<path d="M193.151 308V154.5" stroke="#202527"/>
<path d="M193.151 154.5V1" stroke="#202527"/>
<path d="M39.6511 154.5V1" stroke="#202527"/>
<path d="M154.5 269.349L1 269.349" stroke="#202527"/>
<path d="M308 269.349L154.5 269.349" stroke="#202527"/>
<path d="M308 115.849L154.5 115.849" stroke="#202527"/>
<path d="M154.5 115.849L1 115.849" stroke="#202527"/>
<path d="M115.849 308V154.5" stroke="#202527"/>
<path d="M269.349 308V154.5" stroke="#202527"/>
<path d="M269.349 154.5V1" stroke="#202527"/>
<path d="M115.849 154.5V1" stroke="#202527"/>
<path d="M154.5 193.151L1 193.151" stroke="#202527"/>
<path d="M308 193.151L154.5 193.151" stroke="#202527"/>
<path d="M308 39.6511L154.5 39.6511" stroke="#202527"/>
<path d="M154.5 39.6511L1 39.6511" stroke="#202527"/>
<path d="M1 308V154.5" stroke="#202527"/>
<path d="M154.5 308V154.5" stroke="#202527"/>
<path d="M154.5 154.5V1" stroke="#202527"/>
<path d="M1 154.5V1" stroke="#202527"/>
<path d="M154.5 308L1 308" stroke="#202527"/>
<path d="M308 308L154.5 308" stroke="#202527"/>
<path d="M308 154.5L154.5 154.5" stroke="#202527"/>
<path d="M154.5 154.5L1 154.5" stroke="#202527"/>
<path d="M154.5 231.802H1" stroke="#202527"/>
<path d="M308 231.802H154.5" stroke="#202527"/>
<path d="M308 78.3022L154.5 78.3022" stroke="#202527"/>
<path d="M154.5 78.3022L1 78.3022" stroke="#202527"/>
<path d="M154.5 231.802H1" stroke="#202527" stroke-width="3"/>
<path d="M308 231.802H154.5" stroke="#202527" stroke-width="3"/>
<path d="M308 78.3022L154.5 78.3022" stroke="#202527" stroke-width="3"/>
<path d="M154.5 78.3022L1 78.3022" stroke="#202527" stroke-width="3"/>
</svg>
