<svg width="200" height="100" viewBox="0 0 200 100" fill="none" xmlns="http://www.w3.org/2000/svg">
<path d="M31.0789 18.6401L32.3069 21.8642H29.9276L31.0794 18.6401H31.0789ZM30.6182 17.5602L27.9319 24.6204H28.9295L29.6201 22.7024H32.6128L33.3034 24.6204H34.301L31.6147 17.5602H30.6171H30.6182ZM45.1191 24.6266H46.0447V17.5654H45.1191V24.6256V24.6266ZM35.6832 20.4769C35.9902 20.0161 36.6088 19.6325 37.2182 19.6325C38.4461 19.6325 39.0601 20.4769 39.0601 21.7048V24.6976H38.1345V21.8581C38.1345 20.8605 37.5971 20.4763 36.9065 20.4763C36.1388 20.4763 35.602 21.2441 35.602 21.9347V24.6209H34.6764V19.7158H35.602L35.6791 20.4835L35.6832 20.4769ZM39.8278 23.1683C39.8278 22.0884 40.8254 21.4796 41.9773 21.4796C42.6679 21.4796 43.1291 21.6339 43.2818 21.7866V21.6323C43.2818 20.8646 42.6679 20.4805 42.0539 20.4805C41.5165 20.4805 41.0563 20.7108 40.902 21.1711L40.0577 20.7874C40.2119 20.3267 40.8254 19.6356 42.0528 19.6356C43.2047 19.6356 44.2023 20.3262 44.2023 21.7079V24.6245H43.3579V23.934H43.2808C43.0504 24.3176 42.5131 24.7783 41.6692 24.7783C40.6717 24.7783 39.8273 24.1643 39.8273 23.1667M43.2808 22.5528C43.2808 22.5528 42.8972 22.2458 42.129 22.2458C41.2034 22.2458 40.8244 22.7831 40.8244 23.1714C40.8244 23.7087 41.3617 23.9391 41.822 23.9391C42.5126 23.9391 43.2803 23.3251 43.2803 22.5574" fill="white"/>
<path fill-rule="evenodd" clip-rule="evenodd" d="M47.3498 26.776L48.4297 24.2435L46.5117 19.7919H47.4372L48.8956 23.1688L50.3539 19.7919H51.2795L48.2867 26.776H47.3611H47.3498ZM60.8584 21.4025C60.628 20.7885 60.0906 20.4049 59.5538 20.4049C58.7861 20.4049 58.0955 21.0955 58.0955 22.0936C58.0955 23.0917 58.7861 23.7823 59.5538 23.7823C60.0911 23.7823 60.6336 23.3987 60.8584 22.8567L61.6261 23.3174C61.2425 24.1618 60.4742 24.6991 59.5538 24.6991C58.2492 24.6991 57.1745 23.5473 57.1745 22.0895C57.1745 20.5545 58.2544 19.4798 59.5538 19.4798C60.4794 19.4798 61.2425 20.0172 61.6261 20.8615L60.8584 21.3989V21.4025Z" fill="white"/>
<path d="M64.1581 24.7799C65.386 24.7799 66 24.0893 66 23.245C66 21.403 63.3137 22.0931 63.3137 21.0194C63.3137 20.6358 63.6207 20.4054 64.1581 20.4054C64.6954 20.4054 65.2379 20.6358 65.4626 21.0194L66 20.4821C65.693 20.0985 64.8481 19.5565 64.082 19.5565C62.9301 19.5565 62.3166 20.2471 62.3166 21.0914C62.3166 22.8567 65.0795 22.2433 65.0795 23.1637C65.0795 23.6245 64.7726 23.9314 64.1539 23.9314C63.5353 23.9314 63.2284 23.5478 62.926 23.1637L62.2441 23.7062C62.7049 24.167 63.396 24.7861 64.1622 24.7861L64.1581 24.7799ZM55.4086 24.6267H56.3342V19.7149H55.4086V24.6267V24.6267Z" fill="white"/>
<path fill-rule="evenodd" clip-rule="evenodd" d="M55.7923 17.3402C56.1759 17.3402 56.4063 17.6472 56.4063 17.9542C56.4063 18.3378 56.0993 18.5682 55.7923 18.5682C55.4853 18.5682 55.1783 18.2612 55.1783 17.9542C55.1783 17.6472 55.4853 17.3402 55.7923 17.3402ZM54.4877 23.8641L54.642 24.5547H53.7164C52.8721 24.5547 52.4885 23.9408 52.4885 23.0198V20.6312H51.5629V19.7056H52.4885V18.2566H53.4141V19.7149H54.4939V20.6405H53.4141V23.173C53.4141 23.8636 53.9514 23.8636 54.4939 23.8636L54.4877 23.8641Z" fill="white"/>
<path d="M32.5984 9.75948V10.9113H35.2847C35.2075 11.5253 34.9777 11.9912 34.6707 12.293C34.2871 12.6766 33.6731 13.1374 32.5984 13.1374C30.9868 13.1374 29.6818 11.8328 29.6818 10.1446C29.6818 8.53307 30.9863 7.15188 32.5984 7.15188C33.524 7.15188 34.1333 7.53549 34.5936 7.91961L35.3613 7.15188C34.6707 6.5379 33.8264 6.00003 32.5984 6.00003C30.3729 6.00003 28.4538 7.84196 28.4538 10.0624C28.4538 12.2828 30.3718 14.1247 32.5984 14.1247C33.8264 14.1247 34.7478 13.7411 35.4379 12.9728C36.2056 12.2051 36.4355 11.2075 36.4355 10.3632C36.4355 10.1328 36.4355 9.82582 36.3584 9.67258H32.5979L32.5984 9.75948ZM39.4283 8.83389C37.9699 8.83389 36.8186 9.91375 36.8186 11.4436C36.8186 12.9734 37.9704 14.0532 39.4283 14.0532C39.7718 14.0563 40.1126 13.9909 40.4306 13.8609C40.7486 13.7308 41.0375 13.5387 41.2804 13.2957C41.5234 13.0528 41.7155 12.7639 41.8456 12.4459C41.9756 12.1279 42.041 11.7871 42.0379 11.4436C42.0379 9.90861 40.8861 8.83389 39.4283 8.83389ZM39.4283 13.0505C38.6605 13.0505 37.9699 12.3599 37.9699 11.4389C37.9699 10.518 38.6605 9.8325 39.4283 9.8325C40.196 9.8325 40.8871 10.4496 40.8871 11.442C40.8871 12.4344 40.1965 13.0536 39.4288 13.0536L39.4283 13.0505ZM52.0112 9.37073C51.7042 9.06375 51.2435 8.75676 50.5529 8.75676C49.2483 8.75676 48.097 9.90861 48.097 11.3664C48.097 12.8242 49.2488 13.9761 50.5529 13.9761C51.1668 13.9761 51.7047 13.6691 51.9346 13.3621H52.0117V13.7457C52.0117 14.7433 51.4743 15.2807 50.63 15.2807C49.9394 15.2807 49.4781 14.7433 49.3254 14.3551L48.3278 14.7387C48.6348 15.4293 49.4077 16.2736 50.6305 16.2736C52.0122 16.2736 53.163 15.5059 53.163 13.5107V8.75264H52.0832V9.36662L52.0112 9.37073ZM50.7066 13.0546C49.9389 13.0546 49.3249 12.364 49.3249 11.443C49.3249 10.5221 49.9389 9.83147 50.7066 9.83147C51.4743 9.83147 52.0883 10.5221 52.0883 11.443C52.0883 12.364 51.4743 13.0546 50.7066 13.0546V13.0546ZM45.1032 8.838C43.6448 8.838 42.4935 9.91786 42.4935 11.4477C42.4935 12.9775 43.6454 14.0573 45.1032 14.0573C45.4467 14.0604 45.7875 13.995 46.1055 13.865C46.4235 13.7349 46.7124 13.5428 46.9554 13.2999C47.1983 13.0569 47.3904 12.768 47.5205 12.45C47.6505 12.132 47.7159 11.7912 47.7128 11.4477C47.79 9.91272 46.561 8.838 45.1032 8.838ZM45.1032 13.0546C44.3354 13.0546 43.6448 12.364 43.6448 11.443C43.6448 10.5221 44.3354 9.83147 45.1032 9.83147C45.8709 9.83147 46.5615 10.4455 46.5615 11.443C46.5615 12.4406 45.8709 13.0546 45.1032 13.0546V13.0546ZM54.0166 6.07562H55.1685V14.0573H54.0166V6.07562ZM58.3145 13.0597C57.7005 13.0597 57.3169 12.7528 57.0099 12.292L60.5405 10.8337L60.3863 10.5267C60.1559 9.91272 59.4607 8.838 58.1607 8.838C56.779 8.838 55.7048 9.91786 55.7048 11.4477C55.7017 11.7912 55.7671 12.132 55.8972 12.45C56.0272 12.768 56.2193 13.0569 56.4623 13.2999C56.7052 13.5428 56.9942 13.7349 57.3122 13.865C57.6302 13.995 57.9709 14.0604 58.3145 14.0573C59.5424 14.0573 60.2325 13.2896 60.54 12.9055L59.6144 12.2915C59.3074 12.7522 58.9238 13.0592 58.3099 13.0592L58.3145 13.0597ZM58.2373 9.83559C58.6981 9.83559 59.0817 10.066 59.2349 10.4496L56.8556 11.4471C56.8556 10.2953 57.6234 9.83559 58.2373 9.83559V9.83559Z" fill="white"/>
<path d="M21.2346 8.58404V22.0655C21.2346 23.574 22.2763 24.4145 23.3793 24.4145C24.4007 24.4145 25.5241 23.6996 25.5241 22.0655V8.68618C25.5241 7.30331 24.5028 6.43927 23.3793 6.43927C22.2559 6.43927 21.2346 7.39216 21.2346 8.58404Z" fill="white"/>
<path d="M15.6174 15.4268V22.0654C15.6174 23.5739 16.6591 24.4144 17.7622 24.4144C18.7835 24.4144 19.9069 23.6995 19.9069 22.0654V15.5289C19.9069 14.1461 18.8856 13.282 17.7622 13.282C16.6387 13.282 15.6174 14.2349 15.6174 15.4268Z" fill="white"/>
<path d="M12.1448 24.4144C13.3293 24.4144 14.2896 23.4542 14.2896 22.2697C14.2896 21.0851 13.3293 20.1249 12.1448 20.1249C10.9603 20.1249 10 21.0851 10 22.2697C10 23.4542 10.9603 24.4144 12.1448 24.4144Z" fill="white"/>
<path d="M34.1355 90.7732V61.7221H50.0289V76.345C50.0289 80.4841 47.0229 83.934 43.0796 84.6253V89.5467C45.993 89.5553 48.3601 91.9301 48.356 94.8463C48.3549 95.6468 47.7011 96.2941 46.9006 96.2941H39.6564C36.6073 96.2941 34.1355 93.8223 34.1355 90.7732Z" fill="white"/>
<path d="M41.6238 81.8402C44.6531 81.8402 47.1178 79.3748 47.1178 76.3444V63.8221H37.0461V90.7727C37.0461 92.2117 38.217 93.3827 39.6561 93.3827H44.9469C44.5111 92.8199 43.8289 92.457 43.0637 92.457H41.6238C40.8199 92.457 40.1683 91.8053 40.1683 91.0016V83.2957C40.1683 82.492 40.8199 81.8402 41.6238 81.8402Z" fill="#0F0F0F"/>
<path d="M6.13559 58.9222L16.9856 66.2722L58.6354 66.9722L66.6854 64.5222L72.2853 61.0222L76.8353 56.8222L79.9853 49.4723L81.7353 39.6723L84.1853 36.8723H96.7852L97.8352 34.7723L95.0353 29.1724L76.8353 21.4724L75.0853 23.5724L74.0353 27.7724L75.0853 30.5723L71.2353 36.1723L65.6354 42.1223L60.7354 43.8723L52.6854 40.3723L46.7354 39.6723L38.3355 38.9723L29.2355 40.3723L21.5355 43.1723L15.5856 47.0223L14.1856 45.6223L11.0356 38.9723L6.83559 29.8723L2.9856 23.9224L1.93561 36.8723V48.4223L6.13559 58.9222Z" fill="#0F0F0F" stroke="black"/>
<path d="M94.54 27.0606L93.7278 24.598C93.4761 23.8345 92.6531 23.4197 91.8898 23.6716C91.1268 23.9231 90.7123 24.7454 90.963 25.5083L88.8118 24.6744L88.33 22.5911C88.1488 21.8079 87.3667 21.3202 86.5841 21.5011C85.801 21.6823 85.3129 22.464 85.4942 23.2471L85.5302 23.4023L82.555 22.2491L80.249 17.7875C79.8797 17.0731 79.001 16.7939 78.2878 17.1627C77.5737 17.5317 77.2941 18.4099 77.6629 19.1238L78.4572 20.6608L73.2723 18.6511C72.6822 18.4229 72.013 18.6007 71.6153 19.0923C71.2174 19.5836 71.1822 20.2755 71.5282 20.8046L73.6147 23.9958L70.1704 24.5896C69.5675 24.6935 69.0939 25.1634 68.9854 25.7656C68.8767 26.3677 69.1565 26.9733 69.685 27.2813L73.644 29.5875L73.4604 29.893L67.7717 29.6155C66.9686 29.576 66.2864 30.1954 66.2472 30.9984C66.2081 31.8011 66.827 32.4838 67.6301 32.5229L71.7596 32.7242L70.4998 34.8213C69.3663 36.7064 67.9128 38.3521 66.1808 39.7115C64.5833 40.9623 62.8094 41.9239 60.9018 42.5737L55.8184 40.3842C55.8065 40.3793 55.7948 40.3743 55.7829 40.3697C46.122 36.5052 35.4405 36.4011 25.7055 40.0761C24.9533 40.3599 24.5739 41.1998 24.8578 41.9518C25.1416 42.7039 25.9813 43.0834 26.7334 42.7996C35.7795 39.3845 45.7063 39.4795 54.6847 43.0656L60.2538 45.4641C60.5721 45.6011 60.9285 45.6203 61.2584 45.5183C63.6979 44.7659 65.958 43.5834 67.9769 42.0026C69.9897 40.4227 71.6777 38.5113 72.9946 36.3211L73.9087 34.7995L74.4657 35.6617C75.4449 37.1769 77.1065 38.0815 78.9101 38.0815H80.8004C80.506 38.6541 80.3091 39.289 80.2344 39.9676L79.7416 44.4033C79.2621 48.7076 77.6237 52.8054 75.0028 56.2534C74.5162 56.8934 74.6408 57.8064 75.2809 58.293C75.5441 58.493 75.8534 58.5896 76.1604 58.5896C76.5997 58.5896 77.034 58.3915 77.3203 58.0148C80.2595 54.1481 82.097 49.5529 82.6348 44.7251L83.1279 40.2878C83.2666 39.0304 84.3088 38.0947 85.5667 38.0815H85.6674C85.6691 38.0815 85.6707 38.0813 85.6724 38.0813L97.7531 38.3056C98.1512 38.3131 98.521 38.1628 98.7998 37.8891C99.0787 37.6152 99.2357 37.2412 99.2357 36.8503V35.3951C99.2345 31.977 97.4016 28.8093 94.54 27.0606ZM78.9095 35.1706C78.0978 35.1706 77.3503 34.7635 76.9097 34.0817L75.5777 32.0201L76.8982 29.822C77.0986 29.4882 77.1574 29.088 77.0606 28.7109C76.9637 28.3336 76.7199 28.0109 76.3836 27.8149L74.6048 26.7789L76.2923 26.4879C76.7752 26.4047 77.184 26.0839 77.3796 25.6345C77.5752 25.185 77.5314 24.6675 77.2633 24.2573L76.4425 23.0019L91.9535 29.0139C94.5591 30.0237 96.3125 32.5748 96.324 35.3677L78.9095 35.1706Z" fill="white"/>
<path d="M87.2875 30.3103L85.3468 29.3401C84.6285 28.9806 83.7534 29.2721 83.3943 29.9908C83.0346 30.7097 83.3262 31.5841 84.0453 31.9433L85.9859 32.9136C86.1947 33.0179 86.4169 33.0675 86.6355 33.0675C87.1694 33.0675 87.6835 32.7725 87.9384 32.2626C88.2979 31.5441 88.0064 30.6696 87.2875 30.3103Z" fill="white"/>
<path d="M72.5509 59.0092C73.1216 58.4595 74.0413 58.4172 74.6129 58.9675C75.2093 59.5421 75.2062 60.4913 74.6159 61.0624C73.857 61.7974 73.0481 62.4901 72.205 63.1323C67.3807 66.4641 60.9045 68.1114 58.2695 68.5186C57.496 68.5859 56.7149 68.6202 55.9368 68.6202H52.6766L49.7656 68.6198H41.8644L21.175 67.9811C10.0797 67.3851 1.23566 58.1703 1.23566 46.928V21.923C1.23566 21.2982 1.60468 20.7114 2.19268 20.4997C2.90987 20.2413 3.6862 20.5722 4.00508 21.241L15.6051 45.5742L16.5621 44.9045C18.0088 43.8919 19.5345 42.9632 21.0973 42.144C21.8231 41.7635 22.724 42.0566 23.0839 42.8007C23.4286 43.5139 23.1038 44.3777 22.4026 44.7464C20.9654 45.5022 19.5622 46.3576 18.231 47.2896C16.7591 48.3197 15.4195 49.5271 14.2429 50.8847L12.8636 52.476C12.5758 52.8083 12.1706 52.9783 11.7631 52.9783C11.417 52.9783 11.0692 52.8556 10.7904 52.6048C10.1934 52.0681 10.1752 51.1333 10.7012 50.5268L13.3075 47.5196L4.14634 28.3025V46.9282C4.14634 56.3998 11.4296 64.2009 20.6894 65.0281C20.6882 64.9871 20.6859 64.9464 20.685 64.9052L41.8646 65.7095H56.0564C59.0449 65.4796 66.1682 64.13 70.7536 60.5709C71.3776 60.0788 71.9805 59.5584 72.5509 59.0092Z" fill="white"/>
<path d="M18.3856 63.1223L22.9355 56.1223L36.9355 62.4223V71.8722L36.5855 75.0222L34.8355 79.2222L29.9355 82.3722L26.4355 84.1222L26.0855 90.0722L27.4855 90.7722L29.9355 91.8222L30.9855 93.9222L29.9355 94.6222H23.9855L21.1855 93.9222L20.4856 91.8222V89.0222L20.1356 83.4222L21.1855 78.5222L25.0355 75.3722L24.3355 73.2722L19.4356 68.7223L18.3856 63.1223Z" fill="#0F0F0F"/>
<path d="M37.1071 61.2572C37.9037 61.2809 38.5179 61.9759 38.5179 62.7729V65.385L38.5177 68.2953V72.5129C38.5177 75.0942 37.7146 77.4906 36.3472 79.4684L33.4365 82.4456C31.7878 83.641 29.8322 84.4378 27.7111 84.6897V89.5714C30.6252 89.5793 32.9927 91.9544 32.9887 94.8712C32.9875 95.6717 32.3337 96.319 31.5332 96.319H24.2886C21.2401 96.319 18.7685 93.8476 18.7685 90.7989V81.3724C18.7685 79.4509 19.6731 77.6412 21.2104 76.4884L23.6931 74.6262L22.6381 73.9594C20.2961 72.4796 18.6121 70.2346 17.8283 67.6566C17.6664 67.241 17.3427 66.0685 17.3427 64.7036C17.3416 64.6627 17.3393 64.6219 17.3383 64.5808C17.2558 60.7529 19.0845 57.1646 22.2302 54.9818C22.908 54.5119 23.8445 54.6967 24.2901 55.4001C24.7085 56.0606 24.498 56.947 23.8575 57.3956C21.3524 59.1506 19.9803 62.1078 20.289 65.1919C20.5522 67.8212 22.0752 70.1608 24.3091 71.5724L27.0333 73.2938C27.5645 73.6292 27.8345 74.2794 27.6573 74.9214C27.5694 75.24 27.3625 75.5136 27.098 75.7119L22.9574 78.8174C22.1573 79.4172 21.6797 80.3725 21.6797 81.3724V90.7993C21.6797 92.2402 22.8477 93.4083 24.2888 93.4083H29.5805C29.1445 92.8454 28.4621 92.4823 27.6967 92.4823H26.2558C25.4521 92.4823 24.8004 91.8306 24.8004 91.0269V83.3202C24.8004 82.5253 25.438 81.8628 26.2329 81.8647C31.3996 81.8772 35.6071 77.6776 35.6071 72.5135V62.7121C35.6071 61.8933 36.2829 61.2325 37.1071 61.2572Z" fill="white"/>
<path d="M55.2707 65.8972L51.2689 56.4909L54.4086 51.5347L56.7751 52.1688L59.8598 55.5318L60.9759 64.8894L62.5999 64.2376L66.838 64.6485C67.2284 64.9946 68.1443 65.7232 68.6853 65.8681C69.2262 66.0131 69.2201 71.0843 69.1495 73.6018L67.4348 74.5917L65.9256 73.4626L64.0363 69.6953L60.2027 70.4798L57.16 69.6645L55.2707 65.8972Z" fill="#0F0F0F"/>
<path d="M69.0373 64.2409C69.3559 64.5331 69.6299 64.866 69.8563 65.2272C70.3205 65.8279 70.5439 67.3832 70.5976 68.0857L70.6301 73.0452C70.6397 74.4813 69.7066 75.6664 68.3083 75.994C67.7957 76.1139 67.288 76.103 66.8193 75.9775C66.0093 75.7604 65.3166 75.2011 64.9179 74.3833L63.3419 71.151L60.4076 71.9132C58.4842 72.4127 56.5263 71.4772 55.6968 69.6867L54.2831 66.3889L50.1102 56.609C49.7879 55.8536 50.1515 54.9778 50.9217 54.6761C51.6659 54.3846 52.506 54.784 52.8197 55.5192L58.3267 68.4255C58.552 68.9528 59.118 69.2313 59.6733 69.0871L63.7635 68.0248C64.436 67.8498 65.1385 68.1738 65.4429 68.798L67.5424 73.1038C67.5606 73.1413 67.5738 73.1522 67.5738 73.1522C67.6027 73.166 67.6844 73.1466 67.7041 73.1207C67.7041 73.1207 67.7103 73.1048 67.71 73.0644L67.6756 67.8323C67.6721 67.309 67.4788 66.7953 67.1034 66.4309C66.7067 66.0459 66.1831 65.8575 65.6348 65.9008L60.9603 66.2719C60.1693 66.3346 59.472 65.753 59.3923 64.9628L58.6555 57.65C58.4142 55.253 56.678 53.2765 54.3297 52.7276C53.4933 52.5295 52.9921 51.6518 53.2857 50.8164C53.5366 50.1024 54.3186 49.721 55.0542 49.8984C58.5876 50.7498 61.1966 53.7391 61.5609 57.3571L62.1542 63.2477L65.4041 62.9897C66.7315 62.8842 68.056 63.3403 69.0373 64.2409Z" fill="white"/>
<path d="M131.079 18.6401L132.307 21.8642H129.928L131.079 18.6401H131.079ZM130.618 17.5602L127.932 24.6204H128.929L129.62 22.7024H132.613L133.303 24.6204H134.301L131.615 17.5602H130.617H130.618ZM145.119 24.6266H146.045V17.5654H145.119V24.6256V24.6266ZM135.683 20.4769C135.99 20.0161 136.609 19.6325 137.218 19.6325C138.446 19.6325 139.06 20.4769 139.06 21.7048V24.6976H138.135V21.8581C138.135 20.8605 137.597 20.4763 136.907 20.4763C136.139 20.4763 135.602 21.2441 135.602 21.9347V24.6209H134.676V19.7158H135.602L135.679 20.4835L135.683 20.4769ZM139.828 23.1683C139.828 22.0884 140.825 21.4796 141.977 21.4796C142.668 21.4796 143.129 21.6339 143.282 21.7866V21.6323C143.282 20.8646 142.668 20.4805 142.054 20.4805C141.517 20.4805 141.056 20.7108 140.902 21.1711L140.058 20.7874C140.212 20.3267 140.825 19.6356 142.053 19.6356C143.205 19.6356 144.202 20.3262 144.202 21.7079V24.6245H143.358V23.934H143.281C143.05 24.3176 142.513 24.7783 141.669 24.7783C140.672 24.7783 139.827 24.1643 139.827 23.1667M143.281 22.5528C143.281 22.5528 142.897 22.2458 142.129 22.2458C141.203 22.2458 140.824 22.7831 140.824 23.1714C140.824 23.7087 141.362 23.9391 141.822 23.9391C142.513 23.9391 143.28 23.3251 143.28 22.5574" fill="white"/>
<path fill-rule="evenodd" clip-rule="evenodd" d="M147.35 26.776L148.43 24.2435L146.512 19.7919H147.437L148.896 23.1688L150.354 19.7919H151.279L148.287 26.776H147.361H147.35ZM160.858 21.4025C160.628 20.7885 160.091 20.4049 159.554 20.4049C158.786 20.4049 158.095 21.0955 158.095 22.0936C158.095 23.0917 158.786 23.7823 159.554 23.7823C160.091 23.7823 160.634 23.3987 160.858 22.8567L161.626 23.3174C161.242 24.1618 160.474 24.6991 159.554 24.6991C158.249 24.6991 157.174 23.5473 157.174 22.0895C157.174 20.5545 158.254 19.4798 159.554 19.4798C160.479 19.4798 161.242 20.0172 161.626 20.8615L160.858 21.3989V21.4025Z" fill="white"/>
<path d="M164.158 24.7799C165.386 24.7799 166 24.0893 166 23.245C166 21.403 163.314 22.0931 163.314 21.0194C163.314 20.6358 163.621 20.4054 164.158 20.4054C164.695 20.4054 165.238 20.6358 165.463 21.0194L166 20.4821C165.693 20.0985 164.848 19.5565 164.082 19.5565C162.93 19.5565 162.317 20.2471 162.317 21.0914C162.317 22.8567 165.08 22.2433 165.08 23.1637C165.08 23.6245 164.773 23.9314 164.154 23.9314C163.535 23.9314 163.228 23.5478 162.926 23.1637L162.244 23.7062C162.705 24.167 163.396 24.7861 164.162 24.7861L164.158 24.7799ZM155.409 24.6267H156.334V19.7149H155.409V24.6267Z" fill="white"/>
<path fill-rule="evenodd" clip-rule="evenodd" d="M155.792 17.3402C156.176 17.3402 156.406 17.6472 156.406 17.9542C156.406 18.3378 156.099 18.5682 155.792 18.5682C155.485 18.5682 155.178 18.2612 155.178 17.9542C155.178 17.6472 155.485 17.3402 155.792 17.3402ZM154.488 23.8641L154.642 24.5547H153.716C152.872 24.5547 152.488 23.9408 152.488 23.0198V20.6312H151.563V19.7056H152.488V18.2566H153.414V19.7149H154.494V20.6405H153.414V23.173C153.414 23.8636 153.951 23.8636 154.494 23.8636L154.488 23.8641Z" fill="white"/>
<path d="M132.598 9.75948V10.9113H135.285C135.208 11.5253 134.978 11.9912 134.671 12.293C134.287 12.6766 133.673 13.1374 132.598 13.1374C130.987 13.1374 129.682 11.8328 129.682 10.1446C129.682 8.53307 130.986 7.15188 132.598 7.15188C133.524 7.15188 134.133 7.53549 134.594 7.91961L135.361 7.15188C134.671 6.5379 133.826 6.00003 132.598 6.00003C130.373 6.00003 128.454 7.84196 128.454 10.0624C128.454 12.2828 130.372 14.1247 132.598 14.1247C133.826 14.1247 134.748 13.7411 135.438 12.9728C136.206 12.2051 136.436 11.2075 136.436 10.3632C136.436 10.1328 136.436 9.82582 136.358 9.67258H132.598L132.598 9.75948ZM139.428 8.83389C137.97 8.83389 136.819 9.91375 136.819 11.4436C136.819 12.9734 137.97 14.0532 139.428 14.0532C139.772 14.0563 140.113 13.9909 140.431 13.8609C140.749 13.7308 141.037 13.5387 141.28 13.2957C141.523 13.0528 141.716 12.7639 141.846 12.4459C141.976 12.1279 142.041 11.7871 142.038 11.4436C142.038 9.90861 140.886 8.83389 139.428 8.83389ZM139.428 13.0505C138.661 13.0505 137.97 12.3599 137.97 11.4389C137.97 10.518 138.661 9.8325 139.428 9.8325C140.196 9.8325 140.887 10.4496 140.887 11.442C140.887 12.4344 140.196 13.0536 139.429 13.0536L139.428 13.0505ZM152.011 9.37073C151.704 9.06375 151.243 8.75676 150.553 8.75676C149.248 8.75676 148.097 9.90861 148.097 11.3664C148.097 12.8242 149.249 13.9761 150.553 13.9761C151.167 13.9761 151.705 13.6691 151.935 13.3621H152.012V13.7457C152.012 14.7433 151.474 15.2807 150.63 15.2807C149.939 15.2807 149.478 14.7433 149.325 14.3551L148.328 14.7387C148.635 15.4293 149.408 16.2736 150.631 16.2736C152.012 16.2736 153.163 15.5059 153.163 13.5107V8.75264H152.083V9.36662L152.011 9.37073ZM150.707 13.0546C149.939 13.0546 149.325 12.364 149.325 11.443C149.325 10.5221 149.939 9.83147 150.707 9.83147C151.474 9.83147 152.088 10.5221 152.088 11.443C152.088 12.364 151.474 13.0546 150.707 13.0546ZM145.103 8.838C143.645 8.838 142.494 9.91786 142.494 11.4477C142.494 12.9775 143.645 14.0573 145.103 14.0573C145.447 14.0604 145.787 13.995 146.105 13.865C146.424 13.7349 146.712 13.5428 146.955 13.2999C147.198 13.0569 147.39 12.768 147.52 12.45C147.651 12.132 147.716 11.7912 147.713 11.4477C147.79 9.91272 146.561 8.838 145.103 8.838ZM145.103 13.0546C144.335 13.0546 143.645 12.364 143.645 11.443C143.645 10.5221 144.335 9.83147 145.103 9.83147C145.871 9.83147 146.561 10.4455 146.561 11.443C146.561 12.4406 145.871 13.0546 145.103 13.0546ZM154.017 6.07562H155.168V14.0573H154.017V6.07562ZM158.314 13.0597C157.701 13.0597 157.317 12.7528 157.01 12.292L160.541 10.8337L160.386 10.5267C160.156 9.91272 159.461 8.838 158.161 8.838C156.779 8.838 155.705 9.91786 155.705 11.4477C155.702 11.7912 155.767 12.132 155.897 12.45C156.027 12.768 156.219 13.0569 156.462 13.2999C156.705 13.5428 156.994 13.7349 157.312 13.865C157.63 13.995 157.971 14.0604 158.314 14.0573C159.542 14.0573 160.233 13.2896 160.54 12.9055L159.614 12.2915C159.307 12.7522 158.924 13.0592 158.31 13.0592L158.314 13.0597ZM158.237 9.83559C158.698 9.83559 159.082 10.066 159.235 10.4496L156.856 11.4471C156.856 10.2953 157.623 9.83559 158.237 9.83559Z" fill="white"/>
<path d="M121.235 8.58404V22.0655C121.235 23.574 122.276 24.4145 123.379 24.4145C124.401 24.4145 125.524 23.6996 125.524 22.0655V8.68618C125.524 7.30331 124.503 6.43927 123.379 6.43927C122.256 6.43927 121.235 7.39216 121.235 8.58404Z" fill="white"/>
<path d="M115.617 15.4268V22.0654C115.617 23.5739 116.659 24.4144 117.762 24.4144C118.783 24.4144 119.907 23.6995 119.907 22.0654V15.5289C119.907 14.1461 118.886 13.282 117.762 13.282C116.639 13.282 115.617 14.2349 115.617 15.4268Z" fill="white"/>
<path d="M112.145 24.4144C113.329 24.4144 114.29 23.4542 114.29 22.2697C114.29 21.0851 113.329 20.1249 112.145 20.1249C110.96 20.1249 110 21.0851 110 22.2697C110 23.4542 110.96 24.4144 112.145 24.4144Z" fill="white"/>
<path d="M137.451 92.4291L129.932 64.3679L145.284 60.2544L149.069 74.379C150.14 78.3771 148.129 82.4874 144.499 84.1758L145.773 88.9295C148.59 88.1838 151.491 89.865 152.242 92.6829C152.448 93.4563 151.984 94.2508 151.21 94.458L144.213 96.333C141.268 97.1221 138.24 95.3743 137.451 92.4291Z" fill="white"/>
<path d="M142.372 81.8624C145.299 81.0783 147.041 78.0589 146.257 75.1319L143.016 63.0362L133.287 65.643L140.263 91.6752C140.635 93.0652 142.069 93.8933 143.459 93.5208L148.57 92.1514C148.003 91.7207 147.25 91.5467 146.511 91.7447L145.12 92.1174C144.344 92.3255 143.546 91.8646 143.338 91.0883L141.343 83.6449C141.135 82.8686 141.596 82.0704 142.372 81.8624Z" fill="#0F0F0F"/>
<path d="M106.136 58.9222L116.986 66.2722L158.635 66.9722L166.685 64.5222L172.285 61.0222L176.835 56.8222L179.985 49.4723L181.735 39.6723L184.185 36.8723H196.785L197.835 34.7723L195.035 29.1724L176.835 21.4724L175.085 23.5724L174.035 27.7724L175.085 30.5723L171.235 36.1723L165.635 42.1223L160.735 43.8723L152.685 40.3723L146.735 39.6723L138.336 38.9723L129.236 40.3723L121.536 43.1723L115.586 47.0223L114.186 45.6223L111.036 38.9723L106.836 29.8723L102.986 23.9224L101.936 36.8723V48.4223L106.136 58.9222Z" fill="#0F0F0F" stroke="black"/>
<path d="M194.54 27.0606L193.728 24.598C193.476 23.8345 192.653 23.4197 191.89 23.6716C191.127 23.9231 190.712 24.7454 190.963 25.5083L188.812 24.6744L188.33 22.5911C188.149 21.8079 187.367 21.3202 186.584 21.5011C185.801 21.6823 185.313 22.464 185.494 23.2471L185.53 23.4023L182.555 22.2491L180.249 17.7875C179.88 17.0731 179.001 16.7939 178.288 17.1627C177.574 17.5317 177.294 18.4099 177.663 19.1238L178.457 20.6608L173.272 18.6511C172.682 18.4229 172.013 18.6007 171.615 19.0923C171.217 19.5836 171.182 20.2755 171.528 20.8046L173.615 23.9958L170.17 24.5896C169.567 24.6935 169.094 25.1634 168.985 25.7656C168.877 26.3677 169.156 26.9733 169.685 27.2813L173.644 29.5875L173.46 29.893L167.772 29.6155C166.969 29.576 166.286 30.1954 166.247 30.9984C166.208 31.8011 166.827 32.4838 167.63 32.5229L171.76 32.7242L170.5 34.8213C169.366 36.7064 167.913 38.3521 166.181 39.7115C164.583 40.9623 162.809 41.9239 160.902 42.5737L155.818 40.3842C155.806 40.3793 155.795 40.3743 155.783 40.3697C146.122 36.5052 135.44 36.4011 125.705 40.0761C124.953 40.3599 124.574 41.1998 124.858 41.9518C125.142 42.7039 125.981 43.0834 126.733 42.7996C135.779 39.3845 145.706 39.4795 154.685 43.0656L160.254 45.4641C160.572 45.6011 160.928 45.6203 161.258 45.5183C163.698 44.7659 165.958 43.5834 167.977 42.0026C169.99 40.4227 171.678 38.5113 172.995 36.3211L173.909 34.7994L174.466 35.6617C175.445 37.1769 177.106 38.0815 178.91 38.0815H180.8C180.506 38.6541 180.309 39.289 180.234 39.9676L179.742 44.4033C179.262 48.7076 177.624 52.8054 175.003 56.2534C174.516 56.8934 174.641 57.8064 175.281 58.293C175.544 58.493 175.853 58.5896 176.16 58.5896C176.6 58.5896 177.034 58.3915 177.32 58.0148C180.259 54.1481 182.097 49.5529 182.635 44.7251L183.128 40.2878C183.267 39.0304 184.309 38.0947 185.567 38.0815H185.667C185.669 38.0815 185.671 38.0813 185.672 38.0813L197.753 38.3056C198.151 38.3131 198.521 38.1628 198.8 37.8891C199.079 37.6152 199.236 37.2412 199.236 36.8503V35.3951C199.234 31.977 197.402 28.8093 194.54 27.0606ZM178.909 35.1706C178.098 35.1706 177.35 34.7635 176.91 34.0817L175.578 32.0201L176.898 29.822C177.099 29.4882 177.157 29.088 177.061 28.7109C176.964 28.3336 176.72 28.0109 176.384 27.8149L174.605 26.7789L176.292 26.4879C176.775 26.4047 177.184 26.0839 177.38 25.6345C177.575 25.185 177.531 24.6675 177.263 24.2573L176.442 23.0019L191.953 29.0139C194.559 30.0237 196.313 32.5748 196.324 35.3677L178.909 35.1706Z" fill="white"/>
<path d="M187.287 30.3103L185.347 29.3401C184.628 28.9806 183.753 29.2721 183.394 29.9908C183.035 30.7097 183.326 31.5841 184.045 31.9433L185.986 32.9136C186.195 33.0179 186.417 33.0675 186.636 33.0675C187.169 33.0675 187.683 32.7725 187.938 32.2626C188.298 31.5441 188.006 30.6696 187.287 30.3103Z" fill="white"/>
<path d="M172.551 59.0092C173.122 58.4595 174.041 58.4172 174.613 58.9675C175.209 59.5421 175.206 60.4913 174.616 61.0624C173.857 61.7974 173.048 62.4901 172.205 63.1323C167.381 66.4641 160.905 68.1114 158.269 68.5186C157.496 68.5859 156.715 68.6202 155.937 68.6202H152.677L149.766 68.6198H141.864L121.175 67.9811C110.08 67.3851 101.236 58.1703 101.236 46.928V21.923C101.236 21.2982 101.605 20.7114 102.193 20.4997C102.91 20.2413 103.686 20.5722 104.005 21.241L115.605 45.5742L116.562 44.9045C118.009 43.8919 119.534 42.9632 121.097 42.144C121.823 41.7635 122.724 42.0566 123.084 42.8007C123.429 43.5139 123.104 44.3777 122.403 44.7464C120.965 45.5022 119.562 46.3576 118.231 47.2896C116.759 48.3197 115.419 49.5271 114.243 50.8847L112.864 52.476C112.576 52.8083 112.171 52.9783 111.763 52.9783C111.417 52.9783 111.069 52.8556 110.79 52.6048C110.193 52.0681 110.175 51.1333 110.701 50.5268L113.308 47.5196L104.146 28.3025V46.9282C104.146 56.3998 111.43 64.2009 120.689 65.0281C120.688 64.9871 120.686 64.9464 120.685 64.9052L141.865 65.7095H156.056C159.045 65.4796 166.168 64.13 170.754 60.5709C171.378 60.0788 171.98 59.5584 172.551 59.0092Z" fill="white"/>
<path d="M119.92 61.0753L126.126 55.4915L138.019 65.2002L135.573 74.3282L134.419 77.2803L131.642 80.8842L126.094 82.6586L122.26 83.4431L120.382 89.0998L121.553 90.1383L123.648 91.7866L124.119 94.0868L122.923 94.4912L117.176 92.9512L114.653 91.5504L114.52 89.3408L115.245 86.6362L116.356 81.1364L118.638 76.6752L123.172 74.629L123.04 72.4194L119.484 66.7562L119.92 61.0753Z" fill="#0F0F0F"/>
<path d="M138.486 64.1193C139.249 64.3484 139.663 65.1787 139.456 65.9485L138.78 68.4716L138.027 71.2827L136.935 75.3565C136.267 77.8499 134.871 79.9567 133.039 81.5132L129.456 83.6357C127.555 84.3636 125.459 84.6271 123.345 84.3214L122.082 89.0368C124.895 89.7986 126.567 92.7056 125.808 95.522C125.6 96.2948 124.801 96.7509 124.027 96.5437L117.03 94.6687C114.085 93.8796 112.337 90.8528 113.126 87.908L115.566 78.8027C116.063 76.9467 117.405 75.4327 119.189 74.7171L122.069 73.5609L121.222 72.6437C119.343 70.6083 118.298 68.0039 118.208 65.3109C118.159 64.8675 118.15 63.6512 118.503 62.3329C118.513 62.293 118.521 62.253 118.531 62.213C119.442 58.4942 122.137 55.5015 125.74 54.2073C126.516 53.9288 127.373 54.3496 127.622 55.1444C127.855 55.8907 127.422 56.6924 126.687 56.96C123.813 58.0069 121.723 60.5081 121.223 63.567C120.796 66.1749 121.662 68.8289 123.454 70.7706L125.64 73.1385C126.066 73.5999 126.159 74.2978 125.822 74.872C125.654 75.1571 125.384 75.3678 125.077 75.4908L120.273 77.4189C119.345 77.7912 118.637 78.5904 118.378 79.5562L115.938 88.6618C115.565 90.0536 116.391 91.4842 117.783 91.8572L122.895 93.2268C122.619 92.5702 122.054 92.0429 121.315 91.8448L119.923 91.4719C119.146 91.2638 118.686 90.4656 118.894 89.6893L120.888 82.2452C121.094 81.4774 121.881 81.0025 122.649 81.2101C127.636 82.5594 132.787 79.5919 134.124 74.6038L136.66 65.1363C136.872 64.3454 137.696 63.8821 138.486 64.1193Z" fill="white"/>
<path d="M162.423 65.2237L154.255 59.0786L154.496 53.2165L156.862 52.5824L161.215 53.9525L166.86 61.4984L167.941 60.1219L171.817 58.3587C172.328 58.4633 173.485 58.6362 174.026 58.4913C174.567 58.3464 177.097 62.7412 178.295 64.9567L177.305 66.6714L175.434 66.4482L171.914 64.1302L168.986 66.7264L165.943 67.5417L162.423 65.2237Z" fill="#0F0F0F"/>
<path d="M173.517 56.906C173.94 56.9999 174.343 57.1511 174.72 57.3507C175.422 57.6389 176.393 58.8741 176.791 59.4556L179.299 63.7344C180.025 64.9733 179.81 66.4662 178.763 67.4491C178.379 67.8091 177.934 68.0536 177.465 68.1792C176.655 68.3963 175.775 68.2583 175.021 67.7493L172.04 65.7381L169.88 67.8653C168.464 69.2596 166.301 69.4284 164.687 68.2925L161.814 66.1434L153.31 59.7602C152.653 59.2671 152.53 58.3269 153.047 57.6805C153.545 57.056 154.473 56.9818 155.112 57.4617L166.334 65.8853C166.793 66.2293 167.422 66.1875 167.831 65.785L170.842 62.8199C171.337 62.3321 172.107 62.2615 172.683 62.6498L176.654 65.329C176.689 65.3524 176.706 65.3552 176.706 65.3552C176.738 65.3528 176.799 65.2951 176.803 65.2628C176.803 65.2628 176.8 65.246 176.78 65.2111L174.134 60.6972C173.869 60.2457 173.445 59.8975 172.938 59.7696C172.402 59.6346 171.854 59.7332 171.401 60.0449L167.538 62.7034C166.884 63.1533 165.99 62.9983 165.526 62.3538L161.231 56.3891C159.824 54.4339 157.332 53.5903 155.024 54.2891C154.2 54.5357 153.327 54.0262 153.164 53.1559C153.024 52.4121 153.511 51.6908 154.237 51.4767C157.722 50.4473 161.476 51.7316 163.601 54.6828L167.06 59.4874L169.745 57.6391C170.842 56.884 172.217 56.6168 173.517 56.906Z" fill="white"/>
</svg>
