<svg width="101" height="101" viewBox="0 0 101 101" fill="none" xmlns="http://www.w3.org/2000/svg">
<g clip-path="url(#clip0_766_813)">
<path d="M96.1609 19.8274L95.3239 17.2894C95.0645 16.5025 94.2163 16.075 93.4296 16.3346C92.6433 16.5939 92.216 17.4413 92.4745 18.2276L90.2574 17.3681L89.7609 15.2211C89.5741 14.4139 88.7681 13.9113 87.9614 14.0977C87.1544 14.2845 86.6514 15.0901 86.8382 15.8971L86.8753 16.0571L83.809 14.8686L81.4324 10.2704C81.0519 9.53417 80.1462 9.24636 79.4112 9.62649C78.6752 10.0068 78.387 10.9119 78.7672 11.6477L79.5858 13.2317L74.2421 11.1604C73.634 10.9253 72.9443 11.1085 72.5344 11.6151C72.1243 12.1215 72.088 12.8346 72.4447 13.3798L74.595 16.6688L71.0453 17.2807C70.4239 17.3878 69.9358 17.8721 69.824 18.4927C69.712 19.1133 70.0004 19.7375 70.545 20.0549L74.6252 22.4317L74.436 22.7465L68.5731 22.4605C67.7454 22.4199 67.0424 23.0582 67.0019 23.8857C66.9617 24.713 67.5995 25.4167 68.4272 25.4569L72.6831 25.6645L71.3847 27.8257C70.2166 29.7685 68.7185 31.4646 66.9335 32.8656C65.2871 34.1547 63.4589 35.1457 61.4929 35.8155L56.2538 33.559C56.2416 33.5538 56.2295 33.5487 56.2173 33.544C46.2606 29.5612 35.2521 29.4539 25.219 33.2414C24.4438 33.5339 24.0528 34.3995 24.3454 35.1745C24.6379 35.9496 25.5033 36.3408 26.2783 36.0482C35.6014 32.5286 45.8321 32.6265 55.0854 36.3224L60.825 38.7943C61.1531 38.9356 61.5204 38.9553 61.8604 38.8502C64.3746 38.0747 66.7039 36.856 68.7846 35.2268C70.859 33.5986 72.5987 31.6287 73.9559 29.3714L74.898 27.8032L75.4721 28.6919C76.4813 30.2534 78.1937 31.1857 80.0525 31.1857H82.0007C81.6973 31.7759 81.4943 32.4302 81.4174 33.1295L80.9094 37.7011C80.4153 42.1372 78.7267 46.3604 76.0256 49.9139C75.5241 50.5736 75.6526 51.5145 76.3122 52.016C76.5834 52.2221 76.9022 52.3217 77.2186 52.3217C77.6714 52.3217 78.119 52.1176 78.4141 51.7293C81.4432 47.7442 83.337 43.0083 83.8913 38.0327L84.3994 33.4595C84.5425 32.1637 85.6166 31.1993 86.913 31.1857H87.0167C87.0185 31.1857 87.0201 31.1855 87.0219 31.1855L99.4724 31.4167C99.8827 31.4244 100.264 31.2695 100.551 30.9874C100.839 30.7051 101 30.3197 101 29.9169V28.4171C100.999 24.8943 99.1102 21.6296 96.1609 19.8274ZM80.0519 28.1857C79.2153 28.1857 78.445 27.7661 77.9909 27.0634L76.6182 24.9387L77.9791 22.6733C78.1856 22.3293 78.2462 21.9168 78.1464 21.5282C78.0466 21.1394 77.7952 20.8068 77.4487 20.6048L75.6155 19.537L77.3546 19.2372C77.8522 19.1514 78.2736 18.8208 78.4752 18.3576C78.6768 17.8944 78.6316 17.361 78.3553 16.9383L77.5094 15.6444L93.4953 21.8405C96.1806 22.8813 97.9878 25.5104 97.9996 28.3889L80.0519 28.1857Z" fill="white"/>
<path d="M88.6864 23.1764L86.6863 22.1764C85.946 21.806 85.0441 22.1064 84.674 22.8471C84.3034 23.588 84.6038 24.4891 85.3449 24.8594L87.345 25.8593C87.5602 25.9669 87.7892 26.0179 88.0145 26.0179C88.5647 26.0179 89.0945 25.714 89.3573 25.1884C89.7277 24.4479 89.4273 23.5466 88.6864 23.1764Z" fill="white"/>
<path d="M75.6237 52.7111C75.0347 52.144 74.0869 52.1876 73.4986 52.7541C72.9108 53.3201 72.2894 53.8564 71.6463 54.3636C71.3256 54.0654 70.9652 53.8079 70.5712 53.6026C69.3579 52.9697 67.9222 52.8693 66.6328 53.327L63.4762 54.4473L61.3209 48.7591C59.9973 45.2654 56.6132 42.9925 52.8802 43.0872C52.103 43.1067 51.4283 43.6932 51.3691 44.4684C51.2999 45.3757 52.0308 46.1134 52.9135 46.0876C55.39 46.0079 57.6386 47.5077 58.5154 49.8224L61.1913 56.8839C61.4805 57.6469 62.3272 58.0386 63.0955 57.766L67.6359 56.1548C68.1685 55.966 68.7382 56.0137 69.2344 56.2903C69.7039 56.5521 70.0323 57.0105 70.1749 57.5289L71.6004 62.7122C71.6114 62.7523 71.6092 62.7696 71.6094 62.7696C71.5968 62.8006 71.5209 62.8416 71.4885 62.8355C71.4883 62.8355 71.4725 62.8282 71.4445 62.7959L68.2159 59.081C67.7478 58.5425 66.9644 58.4077 66.3437 58.7602L62.5668 60.9021C62.0542 61.1929 61.4184 61.067 61.0546 60.6037L52.1572 49.2596C51.6504 48.6134 50.7105 48.4404 50.0494 48.9276C49.3653 49.4318 49.2373 50.3976 49.7581 51.0616L56.5 59.6578C56.4994 59.659 56.4996 59.6584 56.4992 59.6596H41.8729V56.9675C41.8729 56.1461 41.2398 55.4298 40.4188 55.4054C39.5694 55.3799 38.8729 56.0609 38.8729 56.9048V67.0063C38.8729 72.3285 34.5366 76.6566 29.2117 76.6438C28.3924 76.6418 27.7353 77.3246 27.7353 78.1438V86.0864C27.7353 86.9148 28.407 87.5864 29.2353 87.5864H30.7203C31.5092 87.5864 32.2124 87.9606 32.6618 88.5408H27.208C25.7228 88.5408 24.5191 87.3369 24.5191 85.8519V76.1364C24.5191 75.1059 25.0113 74.1214 25.8359 73.5032L30.1033 70.3026C30.3759 70.0982 30.5891 69.8163 30.6797 69.4878C30.8624 68.8262 30.584 68.1561 30.0366 67.8105L27.229 66.0363C24.9267 64.5815 23.3571 62.1703 23.0858 59.4605C22.7676 56.282 24.1818 53.2343 26.7636 51.4256C27.4237 50.9632 27.6406 50.0496 27.2094 49.3689C26.7502 48.6439 25.785 48.4536 25.0865 48.9379C21.8444 51.1875 19.9598 54.8856 20.0448 58.8307C20.0458 58.8731 20.0481 58.9151 20.0493 58.9573C10.5061 58.1047 2.99979 50.0648 2.99979 40.3032V21.1073L12.4414 40.9128L9.7553 44.012C9.21322 44.6371 9.23196 45.6005 9.84723 46.1537C10.1346 46.4121 10.4931 46.5385 10.8497 46.5385C11.2697 46.5385 11.6873 46.3634 11.984 46.0209L13.4055 44.3809C14.6181 42.9817 15.9987 41.7373 17.5157 40.6757C18.8876 39.7152 20.3338 38.8336 21.815 38.0546C22.5376 37.6747 22.8724 36.7844 22.5171 36.0494C22.1462 35.2825 21.2177 34.9804 20.4697 35.3726C18.859 36.2169 17.2866 37.174 15.7957 38.2175L14.8094 38.9078L2.85421 13.8296C2.52557 13.1403 1.72547 12.7993 0.98632 13.0656C0.380325 13.2838 0 13.8886 0 14.5324V40.303C0 51.8895 9.11478 61.3864 20.5498 62.0007C21.3576 64.6576 23.0931 66.9714 25.5068 68.4964L26.5942 69.1837L24.0354 71.1029C22.451 72.291 21.5187 74.1561 21.5187 76.1364V85.8515C21.5187 88.9935 24.066 91.5406 27.2078 91.5406H34.6743C35.4992 91.5406 36.1731 90.8734 36.1743 90.0485C36.1784 87.0424 33.7385 84.5945 30.7351 84.5864V79.5552C32.9212 79.2956 34.9367 78.4744 36.6359 77.2425V85.8513C36.6359 88.9937 39.1834 91.5412 42.3258 91.5412H49.7918C50.6168 91.5412 51.2906 90.874 51.2918 90.0491C51.296 87.0436 48.8564 84.5961 45.8538 84.5872V79.5152C49.9179 78.8027 53.0159 75.2472 53.0159 70.9813V62.6594H56.3759C57.1778 62.6594 57.9828 62.624 58.78 62.5546C60.0793 64.111 62.2711 64.5188 64.0471 63.5115L66.7565 61.9748L69.1801 64.7636C69.7932 65.4692 70.6294 65.84 71.4911 65.84C71.9896 65.84 72.4963 65.7158 72.9731 65.4605C74.2737 64.7636 74.8846 63.3393 74.4932 61.9167L73.1422 57.0034C74.0111 56.3416 74.8448 55.6277 75.6269 54.8702C76.2353 54.2816 76.2384 53.3033 75.6237 52.7111ZM50.0157 70.9807H50.0155C50.0155 74.1038 47.4755 76.6448 44.3534 76.6448C43.5249 76.6448 42.8535 77.3165 42.8535 78.1448V86.0866C42.8535 86.915 43.5249 87.5866 44.3534 87.5866H45.8375C46.6261 87.5866 47.3292 87.9606 47.7783 88.5406H42.3256C40.8423 88.5406 39.6357 87.3337 39.6357 85.8507V74.1741C41.0449 72.1357 41.8727 69.666 41.8727 67.0057V62.659H50.0157V70.9807Z" fill="white"/>
</g>
<defs>
<clipPath id="clip0_766_813">
<rect width="101" height="101" fill="white"/>
</clipPath>
</defs>
</svg>
