<svg width="25" height="22" viewBox="0 0 25 22" fill="none" xmlns="http://www.w3.org/2000/svg">
<g clip-path="url(#clip0_152_1365)">
<path d="M1.60361e-06 10.8744C1.66636e-06 9.43882 0.176059 8.07504 0.528172 6.78303C0.903758 5.49103 1.44367 4.33061 2.14789 3.30179C2.85212 2.2969 3.72066 1.49538 4.75352 0.897226C5.78639 0.323001 6.98357 0.0239253 8.34507 -7.2801e-07C8.55634 -7.18775e-07 8.7324 0.0717776 8.87324 0.215334C9.03756 0.35889 9.11972 0.538335 9.11972 0.75367L9.11972 6.85481C9.11972 7.23763 9.03756 7.51278 8.87324 7.68026C8.70892 7.87167 8.43897 8.03915 8.06338 8.18271C7.5939 8.35019 7.19484 8.55356 6.8662 8.79282C6.56104 9.05601 6.33803 9.37901 6.19718 9.76183C6.05634 10.1446 5.98592 10.5873 5.98592 11.0897C5.98592 12.0228 6.27934 12.7406 6.8662 13.2431C7.45305 13.7694 8.38028 14.0326 9.64789 14.0326L18.8028 14.0326L18.8028 2.87113C18.8028 2.60794 18.885 2.38064 19.0493 2.18923C19.2371 2.02175 19.4601 1.93801 19.7183 1.93801L24.0845 1.93801C24.3427 1.93801 24.554 2.02175 24.7183 2.18923C24.9061 2.38064 25 2.60794 25 2.87113L25 21.0669C25 21.3301 24.9061 21.5454 24.7183 21.7129C24.554 21.9043 24.3427 22 24.0845 22L9.40141 22C7.31221 22 5.56338 21.5095 4.15493 20.5285C2.76995 19.5715 1.72535 18.2436 1.02113 16.5449C0.340378 14.87 1.51157e-06 12.9799 1.60361e-06 10.8744Z" fill="white"/>
</g>
<defs>
<clipPath id="clip0_152_1365">
<rect width="25" height="22" fill="white"/>
</clipPath>
</defs>
</svg>
