<svg width="35" height="31" viewBox="0 0 35 31" fill="none" xmlns="http://www.w3.org/2000/svg">
<path d="M0.12355 15.3196C0.12355 13.3996 0.363551 11.5756 0.843551 9.84763C1.35555 8.11963 2.09155 6.56763 3.05155 5.19163C4.01155 3.84763 5.19555 2.77563 6.60355 1.97563C8.01155 1.20763 9.64355 0.807634 11.4995 0.775634C11.7875 0.775634 12.0276 0.871634 12.2196 1.06363C12.4436 1.25563 12.5555 1.49563 12.5555 1.78363L12.5555 9.94363C12.5555 10.4556 12.4436 10.8236 12.2196 11.0476C11.9956 11.3036 11.6276 11.5276 11.1156 11.7196C10.4756 11.9436 9.93155 12.2156 9.48355 12.5356C9.06755 12.8876 8.76355 13.3196 8.57155 13.8316C8.37955 14.3436 8.28355 14.9356 8.28355 15.6076C8.28355 16.8556 8.68355 17.8156 9.48355 18.4876C10.2836 19.1916 11.5476 19.5436 13.2756 19.5436L25.7556 19.5436L25.7556 4.61563C25.7556 4.26363 25.8676 3.95963 26.0916 3.70363C26.3476 3.47963 26.6516 3.36763 27.0036 3.36763L32.9556 3.36763C33.3076 3.36763 33.5956 3.47963 33.8196 3.70363C34.0756 3.95963 34.2036 4.26363 34.2036 4.61563L34.2036 28.9516C34.2036 29.3036 34.0756 29.5916 33.8196 29.8156C33.5956 30.0716 33.3076 30.1996 32.9555 30.1996L12.9395 30.1996C10.0915 30.1996 7.70755 29.5436 5.78755 28.2316C3.89955 26.9516 2.47555 25.1756 1.51555 22.9036C0.587548 20.6636 0.12355 18.1356 0.12355 15.3196Z" fill="white"/>
</svg>
