<svg width="56" height="57" viewBox="0 0 56 57" fill="none" xmlns="http://www.w3.org/2000/svg">
<path d="M21.5194 0.80684C23.4218 0.371274 25.3654 0.113223 27.3139 0.0162476C34.3513 0.00967303 41.3887 0.0129603 48.4262 0.014604C50.9484 0.0392586 53.4771 -0.0626472 55.9977 0.0688442C55.9993 9.55431 56.0026 19.0414 55.9961 28.5269C55.9911 33.8654 54.4959 39.204 51.6655 43.7388C48.4344 48.9409 43.4724 53.0845 37.7093 55.2147C34.8689 56.3176 31.8341 56.8452 28.7992 56.9948C25.6687 57.0539 22.5201 56.6118 19.5363 55.6651C14.0171 53.9014 9.10295 50.3446 5.66584 45.6964C3.20628 42.4337 1.50009 38.6156 0.651117 34.6264C-0.646249 28.6469 0.00325776 22.2514 2.5271 16.6713C5.97741 8.85904 13.1648 2.76113 21.5194 0.80684ZM28.5783 7.3206C28.5684 14.1746 28.5684 21.0286 28.5783 27.8826C35.314 27.8891 42.0481 27.8908 48.7839 27.8826C48.7888 21.0286 48.7921 14.1746 48.7822 7.32224C42.0481 7.31895 35.3124 7.3206 28.5783 7.3206M7.20553 29.0841C7.14454 29.8369 7.24015 30.5896 7.32752 31.3359C8.00341 36.469 10.613 41.3374 14.5743 44.6937C18.1021 47.7427 22.6997 49.5589 27.3749 49.651C27.3815 42.8052 27.3749 35.9578 27.3782 29.112C20.654 29.0709 13.9297 29.1284 7.20553 29.0841M28.5832 29.14C28.5667 35.9972 28.5618 42.8562 28.5865 49.7134C29.7537 49.6411 30.9224 49.5441 32.0681 49.3025C36.8142 48.3558 41.1481 45.6208 44.1533 41.8552C47.0365 38.272 48.68 33.7323 48.7773 29.1416C42.0465 29.1383 35.3157 29.14 28.5832 29.14V29.14Z" fill="white"/>
</svg>
