<?xml version="1.0" encoding="UTF-8" standalone="no"?>
<!DOCTYPE svg PUBLIC "-//W3C//DTD SVG 1.1//EN" "http://www.w3.org/Graphics/SVG/1.1/DTD/svg11.dtd">
<svg width="100%" height="100%" viewBox="0 0 2886 2188" version="1.1" xmlns="http://www.w3.org/2000/svg" xmlns:xlink="http://www.w3.org/1999/xlink" xml:space="preserve" xmlns:serif="http://www.serif.com/" style="fill-rule:evenodd;clip-rule:evenodd;stroke-linejoin:round;stroke-miterlimit:2;">
    <g id="Artboard1" transform="matrix(2.04547,0,0,1.30415,-2985.93,294.843)">
        <rect x="1459.78" y="-226.081" width="1410.89" height="1677.07" style="fill:none;"/>
        <clipPath id="_clip1">
            <rect x="1459.78" y="-226.081" width="1410.89" height="1677.07"/>
        </clipPath>
        <g clip-path="url(#_clip1)">
            <g transform="matrix(9.4122,0,0,10.6153,873.332,-2224.01)">
                <path d="M225.15,190.229C225.15,186.78 223.136,183.979 220.656,183.979L59.926,183.979C57.446,183.979 55.432,186.78 55.432,190.229L55.432,344.67C55.432,348.12 57.446,350.92 59.926,350.92L220.656,350.92C223.136,350.92 225.15,348.12 225.15,344.67L225.15,190.229Z" style="fill:rgb(28,28,28);"/>
            </g>
            <g transform="matrix(0.488886,0,0,0.766786,1795.22,-20.9862)">
                <g transform="matrix(1,0,0,1,0,-123.004)">
                    <g transform="matrix(4.25206,0,0,4.25206,-811.286,-218.218)">
                        <path d="M285.694,133.855C283.86,133.855 282.219,133.505 280.769,132.805C279.319,132.105 278.185,131.163 277.369,129.98C276.552,128.797 276.144,127.472 276.144,126.005C276.144,123.605 277.119,121.713 279.069,120.33C281.019,118.947 283.627,117.988 286.894,117.455L292.694,116.555L292.694,116.205C292.694,115.172 292.527,114.397 292.194,113.88C291.86,113.363 291.194,113.105 290.194,113.105C289.494,113.105 288.927,113.238 288.494,113.505C288.06,113.772 287.66,114.155 287.294,114.655C286.96,115.022 286.527,115.205 285.994,115.205L278.944,115.205C278.61,115.205 278.335,115.105 278.119,114.905C277.902,114.705 277.81,114.438 277.844,114.105C277.877,113.505 278.127,112.797 278.594,111.98C279.06,111.163 279.785,110.363 280.769,109.58C281.752,108.797 283.027,108.147 284.594,107.63C286.16,107.113 288.044,106.855 290.244,106.855C292.477,106.855 294.394,107.105 295.994,107.605C297.594,108.105 298.91,108.805 299.944,109.705C300.977,110.605 301.744,111.697 302.244,112.98C302.744,114.263 302.994,115.688 302.994,117.255L302.994,132.055C302.994,132.422 302.869,132.73 302.619,132.98C302.369,133.23 302.06,133.355 301.694,133.355L294.444,133.355C294.077,133.355 293.76,133.23 293.494,132.98C293.227,132.73 293.094,132.422 293.094,132.055L293.094,130.455C292.66,131.122 292.085,131.705 291.369,132.205C290.652,132.705 289.819,133.105 288.869,133.405C287.919,133.705 286.86,133.855 285.694,133.855ZM288.594,127.305C289.427,127.305 290.16,127.13 290.794,126.78C291.427,126.43 291.919,125.888 292.269,125.155C292.619,124.422 292.794,123.505 292.794,122.405L292.794,122.055L289.194,122.755C287.96,122.988 287.094,123.322 286.594,123.755C286.094,124.188 285.844,124.688 285.844,125.255C285.844,125.655 285.96,126.005 286.194,126.305C286.427,126.605 286.752,126.847 287.169,127.03C287.585,127.213 288.06,127.305 288.594,127.305Z" style="fill:white;fill-rule:nonzero;"/>
                    </g>
                    <g transform="matrix(4.25206,0,0,4.25206,-693.992,-218.218)">
                        <path d="M278.944,133.355C278.577,133.355 278.269,133.23 278.019,132.98C277.769,132.73 277.644,132.422 277.644,132.055L277.644,108.655C277.644,108.288 277.769,107.98 278.019,107.73C278.269,107.48 278.577,107.355 278.944,107.355L285.794,107.355C286.16,107.355 286.469,107.48 286.719,107.73C286.969,107.98 287.094,108.288 287.094,108.655L287.094,110.305C287.727,109.505 288.644,108.747 289.844,108.03C291.044,107.313 292.46,106.922 294.094,106.855C297.994,106.755 300.627,108.155 301.994,111.055C302.76,109.855 303.852,108.855 305.269,108.055C306.685,107.255 308.194,106.855 309.794,106.855C311.527,106.855 313.085,107.247 314.469,108.03C315.852,108.813 316.96,110.013 317.794,111.63C318.627,113.247 319.044,115.355 319.044,117.955L319.044,132.055C319.044,132.422 318.919,132.73 318.669,132.98C318.419,133.23 318.11,133.355 317.744,133.355L310.444,133.355C310.077,133.355 309.769,133.23 309.519,132.98C309.269,132.73 309.144,132.422 309.144,132.055L309.144,118.255C309.144,117.388 309.01,116.697 308.744,116.18C308.477,115.663 308.135,115.28 307.719,115.03C307.302,114.78 306.81,114.655 306.244,114.655C305.71,114.655 305.227,114.78 304.794,115.03C304.36,115.28 304.019,115.663 303.769,116.18C303.519,116.697 303.394,117.388 303.394,118.255L303.394,132.055C303.394,132.422 303.269,132.73 303.019,132.98C302.769,133.23 302.46,133.355 302.094,133.355L294.794,133.355C294.427,133.355 294.119,133.23 293.869,132.98C293.619,132.73 293.494,132.422 293.494,132.055L293.494,118.255C293.494,117.388 293.36,116.697 293.094,116.18C292.827,115.663 292.485,115.28 292.069,115.03C291.652,114.78 291.16,114.655 290.594,114.655C290.06,114.655 289.577,114.788 289.144,115.055C288.71,115.322 288.36,115.705 288.094,116.205C287.827,116.705 287.694,117.388 287.694,118.255L287.694,132.055C287.694,132.422 287.569,132.73 287.319,132.98C287.069,133.23 286.76,133.355 286.394,133.355L278.944,133.355Z" style="fill:white;fill-rule:nonzero;"/>
                    </g>
                    <g transform="matrix(4.3882,0,0.156512,4.77396,-559.704,-290.204)">
                        <path d="M289.094,133.855C286.827,133.855 284.894,133.613 283.294,133.13C281.694,132.647 280.385,132.038 279.369,131.305C278.352,130.572 277.61,129.813 277.144,129.03C276.677,128.247 276.427,127.555 276.394,126.955C276.36,126.588 276.469,126.28 276.719,126.03C276.969,125.78 277.244,125.655 277.544,125.655L284.794,125.655C284.827,125.655 284.877,125.663 284.944,125.68C285.01,125.697 285.077,125.738 285.144,125.805C285.577,125.938 285.985,126.155 286.369,126.455C286.752,126.755 287.185,127.022 287.669,127.255C288.152,127.488 288.727,127.605 289.394,127.605C289.96,127.605 290.469,127.48 290.919,127.23C291.369,126.98 291.594,126.622 291.594,126.155C291.594,125.755 291.469,125.405 291.219,125.105C290.969,124.805 289.859,123.958 289.059,123.675C288.259,123.391 286.976,123.083 285.209,122.75C283.576,122.416 282.084,121.925 280.734,121.275C279.384,120.625 278.318,119.75 277.534,118.65C276.751,117.55 276.359,116.2 276.359,114.6C276.359,113.233 276.809,111.916 277.709,110.65C278.609,109.383 279.951,108.341 281.734,107.525C283.518,106.708 285.709,106.3 288.309,106.3C290.276,106.3 292.018,106.533 293.534,107C295.051,107.466 296.334,108.05 297.384,108.75C298.434,109.45 299.234,110.2 299.784,111C300.334,111.8 300.626,112.516 300.659,113.15C300.693,113.516 300.593,113.825 300.359,114.075C300.126,114.325 299.859,114.45 299.559,114.45L293.009,114.45C292.909,114.45 292.801,114.441 292.684,114.425C292.568,114.408 292.476,114.366 292.409,114.3C291.943,114.2 291.518,114.008 291.134,113.725C290.751,113.441 290.343,113.175 289.909,112.925C289.476,112.675 288.926,112.55 288.259,112.55C287.693,112.55 287.234,112.683 286.884,112.95C286.534,113.216 286.359,113.566 286.359,114C286.359,114.366 286.476,114.7 286.709,115C286.943,115.3 287.476,115.583 288.309,115.85C289.143,116.116 290.459,116.4 292.259,116.7C294.593,117.066 296.459,117.675 297.859,118.525C299.259,119.375 300.844,120.922 301.444,122.055C302.044,123.188 302.344,124.322 302.344,125.455C302.344,127.155 301.835,128.638 300.819,129.905C299.802,131.172 298.302,132.147 296.319,132.83C294.335,133.513 291.927,133.855 289.094,133.855Z" style="fill:white;fill-rule:nonzero;"/>
                    </g>
                    <g transform="matrix(3.74869,0,0,3.70136,-245.169,-142.675)">
                        <path d="M278.944,133.355C278.577,133.355 278.269,133.23 278.019,132.98C277.769,132.73 277.644,132.422 277.644,132.055L277.644,108.655C277.644,108.288 277.769,107.98 278.019,107.73C278.269,107.48 278.577,107.355 278.944,107.355L286.344,107.355C286.71,107.355 287.027,107.48 287.294,107.73C287.56,107.98 287.694,108.288 287.694,108.655L287.694,132.055C287.694,132.422 287.56,132.73 287.294,132.98C287.027,133.23 286.71,133.355 286.344,133.355L278.944,133.355Z" style="fill:white;fill-rule:nonzero;"/>
                    </g>
                    <g transform="matrix(3.74869,0,0,3.70136,-245.169,-142.675)">
                        <path d="M279.044,104.105C278.677,104.105 278.369,103.98 278.119,103.73C277.869,103.48 277.744,103.172 277.744,102.805L277.744,97.555C277.744,97.188 277.869,96.872 278.119,96.605C278.369,96.338 278.677,96.205 279.044,96.205L286.244,96.205C286.61,96.205 286.927,96.338 287.194,96.605C287.46,96.872 287.594,97.188 287.594,97.555L287.594,102.805C287.594,103.172 287.46,103.48 287.194,103.73C286.927,103.98 286.61,104.105 286.244,104.105L279.044,104.105Z" style="fill:rgb(42,158,207);fill-rule:nonzero;"/>
                    </g>
                    <g transform="matrix(3.69079,0,0,3.69079,-176.613,-141.244)">
                        <path d="M292.344,133.355C290.077,133.355 288.085,133.022 286.369,132.355C284.652,131.688 283.319,130.597 282.369,129.08C281.419,127.563 280.944,125.555 280.944,123.055L280.944,115.005L276.994,115.005C276.627,115.005 276.319,114.88 276.069,114.63C275.819,114.38 275.694,114.072 275.694,113.705L275.694,108.655C275.694,108.288 275.819,107.98 276.069,107.73C276.319,107.48 276.627,107.355 276.994,107.355L280.944,107.355L280.944,99.155C280.944,98.788 281.069,98.48 281.319,98.23C281.569,97.98 281.877,97.855 282.244,97.855L289.494,97.855C289.86,97.855 290.169,97.98 290.419,98.23C290.669,98.48 290.794,98.788 290.794,99.155L290.794,107.355L297.094,107.355C297.46,107.355 297.769,107.48 298.019,107.73C298.269,107.98 298.394,108.288 298.394,108.655L298.394,113.705C298.394,114.072 298.269,114.38 298.019,114.63C297.769,114.88 297.46,115.005 297.094,115.005L290.794,115.005L290.794,122.205C290.794,123.172 290.994,123.93 291.394,124.48C291.794,125.03 292.427,125.305 293.294,125.305L297.494,125.305C297.86,125.305 298.169,125.43 298.419,125.68C298.669,125.93 298.794,126.238 298.794,126.605L298.794,132.055C298.794,132.422 298.669,132.73 298.419,132.98C298.169,133.23 297.86,133.355 297.494,133.355L292.344,133.355Z" style="fill:white;fill-rule:nonzero;"/>
                    </g>
                    <g transform="matrix(4.17253,0,0,4.17253,-224.34,-207.594)">
                        <path d="M290.394,133.855C286.227,133.855 282.919,132.78 280.469,130.63C278.019,128.48 276.76,125.188 276.694,120.755L276.694,119.755C276.794,116.988 277.402,114.647 278.519,112.73C279.635,110.813 281.202,109.355 283.219,108.355C285.235,107.355 287.61,106.855 290.344,106.855C293.41,106.855 295.952,107.463 297.969,108.68C299.985,109.897 301.494,111.513 302.494,113.53C303.494,115.547 303.994,117.805 303.994,120.305L303.994,121.705C303.994,122.038 303.86,122.338 303.594,122.605C303.327,122.872 303.01,123.005 302.644,123.005L287.244,123.005L287.244,123.305C287.244,124.105 287.352,124.813 287.569,125.43C287.785,126.047 288.127,126.53 288.594,126.88C289.06,127.23 289.627,127.405 290.294,127.405C290.727,127.405 291.094,127.338 291.394,127.205C291.694,127.072 291.96,126.897 292.194,126.68C292.427,126.463 292.627,126.255 292.794,126.055C293.094,125.755 293.335,125.563 293.519,125.48C293.702,125.397 293.994,125.355 294.394,125.355L302.244,125.355C302.544,125.355 302.802,125.455 303.019,125.655C303.235,125.855 303.327,126.105 303.294,126.405C303.26,127.005 302.977,127.73 302.444,128.58C301.91,129.43 301.119,130.255 300.069,131.055C299.019,131.855 297.677,132.522 296.044,133.055C294.41,133.588 292.527,133.855 290.394,133.855ZM287.244,117.405L293.444,117.405L293.444,117.305C293.444,116.405 293.327,115.638 293.094,115.005C292.86,114.372 292.51,113.897 292.044,113.58C291.577,113.263 291.01,113.105 290.344,113.105C289.677,113.105 289.11,113.263 288.644,113.58C288.177,113.897 287.827,114.372 287.594,115.005C287.36,115.638 287.244,116.405 287.244,117.305L287.244,117.405Z" style="fill:white;fill-rule:nonzero;"/>
                    </g>
                </g>
                <g transform="matrix(4.71015,0.802346,-0.760904,4.46687,-1459.14,-2210.71)">
                    <path d="M442.92,467.884C440.92,467.884 439.02,467.626 437.22,467.109C435.42,466.593 433.812,465.834 432.395,464.834C430.978,463.834 429.862,462.601 429.045,461.134C428.228,459.668 427.803,457.968 427.77,456.034C427.77,455.734 427.87,455.476 428.07,455.259C428.27,455.043 428.52,454.934 428.82,454.934L437.32,454.934C437.853,454.934 438.245,455.051 438.495,455.284C438.745,455.518 438.97,455.901 439.17,456.434C439.403,457.101 439.695,457.659 440.045,458.109C440.395,458.559 440.837,458.884 441.37,459.084C441.903,459.284 442.52,459.384 443.22,459.384C444.52,459.384 445.528,458.968 446.245,458.134C446.962,457.301 447.32,455.984 447.32,454.184L447.32,442.223C447.32,441.649 446.879,441.183 446.335,441.182C442.704,441.174 430.275,441.145 430.275,441.145C429.909,441.145 429.6,441.02 429.35,440.77C429.1,440.52 428.975,440.212 428.975,439.845L428.975,433.645C428.975,433.278 429.1,432.97 429.35,432.72C429.6,432.47 429.909,432.345 430.275,432.345L457.12,432.384C457.487,432.384 457.795,432.509 458.045,432.759C458.295,433.009 458.42,433.318 458.42,433.684L458.42,454.534C458.42,457.501 457.745,459.976 456.395,461.959C455.045,463.943 453.195,465.426 450.845,466.409C448.495,467.393 445.853,467.884 442.92,467.884Z" style="fill:white;fill-rule:nonzero;"/>
                </g>
            </g>
            <g transform="matrix(0.488886,0,0,0.766786,1795.22,-20.9862)">
                <g transform="matrix(1,0,0,1,0,-123.004)">
                    <g transform="matrix(4.25206,0,0,4.25206,-811.286,-218.218)">
                        <path d="M285.694,133.855C283.86,133.855 282.219,133.505 280.769,132.805C279.319,132.105 278.185,131.163 277.369,129.98C276.552,128.797 276.144,127.472 276.144,126.005C276.144,123.605 277.119,121.713 279.069,120.33C281.019,118.947 283.627,117.988 286.894,117.455L292.694,116.555L292.694,116.205C292.694,115.172 292.527,114.397 292.194,113.88C291.86,113.363 291.194,113.105 290.194,113.105C289.494,113.105 288.927,113.238 288.494,113.505C288.06,113.772 287.66,114.155 287.294,114.655C286.96,115.022 286.527,115.205 285.994,115.205L278.944,115.205C278.61,115.205 278.335,115.105 278.119,114.905C277.902,114.705 277.81,114.438 277.844,114.105C277.877,113.505 278.127,112.797 278.594,111.98C279.06,111.163 279.785,110.363 280.769,109.58C281.752,108.797 283.027,108.147 284.594,107.63C286.16,107.113 288.044,106.855 290.244,106.855C292.477,106.855 294.394,107.105 295.994,107.605C297.594,108.105 298.91,108.805 299.944,109.705C300.977,110.605 301.744,111.697 302.244,112.98C302.744,114.263 302.994,115.688 302.994,117.255L302.994,132.055C302.994,132.422 302.869,132.73 302.619,132.98C302.369,133.23 302.06,133.355 301.694,133.355L294.444,133.355C294.077,133.355 293.76,133.23 293.494,132.98C293.227,132.73 293.094,132.422 293.094,132.055L293.094,130.455C292.66,131.122 292.085,131.705 291.369,132.205C290.652,132.705 289.819,133.105 288.869,133.405C287.919,133.705 286.86,133.855 285.694,133.855ZM288.594,127.305C289.427,127.305 290.16,127.13 290.794,126.78C291.427,126.43 291.919,125.888 292.269,125.155C292.619,124.422 292.794,123.505 292.794,122.405L292.794,122.055L289.194,122.755C287.96,122.988 287.094,123.322 286.594,123.755C286.094,124.188 285.844,124.688 285.844,125.255C285.844,125.655 285.96,126.005 286.194,126.305C286.427,126.605 286.752,126.847 287.169,127.03C287.585,127.213 288.06,127.305 288.594,127.305Z" style="fill:white;fill-rule:nonzero;"/>
                    </g>
                    <g transform="matrix(4.25206,0,0,4.25206,-693.992,-218.218)">
                        <path d="M278.944,133.355C278.577,133.355 278.269,133.23 278.019,132.98C277.769,132.73 277.644,132.422 277.644,132.055L277.644,108.655C277.644,108.288 277.769,107.98 278.019,107.73C278.269,107.48 278.577,107.355 278.944,107.355L285.794,107.355C286.16,107.355 286.469,107.48 286.719,107.73C286.969,107.98 287.094,108.288 287.094,108.655L287.094,110.305C287.727,109.505 288.644,108.747 289.844,108.03C291.044,107.313 292.46,106.922 294.094,106.855C297.994,106.755 300.627,108.155 301.994,111.055C302.76,109.855 303.852,108.855 305.269,108.055C306.685,107.255 308.194,106.855 309.794,106.855C311.527,106.855 313.085,107.247 314.469,108.03C315.852,108.813 316.96,110.013 317.794,111.63C318.627,113.247 319.044,115.355 319.044,117.955L319.044,132.055C319.044,132.422 318.919,132.73 318.669,132.98C318.419,133.23 318.11,133.355 317.744,133.355L310.444,133.355C310.077,133.355 309.769,133.23 309.519,132.98C309.269,132.73 309.144,132.422 309.144,132.055L309.144,118.255C309.144,117.388 309.01,116.697 308.744,116.18C308.477,115.663 308.135,115.28 307.719,115.03C307.302,114.78 306.81,114.655 306.244,114.655C305.71,114.655 305.227,114.78 304.794,115.03C304.36,115.28 304.019,115.663 303.769,116.18C303.519,116.697 303.394,117.388 303.394,118.255L303.394,132.055C303.394,132.422 303.269,132.73 303.019,132.98C302.769,133.23 302.46,133.355 302.094,133.355L294.794,133.355C294.427,133.355 294.119,133.23 293.869,132.98C293.619,132.73 293.494,132.422 293.494,132.055L293.494,118.255C293.494,117.388 293.36,116.697 293.094,116.18C292.827,115.663 292.485,115.28 292.069,115.03C291.652,114.78 291.16,114.655 290.594,114.655C290.06,114.655 289.577,114.788 289.144,115.055C288.71,115.322 288.36,115.705 288.094,116.205C287.827,116.705 287.694,117.388 287.694,118.255L287.694,132.055C287.694,132.422 287.569,132.73 287.319,132.98C287.069,133.23 286.76,133.355 286.394,133.355L278.944,133.355Z" style="fill:white;fill-rule:nonzero;"/>
                    </g>
                    <g transform="matrix(4.3882,0,0.156512,4.77396,-559.704,-290.204)">
                        <path d="M289.094,133.855C286.827,133.855 284.894,133.613 283.294,133.13C281.694,132.647 280.385,132.038 279.369,131.305C278.352,130.572 277.61,129.813 277.144,129.03C276.677,128.247 276.427,127.555 276.394,126.955C276.36,126.588 276.469,126.28 276.719,126.03C276.969,125.78 277.244,125.655 277.544,125.655L284.794,125.655C284.827,125.655 284.877,125.663 284.944,125.68C285.01,125.697 285.077,125.738 285.144,125.805C285.577,125.938 285.985,126.155 286.369,126.455C286.752,126.755 287.185,127.022 287.669,127.255C288.152,127.488 288.727,127.605 289.394,127.605C289.96,127.605 290.469,127.48 290.919,127.23C291.369,126.98 291.594,126.622 291.594,126.155C291.594,125.755 291.469,125.405 291.219,125.105C290.969,124.805 289.859,123.958 289.059,123.675C288.259,123.391 286.976,123.083 285.209,122.75C283.576,122.416 282.084,121.925 280.734,121.275C279.384,120.625 278.318,119.75 277.534,118.65C276.751,117.55 276.359,116.2 276.359,114.6C276.359,113.233 276.809,111.916 277.709,110.65C278.609,109.383 279.951,108.341 281.734,107.525C283.518,106.708 285.709,106.3 288.309,106.3C290.276,106.3 292.018,106.533 293.534,107C295.051,107.466 296.334,108.05 297.384,108.75C298.434,109.45 299.234,110.2 299.784,111C300.334,111.8 300.626,112.516 300.659,113.15C300.693,113.516 300.593,113.825 300.359,114.075C300.126,114.325 299.859,114.45 299.559,114.45L293.009,114.45C292.909,114.45 292.801,114.441 292.684,114.425C292.568,114.408 292.476,114.366 292.409,114.3C291.943,114.2 291.518,114.008 291.134,113.725C290.751,113.441 290.343,113.175 289.909,112.925C289.476,112.675 288.926,112.55 288.259,112.55C287.693,112.55 287.234,112.683 286.884,112.95C286.534,113.216 286.359,113.566 286.359,114C286.359,114.366 286.476,114.7 286.709,115C286.943,115.3 287.476,115.583 288.309,115.85C289.143,116.116 290.459,116.4 292.259,116.7C294.593,117.066 296.459,117.675 297.859,118.525C299.259,119.375 300.844,120.922 301.444,122.055C302.044,123.188 302.344,124.322 302.344,125.455C302.344,127.155 301.835,128.638 300.819,129.905C299.802,131.172 298.302,132.147 296.319,132.83C294.335,133.513 291.927,133.855 289.094,133.855Z" style="fill:white;fill-rule:nonzero;"/>
                    </g>
                    <g transform="matrix(3.74869,0,0,3.70136,-245.169,-142.675)">
                        <path d="M278.944,133.355C278.577,133.355 278.269,133.23 278.019,132.98C277.769,132.73 277.644,132.422 277.644,132.055L277.644,108.655C277.644,108.288 277.769,107.98 278.019,107.73C278.269,107.48 278.577,107.355 278.944,107.355L286.344,107.355C286.71,107.355 287.027,107.48 287.294,107.73C287.56,107.98 287.694,108.288 287.694,108.655L287.694,132.055C287.694,132.422 287.56,132.73 287.294,132.98C287.027,133.23 286.71,133.355 286.344,133.355L278.944,133.355Z" style="fill:white;fill-rule:nonzero;"/>
                    </g>
                    <g transform="matrix(3.74869,0,0,3.70136,-245.169,-142.675)">
                        <path d="M279.044,104.105C278.677,104.105 278.369,103.98 278.119,103.73C277.869,103.48 277.744,103.172 277.744,102.805L277.744,97.555C277.744,97.188 277.869,96.872 278.119,96.605C278.369,96.338 278.677,96.205 279.044,96.205L286.244,96.205C286.61,96.205 286.927,96.338 287.194,96.605C287.46,96.872 287.594,97.188 287.594,97.555L287.594,102.805C287.594,103.172 287.46,103.48 287.194,103.73C286.927,103.98 286.61,104.105 286.244,104.105L279.044,104.105Z" style="fill:rgb(42,158,207);fill-rule:nonzero;"/>
                    </g>
                    <g transform="matrix(3.69079,0,0,3.69079,-176.613,-141.244)">
                        <path d="M292.344,133.355C290.077,133.355 288.085,133.022 286.369,132.355C284.652,131.688 283.319,130.597 282.369,129.08C281.419,127.563 280.944,125.555 280.944,123.055L280.944,115.005L276.994,115.005C276.627,115.005 276.319,114.88 276.069,114.63C275.819,114.38 275.694,114.072 275.694,113.705L275.694,108.655C275.694,108.288 275.819,107.98 276.069,107.73C276.319,107.48 276.627,107.355 276.994,107.355L280.944,107.355L280.944,99.155C280.944,98.788 281.069,98.48 281.319,98.23C281.569,97.98 281.877,97.855 282.244,97.855L289.494,97.855C289.86,97.855 290.169,97.98 290.419,98.23C290.669,98.48 290.794,98.788 290.794,99.155L290.794,107.355L297.094,107.355C297.46,107.355 297.769,107.48 298.019,107.73C298.269,107.98 298.394,108.288 298.394,108.655L298.394,113.705C298.394,114.072 298.269,114.38 298.019,114.63C297.769,114.88 297.46,115.005 297.094,115.005L290.794,115.005L290.794,122.205C290.794,123.172 290.994,123.93 291.394,124.48C291.794,125.03 292.427,125.305 293.294,125.305L297.494,125.305C297.86,125.305 298.169,125.43 298.419,125.68C298.669,125.93 298.794,126.238 298.794,126.605L298.794,132.055C298.794,132.422 298.669,132.73 298.419,132.98C298.169,133.23 297.86,133.355 297.494,133.355L292.344,133.355Z" style="fill:white;fill-rule:nonzero;"/>
                    </g>
                    <g transform="matrix(4.17253,0,0,4.17253,-224.34,-207.594)">
                        <path d="M290.394,133.855C286.227,133.855 282.919,132.78 280.469,130.63C278.019,128.48 276.76,125.188 276.694,120.755L276.694,119.755C276.794,116.988 277.402,114.647 278.519,112.73C279.635,110.813 281.202,109.355 283.219,108.355C285.235,107.355 287.61,106.855 290.344,106.855C293.41,106.855 295.952,107.463 297.969,108.68C299.985,109.897 301.494,111.513 302.494,113.53C303.494,115.547 303.994,117.805 303.994,120.305L303.994,121.705C303.994,122.038 303.86,122.338 303.594,122.605C303.327,122.872 303.01,123.005 302.644,123.005L287.244,123.005L287.244,123.305C287.244,124.105 287.352,124.813 287.569,125.43C287.785,126.047 288.127,126.53 288.594,126.88C289.06,127.23 289.627,127.405 290.294,127.405C290.727,127.405 291.094,127.338 291.394,127.205C291.694,127.072 291.96,126.897 292.194,126.68C292.427,126.463 292.627,126.255 292.794,126.055C293.094,125.755 293.335,125.563 293.519,125.48C293.702,125.397 293.994,125.355 294.394,125.355L302.244,125.355C302.544,125.355 302.802,125.455 303.019,125.655C303.235,125.855 303.327,126.105 303.294,126.405C303.26,127.005 302.977,127.73 302.444,128.58C301.91,129.43 301.119,130.255 300.069,131.055C299.019,131.855 297.677,132.522 296.044,133.055C294.41,133.588 292.527,133.855 290.394,133.855ZM287.244,117.405L293.444,117.405L293.444,117.305C293.444,116.405 293.327,115.638 293.094,115.005C292.86,114.372 292.51,113.897 292.044,113.58C291.577,113.263 291.01,113.105 290.344,113.105C289.677,113.105 289.11,113.263 288.644,113.58C288.177,113.897 287.827,114.372 287.594,115.005C287.36,115.638 287.244,116.405 287.244,117.305L287.244,117.405Z" style="fill:white;fill-rule:nonzero;"/>
                    </g>
                </g>
                <g transform="matrix(4.71015,0.802346,-0.760904,4.46687,-1459.14,-2210.71)">
                    <path d="M442.92,467.884C440.92,467.884 439.02,467.626 437.22,467.109C435.42,466.593 433.812,465.834 432.395,464.834C430.978,463.834 429.862,462.601 429.045,461.134C428.228,459.668 427.803,457.968 427.77,456.034C427.77,455.734 427.87,455.476 428.07,455.259C428.27,455.043 428.52,454.934 428.82,454.934L437.32,454.934C437.853,454.934 438.245,455.051 438.495,455.284C438.745,455.518 438.97,455.901 439.17,456.434C439.403,457.101 439.695,457.659 440.045,458.109C440.395,458.559 440.837,458.884 441.37,459.084C441.903,459.284 442.52,459.384 443.22,459.384C444.52,459.384 445.528,458.968 446.245,458.134C446.962,457.301 447.32,455.984 447.32,454.184L447.32,442.223C447.32,441.649 446.879,441.183 446.335,441.182C442.704,441.174 430.275,441.145 430.275,441.145C429.909,441.145 429.6,441.02 429.35,440.77C429.1,440.52 428.975,440.212 428.975,439.845L428.975,433.645C428.975,433.278 429.1,432.97 429.35,432.72C429.6,432.47 429.909,432.345 430.275,432.345L457.12,432.384C457.487,432.384 457.795,432.509 458.045,432.759C458.295,433.009 458.42,433.318 458.42,433.684L458.42,454.534C458.42,457.501 457.745,459.976 456.395,461.959C455.045,463.943 453.195,465.426 450.845,466.409C448.495,467.393 445.853,467.884 442.92,467.884Z" style="fill:white;fill-rule:nonzero;"/>
                </g>
            </g>
            <g transform="matrix(0.488886,0,0,0.766786,1801.87,451.881)">
                <g transform="matrix(1,0,0,1,0,-123.004)">
                    <g transform="matrix(4.25206,0,0,4.25206,-811.286,-218.218)">
                        <path d="M285.694,133.855C283.86,133.855 282.219,133.505 280.769,132.805C279.319,132.105 278.185,131.163 277.369,129.98C276.552,128.797 276.144,127.472 276.144,126.005C276.144,123.605 277.119,121.713 279.069,120.33C281.019,118.947 283.627,117.988 286.894,117.455L292.694,116.555L292.694,116.205C292.694,115.172 292.527,114.397 292.194,113.88C291.86,113.363 291.194,113.105 290.194,113.105C289.494,113.105 288.927,113.238 288.494,113.505C288.06,113.772 287.66,114.155 287.294,114.655C286.96,115.022 286.527,115.205 285.994,115.205L278.944,115.205C278.61,115.205 278.335,115.105 278.119,114.905C277.902,114.705 277.81,114.438 277.844,114.105C277.877,113.505 278.127,112.797 278.594,111.98C279.06,111.163 279.785,110.363 280.769,109.58C281.752,108.797 283.027,108.147 284.594,107.63C286.16,107.113 288.044,106.855 290.244,106.855C292.477,106.855 294.394,107.105 295.994,107.605C297.594,108.105 298.91,108.805 299.944,109.705C300.977,110.605 301.744,111.697 302.244,112.98C302.744,114.263 302.994,115.688 302.994,117.255L302.994,132.055C302.994,132.422 302.869,132.73 302.619,132.98C302.369,133.23 302.06,133.355 301.694,133.355L294.444,133.355C294.077,133.355 293.76,133.23 293.494,132.98C293.227,132.73 293.094,132.422 293.094,132.055L293.094,130.455C292.66,131.122 292.085,131.705 291.369,132.205C290.652,132.705 289.819,133.105 288.869,133.405C287.919,133.705 286.86,133.855 285.694,133.855ZM288.594,127.305C289.427,127.305 290.16,127.13 290.794,126.78C291.427,126.43 291.919,125.888 292.269,125.155C292.619,124.422 292.794,123.505 292.794,122.405L292.794,122.055L289.194,122.755C287.96,122.988 287.094,123.322 286.594,123.755C286.094,124.188 285.844,124.688 285.844,125.255C285.844,125.655 285.96,126.005 286.194,126.305C286.427,126.605 286.752,126.847 287.169,127.03C287.585,127.213 288.06,127.305 288.594,127.305Z" style="fill:white;fill-rule:nonzero;"/>
                    </g>
                    <g transform="matrix(4.25206,0,0,4.25206,-693.992,-218.218)">
                        <path d="M278.944,133.355C278.577,133.355 278.269,133.23 278.019,132.98C277.769,132.73 277.644,132.422 277.644,132.055L277.644,108.655C277.644,108.288 277.769,107.98 278.019,107.73C278.269,107.48 278.577,107.355 278.944,107.355L285.794,107.355C286.16,107.355 286.469,107.48 286.719,107.73C286.969,107.98 287.094,108.288 287.094,108.655L287.094,110.305C287.727,109.505 288.644,108.747 289.844,108.03C291.044,107.313 292.46,106.922 294.094,106.855C297.994,106.755 300.627,108.155 301.994,111.055C302.76,109.855 303.852,108.855 305.269,108.055C306.685,107.255 308.194,106.855 309.794,106.855C311.527,106.855 313.085,107.247 314.469,108.03C315.852,108.813 316.96,110.013 317.794,111.63C318.627,113.247 319.044,115.355 319.044,117.955L319.044,132.055C319.044,132.422 318.919,132.73 318.669,132.98C318.419,133.23 318.11,133.355 317.744,133.355L310.444,133.355C310.077,133.355 309.769,133.23 309.519,132.98C309.269,132.73 309.144,132.422 309.144,132.055L309.144,118.255C309.144,117.388 309.01,116.697 308.744,116.18C308.477,115.663 308.135,115.28 307.719,115.03C307.302,114.78 306.81,114.655 306.244,114.655C305.71,114.655 305.227,114.78 304.794,115.03C304.36,115.28 304.019,115.663 303.769,116.18C303.519,116.697 303.394,117.388 303.394,118.255L303.394,132.055C303.394,132.422 303.269,132.73 303.019,132.98C302.769,133.23 302.46,133.355 302.094,133.355L294.794,133.355C294.427,133.355 294.119,133.23 293.869,132.98C293.619,132.73 293.494,132.422 293.494,132.055L293.494,118.255C293.494,117.388 293.36,116.697 293.094,116.18C292.827,115.663 292.485,115.28 292.069,115.03C291.652,114.78 291.16,114.655 290.594,114.655C290.06,114.655 289.577,114.788 289.144,115.055C288.71,115.322 288.36,115.705 288.094,116.205C287.827,116.705 287.694,117.388 287.694,118.255L287.694,132.055C287.694,132.422 287.569,132.73 287.319,132.98C287.069,133.23 286.76,133.355 286.394,133.355L278.944,133.355Z" style="fill:white;fill-rule:nonzero;"/>
                    </g>
                    <g transform="matrix(4.3882,0,0.156512,4.77396,-559.704,-290.204)">
                        <path d="M289.094,133.855C286.827,133.855 284.894,133.613 283.294,133.13C281.694,132.647 280.385,132.038 279.369,131.305C278.352,130.572 277.61,129.813 277.144,129.03C276.677,128.247 276.427,127.555 276.394,126.955C276.36,126.588 276.469,126.28 276.719,126.03C276.969,125.78 277.244,125.655 277.544,125.655L284.794,125.655C284.827,125.655 284.877,125.663 284.944,125.68C285.01,125.697 285.077,125.738 285.144,125.805C285.577,125.938 285.985,126.155 286.369,126.455C286.752,126.755 287.185,127.022 287.669,127.255C288.152,127.488 288.727,127.605 289.394,127.605C289.96,127.605 290.469,127.48 290.919,127.23C291.369,126.98 291.594,126.622 291.594,126.155C291.594,125.755 291.469,125.405 291.219,125.105C290.969,124.805 289.859,123.958 289.059,123.675C288.259,123.391 286.976,123.083 285.209,122.75C283.576,122.416 282.084,121.925 280.734,121.275C279.384,120.625 278.318,119.75 277.534,118.65C276.751,117.55 276.359,116.2 276.359,114.6C276.359,113.233 276.809,111.916 277.709,110.65C278.609,109.383 279.951,108.341 281.734,107.525C283.518,106.708 285.709,106.3 288.309,106.3C290.276,106.3 292.018,106.533 293.534,107C295.051,107.466 296.334,108.05 297.384,108.75C298.434,109.45 299.234,110.2 299.784,111C300.334,111.8 300.626,112.516 300.659,113.15C300.693,113.516 300.593,113.825 300.359,114.075C300.126,114.325 299.859,114.45 299.559,114.45L293.009,114.45C292.909,114.45 292.801,114.441 292.684,114.425C292.568,114.408 292.476,114.366 292.409,114.3C291.943,114.2 291.518,114.008 291.134,113.725C290.751,113.441 290.343,113.175 289.909,112.925C289.476,112.675 288.926,112.55 288.259,112.55C287.693,112.55 287.234,112.683 286.884,112.95C286.534,113.216 286.359,113.566 286.359,114C286.359,114.366 286.476,114.7 286.709,115C286.943,115.3 287.476,115.583 288.309,115.85C289.143,116.116 290.459,116.4 292.259,116.7C294.593,117.066 296.459,117.675 297.859,118.525C299.259,119.375 300.844,120.922 301.444,122.055C302.044,123.188 302.344,124.322 302.344,125.455C302.344,127.155 301.835,128.638 300.819,129.905C299.802,131.172 298.302,132.147 296.319,132.83C294.335,133.513 291.927,133.855 289.094,133.855Z" style="fill:white;fill-rule:nonzero;"/>
                    </g>
                    <g transform="matrix(3.74869,0,0,3.70136,-245.169,-142.675)">
                        <path d="M278.944,133.355C278.577,133.355 278.269,133.23 278.019,132.98C277.769,132.73 277.644,132.422 277.644,132.055L277.644,108.655C277.644,108.288 277.769,107.98 278.019,107.73C278.269,107.48 278.577,107.355 278.944,107.355L286.344,107.355C286.71,107.355 287.027,107.48 287.294,107.73C287.56,107.98 287.694,108.288 287.694,108.655L287.694,132.055C287.694,132.422 287.56,132.73 287.294,132.98C287.027,133.23 286.71,133.355 286.344,133.355L278.944,133.355Z" style="fill:white;fill-rule:nonzero;"/>
                    </g>
                    <g transform="matrix(3.74869,0,0,3.70136,-245.169,-142.675)">
                        <path d="M279.044,104.105C278.677,104.105 278.369,103.98 278.119,103.73C277.869,103.48 277.744,103.172 277.744,102.805L277.744,97.555C277.744,97.188 277.869,96.872 278.119,96.605C278.369,96.338 278.677,96.205 279.044,96.205L286.244,96.205C286.61,96.205 286.927,96.338 287.194,96.605C287.46,96.872 287.594,97.188 287.594,97.555L287.594,102.805C287.594,103.172 287.46,103.48 287.194,103.73C286.927,103.98 286.61,104.105 286.244,104.105L279.044,104.105Z" style="fill:white;fill-rule:nonzero;"/>
                    </g>
                    <g transform="matrix(3.69079,0,0,3.69079,-176.613,-141.244)">
                        <path d="M292.344,133.355C290.077,133.355 288.085,133.022 286.369,132.355C284.652,131.688 283.319,130.597 282.369,129.08C281.419,127.563 280.944,125.555 280.944,123.055L280.944,115.005L276.994,115.005C276.627,115.005 276.319,114.88 276.069,114.63C275.819,114.38 275.694,114.072 275.694,113.705L275.694,108.655C275.694,108.288 275.819,107.98 276.069,107.73C276.319,107.48 276.627,107.355 276.994,107.355L280.944,107.355L280.944,99.155C280.944,98.788 281.069,98.48 281.319,98.23C281.569,97.98 281.877,97.855 282.244,97.855L289.494,97.855C289.86,97.855 290.169,97.98 290.419,98.23C290.669,98.48 290.794,98.788 290.794,99.155L290.794,107.355L297.094,107.355C297.46,107.355 297.769,107.48 298.019,107.73C298.269,107.98 298.394,108.288 298.394,108.655L298.394,113.705C298.394,114.072 298.269,114.38 298.019,114.63C297.769,114.88 297.46,115.005 297.094,115.005L290.794,115.005L290.794,122.205C290.794,123.172 290.994,123.93 291.394,124.48C291.794,125.03 292.427,125.305 293.294,125.305L297.494,125.305C297.86,125.305 298.169,125.43 298.419,125.68C298.669,125.93 298.794,126.238 298.794,126.605L298.794,132.055C298.794,132.422 298.669,132.73 298.419,132.98C298.169,133.23 297.86,133.355 297.494,133.355L292.344,133.355Z" style="fill:white;fill-rule:nonzero;"/>
                    </g>
                    <g transform="matrix(4.17253,0,0,4.17253,-224.34,-207.594)">
                        <path d="M290.394,133.855C286.227,133.855 282.919,132.78 280.469,130.63C278.019,128.48 276.76,125.188 276.694,120.755L276.694,119.755C276.794,116.988 277.402,114.647 278.519,112.73C279.635,110.813 281.202,109.355 283.219,108.355C285.235,107.355 287.61,106.855 290.344,106.855C293.41,106.855 295.952,107.463 297.969,108.68C299.985,109.897 301.494,111.513 302.494,113.53C303.494,115.547 303.994,117.805 303.994,120.305L303.994,121.705C303.994,122.038 303.86,122.338 303.594,122.605C303.327,122.872 303.01,123.005 302.644,123.005L287.244,123.005L287.244,123.305C287.244,124.105 287.352,124.813 287.569,125.43C287.785,126.047 288.127,126.53 288.594,126.88C289.06,127.23 289.627,127.405 290.294,127.405C290.727,127.405 291.094,127.338 291.394,127.205C291.694,127.072 291.96,126.897 292.194,126.68C292.427,126.463 292.627,126.255 292.794,126.055C293.094,125.755 293.335,125.563 293.519,125.48C293.702,125.397 293.994,125.355 294.394,125.355L302.244,125.355C302.544,125.355 302.802,125.455 303.019,125.655C303.235,125.855 303.327,126.105 303.294,126.405C303.26,127.005 302.977,127.73 302.444,128.58C301.91,129.43 301.119,130.255 300.069,131.055C299.019,131.855 297.677,132.522 296.044,133.055C294.41,133.588 292.527,133.855 290.394,133.855ZM287.244,117.405L293.444,117.405L293.444,117.305C293.444,116.405 293.327,115.638 293.094,115.005C292.86,114.372 292.51,113.897 292.044,113.58C291.577,113.263 291.01,113.105 290.344,113.105C289.677,113.105 289.11,113.263 288.644,113.58C288.177,113.897 287.827,114.372 287.594,115.005C287.36,115.638 287.244,116.405 287.244,117.305L287.244,117.405Z" style="fill:white;fill-rule:nonzero;"/>
                    </g>
                </g>
                <g transform="matrix(4.33314,0,1.00685e-15,4.10933,-1628.7,-1686.76)">
                    <path d="M442.92,467.884C440.92,467.884 439.02,467.626 437.22,467.109C435.42,466.593 433.812,465.834 432.395,464.834C430.978,463.834 429.862,462.601 429.045,461.134C428.228,459.668 427.803,457.968 427.77,456.034C427.77,455.734 427.87,455.476 428.07,455.259C428.27,455.043 428.52,454.934 428.82,454.934L437.32,454.934C437.853,454.934 438.245,455.051 438.495,455.284C438.745,455.518 438.97,455.901 439.17,456.434C439.403,457.101 439.695,457.659 440.045,458.109C440.395,458.559 440.837,458.884 441.37,459.084C441.903,459.284 442.52,459.384 443.22,459.384C444.52,459.384 445.528,458.968 446.245,458.134C446.962,457.301 447.32,455.984 447.32,454.184L447.32,442.33C447.32,441.697 446.834,441.183 446.234,441.182C442.479,441.173 430.275,441.145 430.275,441.145C429.909,441.145 429.6,441.02 429.35,440.77C429.1,440.52 428.975,440.212 428.975,439.845L428.975,433.645C428.975,433.278 429.1,432.97 429.35,432.72C429.6,432.47 429.909,432.345 430.275,432.345L457.12,432.384C457.487,432.384 457.795,432.509 458.045,432.759C458.295,433.009 458.42,433.318 458.42,433.684L458.42,454.534C458.42,457.501 457.745,459.976 456.395,461.959C455.045,463.943 453.195,465.426 450.845,466.409C448.495,467.393 445.853,467.884 442.92,467.884Z" style="fill:white;fill-rule:nonzero;"/>
                </g>
            </g>
            <g transform="matrix(0.488886,0,0,0.766786,1823.8,668.824)">
                <g>
                    <g transform="matrix(1,0,0,1,0,-123.004)">
                        <g transform="matrix(4.25206,0,0,4.25206,-811.286,-218.218)">
                            <path d="M285.694,133.855C283.86,133.855 282.219,133.505 280.769,132.805C279.319,132.105 278.185,131.163 277.369,129.98C276.552,128.797 276.144,127.472 276.144,126.005C276.144,123.605 277.119,121.713 279.069,120.33C281.019,118.947 283.627,117.988 286.894,117.455L292.694,116.555L292.694,116.205C292.694,115.172 292.527,114.397 292.194,113.88C291.86,113.363 291.194,113.105 290.194,113.105C289.494,113.105 288.927,113.238 288.494,113.505C288.06,113.772 287.66,114.155 287.294,114.655C286.96,115.022 286.527,115.205 285.994,115.205L278.944,115.205C278.61,115.205 278.335,115.105 278.119,114.905C277.902,114.705 277.81,114.438 277.844,114.105C277.877,113.505 278.127,112.797 278.594,111.98C279.06,111.163 279.785,110.363 280.769,109.58C281.752,108.797 283.027,108.147 284.594,107.63C286.16,107.113 288.044,106.855 290.244,106.855C292.477,106.855 294.394,107.105 295.994,107.605C297.594,108.105 298.91,108.805 299.944,109.705C300.977,110.605 301.744,111.697 302.244,112.98C302.744,114.263 302.994,115.688 302.994,117.255L302.994,132.055C302.994,132.422 302.869,132.73 302.619,132.98C302.369,133.23 302.06,133.355 301.694,133.355L294.444,133.355C294.077,133.355 293.76,133.23 293.494,132.98C293.227,132.73 293.094,132.422 293.094,132.055L293.094,130.455C292.66,131.122 292.085,131.705 291.369,132.205C290.652,132.705 289.819,133.105 288.869,133.405C287.919,133.705 286.86,133.855 285.694,133.855ZM288.594,127.305C289.427,127.305 290.16,127.13 290.794,126.78C291.427,126.43 291.919,125.888 292.269,125.155C292.619,124.422 292.794,123.505 292.794,122.405L292.794,122.055L289.194,122.755C287.96,122.988 287.094,123.322 286.594,123.755C286.094,124.188 285.844,124.688 285.844,125.255C285.844,125.655 285.96,126.005 286.194,126.305C286.427,126.605 286.752,126.847 287.169,127.03C287.585,127.213 288.06,127.305 288.594,127.305Z" style="fill:white;fill-rule:nonzero;"/>
                        </g>
                        <g transform="matrix(4.25206,0,0,4.25206,-693.992,-218.218)">
                            <path d="M278.944,133.355C278.577,133.355 278.269,133.23 278.019,132.98C277.769,132.73 277.644,132.422 277.644,132.055L277.644,108.655C277.644,108.288 277.769,107.98 278.019,107.73C278.269,107.48 278.577,107.355 278.944,107.355L285.794,107.355C286.16,107.355 286.469,107.48 286.719,107.73C286.969,107.98 287.094,108.288 287.094,108.655L287.094,110.305C287.727,109.505 288.644,108.747 289.844,108.03C291.044,107.313 292.46,106.922 294.094,106.855C297.994,106.755 300.627,108.155 301.994,111.055C302.76,109.855 303.852,108.855 305.269,108.055C306.685,107.255 308.194,106.855 309.794,106.855C311.527,106.855 313.085,107.247 314.469,108.03C315.852,108.813 316.96,110.013 317.794,111.63C318.627,113.247 319.044,115.355 319.044,117.955L319.044,132.055C319.044,132.422 318.919,132.73 318.669,132.98C318.419,133.23 318.11,133.355 317.744,133.355L310.444,133.355C310.077,133.355 309.769,133.23 309.519,132.98C309.269,132.73 309.144,132.422 309.144,132.055L309.144,118.255C309.144,117.388 309.01,116.697 308.744,116.18C308.477,115.663 308.135,115.28 307.719,115.03C307.302,114.78 306.81,114.655 306.244,114.655C305.71,114.655 305.227,114.78 304.794,115.03C304.36,115.28 304.019,115.663 303.769,116.18C303.519,116.697 303.394,117.388 303.394,118.255L303.394,132.055C303.394,132.422 303.269,132.73 303.019,132.98C302.769,133.23 302.46,133.355 302.094,133.355L294.794,133.355C294.427,133.355 294.119,133.23 293.869,132.98C293.619,132.73 293.494,132.422 293.494,132.055L293.494,118.255C293.494,117.388 293.36,116.697 293.094,116.18C292.827,115.663 292.485,115.28 292.069,115.03C291.652,114.78 291.16,114.655 290.594,114.655C290.06,114.655 289.577,114.788 289.144,115.055C288.71,115.322 288.36,115.705 288.094,116.205C287.827,116.705 287.694,117.388 287.694,118.255L287.694,132.055C287.694,132.422 287.569,132.73 287.319,132.98C287.069,133.23 286.76,133.355 286.394,133.355L278.944,133.355Z" style="fill:white;fill-rule:nonzero;"/>
                        </g>
                        <g transform="matrix(4.3882,0,0.156512,4.77396,-559.704,-290.204)">
                            <path d="M289.094,133.855C286.827,133.855 284.894,133.613 283.294,133.13C281.694,132.647 280.385,132.038 279.369,131.305C278.352,130.572 277.61,129.813 277.144,129.03C276.677,128.247 276.427,127.555 276.394,126.955C276.36,126.588 276.469,126.28 276.719,126.03C276.969,125.78 277.244,125.655 277.544,125.655L284.794,125.655C284.827,125.655 284.877,125.663 284.944,125.68C285.01,125.697 285.077,125.738 285.144,125.805C285.577,125.938 285.985,126.155 286.369,126.455C286.752,126.755 287.185,127.022 287.669,127.255C288.152,127.488 288.727,127.605 289.394,127.605C289.96,127.605 290.469,127.48 290.919,127.23C291.369,126.98 291.594,126.622 291.594,126.155C291.594,125.755 291.469,125.405 291.219,125.105C290.969,124.805 289.859,123.958 289.059,123.675C288.259,123.391 286.976,123.083 285.209,122.75C283.576,122.416 282.084,121.925 280.734,121.275C279.384,120.625 278.318,119.75 277.534,118.65C276.751,117.55 276.359,116.2 276.359,114.6C276.359,113.233 276.809,111.916 277.709,110.65C278.609,109.383 279.951,108.341 281.734,107.525C283.518,106.708 285.709,106.3 288.309,106.3C290.276,106.3 292.018,106.533 293.534,107C295.051,107.466 296.334,108.05 297.384,108.75C298.434,109.45 299.234,110.2 299.784,111C300.334,111.8 300.626,112.516 300.659,113.15C300.693,113.516 300.593,113.825 300.359,114.075C300.126,114.325 299.859,114.45 299.559,114.45L293.009,114.45C292.909,114.45 292.801,114.441 292.684,114.425C292.568,114.408 292.476,114.366 292.409,114.3C291.943,114.2 291.518,114.008 291.134,113.725C290.751,113.441 290.343,113.175 289.909,112.925C289.476,112.675 288.926,112.55 288.259,112.55C287.693,112.55 287.234,112.683 286.884,112.95C286.534,113.216 286.359,113.566 286.359,114C286.359,114.366 286.476,114.7 286.709,115C286.943,115.3 287.476,115.583 288.309,115.85C289.143,116.116 290.459,116.4 292.259,116.7C294.593,117.066 296.459,117.675 297.859,118.525C299.259,119.375 300.844,120.922 301.444,122.055C302.044,123.188 302.344,124.322 302.344,125.455C302.344,127.155 301.835,128.638 300.819,129.905C299.802,131.172 298.302,132.147 296.319,132.83C294.335,133.513 291.927,133.855 289.094,133.855Z" style="fill:white;fill-rule:nonzero;"/>
                        </g>
                        <g transform="matrix(3.74869,0,0,3.70136,-245.169,-142.675)">
                            <path d="M278.944,133.355C278.577,133.355 278.269,133.23 278.019,132.98C277.769,132.73 277.644,132.422 277.644,132.055L277.644,108.655C277.644,108.288 277.769,107.98 278.019,107.73C278.269,107.48 278.577,107.355 278.944,107.355L286.344,107.355C286.71,107.355 287.027,107.48 287.294,107.73C287.56,107.98 287.694,108.288 287.694,108.655L287.694,132.055C287.694,132.422 287.56,132.73 287.294,132.98C287.027,133.23 286.71,133.355 286.344,133.355L278.944,133.355Z" style="fill:white;fill-rule:nonzero;"/>
                        </g>
                        <g transform="matrix(3.74869,0,0,3.70136,-245.169,-142.675)">
                            <path d="M279.044,104.105C278.677,104.105 278.369,103.98 278.119,103.73C277.869,103.48 277.744,103.172 277.744,102.805L277.744,97.555C277.744,97.188 277.869,96.872 278.119,96.605C278.369,96.338 278.677,96.205 279.044,96.205L286.244,96.205C286.61,96.205 286.927,96.338 287.194,96.605C287.46,96.872 287.594,97.188 287.594,97.555L287.594,102.805C287.594,103.172 287.46,103.48 287.194,103.73C286.927,103.98 286.61,104.105 286.244,104.105L279.044,104.105Z" style="fill:white;fill-rule:nonzero;"/>
                        </g>
                        <g transform="matrix(3.69079,0,0,3.69079,-176.613,-141.244)">
                            <path d="M292.344,133.355C290.077,133.355 288.085,133.022 286.369,132.355C284.652,131.688 283.319,130.597 282.369,129.08C281.419,127.563 280.944,125.555 280.944,123.055L280.944,115.005L276.994,115.005C276.627,115.005 276.319,114.88 276.069,114.63C275.819,114.38 275.694,114.072 275.694,113.705L275.694,108.655C275.694,108.288 275.819,107.98 276.069,107.73C276.319,107.48 276.627,107.355 276.994,107.355L280.944,107.355L280.944,99.155C280.944,98.788 281.069,98.48 281.319,98.23C281.569,97.98 281.877,97.855 282.244,97.855L289.494,97.855C289.86,97.855 290.169,97.98 290.419,98.23C290.669,98.48 290.794,98.788 290.794,99.155L290.794,107.355L297.094,107.355C297.46,107.355 297.769,107.48 298.019,107.73C298.269,107.98 298.394,108.288 298.394,108.655L298.394,113.705C298.394,114.072 298.269,114.38 298.019,114.63C297.769,114.88 297.46,115.005 297.094,115.005L290.794,115.005L290.794,122.205C290.794,123.172 290.994,123.93 291.394,124.48C291.794,125.03 292.427,125.305 293.294,125.305L297.494,125.305C297.86,125.305 298.169,125.43 298.419,125.68C298.669,125.93 298.794,126.238 298.794,126.605L298.794,132.055C298.794,132.422 298.669,132.73 298.419,132.98C298.169,133.23 297.86,133.355 297.494,133.355L292.344,133.355Z" style="fill:white;fill-rule:nonzero;"/>
                        </g>
                        <g transform="matrix(4.17253,0,0,4.17253,-224.34,-207.594)">
                            <path d="M290.394,133.855C286.227,133.855 282.919,132.78 280.469,130.63C278.019,128.48 276.76,125.188 276.694,120.755L276.694,119.755C276.794,116.988 277.402,114.647 278.519,112.73C279.635,110.813 281.202,109.355 283.219,108.355C285.235,107.355 287.61,106.855 290.344,106.855C293.41,106.855 295.952,107.463 297.969,108.68C299.985,109.897 301.494,111.513 302.494,113.53C303.494,115.547 303.994,117.805 303.994,120.305L303.994,121.705C303.994,122.038 303.86,122.338 303.594,122.605C303.327,122.872 303.01,123.005 302.644,123.005L287.244,123.005L287.244,123.305C287.244,124.105 287.352,124.813 287.569,125.43C287.785,126.047 288.127,126.53 288.594,126.88C289.06,127.23 289.627,127.405 290.294,127.405C290.727,127.405 291.094,127.338 291.394,127.205C291.694,127.072 291.96,126.897 292.194,126.68C292.427,126.463 292.627,126.255 292.794,126.055C293.094,125.755 293.335,125.563 293.519,125.48C293.702,125.397 293.994,125.355 294.394,125.355L302.244,125.355C302.544,125.355 302.802,125.455 303.019,125.655C303.235,125.855 303.327,126.105 303.294,126.405C303.26,127.005 302.977,127.73 302.444,128.58C301.91,129.43 301.119,130.255 300.069,131.055C299.019,131.855 297.677,132.522 296.044,133.055C294.41,133.588 292.527,133.855 290.394,133.855ZM287.244,117.405L293.444,117.405L293.444,117.305C293.444,116.405 293.327,115.638 293.094,115.005C292.86,114.372 292.51,113.897 292.044,113.58C291.577,113.263 291.01,113.105 290.344,113.105C289.677,113.105 289.11,113.263 288.644,113.58C288.177,113.897 287.827,114.372 287.594,115.005C287.36,115.638 287.244,116.405 287.244,117.305L287.244,117.405Z" style="fill:white;fill-rule:nonzero;"/>
                        </g>
                    </g>
                    <g transform="matrix(4.33314,0,1.00685e-15,4.10933,-1625.5,-1686.76)">
                        <path d="M442.92,467.884C440.92,467.884 439.02,467.626 437.22,467.109C435.42,466.593 433.812,465.834 432.395,464.834C430.978,463.834 429.862,462.601 429.045,461.134C428.228,459.668 427.803,457.968 427.77,456.034C427.77,455.734 427.87,455.476 428.07,455.259C428.27,455.043 428.52,454.934 428.82,454.934L437.32,454.934C437.853,454.934 438.245,455.051 438.495,455.284C438.745,455.518 438.97,455.901 439.17,456.434C439.403,457.101 439.695,457.659 440.045,458.109C440.395,458.559 440.837,458.884 441.37,459.084C441.903,459.284 442.52,459.384 443.22,459.384C444.52,459.384 445.528,458.968 446.245,458.134C446.962,457.301 447.32,455.984 447.32,454.184L447.32,442.33C447.32,441.697 446.834,441.183 446.234,441.182C442.479,441.173 430.275,441.145 430.275,441.145C429.909,441.145 429.6,441.02 429.35,440.77C429.1,440.52 428.975,440.212 428.975,439.845L428.975,433.645C428.975,433.278 429.1,432.97 429.35,432.72C429.6,432.47 429.909,432.345 430.275,432.345L457.12,432.384C457.487,432.384 457.795,432.509 458.045,432.759C458.295,433.009 458.42,433.318 458.42,433.684L458.42,454.534C458.42,457.501 457.745,459.976 456.395,461.959C455.045,463.943 453.195,465.426 450.845,466.409C448.495,467.393 445.853,467.884 442.92,467.884Z" style="fill:white;fill-rule:nonzero;"/>
                    </g>
                </g>
            </g>
            <g transform="matrix(0.488886,0,0,0.766786,1795.22,61.4524)">
                <g transform="matrix(1,0,0,1,0,87.1414)">
                    <g transform="matrix(4.25206,0,0,4.25206,-811.286,-218.218)">
                        <path d="M285.694,133.855C283.86,133.855 282.219,133.505 280.769,132.805C279.319,132.105 278.185,131.163 277.369,129.98C276.552,128.797 276.144,127.472 276.144,126.005C276.144,123.605 277.119,121.713 279.069,120.33C281.019,118.947 283.627,117.988 286.894,117.455L292.694,116.555L292.694,116.205C292.694,115.172 292.527,114.397 292.194,113.88C291.86,113.363 291.194,113.105 290.194,113.105C289.494,113.105 288.927,113.238 288.494,113.505C288.06,113.772 287.66,114.155 287.294,114.655C286.96,115.022 286.527,115.205 285.994,115.205L278.944,115.205C278.61,115.205 278.335,115.105 278.119,114.905C277.902,114.705 277.81,114.438 277.844,114.105C277.877,113.505 278.127,112.797 278.594,111.98C279.06,111.163 279.785,110.363 280.769,109.58C281.752,108.797 283.027,108.147 284.594,107.63C286.16,107.113 288.044,106.855 290.244,106.855C292.477,106.855 294.394,107.105 295.994,107.605C297.594,108.105 298.91,108.805 299.944,109.705C300.977,110.605 301.744,111.697 302.244,112.98C302.744,114.263 302.994,115.688 302.994,117.255L302.994,132.055C302.994,132.422 302.869,132.73 302.619,132.98C302.369,133.23 302.06,133.355 301.694,133.355L294.444,133.355C294.077,133.355 293.76,133.23 293.494,132.98C293.227,132.73 293.094,132.422 293.094,132.055L293.094,130.455C292.66,131.122 292.085,131.705 291.369,132.205C290.652,132.705 289.819,133.105 288.869,133.405C287.919,133.705 286.86,133.855 285.694,133.855ZM288.594,127.305C289.427,127.305 290.16,127.13 290.794,126.78C291.427,126.43 291.919,125.888 292.269,125.155C292.619,124.422 292.794,123.505 292.794,122.405L292.794,122.055L289.194,122.755C287.96,122.988 287.094,123.322 286.594,123.755C286.094,124.188 285.844,124.688 285.844,125.255C285.844,125.655 285.96,126.005 286.194,126.305C286.427,126.605 286.752,126.847 287.169,127.03C287.585,127.213 288.06,127.305 288.594,127.305Z" style="fill:white;fill-rule:nonzero;"/>
                    </g>
                    <g transform="matrix(4.25206,0,0,4.25206,-693.992,-218.218)">
                        <path d="M278.944,133.355C278.577,133.355 278.269,133.23 278.019,132.98C277.769,132.73 277.644,132.422 277.644,132.055L277.644,108.655C277.644,108.288 277.769,107.98 278.019,107.73C278.269,107.48 278.577,107.355 278.944,107.355L285.794,107.355C286.16,107.355 286.469,107.48 286.719,107.73C286.969,107.98 287.094,108.288 287.094,108.655L287.094,110.305C287.727,109.505 288.644,108.747 289.844,108.03C291.044,107.313 292.46,106.922 294.094,106.855C297.994,106.755 300.627,108.155 301.994,111.055C302.76,109.855 303.852,108.855 305.269,108.055C306.685,107.255 308.194,106.855 309.794,106.855C311.527,106.855 313.085,107.247 314.469,108.03C315.852,108.813 316.96,110.013 317.794,111.63C318.627,113.247 319.044,115.355 319.044,117.955L319.044,132.055C319.044,132.422 318.919,132.73 318.669,132.98C318.419,133.23 318.11,133.355 317.744,133.355L310.444,133.355C310.077,133.355 309.769,133.23 309.519,132.98C309.269,132.73 309.144,132.422 309.144,132.055L309.144,118.255C309.144,117.388 309.01,116.697 308.744,116.18C308.477,115.663 308.135,115.28 307.719,115.03C307.302,114.78 306.81,114.655 306.244,114.655C305.71,114.655 305.227,114.78 304.794,115.03C304.36,115.28 304.019,115.663 303.769,116.18C303.519,116.697 303.394,117.388 303.394,118.255L303.394,132.055C303.394,132.422 303.269,132.73 303.019,132.98C302.769,133.23 302.46,133.355 302.094,133.355L294.794,133.355C294.427,133.355 294.119,133.23 293.869,132.98C293.619,132.73 293.494,132.422 293.494,132.055L293.494,118.255C293.494,117.388 293.36,116.697 293.094,116.18C292.827,115.663 292.485,115.28 292.069,115.03C291.652,114.78 291.16,114.655 290.594,114.655C290.06,114.655 289.577,114.788 289.144,115.055C288.71,115.322 288.36,115.705 288.094,116.205C287.827,116.705 287.694,117.388 287.694,118.255L287.694,132.055C287.694,132.422 287.569,132.73 287.319,132.98C287.069,133.23 286.76,133.355 286.394,133.355L278.944,133.355Z" style="fill:white;fill-rule:nonzero;"/>
                    </g>
                    <g transform="matrix(4.3882,0,0.156512,4.77396,-559.704,-290.204)">
                        <path d="M289.094,133.855C286.827,133.855 284.894,133.613 283.294,133.13C281.694,132.647 280.385,132.038 279.369,131.305C278.352,130.572 277.61,129.813 277.144,129.03C276.677,128.247 276.427,127.555 276.394,126.955C276.36,126.588 276.469,126.28 276.719,126.03C276.969,125.78 277.244,125.655 277.544,125.655L284.794,125.655C284.827,125.655 284.877,125.663 284.944,125.68C285.01,125.697 285.077,125.738 285.144,125.805C285.577,125.938 285.985,126.155 286.369,126.455C286.752,126.755 287.185,127.022 287.669,127.255C288.152,127.488 288.727,127.605 289.394,127.605C289.96,127.605 290.469,127.48 290.919,127.23C291.369,126.98 291.594,126.622 291.594,126.155C291.594,125.755 291.469,125.405 291.219,125.105C290.969,124.805 289.859,123.958 289.059,123.675C288.259,123.391 286.976,123.083 285.209,122.75C283.576,122.416 282.084,121.925 280.734,121.275C279.384,120.625 278.318,119.75 277.534,118.65C276.751,117.55 276.359,116.2 276.359,114.6C276.359,113.233 276.809,111.916 277.709,110.65C278.609,109.383 279.951,108.341 281.734,107.525C283.518,106.708 285.709,106.3 288.309,106.3C290.276,106.3 292.018,106.533 293.534,107C295.051,107.466 296.334,108.05 297.384,108.75C298.434,109.45 299.234,110.2 299.784,111C300.334,111.8 300.626,112.516 300.659,113.15C300.693,113.516 300.593,113.825 300.359,114.075C300.126,114.325 299.859,114.45 299.559,114.45L293.009,114.45C292.909,114.45 292.801,114.441 292.684,114.425C292.568,114.408 292.476,114.366 292.409,114.3C291.943,114.2 291.518,114.008 291.134,113.725C290.751,113.441 290.343,113.175 289.909,112.925C289.476,112.675 288.926,112.55 288.259,112.55C287.693,112.55 287.234,112.683 286.884,112.95C286.534,113.216 286.359,113.566 286.359,114C286.359,114.366 286.476,114.7 286.709,115C286.943,115.3 287.476,115.583 288.309,115.85C289.143,116.116 290.459,116.4 292.259,116.7C294.593,117.066 296.459,117.675 297.859,118.525C299.259,119.375 300.844,120.922 301.444,122.055C302.044,123.188 302.344,124.322 302.344,125.455C302.344,127.155 301.835,128.638 300.819,129.905C299.802,131.172 298.302,132.147 296.319,132.83C294.335,133.513 291.927,133.855 289.094,133.855Z" style="fill:white;fill-rule:nonzero;"/>
                    </g>
                    <g transform="matrix(3.74869,0,0,3.70136,-245.169,-142.675)">
                        <path d="M278.944,133.355C278.577,133.355 278.269,133.23 278.019,132.98C277.769,132.73 277.644,132.422 277.644,132.055L277.644,108.655C277.644,108.288 277.769,107.98 278.019,107.73C278.269,107.48 278.577,107.355 278.944,107.355L286.344,107.355C286.71,107.355 287.027,107.48 287.294,107.73C287.56,107.98 287.694,108.288 287.694,108.655L287.694,132.055C287.694,132.422 287.56,132.73 287.294,132.98C287.027,133.23 286.71,133.355 286.344,133.355L278.944,133.355Z" style="fill:white;fill-rule:nonzero;"/>
                    </g>
                    <g transform="matrix(3.74869,0,0,3.70136,-245.169,-142.675)">
                        <path d="M279.044,104.105C278.677,104.105 278.369,103.98 278.119,103.73C277.869,103.48 277.744,103.172 277.744,102.805L277.744,97.555C277.744,97.188 277.869,96.872 278.119,96.605C278.369,96.338 278.677,96.205 279.044,96.205L286.244,96.205C286.61,96.205 286.927,96.338 287.194,96.605C287.46,96.872 287.594,97.188 287.594,97.555L287.594,102.805C287.594,103.172 287.46,103.48 287.194,103.73C286.927,103.98 286.61,104.105 286.244,104.105L279.044,104.105Z" style="fill:white;fill-rule:nonzero;"/>
                    </g>
                    <g transform="matrix(5.52186e-17,-1.35399,0.827113,5.31901e-18,-107.753,398.915)">
                        <path d="M92.619,355.622C93.193,354.473 94.052,353.807 94.959,353.807C95.866,353.807 96.725,354.473 97.299,355.622C102.163,365.35 113.357,387.739 118.718,398.46C119.261,399.546 119.373,401.047 119.006,402.315C118.639,403.583 117.858,404.392 117.001,404.392C107.053,404.392 83.873,404.392 73.461,404.392C72.504,404.392 71.633,403.489 71.223,402.073C70.814,400.658 70.939,398.982 71.545,397.77C77.027,386.805 87.857,365.146 92.619,355.622Z" style="fill:rgb(252,206,94);"/>
                    </g>
                    <g transform="matrix(3.69079,0,0,3.69079,-176.613,-141.244)">
                        <path d="M292.344,133.355C290.077,133.355 288.085,133.022 286.369,132.355C284.652,131.688 283.319,130.597 282.369,129.08C281.419,127.563 280.944,125.555 280.944,123.055L280.944,115.005L276.994,115.005C276.627,115.005 276.319,114.88 276.069,114.63C275.819,114.38 275.694,114.072 275.694,113.705L275.694,108.655C275.694,108.288 275.819,107.98 276.069,107.73C276.319,107.48 276.627,107.355 276.994,107.355L280.944,107.355L280.944,99.155C280.944,98.788 281.069,98.48 281.319,98.23C281.569,97.98 281.877,97.855 282.244,97.855L289.494,97.855C289.86,97.855 290.169,97.98 290.419,98.23C290.669,98.48 290.794,98.788 290.794,99.155L290.794,107.355L297.094,107.355C297.46,107.355 297.769,107.48 298.019,107.73C298.269,107.98 298.394,108.288 298.394,108.655L298.394,113.705C298.394,114.072 298.269,114.38 298.019,114.63C297.769,114.88 297.46,115.005 297.094,115.005L290.794,115.005L290.794,122.205C290.794,123.172 290.994,123.93 291.394,124.48C291.794,125.03 292.427,125.305 293.294,125.305L297.494,125.305C297.86,125.305 298.169,125.43 298.419,125.68C298.669,125.93 298.794,126.238 298.794,126.605L298.794,132.055C298.794,132.422 298.669,132.73 298.419,132.98C298.169,133.23 297.86,133.355 297.494,133.355L292.344,133.355Z" style="fill:white;fill-rule:nonzero;"/>
                    </g>
                    <g transform="matrix(4.17253,0,0,4.17253,-224.34,-207.594)">
                        <path d="M290.394,133.855C286.227,133.855 282.919,132.78 280.469,130.63C278.019,128.48 276.76,125.188 276.694,120.755L276.694,119.755C276.794,116.988 277.402,114.647 278.519,112.73C279.635,110.813 281.202,109.355 283.219,108.355C285.235,107.355 287.61,106.855 290.344,106.855C293.41,106.855 295.952,107.463 297.969,108.68C299.985,109.897 301.494,111.513 302.494,113.53C303.494,115.547 303.994,117.805 303.994,120.305L303.994,121.705C303.994,122.038 303.86,122.338 303.594,122.605C303.327,122.872 303.01,123.005 302.644,123.005L287.244,123.005L287.244,123.305C287.244,124.105 287.352,124.813 287.569,125.43C287.785,126.047 288.127,126.53 288.594,126.88C289.06,127.23 289.627,127.405 290.294,127.405C290.727,127.405 291.094,127.338 291.394,127.205C291.694,127.072 291.96,126.897 292.194,126.68C292.427,126.463 292.627,126.255 292.794,126.055C293.094,125.755 293.335,125.563 293.519,125.48C293.702,125.397 293.994,125.355 294.394,125.355L302.244,125.355C302.544,125.355 302.802,125.455 303.019,125.655C303.235,125.855 303.327,126.105 303.294,126.405C303.26,127.005 302.977,127.73 302.444,128.58C301.91,129.43 301.119,130.255 300.069,131.055C299.019,131.855 297.677,132.522 296.044,133.055C294.41,133.588 292.527,133.855 290.394,133.855ZM287.244,117.405L293.444,117.405L293.444,117.305C293.444,116.405 293.327,115.638 293.094,115.005C292.86,114.372 292.51,113.897 292.044,113.58C291.577,113.263 291.01,113.105 290.344,113.105C289.677,113.105 289.11,113.263 288.644,113.58C288.177,113.897 287.827,114.372 287.594,115.005C287.36,115.638 287.244,116.405 287.244,117.305L287.244,117.405Z" style="fill:white;fill-rule:nonzero;"/>
                    </g>
                </g>
                <g transform="matrix(4.25954,-2.22045e-16,5.55112e-16,4.53122,-1594.15,-1672.67)">
                    <path d="M442.92,467.884C440.92,467.884 439.02,467.626 437.22,467.109C435.42,466.593 433.812,465.834 432.395,464.834C430.978,463.834 429.862,462.601 429.045,461.134C428.228,459.668 427.803,457.968 427.77,456.034C427.77,455.734 427.87,455.476 428.07,455.259C428.27,455.043 428.52,454.934 428.82,454.934L437.32,454.934C437.853,454.934 438.245,455.051 438.495,455.284C438.745,455.518 438.97,455.901 439.17,456.434C439.403,457.101 439.695,457.659 440.045,458.109C440.395,458.559 440.837,458.884 441.37,459.084C441.903,459.284 442.52,459.384 443.22,459.384C444.52,459.384 445.528,458.968 446.245,458.134C446.962,457.301 447.32,455.984 447.32,454.184L447.32,442.225C447.32,441.65 446.824,441.184 446.213,441.184C442.291,441.184 429.294,441.184 429.294,441.184C428.927,441.184 428.619,441.059 428.369,440.809C428.119,440.559 427.994,440.251 427.994,439.884L427.994,433.684C427.994,433.318 428.119,433.009 428.369,432.759C428.619,432.509 428.927,432.384 429.294,432.384L457.12,432.384C457.487,432.384 457.795,432.509 458.045,432.759C458.295,433.009 458.42,433.318 458.42,433.684L458.42,454.534C458.42,457.501 457.745,459.976 456.395,461.959C455.045,463.943 453.195,465.426 450.845,466.409C448.495,467.393 445.853,467.884 442.92,467.884Z" style="fill:white;fill-rule:nonzero;"/>
                </g>
            </g>
            <g transform="matrix(0.488886,0,0,0.766786,1449.46,-232.229)">
                <path d="M1863.89,1369.83C1863.89,1363.72 1858.94,1358.77 1852.83,1358.77L1830.7,1358.77C1824.6,1358.77 1819.64,1363.72 1819.64,1369.83L1819.64,1391.96C1819.64,1398.06 1824.6,1403.02 1830.7,1403.02L1852.83,1403.02C1858.94,1403.02 1863.89,1398.06 1863.89,1391.96L1863.89,1369.83Z" style="fill:rgb(41,158,207);"/>
            </g>
        </g>
    </g>
</svg>
