<svg width="123" height="727" viewBox="0 0 123 727" fill="none" xmlns="http://www.w3.org/2000/svg">
<path d="M33.7873 660.221C34.1078 660.249 34.6625 660.242 35.1145 660.045C35.5285 659.877 35.6626 659.566 35.5524 659.296C35.446 659.035 35.2144 658.923 34.6664 658.854C33.987 658.766 33.394 658.497 33.1602 657.923C32.7478 656.911 33.3364 655.832 34.6208 655.309C35.1839 655.079 35.6617 655.006 35.9504 655.047L36.0272 656.208C35.6881 656.195 35.3492 656.254 35.0335 656.381C34.6195 656.55 34.4303 656.846 34.5493 657.138C34.6427 657.367 34.9019 657.457 35.3543 657.504C36.0601 657.593 36.7159 657.836 36.9669 658.452C37.4343 659.599 36.7525 660.631 35.4315 661.157C34.8221 661.393 34.1951 661.466 33.8429 661.391L33.7873 660.221ZM37.9792 660.086L36.4264 652.203L37.892 651.606L38.4826 654.666L38.4957 654.639C38.7016 654.02 39.0824 653.495 39.7298 653.231C40.4948 652.92 41.1263 653.226 41.4579 654.039C41.5599 654.29 41.6823 654.711 41.7465 655.051L42.3961 658.286L40.931 658.883L40.2965 655.746C40.2579 655.531 40.1752 655.266 40.0946 655.068C39.9671 654.755 39.7473 654.579 39.4179 654.713C38.9503 654.904 38.701 655.72 38.8969 656.748L39.444 659.49L37.9794 660.086L37.9792 660.086ZM47.0441 652.582C47.7708 654.366 47.2226 656.365 45.4921 657.07C44.1748 657.607 43.1093 656.995 42.6545 655.879C41.9447 654.137 42.4754 652.096 44.2378 651.378C45.608 650.82 46.6229 651.55 47.0436 652.583L47.0441 652.582ZM44.1388 655.238C44.3514 655.759 44.7339 656.09 45.2331 655.886C46.0079 655.57 45.8912 654.037 45.53 653.151C45.3557 652.723 45.0071 652.355 44.4872 652.566C43.6902 652.891 43.8029 654.413 44.1388 655.238ZM48.8515 658.022L47.7264 652.343C47.6015 651.701 47.4044 650.884 47.2479 650.317L48.5436 649.789L48.789 650.635L48.8102 650.627C48.9826 649.925 49.4081 649.329 49.992 649.091C51.0642 648.654 51.8425 649.317 52.2379 650.288C52.9519 652.04 52.5298 654.225 50.8092 654.926C50.4484 655.073 50.0955 655.149 49.8707 655.083L49.8387 655.097L50.3168 657.425L48.8517 658.022L48.8515 658.022ZM49.606 653.886C49.8163 653.946 50.0306 653.956 50.2964 653.847C51.1141 653.514 51.1376 651.96 50.7593 651.032C50.6021 650.646 50.2981 650.296 49.8521 650.477C49.3426 650.685 49.1069 651.475 49.3025 652.441L49.606 653.886ZM53.6745 653.691L52.5687 648.15L54.0446 647.548L55.14 653.094L53.6745 653.691ZM53.2614 647.236C52.8474 647.405 52.4295 647.17 52.2551 646.742C52.064 646.273 52.2754 645.728 52.7426 645.538C53.1887 645.356 53.6156 645.584 53.7857 646.001C53.9918 646.537 53.7395 647.042 53.2831 647.228L53.2614 647.236ZM56.4141 652.575L55.5363 648.201L54.8569 648.478L54.6285 647.31L55.3083 647.033L55.2452 646.757C55.1157 646.104 55.0982 645.395 55.4275 644.775C55.6845 644.281 56.1432 643.918 56.6641 643.705C57.0249 643.558 57.3113 643.5 57.5102 643.504L57.6822 644.746C57.5114 644.758 57.3434 644.797 57.185 644.863C56.6967 645.062 56.5854 645.64 56.7006 646.165L56.7521 646.445L57.7716 646.029L58.0102 647.194L57.002 647.605L57.8798 651.978L56.4143 652.575L56.4141 652.575ZM59.5878 645.29L60.7583 647.495C60.9745 647.878 61.1821 648.266 61.3812 648.659L61.4024 648.65C61.4094 648.332 61.351 647.886 61.3385 647.246L61.2976 644.593L62.8266 643.97L62.5648 648.464C62.4546 650.017 62.2228 651.21 61.8046 652.098C61.4797 652.79 60.9602 653.278 60.6883 653.461L59.7866 652.403C59.9974 652.221 60.2532 651.969 60.4488 651.659C60.6949 651.291 60.8542 650.861 60.8924 650.468C60.905 650.378 60.8957 650.324 60.8322 650.229L58.0475 645.917L59.5875 645.289L59.5878 645.29ZM25.5529 655.394L25.2396 655.648C25.1374 655.524 25.0237 655.409 24.9 655.305C24.4532 654.934 23.9792 654.833 23.5311 655.015L23.5293 655.016C23.4982 655.029 23.4683 655.044 23.4384 655.059C23.4188 655.049 23.3989 655.039 23.3786 655.03C23.0999 654.905 22.8083 654.907 22.5122 655.038C21.9392 655.29 21.5297 655.936 21.3596 656.856C21.2392 657.504 21.2524 658.251 21.3848 658.779L20.3857 659.591C20.0924 659.831 20.0858 659.845 20.1682 660.175C20.2312 660.423 22.0713 667.453 22.0713 667.453L29.8634 665.722L25.6349 655.344C25.6059 655.358 25.5785 655.375 25.5529 655.394ZM24.0786 656.592L23.0016 657.467C22.9385 656.971 22.9826 656.434 23.1406 656.031C23.1987 655.88 23.2936 655.7 23.4356 655.562C23.7302 655.824 23.9542 656.276 24.0786 656.592ZM22.6772 655.412C22.7974 655.355 22.9318 655.337 23.0619 655.359C22.9295 655.517 22.825 655.695 22.7529 655.887C22.5429 656.424 22.5058 657.141 22.6305 657.768L21.7459 658.486C21.5725 657.491 21.7932 655.801 22.6774 655.412L22.6772 655.412ZM23.672 661.078C23.9591 661.671 25.6445 661.139 26.3174 662.528C26.8468 663.622 26.4816 664.665 25.5288 665.124C24.3862 665.674 23.4639 665.258 23.4639 665.258L23.2892 664.118C23.2892 664.118 24.1347 664.335 24.6418 664.091C24.9729 663.931 24.9837 663.611 24.8932 663.423C24.5187 662.65 23.21 663.237 22.5936 661.967C22.0755 660.897 22.3563 659.485 23.9361 658.723C24.5448 658.431 24.9283 658.457 24.9283 658.457L25.1123 659.969C25.1123 659.969 24.6234 659.953 24.1461 660.183C23.4452 660.521 23.6187 660.97 23.6719 661.077L23.672 661.078ZM24.4157 656.318C24.2937 656.032 24.0956 655.645 23.8179 655.354C24.2907 655.257 24.7061 655.657 24.916 655.911L24.4157 656.318ZM30.0933 665.595L32.8157 663.625C32.8157 663.625 27.9918 655.511 27.9595 655.455C27.9452 655.431 27.9232 655.413 27.8971 655.404C27.871 655.394 27.8424 655.393 27.8156 655.402C27.7708 655.416 26.9142 655.75 26.9142 655.75C26.9142 655.75 26.1936 655.467 25.9224 655.358L30.0933 665.595Z" fill="white"/>
<path d="M70.657 716.442L59.8716 691.665L71.9307 687.066L77.3596 699.538C78.8963 703.068 77.8962 706.88 75.1609 708.611L76.988 712.808C79.2017 711.972 81.8794 713.313 82.959 715.801C83.2553 716.484 82.9996 717.226 82.3922 717.457L76.8956 719.553C74.5822 720.436 71.789 719.043 70.657 716.442Z" fill="white"/>
<path d="M73.0223 706.657C75.3208 705.78 76.2756 702.964 75.1506 700.379L70.5016 689.699L62.8597 692.614L72.8653 715.6C73.3995 716.827 74.7226 717.487 75.8146 717.07L79.829 715.539C79.2894 715.186 78.637 715.073 78.0564 715.295L76.9639 715.711C76.3539 715.944 75.6176 715.577 75.3192 714.891L72.4583 708.319C72.1599 707.634 72.4123 706.889 73.0223 706.657Z" fill="#0F0F0F"/>
<path d="M48.6854 701.498L41.1913 701.784L38.2134 701.268L34.6311 699.268L32.0598 697.202L28.5873 693.774L23.3894 681.016L20.4773 672.171L38.301 687.049L39.4107 683.829L42.2895 678.159L43.8828 676.126L45.531 673.379L47.5968 670.807L51.9151 666.972L62.0024 662.862L77.1665 661.873L76.6719 658.961L75.3972 654.983L73.661 653.269L71.1006 652.928L68.837 652.467L71.0896 651.203L71.7269 648.522L70.1115 647.105L69.1445 644.731L71.463 644.478L72.408 643.401L74.298 641.248L77.7373 639.5L81.847 640.247L86.1546 644.027L88.5281 643.06L93.9454 643.621L98.0662 646.093L98.2091 649.84L91.3853 652.62L88.012 655.378C88.3014 657.221 88.9285 661.024 89.1219 661.499C89.3154 661.974 89.2393 667.447 89.1771 670.125L85.7598 675.323L80.2108 682.081L78.4638 687.981C77.636 688.78 75.7431 690.474 74.7938 690.861L61.4429 696.3L48.6854 701.498Z" fill="#0F0F0F"/>
<path d="M86.9053 676.203L81.6752 681.832C80.1629 684.556 79.3949 687.895 79.1999 689.225C78.3649 690.338 77.3246 691.258 76.1221 691.952L73.7521 693.031C71.2239 694.081 68.671 695.134 67.2242 695.73L49.8798 702.186C40.4924 705.435 30.0619 700.789 26.2694 691.48L17.8154 670.731C17.5859 670.168 17.777 669.521 18.2758 669.173C18.7747 668.825 19.4476 668.869 19.8971 669.278L37.521 685.34L39.6168 680.694C39.9124 680.04 40.6829 679.748 41.338 680.044C41.993 680.339 42.2845 681.11 41.9888 681.765L39.1686 688.016L37.3349 692.4C37.1962 692.732 36.9349 692.977 36.6256 693.103C36.3181 693.228 35.9631 693.236 35.6325 693.098C34.9698 692.821 34.6571 692.059 34.9344 691.396L36.4159 687.854L22.3964 675.077L28.6797 690.499C31.8749 698.341 40.5361 702.343 48.4812 699.904C48.4665 699.871 48.4507 699.838 48.4362 699.804L66.2423 693.321C67.9129 692.632 71.0465 691.339 73.9146 690.146C75.0994 689.653 76.1195 688.894 76.9166 687.921C77.4006 685.803 78.6745 681.238 79.8982 679.921L84.9988 674.431C85.4882 673.905 86.3113 673.875 86.8378 674.364C87.3642 674.853 87.3945 675.676 86.9053 676.203Z" fill="white"/>
<path d="M83.414 646.049L82.2831 645.573C81.6206 645.294 80.8577 645.605 80.5787 646.267C80.2999 646.93 80.6108 647.693 81.2731 647.971L82.4038 648.447C82.7351 648.587 83.0915 648.579 83.3999 648.453C83.7083 648.327 83.9687 648.084 84.1083 647.753C84.3873 647.091 84.0765 646.328 83.414 646.049Z" fill="white"/>
<path d="M95.5272 642.668C91.8592 641.257 88.6936 641.147 86.2826 642.327L85.9068 641.793C83.8341 638.853 80.1265 637.567 76.6771 638.592C76.406 638.674 76.1433 638.766 75.8964 638.866C73.908 639.677 72.3325 641.207 71.4528 643.143L66.8077 642.823C66.2554 642.784 65.7392 643.1 65.5218 643.61C65.304 644.119 65.4329 644.71 65.8424 645.083L70.6428 649.454L65.8903 653.522C65.4351 653.912 65.3048 654.562 65.575 655.097C65.8449 655.632 66.4452 655.913 67.0292 655.779L73.336 654.323L75.9365 660.173L63.3993 661.374C53.687 662.303 45.1607 668.406 41.1489 677.3C40.8533 677.955 41.1447 678.725 41.7999 679.021C42.1384 679.173 42.5074 679.169 42.8261 679.04C43.1242 678.918 43.3782 678.686 43.521 678.37C47.1502 670.325 54.8628 664.805 63.6473 663.964L77.9839 662.591C78.4009 662.551 78.7726 662.313 78.9837 661.952C79.1947 661.591 79.219 661.15 79.049 660.767L75.9191 653.727L78.3167 653.174L79.986 655.739C81.234 657.657 83.6386 658.403 85.7456 657.545C85.7855 657.529 85.8254 657.512 85.8652 657.494L86.8044 657.082L87.9803 664.724C88.3064 666.845 88.0411 669.013 87.2133 670.993C86.936 671.656 87.2489 672.418 87.9118 672.695C88.2423 672.833 88.5973 672.825 88.9046 672.7C89.2141 672.574 89.4753 672.329 89.614 671.997C90.6267 669.574 90.951 666.923 90.5522 664.329L89.2285 655.726C92.4196 653.177 98.4211 651.35 98.4843 651.331C98.9025 651.205 99.2287 650.88 99.3551 650.462C99.7757 649.074 99.7058 647.569 99.1583 646.226C98.4949 644.597 97.1715 643.301 95.5272 642.668ZM96.8976 647.651C96.5847 647.507 96.2391 647.376 95.86 647.267C92.5203 646.31 89.2497 647.865 87.0939 649.339C86.5006 649.744 86.3485 650.554 86.7541 651.147C87.1598 651.741 87.9697 651.892 88.5627 651.487C91.4931 649.483 93.6599 649.381 95.0804 649.759C92.7053 650.665 89.2817 652.188 87.1195 654.101L84.8192 655.111C83.8601 655.532 82.7408 655.2 82.1672 654.319L80.0016 650.991C79.7035 650.532 79.1508 650.309 78.6183 650.432L71.6116 652.049L73.4549 650.471C73.7385 650.229 73.904 649.876 73.9097 649.503C73.9154 649.13 73.7607 648.772 73.4846 648.521L70.3595 645.675L77.1065 646.14C77.8238 646.19 78.4448 645.649 78.4941 644.932C78.5436 644.215 78.0024 643.593 77.2853 643.544L74.3188 643.34C74.9469 642.425 75.8288 641.704 76.8786 641.276C77.0493 641.206 77.2333 641.142 77.4221 641.085C79.7964 640.379 82.3514 641.266 83.7789 643.291L84.8521 644.817C85.0545 645.105 85.3645 645.298 85.7118 645.354C86.059 645.409 86.4141 645.321 86.6955 645.111C88.9236 643.445 92.2197 644.183 94.5925 645.096C95.5692 645.472 96.3549 646.242 96.7483 647.207C96.8077 647.353 96.8572 647.501 96.8976 647.651Z" fill="white"/>
<path d="M47.5969 697.481L48.47 690.034L61.7298 691.385L65.3189 699.622L66.2436 702.471L66.4804 706.649L63.8734 710.844L61.8213 713.404L63.8094 718.693L65.162 718.889L67.4625 719.08L69.0751 720.6L68.5259 721.521L63.9075 723.28L61.4682 723.498L60.1273 721.875L59.0638 719.434L56.6652 714.657L55.6192 710.075L57.4113 706.191L56.0703 704.568L50.5388 702.051L47.5969 697.481Z" fill="#0F0F0F"/>
<path d="M61.4388 690.282C62.0677 690.067 62.8103 690.492 63.1138 691.187L64.1084 693.467L65.2164 696.007L66.8223 699.688C67.8051 701.941 68.0926 704.27 67.7816 706.401L66.6502 709.861C65.8223 711.393 64.6039 712.667 63.0492 713.515L64.908 717.776C67.1787 716.92 69.9254 718.292 71.0329 720.839C71.3368 721.538 71.0744 722.296 70.4516 722.533L64.8139 724.678C62.4416 725.581 59.5773 724.156 58.4164 721.495L54.8272 713.268C54.0955 711.591 54.1104 709.744 54.8678 708.282L56.0907 705.922L55.0158 705.652C52.6298 705.054 50.4646 703.594 48.8731 701.576C48.5888 701.261 47.8905 700.333 47.3708 699.142C47.3543 699.107 47.337 699.072 47.3206 699.036C45.7988 695.72 45.8556 692.047 47.4724 689.21C47.8209 688.599 48.6201 688.483 49.2346 688.965C49.8117 689.418 49.9854 690.254 49.6579 690.835C48.3767 693.108 48.4349 696.096 49.8494 698.696C51.0554 700.913 53.1314 702.504 55.4072 703.074L58.1827 703.77C58.7237 703.905 59.1814 704.393 59.2879 705.006C59.3409 705.31 59.284 705.61 59.1537 705.861L57.114 709.798C56.7198 710.558 56.7119 711.533 57.0927 712.406L60.6821 720.633C61.2307 721.891 62.5844 722.565 63.7058 722.138L67.8237 720.571C67.2701 720.209 66.6008 720.094 66.0052 720.321L64.8839 720.747C64.2585 720.985 63.5032 720.609 63.1971 719.908L60.2627 713.182C59.96 712.488 60.2039 711.721 60.8233 711.487C64.8487 709.968 66.5238 705.057 64.5575 700.55L60.8254 691.996C60.5136 691.281 60.788 690.504 61.4388 690.282Z" fill="white"/>
<path d="M75.6241 686.944L69.551 680.655L70.2309 675.775L72.1903 675.573L75.5843 677.328L79.5081 684.439L80.4928 683.436L83.7619 682.498C84.1651 682.657 85.0835 682.963 85.5314 682.917C85.9793 682.871 87.654 686.907 88.4354 688.931L87.4957 690.23L86.0061 689.783L83.3619 687.349L80.7876 689.117L78.2683 689.377L75.6241 686.944Z" fill="#0F0F0F"/>
<path d="M84.9024 681.68C85.2284 681.831 85.5381 682.027 85.8251 682.26C86.3632 682.623 87.0795 683.84 87.3705 684.403L89.1846 688.476C89.71 689.656 89.4929 690.896 88.6443 691.562C88.3332 691.806 87.9782 691.941 87.6087 691.971C86.9701 692.022 86.2891 691.758 85.7179 691.198L83.4604 688.984L81.7066 690.444C80.5571 691.4 78.8652 691.185 77.6448 689.947L75.4758 687.633L69.0571 680.766C68.5613 680.235 68.4964 679.411 68.92 678.944C69.3293 678.493 70.0545 678.584 70.537 679.1L79.0078 688.163C79.354 688.533 79.846 688.602 80.1779 688.325L82.6226 686.291C83.0244 685.956 83.6272 686.024 84.0632 686.451L87.0706 689.4C87.0967 689.426 87.1098 689.431 87.1098 689.431C87.1347 689.434 87.1842 689.395 87.1885 689.368C87.1885 689.368 87.1871 689.353 87.1723 689.32L85.2583 685.023C85.0668 684.593 84.7476 684.225 84.3563 684.032C83.9429 683.827 83.5128 683.821 83.1493 684.012L80.0509 685.643C79.5265 685.919 78.8342 685.638 78.4937 685.01L75.3423 679.199C74.3095 677.294 72.3949 676.16 70.5727 676.374C69.9228 676.448 69.2591 675.868 69.1603 675.096C69.0759 674.438 69.4789 673.902 70.0516 673.839C72.8026 673.538 75.6866 675.259 77.2456 678.134L79.784 682.815L81.9381 681.681C82.8179 681.217 83.8985 681.217 84.9024 681.68Z" fill="white"/>
<g clip-path="url(#clip0_774_844)">
<path d="M3.67308 60.1298L5.76802 63.7188L7.38831 62.1025L7.30418 59.3906L6.82548 57.4218L11.6404 54.4537L14.218 56.7749L20.1204 58.5755L10.7972 64.2936L9.56745 68.4034L10.659 69.9356L12.1873 72.0807L13.2788 73.6128L14.1981 72.9579L14.8991 71.9965L15.0753 70.947L14.7268 69.8094L14.4664 68.147L19.0629 64.8723L21.204 66.5808L22.3837 67.5883L24.7891 67.7224L27.0644 67.0254L29.9104 64.5359L32.7564 62.0463L38.7009 65.2028L39.0073 64.9845L39.1375 65.8156L38.2603 67.8265L42.7186 70.1938L42.1438 75.2229L42.8869 75.6176L45.2502 74.3957L46.3458 72.6913L47.6596 71.2933L47.7938 68.8879L47.1389 67.9687L45.2162 66.5667L44.3429 65.3409L47.0548 65.2568L47.6677 64.8202L50.1612 64.4296L52.7428 63.5142L57.3393 60.2395L67.0572 53.7784L68.5893 52.6868L70.7724 55.7511L72.9556 58.8155L75.357 62.1863L77.7163 64.201L79.6852 63.7224L81.3936 61.5812L81.9223 58.4328L81.2253 56.1577L79.6591 49.42L77.9585 45.0879L75.5572 41.7172L72.5849 40.1389L69.4364 39.6102L65.7172 40.874L55.3405 49.6526L54.2449 51.357L53.1954 51.1807L52.2801 48.5991L50.9282 45.4046L48.9212 41.2906L46.5199 37.9199L41.1462 32.9709L34.7651 29.2016L31.4864 27.8416L30.3067 26.8343L29.8701 26.2214L34.2102 18.0478L36.7959 13.8958L40.1285 6.9018L27.5647 15.8526L23.2747 18.9089C22.5393 19.4329 21.0122 21.1369 20.3405 21.9234C19.7557 23.2639 18.5247 25.9887 18.2796 26.1633C18.0344 26.338 17.6207 28.4806 17.4444 29.5301L17.3103 31.9356L18.6161 37.0107C18.9212 37.8713 19.5139 39.6974 19.4434 40.1172C19.3729 40.537 19.7331 41.6047 19.9221 42.086C19.396 43.0768 18.2826 45.1019 18.0374 45.2766C17.7923 45.4512 18.0501 46.8074 18.2097 47.4637L18.0755 49.8691C17.478 49.6788 16.2393 49.237 16.0646 48.9919C15.89 48.7467 14.2861 48.873 13.4409 48.5513L11.5602 48.5051L7.75281 50.2938L5.21322 52.565L3.06818 54.0932L1.6662 56.0159L3.67308 60.1298Z" fill="#0F0F0F"/>
<path d="M77.4403 50.7365L76.9045 49.4974C76.6725 48.9602 76.048 48.7128 75.5105 48.9444C74.9728 49.177 74.7253 49.8014 74.9579 50.3391L75.493 51.5785C75.5233 51.6481 75.56 51.7138 75.6031 51.7743C75.8869 52.1726 76.4201 52.3329 76.8876 52.131C77.4248 51.8991 77.6722 51.2745 77.4403 50.7365Z" fill="white"/>
<path d="M82.7693 56.2104L80.7309 49.6472C80.3103 48.2926 79.7782 46.9633 79.1499 45.6965C78.5194 44.4265 77.7841 43.1983 76.9633 42.0462C75.4284 39.8916 73.0392 38.5054 70.4073 38.2422C67.777 37.9788 65.1611 38.8638 63.2316 40.67L53.7765 49.5152C52.2966 44.5635 49.7162 39.9636 46.2494 36.1221C42.3833 31.8376 37.4649 28.5528 32.0262 26.6222L30.91 26.2259L35.4919 17.9741C35.7769 17.4618 35.5922 16.8164 35.0797 16.5316C34.5679 16.2474 33.9215 16.4319 33.6377 16.9443L28.7832 25.6846L25.3246 25.3546C24.7425 25.2994 24.1952 25.7052 24.1294 26.2866C24.0985 26.5578 24.1724 26.8162 24.319 27.022C24.4912 27.2638 24.7633 27.4321 25.0825 27.4624L26.8474 27.6308C28.3721 27.7764 29.8724 28.1089 31.3159 28.622C31.6924 28.7551 32.0646 28.8971 32.435 29.0438L31.1526 29.9575C30.68 30.2942 30.5269 30.9525 30.8498 31.4352C31.1833 31.9351 31.8612 32.0567 32.3471 31.7105L34.6931 30.0392C36.008 30.6772 37.2712 31.3962 38.4746 32.1931L35.3653 34.4082C34.8922 34.7453 34.7397 35.4032 35.0619 35.8862C35.396 36.3854 36.0743 36.508 36.5603 36.1618L40.3041 33.4946C41.5263 34.4309 42.6769 35.4519 43.751 36.5464L38.681 40.1584C38.2084 40.4951 38.0553 41.1537 38.3782 41.6361C38.7117 42.1361 39.3896 42.2577 39.8755 41.9115L45.1974 38.1201C45.8586 38.8883 46.4828 39.6872 47.07 40.5148L43.4017 43.1282C42.9285 43.4653 42.7754 44.1239 43.0988 44.6069C43.4322 45.1068 44.1107 45.228 44.5967 44.8818L48.2422 42.2846C48.9183 43.3827 49.5291 44.5255 50.0747 45.7056L48.0755 47.1299C47.6024 47.467 47.45 48.1251 47.7726 48.6086C48.1068 49.108 48.7847 49.2296 49.2705 48.8835L50.9219 47.707C51.4205 49.0043 51.8406 50.3416 52.1757 51.7135C52.2468 52.0047 52.4239 52.265 52.6843 52.4132C53.099 52.6504 53.6044 52.5815 53.9385 52.2689L64.6812 42.2189C66.1644 40.831 68.175 40.1503 70.1964 40.3526C72.2194 40.5555 74.0563 41.621 75.236 43.2768C75.992 44.338 76.6692 45.4695 77.2497 46.6389C77.8284 47.8054 78.3183 49.0295 78.7056 50.2763L80.744 56.8398C81.1459 58.1338 81.0182 59.4902 80.4508 60.647L72.643 49.6875C72.3059 49.2143 71.6479 49.0618 71.1644 49.3844C70.665 49.7186 70.5432 50.3966 70.8894 50.8826L79.0769 62.375C78.9898 62.4463 78.9007 62.5149 78.8081 62.5809C78.5136 62.7907 78.1534 62.8732 77.7951 62.8141C77.4389 62.7544 77.1261 62.5581 76.9154 62.2624C76.9154 62.2624 69.3851 51.6925 69.3572 51.6605C69.319 51.615 68.4126 50.5245 68.6068 48.9756C68.7821 47.5746 69.7987 46.1997 71.6277 44.8875C72.0991 44.5491 72.2568 43.8949 71.9365 43.4113C71.6039 42.9081 70.9236 42.7841 70.436 43.1315C68.0596 44.8245 66.7342 46.7178 66.4958 48.7592C66.3337 50.1525 66.727 51.3056 67.117 52.0656L56.3693 59.5954C55.8896 59.9314 55.7731 60.5931 56.109 61.073C56.4404 61.5544 57.1063 61.6687 57.586 61.3327L68.3011 53.8261L75.1881 63.493C75.7275 64.2502 76.5291 64.7521 77.4457 64.9062C78.3631 65.0586 79.2842 64.8466 80.0385 64.3092C82.6091 62.4779 83.7061 59.2226 82.7693 56.2104Z" fill="white"/>
<path d="M34.4917 62.4328L28.0395 67.0296C25.2221 69.0368 21.4017 68.6301 19.0591 66.2247L15.4241 68.8143L15.5147 68.9414C16.89 70.8718 16.4381 73.5619 14.5072 74.9375C14.0301 75.2775 13.3681 75.1662 13.0283 74.6892L9.47985 69.7084C8.04294 67.6915 8.51467 64.8817 10.5322 63.4444L17.9685 58.1466L21.2053 58.4447L11.7628 65.1718C10.6983 65.9302 10.4494 67.4129 11.2078 68.4774L13.9804 72.3692C14.3063 71.6787 14.2602 70.837 13.7868 70.1724L13.0809 69.1817C12.7411 68.7047 12.8527 68.0422 13.3293 67.7027L18.6267 63.9286C19.1038 63.5887 19.766 63.6999 20.1058 64.1769C21.6435 66.3353 24.6505 66.8399 26.8094 65.3018L32.5696 61.1981L34.4917 62.4328Z" fill="white"/>
<path d="M39.3211 63.9208L38.6895 65.956C36.9243 65.3393 34.2762 64.2924 32.7793 63.1872C32.0551 62.6237 31.5114 62.1665 31.0943 61.7835C30.1968 60.9427 29.3796 60.0129 28.6608 59.0039L26.2032 55.5543L27.931 54.3232L30.3887 57.7729C32.3518 60.5284 36.1506 62.7902 39.3211 63.9208ZM19.0838 41.5016C14.07 33.6519 15.6128 22.5196 23.2834 17.0548L40.5093 4.78262C40.9132 4.49489 41.4624 4.52512 41.8317 4.85567C42.2013 5.18539 42.2928 5.7282 42.052 6.16133L37.2497 14.8092C36.9654 15.3213 36.3195 15.5062 35.8071 15.2215C35.2949 14.9367 35.1108 14.2909 35.395 13.7791L37.9208 9.23082L24.514 18.7822C17.9016 23.493 16.444 32.9633 20.5258 39.8187L19.0838 41.5016ZM44.434 64.5215C47.2489 64.253 50.945 63.3828 53.2923 61.7501C53.77 61.4181 54.4255 61.5329 54.7619 62.0051L54.769 62.0151C55.1037 62.4966 54.985 63.1575 54.5039 63.4919C52.42 64.9414 48.1025 65.8377 45.658 66.3444L44.434 64.5215Z" fill="white"/>
<path d="M45.0428 65.0329C45.0689 65.0305 47.1241 66.5451 47.1241 66.5451L47.3997 66.7384C48.2794 67.3544 48.8687 68.3177 49.0171 69.3818C49.1651 70.4454 48.8608 71.5337 48.1824 72.3667L45.3713 75.8194C44.6589 76.694 43.5007 76.9454 42.4895 76.4449C42.1188 76.2615 41.8169 76.0009 41.5956 75.6902C41.2135 75.1539 41.0737 74.4682 41.241 73.7736L41.9816 70.6988L37.8315 68.7658C37.3549 68.5442 37.113 68.0073 37.2615 67.5044L37.7608 65.8107L38.3618 63.7703L41.1488 54.316C41.3149 53.7546 41.9047 53.4331 42.4667 53.5987C43.0279 53.7643 43.3493 54.354 43.1836 54.916L39.5545 67.2273L43.6633 69.1411C44.1213 69.3542 44.3648 69.8604 44.2468 70.3511L43.3031 74.2698C43.291 74.321 43.2578 74.4574 43.4309 74.5433C43.6042 74.629 43.6932 74.5204 43.7265 74.4791L46.5379 71.0269C46.8498 70.6441 46.9837 70.1631 46.9156 69.6741C46.8478 69.1846 46.5876 68.7594 46.1824 68.4761L43.5764 66.6515C43.5739 66.6492 43.5717 66.6474 43.569 66.6459L42.9502 66.2128C42.478 65.882 42.3566 65.2341 42.6771 64.7543L46.1158 59.6141C47.2824 57.8699 47.2118 55.5768 45.9382 53.9078C45.5837 53.4429 45.6731 52.7761 46.1385 52.4212C46.6048 52.0663 47.2701 52.156 47.6251 52.6216C49.4486 55.012 49.5501 58.2956 47.8785 60.7935L45.0428 65.0329Z" fill="white"/>
<path d="M18.6842 40.946C18.6787 40.9373 20.2139 39.3899 20.2223 39.4036C20.2982 39.3438 20.3752 39.2838 20.4534 39.2257C22.9988 37.3286 26.3029 36.8369 29.29 37.9109C29.8418 38.1091 30.1278 38.7173 29.9294 39.2684C29.7308 39.8197 29.1235 40.1059 28.5724 39.9074C26.2563 39.0745 23.6945 39.4554 21.7211 40.9266C19.7472 42.398 18.6506 44.744 18.7871 47.2013L18.9443 50.0324C18.9634 50.3807 18.8104 50.7165 18.5343 50.9299C18.2591 51.1435 17.8957 51.2076 17.5632 51.1023L13.3696 49.7666C12.5151 49.4946 11.5693 49.6425 10.8387 50.163L4.3585 54.7796C3.29459 55.5376 3.04556 57.0205 3.80393 58.0849L6.57616 61.9762C6.9021 61.2867 6.85612 60.4439 6.38265 59.7793L5.67719 58.7891C5.33737 58.3121 5.44812 57.6496 5.92526 57.3097L11.2232 53.5352C11.6997 53.1958 12.3627 53.307 12.7025 53.784C15.2812 57.4036 20.3243 58.2504 23.9444 55.6714L30.6818 50.8714C31.1588 50.5316 31.8214 50.6434 32.1612 51.1204C32.5011 51.5974 32.3899 52.2595 31.9129 52.5994L25.1754 57.3993C23.4146 58.6537 21.3878 59.2656 19.3744 59.2834C18.3411 59.243 17.3244 59.1044 16.3271 58.8503C14.5577 58.3188 12.9209 57.3055 11.6345 55.8472L8.01997 58.4223L8.11041 58.5492C9.48571 60.4797 9.03439 63.1694 7.10339 64.5451C6.62625 64.885 5.96392 64.7733 5.624 64.2961L2.076 59.316C0.63909 57.2991 1.11096 54.4892 3.12787 53.0523L9.60805 48.4356C10.8794 47.5298 12.5256 47.2721 14.0126 47.7455L16.7407 48.6143L16.6688 47.3198C16.5393 44.9852 17.2731 42.7308 18.6842 40.946Z" fill="white"/>
<path d="M57.1843 26.433C56.5929 26.1327 55.9949 26.2556 54.787 27.1499C54.787 27.1499 55.2019 27.2118 55.6274 27.4873C55.9366 27.689 56.2188 27.7876 56.428 27.8542C57.0439 28.0379 57.4644 27.825 58.1161 27.3425C58.1102 27.3346 57.6675 26.6535 57.1843 26.433Z" fill="white"/>
<path d="M55.1889 23.4998C54.5412 23.3396 53.8767 23.6717 53.8767 23.6717L47.7706 26.1257L51.1466 21.9284C51.5151 21.4956 51.9104 20.883 52.0624 20.2907C52.2647 19.5504 51.7082 18.7322 51.6376 18.6368C51.5846 18.5653 50.9703 17.8021 50.1797 17.7478C49.5688 17.7203 48.8675 17.9196 48.346 18.1458L43.3932 20.2134L47.5224 15.0893C47.5224 15.0893 47.9942 14.58 48.0697 13.8844C48.1753 12.7974 47.3204 11.9418 47.3204 11.9418L39.6274 21.5744C39.6274 21.5744 40.1678 22.4538 40.6804 22.7141C41.3645 23.0565 41.7691 23.1875 43.3097 22.5266C44.7073 21.9717 48.7204 20.2799 49.0058 20.167C49.1327 20.1223 49.4956 19.9644 49.6485 20.171C49.8015 20.3776 49.5763 20.655 49.4648 20.7868C49.2793 21.0349 46.4842 24.3715 45.5455 25.5464C44.4952 26.853 44.4651 27.2443 44.5988 28.0065C44.6982 28.5727 45.3816 29.3462 45.3816 29.3462L56.8283 24.7835C56.8283 24.7835 56.2514 23.722 55.1889 23.4998Z" fill="white"/>
<path d="M57.01 28.2538C57.01 28.2538 56.6422 28.2555 56.1825 28.0668C55.8709 27.9284 55.6465 27.7747 55.3349 27.6364C54.8223 27.3761 54.5392 27.4258 54.2293 27.6552L47.7369 32.4621C47.7369 32.4621 48.1478 33.1667 48.6604 33.427C49.3445 33.7694 49.6911 33.6726 50.8593 32.8077L57.01 28.2538Z" fill="white"/>
<path d="M57.9798 37.2119L65.1445 36.9022C65.1445 36.9022 64.3944 35.3906 63.2627 35.1582C62.5518 34.9956 61.5071 35.0801 61.5071 35.0801L58.9258 35.1828C58.7695 35.1878 58.6509 35.1772 58.5744 35.0739C58.4979 34.9706 58.5248 34.7908 58.5727 34.706L59.4243 32.267C59.4243 32.267 59.7547 31.2842 59.862 30.5651C59.9758 29.4227 58.7431 28.2563 58.7431 28.2563L56.2874 34.9094L49.1542 35.2451C49.1542 35.2451 50.0208 36.781 51.1525 37.0135C51.8634 37.1761 52.821 37.1069 52.821 37.1069L55.4023 37.0041C55.5586 36.9992 55.6772 37.0098 55.7537 37.1131C55.8302 37.2164 55.8033 37.3962 55.7554 37.4809L54.9038 39.92C54.9038 39.92 54.5816 40.8474 54.5061 41.5431C54.3923 42.6854 55.585 43.9307 55.585 43.9307L57.9798 37.2119Z" fill="white"/>
</g>
<defs>
<clipPath id="clip0_774_844">
<rect width="71.487" height="71.487" fill="white" transform="translate(47.2225) rotate(54.5329)"/>
</clipPath>
</defs>
</svg>
