<svg width="72" height="58" viewBox="0 0 72 58" fill="none" xmlns="http://www.w3.org/2000/svg">
<g clip-path="url(#clip0_772_552)">
<path d="M38.5565 39.9029C40.9943 39.1335 42.3836 37.6065 42.6818 35.3653C43.0443 32.6656 42.215 30.6728 40.2149 29.4421C39.4845 28.9917 38.6816 28.6273 37.904 28.2748C37.4735 28.0809 37.0784 27.9023 36.6905 27.7111C36.4431 27.5897 36.1912 27.471 35.9402 27.355C35.226 27.0224 34.5536 26.7097 33.9102 26.2892C32.8924 25.6231 32.5236 24.223 32.9912 22.8038C33.3737 21.6574 34.1857 21.1372 35.6248 21.1136C37.0268 21.1136 38.02 21.7843 38.4242 23.0032C38.5493 23.3684 38.6109 23.7608 38.6662 24.107C38.6924 24.2574 38.7124 24.3689 38.7305 24.4677H42.6528C42.7389 23.3521 42.4398 22.0425 41.8752 21.0873C40.9699 19.5522 39.5316 18.6214 37.3494 18.1602L36.8972 18.0641V16.1274H34.8373V17.9028L34.4349 18.026C34.1848 18.104 33.941 18.1774 33.7017 18.2481C33.0302 18.4474 32.3958 18.6359 31.8213 18.9232C30.0414 19.8141 28.8832 21.5668 28.7228 23.6113C28.5651 25.6123 29.4106 27.4791 30.9839 28.6074C31.8077 29.1965 32.7683 29.6306 33.6954 30.0493C34.1114 30.2378 34.5291 30.4272 34.9333 30.6274C35.1871 30.7552 35.4426 30.873 35.7 30.9908L35.8233 31.047C36.4214 31.318 36.986 31.5736 37.5279 31.9279C38.5837 32.6121 39.0015 34.0023 38.5665 35.3862C38.2149 36.5226 37.2705 37.1742 35.9084 37.2177C35.6221 37.2331 35.2913 37.2331 34.9705 37.2032C33.3501 37.0854 32.2245 35.9915 32.0388 34.3476L31.9572 33.7404H28.0667C27.7884 37.1026 29.7768 39.2368 34.1394 40.2627L34.579 40.3669V41.9963H36.6534V40.3343L37.4119 40.1757C37.8152 40.0941 38.1931 40.0171 38.5565 39.9029Z" fill="#CE4D45"/>
<path d="M30.1247 14.6821C31.9336 13.9371 33.9237 13.5257 36.0009 13.5257C40.6744 13.5257 44.8703 15.6083 47.7114 18.8925L50.0432 17.3564L58.3254 11.9062C50.0432 1.06475 35.1399 -2.2204 23.1004 4.00735L28.5742 12.3267L30.1247 14.6821Z" fill="#CE4D45"/>
<path d="M46.1663 40.6616C43.4412 43.035 39.8878 44.4742 36.0009 44.4742C27.4685 44.4742 20.5239 37.5341 20.5239 29.0018C20.5239 24.1524 22.7633 19.8169 26.2659 16.9813L24.7344 14.6495L19.2933 6.38086C7.34616 15.1905 4.25041 31.9126 12.51 44.4606C21.0469 57.4345 38.4858 61.025 51.4552 52.4881C53.3148 51.2665 54.9859 49.86 56.4522 48.3058L48.4337 42.3508L46.1663 40.6616Z" fill="#CE4D45"/>
<path d="M60.7642 15.6763L52.4684 21.1364L50.1275 22.6771C50.5299 23.5742 50.8543 24.5186 51.0764 25.5046C51.3401 26.6292 51.4787 27.7992 51.4787 29.0027C51.4787 30.9919 51.1035 32.8896 50.4193 34.6386C50.0586 35.5549 49.6146 36.4294 49.0917 37.2486L51.3265 38.9098L59.2661 44.8095C65.0254 36.327 65.8401 25.0786 60.7642 15.6763ZM58.4279 40.5882L52.7085 36.3406C53.7036 34.0967 54.2537 31.6118 54.2537 29.0027C54.2537 27.231 53.999 25.5136 53.5223 23.8941L59.5561 19.9239C62.1661 26.6564 61.7592 34.1656 58.4279 40.5882Z" fill="#CE4D45"/>
</g>
<defs>
<clipPath id="clip0_772_552">
<rect width="58" height="58" fill="white" transform="translate(7)"/>
</clipPath>
</defs>
</svg>
