<svg width="392" height="629" viewBox="0 0 392 629" fill="none" xmlns="http://www.w3.org/2000/svg">
<g filter="url(#filter0_d_773_842)">
<path d="M313.29 140.762C314.413 139.341 316.695 140.025 316.852 141.828L317.205 145.887C317.328 147.295 315.992 148.382 314.639 147.977L311.759 147.114C310.406 146.709 309.888 145.066 310.764 143.958L313.29 140.762Z" fill="#FCCE5E"/>
</g>
<g filter="url(#filter1_d_773_842)">
<path d="M319.547 118.519C320.669 117.098 322.951 117.782 323.108 119.585L323.462 123.644C323.584 125.052 322.249 126.139 320.895 125.734L318.015 124.871C316.662 124.466 316.144 122.823 317.02 121.715L319.547 118.519Z" fill="#FCCE5E"/>
</g>
<g filter="url(#filter2_d_773_842)">
<path d="M325.748 98.1427C326.871 96.7223 329.153 97.4057 329.31 99.2094L329.663 103.268C329.786 104.676 328.45 105.763 327.097 105.358L324.217 104.495C322.864 104.09 322.346 102.447 323.222 101.339L325.748 98.1427Z" fill="#FCCE5E"/>
</g>
<g filter="url(#filter3_f_773_842)">
<rect width="16.6521" height="7.1514" transform="matrix(0.960779 0.277315 -0.247536 0.968879 297.578 174.453)" fill="url(#paint0_linear_773_842)"/>
</g>
<path d="M140.915 553.81C141.236 553.837 141.79 553.831 142.242 553.634C142.656 553.465 142.79 553.155 142.68 552.885C142.574 552.623 142.342 552.511 141.794 552.443C141.115 552.355 140.522 552.085 140.288 551.511C139.876 550.499 140.464 549.421 141.748 548.897C142.312 548.668 142.789 548.595 143.078 548.636L143.155 549.796C142.816 549.783 142.477 549.842 142.161 549.97C141.747 550.138 141.558 550.435 141.677 550.727C141.77 550.956 142.03 551.045 142.482 551.092C143.188 551.182 143.844 551.425 144.095 552.041C144.562 553.188 143.88 554.22 142.559 554.746C141.95 554.982 141.323 555.055 140.971 554.979L140.915 553.81ZM145.107 553.674L143.554 545.792L145.02 545.195L145.61 548.254L145.623 548.228C145.829 547.609 146.21 547.084 146.858 546.82C147.623 546.508 148.254 546.814 148.586 547.628C148.688 547.878 148.81 548.3 148.874 548.639L149.524 551.875L148.059 552.472L147.424 549.335C147.386 549.119 147.303 548.854 147.222 548.657C147.095 548.344 146.875 548.168 146.546 548.302C146.078 548.492 145.829 549.309 146.025 550.336L146.572 553.078L145.107 553.675L145.107 553.674ZM154.172 546.171C154.899 547.955 154.35 549.954 152.62 550.659C151.302 551.195 150.237 550.584 149.782 549.468C149.072 547.725 149.603 545.685 151.365 544.967C152.736 544.409 153.751 545.139 154.171 546.171L154.172 546.171ZM151.266 548.826C151.479 549.348 151.862 549.678 152.361 549.475C153.136 549.159 153.019 547.626 152.658 546.739C152.483 546.311 152.135 545.943 151.615 546.155C150.818 546.48 150.931 548.002 151.266 548.826ZM155.979 551.61L154.854 545.931C154.729 545.289 154.532 544.473 154.376 543.906L155.671 543.378L155.917 544.224L155.938 544.215C156.11 543.514 156.536 542.917 157.12 542.679C158.192 542.242 158.97 542.906 159.366 543.876C160.08 545.629 159.657 547.813 157.937 548.514C157.576 548.661 157.223 548.738 156.998 548.672L156.966 548.685L157.444 551.014L155.979 551.611L155.979 551.61ZM156.734 547.474C156.944 547.534 157.158 547.544 157.424 547.436C158.242 547.103 158.265 545.549 157.887 544.621C157.73 544.235 157.426 543.884 156.98 544.066C156.47 544.274 156.235 545.063 156.43 546.029L156.734 547.474ZM160.802 547.28L159.696 541.738L161.172 541.137L162.268 546.683L160.802 547.28ZM160.389 540.825C159.975 540.994 159.557 540.758 159.383 540.33C159.192 539.861 159.403 539.317 159.87 539.126C160.316 538.944 160.743 539.172 160.913 539.59C161.12 540.125 160.867 540.63 160.411 540.816L160.389 540.825ZM163.542 546.163L162.664 541.79L161.985 542.067L161.756 540.899L162.436 540.622L162.373 540.346C162.243 539.693 162.226 538.983 162.555 538.363C162.812 537.869 163.271 537.506 163.792 537.294C164.153 537.147 164.439 537.089 164.638 537.093L164.81 538.335C164.639 538.346 164.471 538.386 164.313 538.452C163.824 538.651 163.713 539.228 163.828 539.754L163.88 540.033L164.899 539.618L165.138 540.783L164.13 541.193L165.008 545.567L163.542 546.164L163.542 546.163ZM166.716 538.878L167.886 541.083C168.102 541.467 168.31 541.855 168.509 542.247L168.53 542.239C168.537 541.921 168.479 541.474 168.466 540.835L168.425 538.182L169.954 537.559L169.692 542.053C169.582 543.605 169.351 544.799 168.932 545.687C168.607 546.379 168.088 546.866 167.816 547.05L166.914 545.992C167.125 545.809 167.381 545.558 167.576 545.247C167.823 544.879 167.982 544.449 168.02 544.057C168.033 543.967 168.023 543.913 167.96 543.817L165.175 539.506L166.715 538.877L166.716 538.878ZM132.681 548.983L132.367 549.237C132.265 549.113 132.151 548.998 132.028 548.894C131.581 548.523 131.107 548.422 130.659 548.604L130.657 548.605C130.626 548.617 130.596 548.633 130.566 548.648C130.547 548.638 130.527 548.628 130.506 548.619C130.228 548.493 129.936 548.495 129.64 548.626C129.067 548.879 128.657 549.524 128.487 550.445C128.367 551.092 128.38 551.84 128.512 552.368L127.513 553.179C127.22 553.42 127.213 553.434 127.296 553.763C127.359 554.012 129.199 561.042 129.199 561.042L136.991 559.311L132.763 548.932C132.734 548.946 132.706 548.963 132.681 548.983ZM131.206 550.181L130.129 551.055C130.066 550.56 130.11 550.023 130.268 549.619C130.326 549.468 130.421 549.289 130.563 549.15C130.858 549.413 131.082 549.864 131.206 550.181ZM129.805 549C129.925 548.944 130.059 548.926 130.19 548.948C130.057 549.106 129.953 549.284 129.881 549.475C129.671 550.013 129.633 550.73 129.758 551.356L128.874 552.074C128.7 551.079 128.921 549.39 129.805 549.001L129.805 549ZM130.8 554.667C131.087 555.259 132.772 554.728 133.445 556.117C133.974 557.21 133.609 558.254 132.657 558.712C131.514 559.263 130.592 558.847 130.592 558.847L130.417 557.707C130.417 557.707 131.262 557.924 131.77 557.68C132.101 557.52 132.111 557.199 132.021 557.012C131.646 556.238 130.338 556.826 129.721 555.555C129.203 554.486 129.484 553.073 131.064 552.312C131.672 552.019 132.056 552.045 132.056 552.045L132.24 553.558C132.24 553.558 131.751 553.541 131.274 553.771C130.573 554.11 130.746 554.558 130.8 554.666L130.8 554.667ZM131.543 549.906C131.421 549.62 131.223 549.234 130.946 548.943C131.418 548.846 131.834 549.246 132.044 549.5L131.543 549.906ZM137.221 559.184L139.943 557.214C139.943 557.214 135.119 549.1 135.087 549.043C135.073 549.02 135.051 549.002 135.025 548.992C134.999 548.983 134.97 548.982 134.943 548.99C134.899 549.004 134.042 549.339 134.042 549.339C134.042 549.339 133.321 549.055 133.05 548.947L137.221 559.184Z" fill="white"/>
<path d="M177.785 610.031L166.999 585.253L179.058 580.654L184.487 593.126C186.024 596.656 185.024 600.469 182.289 602.199L184.116 606.397C186.329 605.561 189.007 606.901 190.087 609.39C190.383 610.073 190.127 610.814 189.52 611.046L184.023 613.142C181.71 614.024 178.917 612.631 177.785 610.031Z" fill="white"/>
<path d="M180.15 600.245C182.449 599.369 183.403 596.553 182.278 593.968L177.629 583.288L169.987 586.202L179.993 609.188C180.527 610.415 181.85 611.075 182.942 610.659L186.957 609.128C186.417 608.774 185.765 608.662 185.184 608.883L184.092 609.3C183.482 609.533 182.745 609.165 182.447 608.48L179.586 601.908C179.288 601.222 179.54 600.478 180.15 600.245Z" fill="#0F0F0F"/>
<path d="M155.813 595.087L148.319 595.373L145.341 594.856L141.759 592.856L139.187 590.791L135.715 587.362L130.517 574.605L127.605 565.759L145.429 580.637L146.538 577.417L149.417 571.747L151.01 569.714L152.659 566.967L154.724 564.396L159.043 560.561L169.13 556.451L184.294 555.462L183.8 552.55L182.525 548.572L180.789 546.858L178.228 546.517L175.965 546.056L178.217 544.792L178.855 542.111L177.239 540.693L176.272 538.32L178.591 538.067L179.536 536.99L181.426 534.836L184.865 533.089L188.975 533.836L193.282 537.616L195.656 536.649L201.073 537.209L205.194 539.682L205.337 543.429L198.513 546.209L195.14 548.967C195.429 550.809 196.056 554.613 196.25 555.088C196.443 555.562 196.367 561.036 196.305 563.714L192.888 568.911L187.339 575.669L185.592 581.57C184.764 582.369 182.871 584.062 181.921 584.449L168.571 589.889L155.813 595.087Z" fill="#0F0F0F"/>
<path d="M194.033 569.791L188.803 575.42C187.291 578.145 186.523 581.484 186.328 582.813C185.493 583.926 184.452 584.847 183.25 585.54L180.88 586.62C178.352 587.669 175.799 588.722 174.352 589.319L157.008 595.774C147.62 599.023 137.19 594.377 133.397 585.069L124.943 564.32C124.714 563.757 124.905 563.11 125.403 562.762C125.902 562.413 126.575 562.458 127.025 562.867L144.649 578.928L146.744 574.283C147.04 573.628 147.811 573.336 148.466 573.632C149.121 573.928 149.412 574.698 149.117 575.354L146.296 581.605L144.463 585.989C144.324 586.321 144.063 586.565 143.753 586.691C143.446 586.817 143.091 586.825 142.76 586.687C142.098 586.41 141.785 585.647 142.062 584.984L143.544 581.442L129.524 568.666L135.807 584.087C139.003 591.929 147.664 595.931 155.609 593.493C155.594 593.459 155.578 593.427 155.564 593.393L173.37 586.91C175.041 586.221 178.174 584.928 181.042 583.735C182.227 583.242 183.247 582.482 184.044 581.51C184.528 579.392 185.802 574.827 187.026 573.51L192.126 568.02C192.616 567.494 193.439 567.463 193.965 567.952C194.492 568.442 194.522 569.265 194.033 569.791Z" fill="white"/>
<path d="M190.542 539.637L189.411 539.161C188.748 538.883 187.985 539.194 187.706 539.856C187.428 540.518 187.738 541.281 188.401 541.56L189.532 542.036C189.863 542.175 190.219 542.167 190.528 542.042C190.836 541.916 191.096 541.673 191.236 541.342C191.515 540.679 191.204 539.916 190.542 539.637Z" fill="white"/>
<path d="M202.655 536.257C198.987 534.845 195.821 534.736 193.41 535.916L193.035 535.381C190.962 532.442 187.254 531.155 183.805 532.181C183.534 532.262 183.271 532.354 183.024 532.455C181.036 533.265 179.46 534.795 178.58 536.731L173.935 536.411C173.383 536.373 172.867 536.689 172.649 537.198C172.432 537.708 172.561 538.299 172.97 538.672L177.77 543.042L173.018 547.111C172.563 547.501 172.432 548.151 172.703 548.686C172.973 549.221 173.573 549.502 174.157 549.367L180.464 547.912L183.064 553.762L170.527 554.962C160.815 555.892 152.288 561.994 148.277 570.888C147.981 571.543 148.272 572.314 148.928 572.609C149.266 572.762 149.635 572.758 149.954 572.628C150.252 572.507 150.506 572.275 150.649 571.958C154.278 563.914 161.991 558.394 170.775 557.553L185.112 556.18C185.529 556.14 185.9 555.902 186.111 555.541C186.322 555.179 186.347 554.738 186.177 554.356L183.047 547.316L185.444 546.762L187.114 549.328C188.362 551.245 190.766 551.992 192.873 551.134C192.913 551.117 192.953 551.101 192.993 551.083L193.932 550.671L195.108 558.313C195.434 560.433 195.169 562.601 194.341 564.581C194.064 565.245 194.377 566.007 195.039 566.284C195.37 566.422 195.725 566.414 196.032 566.288C196.342 566.162 196.603 565.918 196.742 565.585C197.754 563.163 198.079 560.512 197.68 557.917L196.356 549.314C199.547 546.766 205.549 544.939 205.612 544.92C206.03 544.794 206.356 544.468 206.483 544.051C206.903 542.663 206.834 541.158 206.286 539.814C205.623 538.186 204.299 536.889 202.655 536.257ZM204.025 541.239C203.712 541.096 203.367 540.965 202.988 540.856C199.648 539.898 196.377 541.454 194.222 542.927C193.628 543.333 193.476 544.143 193.882 544.736C194.288 545.329 195.097 545.481 195.69 545.076C198.621 543.072 200.788 542.969 202.208 543.348C199.833 544.254 196.409 545.777 194.247 547.69L191.947 548.699C190.988 549.121 189.868 548.789 189.295 547.908L187.129 544.579C186.831 544.121 186.279 543.898 185.746 544.021L178.739 545.638L180.583 544.06C180.866 543.817 181.032 543.464 181.037 543.091C181.043 542.718 180.888 542.36 180.612 542.109L177.487 539.264L184.234 539.729C184.952 539.779 185.572 539.237 185.622 538.52C185.671 537.803 185.13 537.182 184.413 537.133L181.447 536.928C182.075 536.013 182.957 535.292 184.006 534.865C184.177 534.795 184.361 534.731 184.55 534.674C186.924 533.968 189.479 534.855 190.907 536.88L191.98 538.406C192.182 538.693 192.492 538.887 192.839 538.942C193.187 538.998 193.542 538.91 193.823 538.699C196.051 537.033 199.347 537.772 201.72 538.685C202.697 539.061 203.483 539.83 203.876 540.796C203.935 540.942 203.985 541.09 204.025 541.239Z" fill="white"/>
<path d="M154.725 591.069L155.598 583.623L168.857 584.974L172.447 593.21L173.371 596.059L173.608 600.238L171.001 604.432L168.949 606.992L170.937 612.282L172.29 612.478L174.59 612.669L176.203 614.189L175.654 615.109L171.035 616.869L168.596 617.087L167.255 615.463L166.191 613.023L163.793 608.245L162.747 603.664L164.539 599.78L163.198 598.157L157.666 595.64L154.725 591.069Z" fill="#0F0F0F"/>
<path d="M168.566 583.871C169.195 583.655 169.938 584.08 170.241 584.776L171.236 587.055L172.344 589.596L173.95 593.277C174.933 595.529 175.22 597.859 174.909 599.99L173.778 603.45C172.95 604.981 171.732 606.256 170.177 607.104L172.036 611.364C174.306 610.508 177.053 611.88 178.161 614.427C178.464 615.126 178.202 615.885 177.579 616.122L171.942 618.267C169.569 619.17 166.705 617.745 165.544 615.084L161.955 606.857C161.223 605.18 161.238 603.332 161.995 601.871L163.218 599.511L162.143 599.241C159.758 598.643 157.592 597.182 156.001 595.164C155.717 594.849 155.018 593.922 154.498 592.731C154.482 592.695 154.465 592.661 154.448 592.625C152.927 589.308 152.983 585.635 154.6 582.799C154.949 582.188 155.748 582.072 156.362 582.554C156.939 583.006 157.113 583.842 156.786 584.424C155.504 586.697 155.563 589.684 156.977 592.285C158.183 594.501 160.259 596.092 162.535 596.663L165.31 597.359C165.851 597.494 166.309 597.982 166.416 598.594C166.469 598.898 166.412 599.198 166.281 599.45L164.242 603.386C163.847 604.147 163.84 605.122 164.22 605.995L167.81 614.222C168.358 615.48 169.712 616.153 170.833 615.727L174.951 614.16C174.398 613.797 173.729 613.683 173.133 613.909L172.012 614.336C171.386 614.574 170.631 614.198 170.325 613.497L167.39 606.77C167.088 606.077 167.332 605.31 167.951 605.076C171.976 603.557 173.651 598.646 171.685 594.139L167.953 585.585C167.641 584.87 167.916 584.093 168.566 583.871Z" fill="white"/>
<path d="M182.752 580.532L176.679 574.243L177.359 569.363L179.318 569.162L182.712 570.917L186.636 578.028L187.62 577.025L190.89 576.087C191.293 576.246 192.211 576.552 192.659 576.506C193.107 576.46 194.782 580.496 195.563 582.52L194.623 583.819L193.134 583.371L190.49 580.938L187.915 582.706L185.396 582.965L182.752 580.532Z" fill="#0F0F0F"/>
<path d="M192.03 575.269C192.356 575.419 192.666 575.615 192.953 575.848C193.491 576.211 194.207 577.428 194.498 577.991L196.312 582.065C196.838 583.244 196.62 584.485 195.772 585.151C195.461 585.395 195.106 585.53 194.736 585.559C194.098 585.611 193.417 585.347 192.846 584.786L190.588 582.573L188.834 584.032C187.685 584.989 185.993 584.774 184.772 583.535L182.603 581.222L176.185 574.354C175.689 573.824 175.624 573 176.048 572.533C176.457 572.082 177.182 572.172 177.665 572.689L186.135 581.751C186.482 582.121 186.974 582.19 187.305 581.914L189.75 579.879C190.152 579.545 190.755 579.612 191.191 580.04L194.198 582.989C194.224 583.014 194.237 583.02 194.237 583.02C194.262 583.023 194.312 582.984 194.316 582.957C194.316 582.957 194.315 582.942 194.3 582.909L192.386 578.612C192.194 578.182 191.875 577.814 191.484 577.62C191.07 577.416 190.64 577.409 190.277 577.6L187.178 579.231C186.654 579.507 185.962 579.226 185.621 578.599L182.47 572.788C181.437 570.883 179.522 569.748 177.7 569.962C177.05 570.036 176.387 569.456 176.288 568.685C176.203 568.026 176.606 567.49 177.179 567.428C179.93 567.127 182.814 568.847 184.373 571.723L186.912 576.403L189.066 575.269C189.945 574.806 191.026 574.806 192.03 575.269Z" fill="white"/>
<path d="M347.777 28.5498L345.013 27.1308L344.862 27.4243C345.727 27.8681 345.771 28.1244 345.208 29.2214L344.193 31.1984C343.631 32.2943 343.388 32.4243 342.524 31.9802C341.907 31.5474 341.642 30.9614 341.372 29.9648L341.059 28.8282C342.103 29.1495 342.922 28.8086 343.271 28.1289C343.707 27.2804 343.314 26.2586 341.955 25.5611L339.237 24.1659L339.086 24.4593C339.95 24.9034 339.994 25.1598 339.432 26.2564L338.417 28.2335C337.854 29.3304 337.612 29.4593 336.747 29.0155L336.596 29.309L339.67 30.8867L339.821 30.5933C338.956 30.1495 338.92 29.8772 339.483 28.7802L339.768 28.2245L340.031 28.3595L340.643 31.3858L345.138 33.6926C347.346 34.8258 348.906 34.1438 349.628 32.7385C350.349 31.3332 349.986 29.683 347.777 28.5498ZM340.014 27.7453L341.069 25.6913L341.702 26.0168C342.396 26.3735 342.459 27.0107 342.174 27.5664C341.897 28.1073 341.342 28.4274 340.647 28.0707L340.014 27.7453ZM345.43 33.2375L345.321 33.1825C344.765 32.8967 344.76 32.7181 345.124 32.0078L346.844 28.6563L347.586 29.0367C349.192 29.8612 348.883 31.1855 348.415 32.0967C347.932 33.0388 347.036 34.062 345.43 33.2375Z" fill="white"/>
<path d="M329.049 22.8399L331.732 20.2357C332.508 19.4836 332.504 19.1492 331.516 18.6421L331.675 18.3335L334.578 19.8234L334.419 20.1328C333.447 19.6334 333.096 19.7458 332.131 20.6749L327.66 25.0531L327.458 24.9504L328.365 19.3078L324.277 23.317L324.077 23.214L325.073 17.0528C325.281 15.735 325.153 15.3765 324.257 14.9163L324.416 14.6077L327.844 16.3677L327.686 16.6761C326.774 16.2086 326.416 16.2981 326.249 17.4218L325.666 21.1038L329.605 17.2712L329.898 17.4219L329.049 22.8399Z" fill="white"/>
<path d="M333.143 27.7898C331.443 26.9179 330.696 24.9532 331.48 23.4242C332.258 21.9108 334.29 21.3735 335.988 22.245C337.687 23.1172 338.435 25.0818 337.658 26.5949C336.873 28.1239 334.842 28.662 333.143 27.7898ZM335.742 22.7241C334.322 21.9951 333.17 23.0229 332.654 24.027C332.131 25.046 331.975 26.5661 333.396 27.296C334.833 28.0328 335.977 27.0201 336.501 26.0009C337.015 24.9971 337.179 23.4618 335.742 22.7241Z" fill="white"/>
<path d="M352.276 36.967L352.118 37.2753L348.581 35.4603L348.74 35.1516C349.775 35.6827 350.095 35.5151 350.888 33.9709L352.156 31.4997C352.948 29.9551 352.89 29.6127 351.855 29.0816L352.014 28.7732L355.21 30.4139C356.801 31.23 357.261 32.5005 356.699 33.5972C356.152 34.663 354.844 35.0452 353.253 34.2283L352.372 33.7769L351.984 34.5336C351.19 36.0778 351.242 36.4355 352.276 36.967ZM354.925 30.9696L354.045 30.5175L352.666 33.2052L353.546 33.6573C354.411 34.1011 355.121 33.7053 355.494 32.9787C355.875 32.2372 355.79 31.4137 354.925 30.9696Z" fill="white"/>
<path d="M365.604 42.3642L365.384 42.6023C364.983 43.0406 364.719 43.1387 363.622 42.5755L363.405 42.4644C362.603 42.0524 362.559 41.796 363.121 40.6994L363.486 39.9888C364.691 40.6073 364.728 40.7627 364.316 41.5662L364.609 41.7169L365.79 39.4156L365.497 39.2648C365.085 40.068 364.937 40.1281 363.732 39.5099L364.619 37.7803L365.469 38.2168C366.566 38.7792 366.641 39.0519 366.517 39.6329L366.444 39.9657L366.692 40.0924L367.329 38.5853L362.788 36.2545L362.638 36.5479C363.502 36.992 363.546 37.2492 362.984 38.345L361.969 40.3221C361.454 41.3251 361.206 41.5173 360.506 41.2035C359.908 40.7722 359.645 40.1898 359.38 39.2079L359.065 38.0716C360.111 38.3925 360.929 38.0517 361.278 37.3719C361.714 36.5235 361.321 35.5017 359.962 34.8042L357.244 33.4089L357.094 33.7024C357.958 34.1465 358.002 34.4028 357.44 35.4995L356.425 37.4765C355.862 38.5735 355.62 38.7024 354.755 38.2586L354.604 38.5521L357.678 40.1298L357.829 39.8363C356.963 39.3926 356.928 39.1202 357.49 38.0236L357.776 37.4675L358.038 37.6026L358.651 40.6289L364.998 43.8869L365.836 42.4828L365.604 42.3642ZM358.021 36.9886L359.075 34.9347L359.709 35.2598C360.404 35.6166 360.467 36.2537 360.182 36.8095C359.904 37.3504 359.35 37.6705 358.655 37.3138L358.021 36.9886Z" fill="white"/>
<path d="M367.892 45.6253C367.274 45.3082 366.899 44.7065 366.771 44.3865C366.654 44.4248 366.396 44.5845 366.254 44.7855L365.961 44.6348L367.054 42.5039L367.364 42.6619C366.964 43.7442 367.365 44.7111 368.276 45.1789C368.77 45.4326 369.315 45.3608 369.552 44.8979C369.759 44.4964 369.562 44.0053 369.08 43.3864L368.413 42.5182C367.945 41.9069 367.744 41.1595 368.093 40.4801C368.473 39.7386 369.493 39.4623 370.451 39.9538C370.961 40.2159 371.298 40.623 371.45 40.9735C371.558 40.9515 371.723 40.821 371.865 40.6593L372.158 40.81L371.223 42.6325L370.898 42.4662C371.163 41.6846 371.07 40.8768 370.252 40.4567C369.82 40.2343 369.291 40.2752 369.092 40.6615C368.886 41.0627 369.1 41.4454 369.667 42.1661L370.302 43.0189C370.861 43.7548 370.861 44.4765 370.624 44.9405C370.124 45.9127 368.926 46.1567 367.892 45.6253Z" fill="white"/>
<path d="M372.648 48.0662C372.03 47.7491 371.656 47.1474 371.527 46.8281C371.411 46.8654 371.153 47.0262 371.011 47.2263L370.717 47.0756L371.811 44.9448L372.12 45.1036C371.72 46.1862 372.122 47.1528 373.033 47.6206C373.527 47.8743 374.072 47.8025 374.309 47.3396C374.516 46.9373 374.318 46.4462 373.836 45.8281L373.169 44.9591C372.703 44.3482 372.501 43.6004 372.85 42.9217C373.23 42.1802 374.25 41.904 375.208 42.3955C375.717 42.6568 376.054 43.0638 376.206 43.4155C376.315 43.3931 376.48 43.2627 376.621 43.1002L376.915 43.2509L375.979 45.0742L375.655 44.907C375.919 44.1262 375.827 43.3176 375.008 42.8976C374.576 42.6759 374.047 42.7169 373.849 43.1032C373.643 43.5044 373.856 43.8873 374.424 44.6069L375.059 45.4598C375.618 46.1957 375.618 46.9182 375.38 47.3814C374.881 48.3543 373.682 48.5976 372.648 48.0662Z" fill="white"/>
<path d="M349.139 15.6475C347.751 18.3533 348.122 21.498 349.833 23.776L351.158 13.1699C350.342 13.8254 349.647 14.6572 349.139 15.6475Z" fill="white"/>
<path d="M360.765 21.1798C361.199 20.3349 361.195 19.5937 361.169 19.0052C361.111 18.2642 361.031 17.6212 361.32 17.0574C361.642 16.4295 362.419 16.0892 363.09 16.4338C363.121 16.4494 363.148 16.4678 363.176 16.4844C362.532 14.7464 361.261 13.235 359.481 12.3213C357.094 11.0962 354.364 11.2426 352.19 12.4714C352.347 12.5582 352.497 12.6391 352.626 12.7051C353.34 13.072 354.492 13.5531 354.492 13.5531C354.871 13.7208 354.637 14.284 354.246 14.1392C354.246 14.1392 353.854 13.9923 353.431 13.8024L352.119 22.4831L355.918 18.7651L356.351 15.3008C355.993 15.0907 355.667 14.8679 355.667 14.8679C355.31 14.6567 355.642 14.1164 356 14.3265C356 14.3265 357.084 14.9929 357.756 15.3372C358.47 15.7049 359.622 16.186 359.622 16.186C360.001 16.3537 359.766 16.9172 359.376 16.7713C359.376 16.7713 358.983 16.6248 358.561 16.4352L357.259 25.0503L359.11 23.1219C359.891 22.3281 360.464 21.7645 360.765 21.1798Z" fill="white"/>
<path d="M355.787 19.8149L350.678 24.7219C351.198 25.2158 351.794 25.6467 352.465 25.9914C353.261 26.3995 354.095 26.6536 354.934 26.7684C354.93 26.73 354.93 26.6903 354.933 26.6498L355.787 19.8149Z" fill="white"/>
<path d="M363.654 18.9548C363.572 19.188 363.468 19.4297 363.339 19.6815C362.983 20.3751 362.454 21.0878 361.563 21.8627L356.377 26.8274C359.017 26.6853 361.514 25.1852 362.808 22.6637C363.418 21.476 363.689 20.2027 363.654 18.9548Z" fill="white"/>
<path d="M360.063 11.1886C355.67 8.93401 350.261 10.6736 348.007 15.0667C345.751 19.4603 347.491 24.8684 351.884 27.1235C356.277 29.3778 361.686 27.6393 363.941 23.246C366.196 18.8526 364.456 13.4437 360.063 11.1886ZM352.071 26.7582C347.88 24.6066 346.22 19.4463 348.371 15.2539C350.523 11.0623 355.684 9.40235 359.876 11.554C364.067 13.7056 365.727 18.8658 363.575 23.0575C361.424 27.2499 356.263 28.9098 352.071 26.7582Z" fill="white"/>
<path fill-rule="evenodd" clip-rule="evenodd" d="M289.064 36.7783C288.85 36.4969 305.471 34.3148 312.343 32.542C312.455 31.709 313.97 31.666 315.069 31.4376C326.165 29.1218 351.448 35.6045 354.834 55.2366C354.834 55.2366 368.7 53.3491 369.966 53.0515C371.233 52.7522 378.806 52.934 379.426 62.5172C380.046 72.1015 381.203 79.0891 381.203 79.0891L377.63 80.5367L371.611 65.6834L370.369 65.5205L371.522 69.2109L367.578 74.8466L369.162 82.1514L364.787 82.058L361.804 69.8553L345.267 74.9625L336.046 73.7277L333.58 72.7052L324.614 74.7845C324.614 74.7845 318.749 78.1938 313.219 70.6769L312.264 68.6672L305.327 71.5394C305.327 71.5394 308.573 75.9423 303.883 77.6231L300.912 70.3419C300.912 70.3419 300.643 67.6917 303.816 66.2121C306.99 64.7332 314.803 61.2794 314.803 61.2794C314.803 61.2794 311.938 60.821 309.613 58.6843C307.287 56.5464 306.147 54.8727 306.147 54.8727L300.354 57.2199C300.354 57.2199 301.115 59.1912 299.747 61.2864C298.379 63.3816 297.563 63.0616 297.563 63.0616L296.186 58.9087L295.392 55.8748L295.338 54.0317L297.107 52.1881L300.794 50.9081L305.859 48.8529L308.809 48.2128L312.123 49.3622L313.198 52.0155L314.605 47.8074L316.291 44.689L313.305 44.5977L307.614 44.9558L302.421 43.586L297.47 42.8172L293.392 39.9597L290.46 38.0244L289.064 36.7783Z" fill="#0F0F0F"/>
<path d="M378.736 66.3382L378.472 64.8367C378.357 64.1868 377.737 63.7499 377.085 63.8645C376.434 63.9793 375.998 64.5998 376.112 65.2508L376.376 66.7526C376.391 66.838 376.415 66.9192 376.446 66.9964C376.654 67.5079 377.198 67.824 377.763 67.7256C378.415 67.6102 378.85 66.9892 378.736 66.3382Z" fill="white"/>
<path fill-rule="evenodd" clip-rule="evenodd" d="M324.836 73.3405L328.947 71.6748L331.932 73.0496L325.735 75.5605L324.836 73.3405Z" fill="white"/>
<path d="M360.854 68.2014L348.797 72.9286C344.872 74.4689 340.667 74.6439 336.638 73.437C336.004 73.247 335.336 73.6068 335.147 74.24C334.957 74.8742 335.317 75.5419 335.951 75.7316C340.119 76.9804 344.451 76.9144 348.556 75.5581L350.799 74.7173L361.754 70.4222" fill="white"/>
<path d="M372.538 72.2377L376.445 81.8814C376.693 82.4943 377.391 82.7897 378.005 82.5411L382.223 80.8321C382.702 80.6381 383.002 80.1587 382.968 79.6415L381.793 62.1701C381.751 61.5599 381.661 60.9508 381.524 60.3618C381.388 59.7706 381.203 59.183 380.974 58.6184C378.959 53.6457 373.849 50.7415 368.546 51.5557L355.644 53.5387C351.568 44.1132 344.148 36.7452 334.66 32.7292C327.456 29.68 319.606 28.8172 311.957 30.2337C311.306 30.3538 310.877 30.979 310.998 31.629C311.012 31.7113 311.035 31.789 311.065 31.8631C311.274 32.3793 311.824 32.6951 312.393 32.5897C319.58 31.259 326.957 32.0702 333.726 34.9349C334.264 35.1619 334.793 35.403 335.316 35.6525L334.87 37.0841C334.785 37.3593 334.803 37.6423 334.903 37.8895C335.033 38.2108 335.301 38.4727 335.657 38.5834C336.288 38.7807 336.96 38.4279 337.156 37.7973L337.476 36.7736C338.741 37.4818 339.958 38.2586 341.121 39.0995L340.27 40.2376C340.009 40.5865 339.966 41.0308 340.118 41.4066C340.198 41.6023 340.329 41.7788 340.51 41.915C341.04 42.3115 341.791 42.2032 342.186 41.6735L343.017 40.5655C344.049 41.4188 345.032 42.327 345.965 43.286L344.633 44.4413C344.237 44.7863 344.122 45.3347 344.308 45.7948C344.357 45.9149 344.426 46.0286 344.515 46.1315C344.948 46.6303 345.704 46.6835 346.203 46.2507L347.579 45.057C348.584 46.2365 349.517 47.4798 350.373 48.7833L348.339 50.5298C347.939 50.8737 347.821 51.425 348.009 51.8882C348.057 52.006 348.124 52.1177 348.211 52.2193C348.643 52.7209 349.398 52.7779 349.9 52.3476L351.635 50.8565C352.35 52.1184 352.997 53.4296 353.57 54.7852L351.448 58.5279C351.26 58.8592 351.248 59.242 351.38 59.5695C351.478 59.8105 351.654 60.0222 351.899 60.1608C352.475 60.4866 353.206 60.2849 353.532 59.709L355.657 55.9602L368.909 53.9225C373.109 53.2781 377.158 55.5785 378.754 59.5179C378.936 59.9655 379.083 60.4316 379.191 60.8998C379.298 61.3673 379.369 61.8496 379.403 62.3334L380.521 78.9383L378.216 79.8722L373.718 68.7712C373.717 68.7696 373.715 68.7676 373.715 68.766L372.164 64.9396C371.916 64.3267 371.218 64.0304 370.605 64.2788C369.992 64.5271 369.696 65.2262 369.944 65.8391L371.303 69.1914" fill="white"/>
<path d="M346.154 68.1188L345.833 65.5262L349.207 67.4933C349.778 67.8267 350.512 67.6339 350.846 67.062C351.179 66.4912 350.985 65.7572 350.414 65.425L344.951 62.2389C344.558 62.0087 344.069 62.0226 343.688 62.273C343.309 62.5239 343.103 62.9685 343.159 63.4206L343.629 67.2234L342.203 67.4C341.547 67.4816 341.081 68.08 341.162 68.736C341.243 69.3931 341.841 69.8588 342.498 69.777L345.112 69.4532C345.77 69.3729 346.235 68.7748 346.154 68.1188Z" fill="white"/>
<path d="M372.537 70.0483L371.725 67.0946L367.243 73.9695C367.063 74.246 367.006 74.586 367.084 74.9066L368.811 82.0039L365.77 81.4414L361.66 64.5485L361.866 64.3478C365.288 61.0232 369.983 59.3077 374.746 59.6421C375.406 59.6896 375.978 59.1919 376.025 58.5318C376.071 57.8722 375.574 57.3004 374.913 57.2529C369.471 56.8706 364.107 58.8301 360.195 62.6308L359.498 63.31C359.194 63.6057 359.069 64.0393 359.17 64.4515L363.626 82.7605C363.737 83.2192 364.108 83.5693 364.571 83.6556L370.195 84.6969C370.593 84.7706 371.004 84.6369 371.283 84.3414C371.561 84.0471 371.672 83.6309 371.576 83.2357L369.534 74.8435L372.537 70.0483Z" fill="white"/>
<path d="M314.276 45.7018L315.468 43.059C310.937 43.6638 303.848 43.071 299.477 41.7049C295.828 40.5653 292.409 38.7588 289.41 36.4042C294.713 37.3186 300.127 36.74 305.128 34.7138C306.277 34.2481 307.46 33.8349 308.644 33.4862C309.279 33.2996 309.64 32.6329 309.453 31.9988C309.268 31.3632 308.601 31.0008 307.968 31.1883C306.707 31.5592 305.45 31.9986 304.228 32.4937C299.366 34.4637 294.081 34.9404 288.941 33.878L285.602 33.1856C285.089 33.0779 284.565 33.319 284.31 33.779C284.133 34.1024 284.116 34.4805 284.249 34.808C284.305 34.946 284.388 35.0775 284.497 35.1895C288.428 39.2606 293.362 42.3053 298.762 43.9906C302.918 45.289 309.948 46.0562 314.276 45.7018ZM328.753 71.9403L326.801 70.1467C324.955 68.2249 323.472 65.9544 322.462 63.4606L320.733 59.1936L323.054 58.5436L324.682 62.5611C325.798 65.3153 327.497 67.6999 329.677 69.5997C329.718 69.6313 329.758 69.6631 329.796 69.6997C330.741 70.5102 331.773 71.2317 332.886 71.8535C333.464 72.175 333.672 72.904 333.35 73.4814C333.027 74.0595 332.297 74.2673 331.72 73.9439C330.672 73.3605 329.681 72.6894 328.753 71.9403Z" fill="white"/>
<path d="M313.154 61.7505L309.92 60.4761C308.116 59.428 306.584 57.8873 305.553 55.9483L300.909 57.8301L300.975 57.9938C301.979 60.4728 300.778 63.31 298.298 64.3147C297.684 64.5634 296.987 64.2687 296.738 63.655L294.145 57.2561C293.095 54.664 294.349 51.7004 296.941 50.6501L305.268 47.2764C306.9 46.6148 308.778 46.7636 310.288 47.6726L313.055 49.3409L313.316 47.9C313.455 47.1308 313.674 46.3883 313.968 45.683C313.907 45.6903 315.459 43.0344 315.58 43.0118C316.641 41.725 318.006 40.6841 319.593 40.0022C322.885 38.583 326.642 38.909 329.644 40.872C330.197 41.235 330.352 41.9765 329.99 42.5299C329.627 43.0837 328.886 43.2378 328.332 42.8767C326.006 41.3556 323.093 41.1025 320.54 42.2022C317.987 43.3012 316.167 45.5907 315.674 48.3252L315.106 51.4766C315.035 51.865 314.778 52.1924 314.42 52.3555C314.06 52.5167 313.645 52.4934 313.308 52.2886L309.051 49.7242C308.183 49.2017 307.107 49.1165 306.167 49.4972L297.841 52.871C296.474 53.4248 295.811 54.9888 296.365 56.3565L298.392 61.3573C298.93 60.6842 299.101 59.7464 298.755 58.8934L298.239 57.6207C297.991 57.0071 298.287 56.3088 298.899 56.0607L305.707 53.3024C306.32 53.0538 307.018 53.3492 307.267 53.9629C309.152 58.6144 314.469 60.8653 319.121 58.9807L327.779 55.4726C328.392 55.2243 329.09 55.5194 329.338 56.1316C329.587 56.7453 329.291 57.4436 328.678 57.6919L324.238 59.491L324.242 59.5011L322.022 60.4006L322.018 60.3905L320.02 61.2C317.757 62.1169 315.37 62.2578 313.154 61.7505Z" fill="white"/>
<path d="M318.958 76.0745L315.724 74.8001C313.92 73.752 312.388 72.2113 311.357 70.2723L306.712 72.1541L306.779 72.3178C307.783 74.7968 306.581 77.634 304.102 78.6387C303.488 78.8874 302.79 78.5927 302.542 77.979L299.949 71.5801C298.899 68.988 300.153 66.0244 302.745 64.9741L314.21 60.3287C314.553 60.1571 318.079 61.3463 317.14 61.7268L303.645 67.195C302.278 67.7489 301.615 69.3128 302.169 70.6805L304.195 75.6813C304.734 75.0082 304.904 74.0705 304.559 73.2174L304.043 71.9448C303.794 71.3311 304.091 70.6328 304.703 70.3847L311.51 67.6264C312.124 67.3778 312.822 67.6733 313.071 68.2869C314.955 72.9384 320.273 75.1894 324.924 73.3047L325.824 75.524C323.561 76.4409 321.174 76.5818 318.958 76.0745Z" fill="white"/>
<path d="M348.465 75.4997L350.594 76.4002L350.033 77.7249C349.776 78.3331 350.061 79.0364 350.669 79.2946C351.279 79.5525 351.981 79.2671 352.239 78.6586L353.266 76.2315C353.524 75.6223 353.24 74.9197 352.63 74.6618L349.342 73.2699" fill="white"/>
<g clip-path="url(#clip0_773_842)">
<path d="M14.6731 213.13L16.768 216.719L18.3883 215.102L18.3042 212.391L17.8255 210.422L22.6404 207.454L25.218 209.775L31.1204 211.575L21.7972 217.294L20.5675 221.403L21.659 222.936L23.1873 225.081L24.2788 226.613L25.1981 225.958L25.8991 224.997L26.0753 223.947L25.7268 222.809L25.4664 221.147L30.0629 217.872L32.204 219.581L33.3837 220.588L35.7891 220.722L38.0644 220.025L40.9104 217.536L43.7564 215.046L49.7009 218.203L50.0073 217.984L50.1375 218.816L49.2603 220.827L53.7186 223.194L53.1438 228.223L53.8869 228.618L56.2502 227.396L57.3458 225.691L58.6596 224.293L58.7938 221.888L58.1389 220.969L56.2162 219.567L55.3429 218.341L58.0548 218.257L58.6677 217.82L61.1612 217.43L63.7428 216.514L68.3393 213.24L78.0572 206.778L79.5893 205.687L81.7724 208.751L83.9556 211.815L86.357 215.186L88.7163 217.201L90.6852 216.722L92.3936 214.581L92.9223 211.433L92.2253 209.158L90.6591 202.42L88.9585 198.088L86.5572 194.717L83.5849 193.139L80.4364 192.61L76.7172 193.874L66.3405 202.653L65.2449 204.357L64.1954 204.181L63.2801 201.599L61.9282 198.405L59.9212 194.291L57.5199 190.92L52.1462 185.971L45.7651 182.202L42.4864 180.842L41.3067 179.834L40.8701 179.221L45.2102 171.048L47.7959 166.896L51.1285 159.902L38.5647 168.853L34.2747 171.909C33.5393 172.433 32.0122 174.137 31.3405 174.923C30.7557 176.264 29.5247 178.989 29.2796 179.163C29.0344 179.338 28.6207 181.481 28.4444 182.53L28.3103 184.936L29.6161 190.011C29.9212 190.871 30.5139 192.697 30.4434 193.117C30.3729 193.537 30.7331 194.605 30.9221 195.086C30.396 196.077 29.2826 198.102 29.0374 198.277C28.7923 198.451 29.0501 199.807 29.2097 200.464L29.0755 202.869C28.478 202.679 27.2393 202.237 27.0646 201.992C26.89 201.747 25.2861 201.873 24.4409 201.551L22.5602 201.505L18.7528 203.294L16.2132 205.565L14.0682 207.093L12.6662 209.016L14.6731 213.13Z" fill="#0F0F0F"/>
<path d="M88.4403 203.737L87.9045 202.497C87.6725 201.96 87.048 201.713 86.5105 201.944C85.9728 202.177 85.7253 202.801 85.9579 203.339L86.493 204.579C86.5233 204.648 86.56 204.714 86.6031 204.774C86.8869 205.173 87.4201 205.333 87.8876 205.131C88.4248 204.899 88.6722 204.275 88.4403 203.737Z" fill="white"/>
<path d="M93.7693 209.21L91.7309 202.647C91.3103 201.293 90.7782 199.963 90.1499 198.697C89.5194 197.426 88.7841 196.198 87.9633 195.046C86.4284 192.892 84.0392 191.505 81.4073 191.242C78.777 190.979 76.1611 191.864 74.2316 193.67L64.7765 202.515C63.2966 197.563 60.7162 192.964 57.2494 189.122C53.3833 184.838 48.4649 181.553 43.0262 179.622L41.91 179.226L46.4919 170.974C46.7769 170.462 46.5922 169.816 46.0797 169.532C45.5679 169.247 44.9215 169.432 44.6377 169.944L39.7832 178.685L36.3246 178.355C35.7425 178.299 35.1952 178.705 35.1294 179.287C35.0985 179.558 35.1724 179.816 35.319 180.022C35.4912 180.264 35.7633 180.432 36.0825 180.462L37.8474 180.631C39.3721 180.776 40.8724 181.109 42.3159 181.622C42.6924 181.755 43.0646 181.897 43.435 182.044L42.1526 182.957C41.68 183.294 41.5269 183.953 41.8498 184.435C42.1833 184.935 42.8612 185.057 43.3471 184.711L45.6931 183.039C47.008 183.677 48.2712 184.396 49.4746 185.193L46.3653 187.408C45.8922 187.745 45.7397 188.403 46.0619 188.886C46.396 189.385 47.0743 189.508 47.5603 189.162L51.3041 186.495C52.5263 187.431 53.6769 188.452 54.751 189.546L49.681 193.158C49.2084 193.495 49.0553 194.154 49.3782 194.636C49.7117 195.136 50.3896 195.258 50.8755 194.911L56.1974 191.12C56.8586 191.888 57.4828 192.687 58.07 193.515L54.4017 196.128C53.9285 196.465 53.7754 197.124 54.0988 197.607C54.4322 198.107 55.1107 198.228 55.5967 197.882L59.2422 195.285C59.9183 196.383 60.5291 197.526 61.0747 198.706L59.0755 200.13C58.6024 200.467 58.45 201.125 58.7726 201.609C59.1068 202.108 59.7847 202.23 60.2705 201.884L61.9219 200.707C62.4205 202.004 62.8406 203.342 63.1757 204.713C63.2468 205.005 63.4239 205.265 63.6843 205.413C64.099 205.65 64.6044 205.581 64.9385 205.269L75.6812 195.219C77.1644 193.831 79.175 193.15 81.1964 193.353C83.2194 193.556 85.0563 194.621 86.236 196.277C86.992 197.338 87.6692 198.469 88.2497 199.639C88.8284 200.805 89.3183 202.029 89.7056 203.276L91.744 209.84C92.1459 211.134 92.0182 212.49 91.4508 213.647L83.643 202.687C83.3059 202.214 82.6479 202.062 82.1644 202.384C81.665 202.719 81.5432 203.397 81.8894 203.883L90.0769 215.375C89.9898 215.446 89.9007 215.515 89.8081 215.581C89.5136 215.791 89.1534 215.873 88.7951 215.814C88.4389 215.754 88.1261 215.558 87.9154 215.262C87.9154 215.262 80.3851 204.692 80.3572 204.661C80.319 204.615 79.4126 203.525 79.6068 201.976C79.7821 200.575 80.7987 199.2 82.6277 197.887C83.0991 197.549 83.2568 196.895 82.9365 196.411C82.6039 195.908 81.9236 195.784 81.436 196.132C79.0596 197.825 77.7342 199.718 77.4958 201.759C77.3337 203.153 77.727 204.306 78.117 205.066L67.3693 212.595C66.8896 212.931 66.7731 213.593 67.109 214.073C67.4404 214.554 68.1063 214.669 68.586 214.333L79.3011 206.826L86.1881 216.493C86.7275 217.25 87.5291 217.752 88.4457 217.906C89.3631 218.059 90.2842 217.847 91.0385 217.309C93.6091 215.478 94.7061 212.223 93.7693 209.21Z" fill="white"/>
<path d="M45.4917 215.433L39.0395 220.03C36.2221 222.037 32.4017 221.63 30.0591 219.225L26.4241 221.814L26.5147 221.941C27.89 223.872 27.4381 226.562 25.5072 227.938C25.0301 228.277 24.3681 228.166 24.0283 227.689L20.4798 222.708C19.0429 220.692 19.5147 217.882 21.5322 216.444L28.9685 211.147L32.2053 211.445L22.7628 218.172C21.6983 218.93 21.4494 220.413 22.2078 221.477L24.9804 225.369C25.3063 224.679 25.2602 223.837 24.7868 223.172L24.0809 222.182C23.7411 221.705 23.8527 221.042 24.3293 220.703L29.6267 216.929C30.1038 216.589 30.766 216.7 31.1058 217.177C32.6435 219.335 35.6505 219.84 37.8094 218.302L43.5696 214.198L45.4917 215.433Z" fill="white"/>
<path d="M50.3211 216.921L49.6895 218.956C47.9243 218.339 45.2762 217.292 43.7793 216.187C43.0551 215.624 42.5114 215.167 42.0943 214.784C41.1968 213.943 40.3796 213.013 39.6608 212.004L37.2032 208.554L38.931 207.323L41.3887 210.773C43.3518 213.528 47.1506 215.79 50.3211 216.921ZM30.0838 194.502C25.07 186.652 26.6128 175.52 34.2834 170.055L51.5093 157.783C51.9132 157.495 52.4624 157.525 52.8317 157.856C53.2013 158.185 53.2928 158.728 53.052 159.161L48.2497 167.809C47.9654 168.321 47.3195 168.506 46.8071 168.221C46.2949 167.937 46.1108 167.291 46.395 166.779L48.9208 162.231L35.514 171.782C28.9016 176.493 27.444 185.963 31.5258 192.819L30.0838 194.502ZM55.434 217.522C58.2489 217.253 61.945 216.383 64.2923 214.75C64.77 214.418 65.4255 214.533 65.7619 215.005L65.769 215.015C66.1037 215.497 65.985 216.157 65.5039 216.492C63.42 217.941 59.1025 218.838 56.658 219.344L55.434 217.522Z" fill="white"/>
<path d="M56.0428 218.033C56.0689 218.031 58.1241 219.545 58.1241 219.545L58.3997 219.738C59.2794 220.354 59.8687 221.318 60.0171 222.382C60.1651 223.445 59.8608 224.534 59.1824 225.367L56.3713 228.819C55.6589 229.694 54.5007 229.945 53.4895 229.445C53.1188 229.262 52.8169 229.001 52.5956 228.69C52.2135 228.154 52.0737 227.468 52.241 226.774L52.9816 223.699L48.8315 221.766C48.3549 221.544 48.113 221.007 48.2615 220.504L48.7608 218.811L49.3618 216.77L52.1488 207.316C52.3149 206.755 52.9047 206.433 53.4667 206.599C54.0279 206.764 54.3493 207.354 54.1836 207.916L50.5545 220.227L54.6633 222.141C55.1213 222.354 55.3648 222.86 55.2468 223.351L54.3031 227.27C54.291 227.321 54.2578 227.457 54.4309 227.543C54.6042 227.629 54.6932 227.52 54.7265 227.479L57.5379 224.027C57.8498 223.644 57.9837 223.163 57.9156 222.674C57.8478 222.185 57.5876 221.759 57.1824 221.476L54.5764 219.652C54.5739 219.649 54.5717 219.647 54.569 219.646L53.9502 219.213C53.478 218.882 53.3566 218.234 53.6771 217.754L57.1158 212.614C58.2824 210.87 58.2118 208.577 56.9382 206.908C56.5837 206.443 56.6731 205.776 57.1385 205.421C57.6048 205.066 58.2701 205.156 58.6251 205.622C60.4486 208.012 60.5501 211.296 58.8785 213.793L56.0428 218.033Z" fill="white"/>
<path d="M29.6842 193.946C29.6787 193.937 31.2139 192.39 31.2223 192.404C31.2982 192.344 31.3752 192.284 31.4534 192.226C33.9988 190.329 37.3029 189.837 40.29 190.911C40.8418 191.109 41.1278 191.717 40.9294 192.268C40.7308 192.82 40.1235 193.106 39.5724 192.907C37.2563 192.075 34.6945 192.455 32.7211 193.927C30.7472 195.398 29.6506 197.744 29.7871 200.201L29.9443 203.032C29.9634 203.381 29.8104 203.716 29.5343 203.93C29.2591 204.143 28.8957 204.208 28.5632 204.102L24.3696 202.767C23.5151 202.495 22.5693 202.642 21.8387 203.163L15.3585 207.78C14.2946 208.538 14.0456 210.02 14.8039 211.085L17.5762 214.976C17.9021 214.287 17.8561 213.444 17.3826 212.779L16.6772 211.789C16.3374 211.312 16.4481 210.65 16.9253 210.31L22.2232 206.535C22.6997 206.196 23.3627 206.307 23.7025 206.784C26.2812 210.404 31.3243 211.25 34.9444 208.671L41.6818 203.871C42.1588 203.532 42.8214 203.643 43.1612 204.12C43.5011 204.597 43.3899 205.26 42.9129 205.599L36.1754 210.399C34.4146 211.654 32.3878 212.266 30.3744 212.283C29.3411 212.243 28.3244 212.104 27.3271 211.85C25.5577 211.319 23.9209 210.306 22.6345 208.847L19.02 211.422L19.1104 211.549C20.4857 213.48 20.0344 216.169 18.1034 217.545C17.6263 217.885 16.9639 217.773 16.624 217.296L13.076 212.316C11.6391 210.299 12.111 207.489 14.1279 206.052L20.608 201.436C21.8794 200.53 23.5256 200.272 25.0126 200.745L27.7407 201.614L27.6688 200.32C27.5393 197.985 28.2731 195.731 29.6842 193.946Z" fill="white"/>
<path d="M68.1843 179.433C67.5929 179.133 66.9949 179.256 65.787 180.15C65.787 180.15 66.2019 180.212 66.6274 180.487C66.9366 180.689 67.2188 180.788 67.428 180.854C68.0439 181.038 68.4644 180.825 69.1161 180.343C69.1102 180.335 68.6675 179.654 68.1843 179.433Z" fill="white"/>
<path d="M66.1889 176.5C65.5412 176.34 64.8767 176.672 64.8767 176.672L58.7706 179.126L62.1466 174.928C62.5151 174.496 62.9104 173.883 63.0624 173.291C63.2647 172.55 62.7082 171.732 62.6376 171.637C62.5846 171.565 61.9703 170.802 61.1797 170.748C60.5688 170.72 59.8675 170.92 59.346 171.146L54.3932 173.213L58.5224 168.089C58.5224 168.089 58.9942 167.58 59.0697 166.884C59.1753 165.797 58.3204 164.942 58.3204 164.942L50.6274 174.574C50.6274 174.574 51.1678 175.454 51.6804 175.714C52.3645 176.056 52.7691 176.188 54.3097 175.527C55.7073 174.972 59.7204 173.28 60.0058 173.167C60.1327 173.122 60.4956 172.964 60.6485 173.171C60.8015 173.378 60.5763 173.655 60.4648 173.787C60.2793 174.035 57.4842 177.372 56.5455 178.546C55.4952 179.853 55.4651 180.244 55.5988 181.007C55.6982 181.573 56.3816 182.346 56.3816 182.346L67.8283 177.784C67.8283 177.784 67.2514 176.722 66.1889 176.5Z" fill="white"/>
<path d="M68.01 181.254C68.01 181.254 67.6422 181.256 67.1825 181.067C66.8709 180.928 66.6465 180.775 66.3349 180.636C65.8223 180.376 65.5392 180.426 65.2293 180.655L58.7369 185.462C58.7369 185.462 59.1478 186.167 59.6604 186.427C60.3445 186.769 60.6911 186.673 61.8593 185.808L68.01 181.254Z" fill="white"/>
<path d="M68.9798 190.212L76.1445 189.902C76.1445 189.902 75.3944 188.391 74.2627 188.158C73.5518 187.996 72.5071 188.08 72.5071 188.08L69.9258 188.183C69.7695 188.188 69.6509 188.177 69.5744 188.074C69.4979 187.971 69.5248 187.791 69.5727 187.706L70.4243 185.267C70.4243 185.267 70.7547 184.284 70.862 183.565C70.9758 182.423 69.7431 181.256 69.7431 181.256L67.2874 187.909L60.1542 188.245C60.1542 188.245 61.0208 189.781 62.1525 190.013C62.8634 190.176 63.821 190.107 63.821 190.107L66.4023 190.004C66.5586 189.999 66.6772 190.01 66.7537 190.113C66.8302 190.216 66.8033 190.396 66.7554 190.481L65.9038 192.92C65.9038 192.92 65.5816 193.847 65.5061 194.543C65.3923 195.685 66.585 196.931 66.585 196.931L68.9798 190.212Z" fill="white"/>
</g>
<path d="M322.966 434.816H318.062V446.59L322.966 434.816Z" fill="white"/>
<path d="M326.416 434.816H331.314V446.59L326.416 434.816Z" fill="white"/>
<path d="M324.691 439.155L327.812 446.589H325.765L324.832 444.222H322.548L324.691 439.155Z" fill="white"/>
<path d="M339.314 442.303L339.892 443.968C339.911 444.009 339.94 444.029 339.991 444.029H341.103C341.163 444.029 341.173 444 341.163 443.939L338.867 437.534C338.857 437.483 338.847 437.473 338.796 437.473H337.416C337.378 437.473 337.356 437.502 337.356 437.544C337.336 437.88 337.308 437.983 337.266 438.082L335.218 443.929C335.209 444 335.231 444.029 335.289 444.029H336.282C336.343 444.029 336.372 444.009 336.394 443.948L336.94 442.303H339.314ZM337.256 441.216C337.557 440.305 337.953 439.138 338.113 438.471H338.122C338.32 439.17 338.787 440.555 338.998 441.216H337.256Z" fill="white"/>
<path d="M344.116 444.128C344.714 444.128 345.349 444.019 345.995 443.74C346.046 443.721 346.055 443.698 346.055 443.65C346.036 443.471 346.014 443.211 346.014 443.012V436.983C346.014 436.944 346.014 436.925 345.966 436.925H344.883C344.841 436.925 344.822 436.944 344.822 436.995V439.038C344.653 439.019 344.535 439.009 344.394 439.009C342.647 439.009 341.573 440.167 341.573 441.614C341.573 443.291 342.675 444.128 344.116 444.128V444.128ZM344.822 443.012C344.643 443.07 344.445 443.092 344.244 443.092C343.452 443.092 342.803 442.643 342.803 441.553C342.803 440.587 343.471 440.016 344.356 440.016C344.535 440.016 344.691 440.036 344.822 440.087V443.012Z" fill="white"/>
<path d="M349.51 439.009C348.018 439.009 347.095 440.157 347.095 441.575C347.095 442.842 347.83 444.128 349.488 444.128C350.89 444.128 351.874 443.092 351.874 441.543C351.874 440.177 351.04 439.009 349.51 439.009ZM349.45 440.016C350.293 440.016 350.651 440.744 350.651 441.575C350.651 442.601 350.124 443.111 349.51 443.111C348.753 443.111 348.306 442.473 348.306 441.553C348.306 440.606 348.782 440.016 349.45 440.016V440.016Z" fill="white"/>
<path d="M352.994 436.925C352.952 436.925 352.924 436.944 352.924 436.995V443.82C352.924 443.849 352.952 443.9 352.994 443.91C353.47 444.057 353.968 444.128 354.483 444.128C355.955 444.128 357.386 443.211 357.386 441.363C357.386 440.026 356.473 439.009 355.042 439.009C354.713 439.009 354.406 439.061 354.138 439.151L354.125 437.005C354.125 436.934 354.106 436.925 354.035 436.925H352.994ZM356.163 441.485C356.163 442.592 355.409 443.111 354.594 443.111C354.425 443.111 354.275 443.102 354.138 443.06V440.148C354.294 440.087 354.483 440.036 354.831 440.036C355.617 440.036 356.163 440.536 356.163 441.485Z" fill="white"/>
<path d="M361.428 441.844C361.914 441.844 362.313 441.835 362.45 441.803C362.501 441.793 362.521 441.774 362.53 441.732C362.559 441.623 362.572 441.395 362.572 441.116C362.572 440.167 362.003 439.009 360.533 439.009C359.032 439.009 358.198 440.238 358.198 441.623C358.198 442.851 358.844 444.128 360.652 444.128C361.329 444.128 361.767 444.019 362.144 443.839C362.182 443.82 362.201 443.788 362.201 443.73V442.9C362.201 442.851 362.172 442.842 362.144 442.861C361.767 443.021 361.358 443.102 360.91 443.102C359.898 443.102 359.438 442.54 359.409 441.844H361.428ZM359.409 440.985C359.489 440.497 359.796 439.968 360.482 439.968C361.239 439.968 361.438 440.606 361.438 440.895C361.438 440.905 361.438 440.946 361.438 440.975C361.396 440.985 361.268 440.985 360.891 440.985H359.409Z" fill="white"/>
<path d="M346.534 507.044L340.269 483.662L353.061 480.234L356.214 492.004C357.107 495.335 355.432 498.76 352.407 500.167L353.468 504.128C355.815 503.506 358.232 504.907 358.858 507.255C359.03 507.9 358.643 508.562 357.999 508.734L352.168 510.297C349.714 510.954 347.192 509.498 346.534 507.044Z" fill="white"/>
<path d="M350.634 498.239C353.073 497.586 354.525 495.07 353.871 492.631L351.171 482.552L343.064 484.724L348.877 506.416C349.187 507.574 350.382 508.264 351.54 507.954L355.798 506.812C355.326 506.454 354.699 506.309 354.083 506.474L352.924 506.784C352.277 506.958 351.612 506.574 351.439 505.927L349.777 499.724C349.604 499.078 349.987 498.413 350.634 498.239Z" fill="#0F0F0F"/>
<path d="M325.909 483.541L330.076 484.434H346.748H356.87L361.336 484.137C364.412 483.343 370.625 481.755 370.863 481.755C371.101 481.755 372.748 480.564 373.542 479.969L377.413 475.801L377.71 471.633L377.115 463.595L377.71 457.343L379.497 452.282L387.237 451.984L390.214 448.114L384.26 443.35L376.222 440.671L369.672 442.159L361.038 447.518L360.741 450.495L362.527 451.091L367.588 449.305L366.1 455.556L367.29 464.19L359.252 460.022L353 458.534H343.771L333.351 462.404L324.718 468.358L315.489 449.305L315.191 466.572L316.084 475.205L322.038 481.755L325.909 483.541Z" fill="#0F0F0F" stroke="black"/>
<path d="M353.427 457.623C351.857 457.392 350.255 457.275 348.665 457.275C339.9 457.275 331.514 460.798 325.394 466.996L316.223 447.761C315.989 447.268 315.444 447.003 314.911 447.124C314.378 447.244 314 447.717 314 448.263V468.383C314 474.015 316.789 479.262 321.462 482.419C321.662 482.554 321.89 482.619 322.115 482.619C322.49 482.619 322.858 482.439 323.084 482.105C323.445 481.57 323.305 480.843 322.77 480.482C318.742 477.761 316.337 473.237 316.337 468.383V453.43L323.667 468.805L321.235 471.248C320.78 471.706 320.782 472.445 321.239 472.901C321.467 473.127 321.765 473.241 322.064 473.241C322.364 473.241 322.664 473.126 322.892 472.897L325.904 469.87C325.918 469.856 325.93 469.841 325.943 469.827C325.945 469.825 325.948 469.823 325.95 469.82C331.705 463.333 339.984 459.612 348.665 459.612C350.141 459.612 351.629 459.72 353.087 459.935C353.725 460.029 354.319 459.588 354.413 458.949C354.507 458.311 354.065 457.717 353.427 457.623Z" fill="white"/>
<path d="M375.173 439.731C382.764 439.731 391.247 447.132 391.604 447.447C391.847 447.66 391.99 447.964 391.999 448.287C392.01 448.61 391.886 448.922 391.658 449.15L387.977 452.831C387.758 453.05 387.461 453.173 387.151 453.173H380.828C377.539 457.784 377.607 464.421 378.704 468.809C380.173 474.688 377.585 479.685 371.41 482.969L359.824 485.758C358.599 485.765 356.993 485.771 355.299 485.776L352.962 485.783C350.43 485.789 347.999 485.794 346.619 485.796L330.007 485.281C328.607 485.206 327.226 484.962 325.893 484.548C325.277 484.356 324.932 483.701 325.124 483.085C325.316 482.469 325.971 482.124 326.587 482.316C327.572 482.622 328.587 482.82 329.618 482.912C329.617 482.879 329.615 482.847 329.614 482.815L346.619 483.459C348.945 483.455 354.246 483.445 357.989 483.429L370.744 480.671C374.39 478.613 377.865 475.092 376.436 469.375C374.982 463.557 375.716 458.516 377.259 454.86C376.51 455.256 375.67 455.467 374.798 455.467C373.391 455.467 372.068 454.919 371.073 453.924L370.603 453.455C370.147 452.998 370.147 452.258 370.603 451.802C371.059 451.346 371.799 451.346 372.256 451.802L372.725 452.271C373.868 453.414 375.728 453.414 376.871 452.271L377.965 451.178C378.184 450.959 378.481 450.836 378.791 450.836H380.212C380.217 450.836 380.222 450.836 380.228 450.836H386.667L389.094 448.408C386.742 446.55 380.514 442.068 375.173 442.068C370.082 442.068 364.138 446.766 361.818 448.785C361.618 448.961 361.581 449.178 361.577 449.292C361.573 449.406 361.595 449.625 361.783 449.813C362.017 450.048 362.39 450.085 362.67 449.901C364.359 448.787 367.063 447.253 370.345 446.268C370.963 446.083 371.614 446.433 371.8 447.052C371.986 447.67 371.635 448.321 371.017 448.507C370.4 448.692 369.804 448.9 369.235 449.121C367.51 453.095 366.996 456.889 367.712 460.404C368.243 463.011 369.298 464.522 369.385 464.644C369.543 464.852 369.623 465.102 369.623 465.352C369.623 465.642 369.516 465.932 369.3 466.158C369.071 466.399 368.763 466.52 368.455 466.52C368.211 466.52 367.966 466.444 367.76 466.291L366.016 465.073C363.383 463.235 360.501 461.834 357.448 460.91C356.831 460.723 356.482 460.07 356.669 459.453C356.856 458.835 357.508 458.486 358.126 458.673C360.793 459.482 363.34 460.627 365.72 462.087C364.96 459.407 364.579 455.459 366.2 450.522C365.257 451.026 364.489 451.501 363.956 451.853C362.755 452.644 361.146 452.482 360.13 451.466C359.537 450.872 359.213 450.051 359.242 449.212C359.27 448.373 359.65 447.575 360.284 447.023C363.411 444.3 369.504 439.731 375.173 439.731Z" fill="white"/>
<path d="M375.56 444.68C375.184 445.072 375.131 445.686 375.429 446.139C375.717 446.559 376.252 446.758 376.741 446.608C377.19 446.47 377.516 446.072 377.564 445.605C377.675 444.529 376.31 443.899 375.56 444.68Z" fill="white"/>
<path d="M361.484 480.38L355.143 474.43L355.888 469.495L357.947 469.177L361.502 470.737L365.579 477.639L366.62 476.575L370.06 475.441C370.482 475.577 371.445 475.83 371.916 475.757C372.387 475.685 374.121 479.635 374.929 481.618L373.934 482.977L372.372 482.616L369.609 480.331L366.894 482.256L364.246 482.665L361.484 480.38Z" fill="#0F0F0F"/>
<path d="M371.632 474.37C371.98 474.489 372.308 474.654 372.608 474.857C373.175 475.166 373.882 476.3 374.165 476.828L375.891 480.678C376.391 481.792 376.071 483.035 375.095 483.769C374.737 484.038 374.338 484.204 373.93 484.267C373.225 484.376 372.494 484.178 371.903 483.678L369.568 481.702L367.545 483.302C366.219 484.35 364.374 484.293 363.115 483.184L360.883 481.101L354.282 474.919C353.772 474.442 353.754 473.635 354.251 473.136C354.73 472.654 355.521 472.677 356.017 473.142L364.729 481.3C365.086 481.634 365.622 481.656 366.004 481.354L368.824 479.124C369.288 478.757 369.946 478.769 370.397 479.15L373.507 481.782C373.534 481.805 373.548 481.809 373.548 481.809C373.576 481.81 373.633 481.767 373.639 481.74C373.639 481.74 373.638 481.725 373.624 481.694L371.804 477.633C371.621 477.227 371.295 476.893 370.878 476.738C370.437 476.575 369.965 476.607 369.553 476.829L366.041 478.721C365.447 479.041 364.705 478.827 364.372 478.239L361.291 472.8C360.281 471.016 358.252 470.073 356.235 470.451C355.516 470.584 354.825 470.072 354.767 469.321C354.718 468.679 355.196 468.114 355.829 468C358.872 467.451 361.928 468.884 363.452 471.575L365.933 475.957L368.375 474.642C369.372 474.105 370.559 474.006 371.632 474.37Z" fill="white"/>
<path d="M331.755 480.312L337.035 475.562L347.15 483.82L345.07 491.585L344.089 494.096L341.726 497.161L337.007 498.671L333.746 499.338L332.149 504.149L333.145 505.033L334.927 506.435L335.327 508.391L334.31 508.735L329.421 507.426L327.275 506.234L327.162 504.354L327.779 502.054L328.724 497.376L330.665 493.581L334.522 491.84L334.409 489.961L331.385 485.144L331.755 480.312Z" fill="#0F0F0F"/>
<path d="M347.548 482.901C348.197 483.096 348.549 483.802 348.373 484.457L347.798 486.603L347.157 488.994L346.229 492.46C345.661 494.58 344.473 496.372 342.914 497.696L339.867 499.502C338.249 500.121 336.467 500.345 334.669 500.085L333.594 504.096C335.987 504.744 337.409 507.217 336.764 509.612C336.587 510.27 335.907 510.658 335.249 510.481L329.297 508.887C326.792 508.215 325.306 505.641 325.977 503.136L328.052 495.391C328.475 493.812 329.617 492.524 331.134 491.916L333.583 490.932L332.863 490.152C331.265 488.421 330.375 486.205 330.299 483.915C330.258 483.537 330.25 482.503 330.55 481.381C330.558 481.348 330.565 481.314 330.574 481.28C331.349 478.116 333.641 475.571 336.706 474.47C337.366 474.233 338.095 474.591 338.307 475.267C338.505 475.902 338.137 476.584 337.512 476.811C335.067 477.702 333.289 479.829 332.863 482.431C332.501 484.65 333.237 486.907 334.762 488.559L336.621 490.573C336.984 490.965 337.062 491.559 336.775 492.047C336.633 492.29 336.403 492.469 336.142 492.574L332.056 494.214C331.267 494.53 330.664 495.21 330.444 496.032L328.369 503.777C328.051 504.961 328.754 506.178 329.938 506.495L334.286 507.66C334.051 507.102 333.571 506.653 332.942 506.485L331.758 506.167C331.098 505.99 330.706 505.311 330.882 504.651L332.579 498.319C332.754 497.666 333.424 497.262 334.076 497.439C338.319 498.586 342.7 496.062 343.837 491.819L345.995 483.766C346.175 483.093 346.876 482.699 347.548 482.901Z" fill="white"/>
<path d="M294.627 162.582C294.966 161.317 295.446 160.158 296.067 159.104C296.71 158.056 297.468 157.163 298.344 156.426C299.214 155.71 300.183 155.213 301.252 154.934C302.315 154.677 303.461 154.702 304.689 155.008C304.879 155.059 305.02 155.165 305.113 155.325C305.226 155.491 305.258 155.669 305.207 155.859L303.766 161.235C303.676 161.572 303.537 161.795 303.35 161.903C303.157 162.032 302.875 162.114 302.504 162.151C302.043 162.185 301.637 162.268 301.285 162.4C300.949 162.559 300.672 162.789 300.455 163.093C300.238 163.396 300.071 163.769 299.952 164.212C299.732 165.034 299.826 165.737 300.234 166.321C300.637 166.926 301.408 167.381 302.546 167.687L310.768 169.89L313.404 160.055C313.466 159.823 313.593 159.642 313.786 159.513C313.994 159.411 314.214 159.391 314.446 159.453L318.367 160.503C318.599 160.566 318.769 160.69 318.877 160.877C319.001 161.091 319.031 161.314 318.969 161.546L314.673 177.579C314.611 177.811 314.476 177.978 314.268 178.081C314.075 178.21 313.863 178.243 313.631 178.181L300.444 174.648C298.567 174.145 297.112 173.292 296.079 172.089C295.061 170.912 294.437 169.491 294.205 167.824C293.989 166.185 294.13 164.437 294.627 162.582Z" fill="white"/>
<defs>
<filter id="filter0_d_773_842" x="293.332" y="122.999" width="40.8813" height="42.0635" filterUnits="userSpaceOnUse" color-interpolation-filters="sRGB">
<feFlood flood-opacity="0" result="BackgroundImageFix"/>
<feColorMatrix in="SourceAlpha" type="matrix" values="0 0 0 0 0 0 0 0 0 0 0 0 0 0 0 0 0 0 127 0" result="hardAlpha"/>
<feOffset/>
<feGaussianBlur stdDeviation="8.5"/>
<feComposite in2="hardAlpha" operator="out"/>
<feColorMatrix type="matrix" values="0 0 0 0 0.988235 0 0 0 0 0.803922 0 0 0 0 0.368627 0 0 0 1 0"/>
<feBlend mode="normal" in2="BackgroundImageFix" result="effect1_dropShadow_773_842"/>
<feBlend mode="normal" in="SourceGraphic" in2="effect1_dropShadow_773_842" result="shape"/>
</filter>
<filter id="filter1_d_773_842" x="299.588" y="100.756" width="40.8813" height="42.0635" filterUnits="userSpaceOnUse" color-interpolation-filters="sRGB">
<feFlood flood-opacity="0" result="BackgroundImageFix"/>
<feColorMatrix in="SourceAlpha" type="matrix" values="0 0 0 0 0 0 0 0 0 0 0 0 0 0 0 0 0 0 127 0" result="hardAlpha"/>
<feOffset/>
<feGaussianBlur stdDeviation="8.5"/>
<feComposite in2="hardAlpha" operator="out"/>
<feColorMatrix type="matrix" values="0 0 0 0 0.988235 0 0 0 0 0.803922 0 0 0 0 0.368627 0 0 0 1 0"/>
<feBlend mode="normal" in2="BackgroundImageFix" result="effect1_dropShadow_773_842"/>
<feBlend mode="normal" in="SourceGraphic" in2="effect1_dropShadow_773_842" result="shape"/>
</filter>
<filter id="filter2_d_773_842" x="305.79" y="80.3801" width="40.8813" height="42.0635" filterUnits="userSpaceOnUse" color-interpolation-filters="sRGB">
<feFlood flood-opacity="0" result="BackgroundImageFix"/>
<feColorMatrix in="SourceAlpha" type="matrix" values="0 0 0 0 0 0 0 0 0 0 0 0 0 0 0 0 0 0 127 0" result="hardAlpha"/>
<feOffset/>
<feGaussianBlur stdDeviation="8.5"/>
<feComposite in2="hardAlpha" operator="out"/>
<feColorMatrix type="matrix" values="0 0 0 0 0.988235 0 0 0 0 0.803922 0 0 0 0 0.368627 0 0 0 1 0"/>
<feBlend mode="normal" in2="BackgroundImageFix" result="effect1_dropShadow_773_842"/>
<feBlend mode="normal" in="SourceGraphic" in2="effect1_dropShadow_773_842" result="shape"/>
</filter>
<filter id="filter3_f_773_842" x="294.808" y="173.453" width="19.7693" height="13.5466" filterUnits="userSpaceOnUse" color-interpolation-filters="sRGB">
<feFlood flood-opacity="0" result="BackgroundImageFix"/>
<feBlend mode="normal" in="SourceGraphic" in2="BackgroundImageFix" result="shape"/>
<feGaussianBlur stdDeviation="0.5" result="effect1_foregroundBlur_773_842"/>
</filter>
<linearGradient id="paint0_linear_773_842" x1="8.32606" y1="0" x2="8.32606" y2="7.1514" gradientUnits="userSpaceOnUse">
<stop stop-color="#CE4D45"/>
<stop offset="1" stop-color="#CE4D45" stop-opacity="0"/>
</linearGradient>
<clipPath id="clip0_773_842">
<rect width="71.487" height="71.487" fill="white" transform="translate(58.2225 153) rotate(54.5329)"/>
</clipPath>
</defs>
</svg>
