<svg width="255" height="790" viewBox="0 0 255 790" fill="none" xmlns="http://www.w3.org/2000/svg">
<g filter="url(#filter0_d_773_843)">
<path d="M191.16 61.5886C189.498 60.8717 189.567 58.4909 191.269 57.8723L195.098 56.4804C196.426 55.9978 197.822 57.0064 197.781 58.4185L197.693 61.4235C197.652 62.8356 196.199 63.761 194.902 63.2017L191.16 61.5886Z" fill="#FCCE5E"/>
</g>
<g filter="url(#filter1_d_773_843)">
<path d="M168.056 61.3024C166.394 60.5856 166.463 58.2047 168.165 57.5862L171.994 56.1943C173.322 55.7117 174.718 56.7203 174.676 58.1323L174.589 61.1374C174.547 62.5494 173.095 63.4748 171.798 62.9155L168.056 61.3024Z" fill="#FCCE5E"/>
</g>
<g filter="url(#filter2_d_773_843)">
<path d="M146.77 60.5856C145.107 59.8688 145.176 57.4879 146.878 56.8694L150.707 55.4775C152.035 54.9949 153.431 56.0035 153.39 57.4155L153.302 60.4206C153.261 61.8326 151.808 62.758 150.511 62.1987L146.77 60.5856Z" fill="#FCCE5E"/>
</g>
<g filter="url(#filter3_f_773_843)">
<rect width="16.6521" height="7.1514" transform="matrix(0.0191975 -0.999816 0.999932 -0.011663 227.771 68.0454)" fill="url(#paint0_linear_773_843)"/>
</g>
<path d="M64.8942 28.1746L62.1296 26.7556L61.9789 27.0491C62.8441 27.4928 62.8881 27.7492 62.3249 28.8461L61.3103 30.8232C60.7476 31.9191 60.5052 32.049 59.6408 31.605C59.0242 31.1721 58.7586 30.5861 58.4892 29.5896L58.1757 28.453C59.2201 28.7742 60.0388 28.4334 60.3879 27.7536C60.824 26.9052 60.4308 25.8834 59.0716 25.1859L56.3538 23.7906L56.2031 24.0841C57.0675 24.5282 57.1115 24.7845 56.5491 25.8812L55.5345 27.8582C54.9713 28.9552 54.7294 29.0841 53.8642 28.6403L53.7135 28.9338L56.7875 30.5115L56.9382 30.218C56.073 29.7743 56.0371 29.5019 56.6003 28.405L56.8853 27.8492L57.1479 27.9843L57.7605 31.0106L62.2546 33.3174C64.4631 34.4506 66.0233 33.7685 66.7448 32.3632C67.4663 30.9579 67.1027 29.3078 64.8942 28.1746ZM57.1315 27.37L58.1857 25.3161L58.8186 25.6415C59.5133 25.9983 59.5763 26.6354 59.2913 27.1912C59.0139 27.7321 58.4591 28.0522 57.7644 27.6955L57.1315 27.37ZM62.5468 32.8622L62.4383 32.8072C61.8822 32.5215 61.877 32.3429 62.241 31.6326L63.9614 28.2811L64.7029 28.6615C66.3088 29.486 66.0002 30.8102 65.5325 31.7215C65.049 32.6636 64.1527 33.6867 62.5468 32.8622Z" fill="white"/>
<path d="M46.1657 22.4646L48.8489 19.8605C49.6254 19.1083 49.6215 18.774 48.6326 18.2669L48.7917 17.9582L51.6949 19.4481L51.5361 19.7576C50.5639 19.2582 50.2127 19.3705 49.2484 20.2996L44.7766 24.6778L44.5752 24.5752L45.4817 18.9326L41.3943 22.9418L41.1937 22.8388L42.1905 16.6776C42.3982 15.3597 42.2702 15.0013 41.3739 14.5411L41.5329 14.2324L44.9613 15.9925L44.803 16.3008C43.891 15.8333 43.5333 15.9229 43.3658 17.0465L42.7834 20.7286L46.7218 16.896L47.0153 17.0467L46.1657 22.4646Z" fill="white"/>
<path d="M50.2601 27.4145C48.5605 26.5426 47.8126 24.578 48.5975 23.0489C49.375 21.5356 51.4069 20.9983 53.1053 21.8697C54.8041 22.7419 55.552 24.7066 54.7752 26.2196C53.9904 27.7486 51.9589 28.2867 50.2601 27.4145ZM52.8592 22.3489C51.439 21.6198 50.2868 22.6477 49.7713 23.6518C49.2482 24.6708 49.0925 26.1909 50.513 26.9208C51.95 27.6576 53.0938 26.6449 53.6177 25.6256C54.1324 24.6218 54.2965 23.0865 52.8592 22.3489Z" fill="white"/>
<path d="M69.3931 36.5917L69.2348 36.9001L65.6979 35.085L65.857 34.7764C66.892 35.3075 67.2117 35.1398 68.0049 33.5956L69.2732 31.1245C70.0653 29.5798 70.0073 29.2375 68.9724 28.7063L69.1307 28.398L72.3273 30.0386C73.918 30.8547 74.3784 32.1253 73.8159 33.2219C73.2692 34.2877 71.9607 34.6699 70.3696 33.853L69.4895 33.4017L69.1008 34.1583C68.3075 35.7026 68.359 36.0603 69.3931 36.5917ZM72.0423 30.5944L71.1619 30.1422L69.7826 32.8299L70.663 33.2821C71.5282 33.7258 72.2384 33.33 72.6112 32.6034C72.9917 31.8619 72.9067 31.0385 72.0423 30.5944Z" fill="white"/>
<path d="M82.7213 41.9889L82.501 42.2271C82.1003 42.6654 81.8359 42.7634 80.739 42.2002L80.5224 42.0892C79.72 41.6772 79.676 41.4208 80.2385 40.3242L80.6032 39.6135C81.8079 40.232 81.8455 40.3875 81.433 41.191L81.7265 41.3417L82.9074 39.0403L82.6139 38.8896C82.2022 39.6928 82.0541 39.7528 80.8486 39.1346L81.7364 37.405L82.586 37.8415C83.6826 38.4039 83.7577 38.6767 83.6346 39.2577L83.5615 39.5905L83.8089 39.7172L84.4456 38.2101L79.9054 35.8792L79.7547 36.1727C80.6191 36.6168 80.6634 36.8739 80.1006 37.9698L79.0861 39.9468C78.571 40.9498 78.323 41.142 77.6231 40.8283C77.0253 40.3969 76.762 39.8145 76.4968 38.8327L76.1825 37.6963C77.2276 38.0173 78.0463 37.6765 78.3955 36.9967C78.8315 36.1482 78.4384 35.1264 77.0791 34.429L74.3614 33.0337L74.2106 33.3271C75.0751 33.7712 75.119 34.0276 74.5566 35.1242L73.542 37.1013C72.9789 38.1982 72.7369 38.3271 71.8717 37.8833L71.721 38.1768L74.795 39.7546L74.9458 39.4611C74.0806 39.0173 74.0447 38.745 74.6071 37.6484L74.8929 37.0923L75.1555 37.2273L75.768 40.2536L82.1155 43.5117L82.9528 42.1076L82.7213 41.9889ZM75.1382 36.6134L76.1924 34.5595L76.8262 34.8846C77.5208 35.2413 77.5838 35.8785 77.2988 36.4342C77.0214 36.9751 76.4666 37.2952 75.7719 36.9385L75.1382 36.6134Z" fill="white"/>
<path d="M85.0087 45.2501C84.3909 44.933 84.0163 44.3313 83.8876 44.0112C83.7706 44.0496 83.513 44.2093 83.3711 44.4102L83.0777 44.2595L84.1715 42.1287L84.4806 42.2867C84.0813 43.369 84.4821 44.3359 85.3934 44.8037C85.8874 45.0574 86.4321 44.9856 86.6694 44.5227C86.8761 44.1212 86.679 43.6301 86.1967 43.0112L85.5299 42.1429C85.0625 41.5316 84.8614 40.7843 85.2098 40.1048C85.5902 39.3633 86.6103 39.0871 87.5683 39.5786C88.0776 39.8406 88.415 40.2477 88.567 40.5983C88.6752 40.5762 88.8403 40.4458 88.9817 40.2841L89.2752 40.4348L88.3396 42.2573L88.0153 42.0909C88.2796 41.3093 88.1874 40.5015 87.369 40.0814C86.9367 39.859 86.4077 39.9 86.2093 40.2863C86.0032 40.6875 86.2173 41.0701 86.7844 41.7908L87.4195 42.6437C87.9782 43.3796 87.9783 44.1013 87.7406 44.5653C87.2412 45.5374 86.0428 45.7815 85.0087 45.2501Z" fill="white"/>
<path d="M89.7652 47.6909C89.1474 47.3739 88.7729 46.7721 88.6444 46.4529C88.5279 46.4901 88.2699 46.6509 88.1276 46.8511L87.8342 46.7004L88.928 44.5696L89.2375 44.7283C88.8373 45.811 89.239 46.7776 90.1502 47.2453C90.6443 47.499 91.1889 47.4273 91.4262 46.9643C91.6327 46.5621 91.4355 46.0709 90.9536 45.4528L90.2864 44.5838C89.8202 43.973 89.6179 43.2252 89.9666 42.5465C90.347 41.805 91.3671 41.5287 92.3252 42.0202C92.8341 42.2815 93.1715 42.6886 93.3231 43.0402C93.4321 43.0179 93.5971 42.8875 93.7382 42.725L94.0317 42.8757L93.0964 44.6989L92.7718 44.5318C93.0364 43.751 92.9439 42.9424 92.1256 42.5223C91.6935 42.3007 91.1645 42.3416 90.9661 42.7279C90.7601 43.1291 90.9733 43.5121 91.5409 44.2317L92.176 45.0846C92.7348 45.8205 92.7352 46.5429 92.4971 47.0061C91.998 47.9791 90.7993 48.2224 89.7652 47.6909Z" fill="white"/>
<path d="M66.256 15.2723C64.8677 17.9781 65.2395 21.1228 66.9505 23.4008L68.2751 12.7947C67.4595 13.4501 66.7644 14.2819 66.256 15.2723Z" fill="white"/>
<path d="M77.8817 20.8045C78.3156 19.9597 78.3121 19.2185 78.2861 18.6299C78.2282 17.889 78.1483 17.2459 78.4374 16.6822C78.7594 16.0542 79.5366 15.7139 80.2073 16.0586C80.2381 16.0742 80.2646 16.0925 80.2931 16.1091C79.6488 14.3712 78.3783 12.8597 76.5982 11.946C74.2109 10.721 71.4815 10.8674 69.3068 12.0962C69.4645 12.183 69.6144 12.2639 69.7428 12.3298C70.457 12.6968 71.6088 13.1779 71.6088 13.1779C71.9881 13.3455 71.7542 13.9087 71.3633 13.7639C71.3633 13.7639 70.9706 13.6171 70.5478 13.4271L69.2364 22.1078L73.0352 18.3899L73.468 14.9256C73.1105 14.7154 72.7842 14.4927 72.7842 14.4927C72.4272 14.2815 72.7593 13.7411 73.1168 13.9513C73.1168 13.9513 74.2011 14.6176 74.8726 14.962C75.5872 15.3297 76.7389 15.8108 76.7389 15.8108C77.1182 15.9784 76.8836 16.5419 76.4931 16.396C76.4931 16.396 76.0997 16.2495 75.6779 16.06L74.3762 24.6751L76.2275 22.7466C77.008 21.9529 77.5812 21.3893 77.8817 20.8045Z" fill="white"/>
<path d="M72.9041 19.4397L67.795 24.3467C68.3147 24.8406 68.9114 25.2715 69.5821 25.6161C70.3784 26.0242 71.2122 26.2783 72.0512 26.3932C72.0474 26.3548 72.0468 26.3151 72.0504 26.2746L72.9041 19.4397Z" fill="white"/>
<path d="M80.7712 18.5796C80.6887 18.8128 80.5851 19.0544 80.4565 19.3063C80.1003 19.9998 79.5711 20.7126 78.6804 21.4875L73.494 26.4521C76.1345 26.31 78.6314 24.8099 79.9255 22.2884C80.5355 21.1008 80.8057 19.8275 80.7712 18.5796Z" fill="white"/>
<path d="M77.1796 10.8134C72.7874 8.55876 67.3782 10.2984 65.1238 14.6914C62.868 19.0851 64.608 24.4932 69.0014 26.7483C73.3944 29.0026 78.8032 27.2641 81.0583 22.8707C83.3134 18.4774 81.573 13.0685 77.1796 10.8134ZM69.1883 26.3829C64.9967 24.2313 63.3371 19.0711 65.4884 14.8787C67.64 10.687 72.801 9.02711 76.9927 11.1787C81.1843 13.3304 82.8439 18.4906 80.6923 22.6822C78.541 26.8746 73.38 28.5346 69.1883 26.3829Z" fill="white"/>
<path fill-rule="evenodd" clip-rule="evenodd" d="M6.18076 36.4031C5.96686 36.1217 22.5885 33.9395 29.4604 32.1667C29.5725 31.3338 31.0872 31.2907 32.1859 31.0624C43.282 28.7465 68.5648 35.2292 71.951 54.8613C71.951 54.8613 85.8173 52.9738 87.0835 52.6762C88.3504 52.3769 95.9229 52.5588 96.5429 62.1419C97.1634 71.7263 98.3196 78.7138 98.3196 78.7138L94.7468 80.1614L88.7285 65.3081L87.486 65.1453L88.6388 68.8356L84.6947 74.4713L86.2791 81.7762L81.904 81.6827L78.9215 69.4801L62.3836 74.5873L53.1632 73.3525L50.6973 72.33L41.7311 74.4092C41.7311 74.4092 35.8662 77.8185 30.3366 70.3017L29.381 68.292L22.4439 71.1641C22.4439 71.1641 25.6902 75.567 20.9997 77.2479L18.0295 69.9666C18.0295 69.9666 17.7603 67.3164 20.9331 65.8368C24.1075 64.358 31.9204 60.9042 31.9204 60.9042C31.9204 60.9042 29.0553 60.4457 26.73 58.3091C24.4043 56.1711 23.2638 54.4974 23.2638 54.4974L17.4708 56.8446C17.4708 56.8446 18.2324 58.8159 16.8643 60.9111C15.4961 63.0064 14.6802 62.6864 14.6802 62.6864L13.3028 58.5334L12.5087 55.4996L12.4553 53.6565L14.2236 51.8129L17.9109 50.5329L22.9762 48.4776L25.9256 47.8376L29.2404 48.987L30.3155 51.6402L31.7221 47.4321L33.4077 44.3138L30.4216 44.2225L24.7315 44.5806L19.5382 43.2108L14.587 42.4419L10.5087 39.5845L7.57733 37.6492L6.18076 36.4031Z" fill="#0F0F0F"/>
<path d="M95.8533 65.963L95.5889 64.4614C95.4745 63.8115 94.8545 63.3746 94.2019 63.4893C93.5512 63.604 93.1154 64.2245 93.2294 64.8755L93.4929 66.3774C93.5085 66.4628 93.5323 66.5439 93.5636 66.6211C93.7708 67.1327 94.3147 67.4488 94.8803 67.3503C95.5326 67.2349 95.9673 66.614 95.8533 65.963Z" fill="white"/>
<path fill-rule="evenodd" clip-rule="evenodd" d="M41.9526 72.9652L46.0636 71.2995L49.0491 72.6744L42.8521 75.1853L41.9526 72.9652Z" fill="white"/>
<path d="M77.9709 67.8262L65.9142 72.5533C61.9893 74.0937 57.7845 74.2687 53.755 73.0617C53.1215 72.8717 52.453 73.2316 52.2638 73.8647C52.0742 74.499 52.4337 75.1667 53.0679 75.3563C57.236 76.6052 61.5686 76.5391 65.6733 75.1828L67.9163 74.3421L78.8708 70.047" fill="white"/>
<path d="M89.6548 71.8625L93.5622 81.5061C93.8105 82.119 94.5085 82.4145 95.1222 82.1658L99.3401 80.4568C99.8189 80.2629 100.119 79.7834 100.085 79.2663L98.9104 61.7949C98.8683 61.1847 98.7785 60.5756 98.6415 59.9865C98.5055 59.3953 98.32 58.8077 98.0913 58.2432C96.0764 53.2705 90.9662 50.3663 85.6632 51.1805L72.7615 53.1635C68.6855 43.7379 61.2656 36.37 51.7767 32.354C44.5733 29.3047 36.7235 28.442 29.0736 29.8585C28.4232 29.9786 27.9939 30.6037 28.1147 31.2538C28.129 31.336 28.1523 31.4137 28.1823 31.4878C28.3915 32.004 28.9407 32.3198 29.5099 32.2145C36.697 30.8838 44.0739 31.6949 50.843 34.5597C51.3807 34.7867 51.9105 35.0277 52.4329 35.2772L51.9871 36.7088C51.9016 36.984 51.92 37.267 52.0202 37.5142C52.1504 37.8355 52.4181 38.0974 52.7743 38.2082C53.4053 38.4055 54.0767 38.0527 54.2732 37.422L54.5929 36.3983C55.8584 37.1065 57.0756 37.8834 58.2378 38.7242L57.3872 39.8623C57.1264 40.2113 57.0831 40.6555 57.2354 41.0314C57.3147 41.2271 57.4461 41.4035 57.6274 41.5397C58.1567 41.9363 58.908 41.8279 59.3034 41.2982L60.1336 40.1902C61.1666 41.0435 62.1491 41.9517 63.0824 42.9108L61.7503 44.066C61.3536 44.4111 61.239 44.9595 61.4254 45.4196C61.4741 45.5397 61.5429 45.6534 61.6317 45.7563C62.0653 46.2551 62.8213 46.3083 63.3204 45.8755L64.696 44.6818C65.7013 45.8613 66.6344 47.1045 67.4903 48.4081L65.4564 50.1546C65.0556 50.4985 64.9386 51.0498 65.1262 51.513C65.1739 51.6307 65.241 51.7424 65.3285 51.8441C65.7596 52.3457 66.5153 52.4026 67.0172 51.9723L68.7525 50.4812C69.4671 51.7431 70.1137 53.0544 70.6866 54.41L68.5654 58.1526C68.3774 58.4839 68.3646 58.8668 68.4973 59.1943C68.5949 59.4352 68.7715 59.6469 69.0164 59.7855C69.5924 60.1114 70.3232 59.9097 70.649 59.3337L72.774 55.585L86.0257 53.5473C90.2265 52.9028 94.275 55.2032 95.8712 59.1427C96.0526 59.5903 96.1997 60.0563 96.3077 60.5246C96.4154 60.992 96.4864 61.4743 96.52 61.9582L97.6377 78.563L95.3327 79.497L90.8347 68.3959C90.8341 68.3944 90.8324 68.3923 90.8317 68.3908L89.2813 64.5644C89.033 63.9514 88.3347 63.6552 87.7218 63.9035C87.1089 64.1519 86.8129 64.851 87.0613 65.4639L88.4196 68.8162" fill="white"/>
<path d="M63.2708 67.7435L62.9502 65.1509L66.3246 67.1181C66.8954 67.4515 67.6289 67.2587 67.9627 66.6868C68.2961 66.1159 68.1022 65.382 67.5309 65.0497L62.0677 61.8637C61.6748 61.6334 61.1857 61.6473 60.8051 61.8978C60.4256 62.1486 60.22 62.5933 60.276 63.0453L60.7466 66.8481L59.3203 67.0248C58.6643 67.1063 58.1977 67.7048 58.2793 68.3607C58.3603 69.0178 58.9584 69.4836 59.6152 69.4018L62.2292 69.0779C62.8866 68.9977 63.3524 68.3995 63.2708 67.7435Z" fill="white"/>
<path d="M89.6538 69.673L88.8419 66.7193L84.3605 73.5943C84.1802 73.8707 84.1228 74.2108 84.201 74.5314L85.9283 81.6286L82.8871 81.0661L78.7767 64.1733L78.9832 63.9725C82.4048 60.648 87.1003 58.9325 91.8628 59.2668C92.523 59.3144 93.0948 58.8167 93.1423 58.1565C93.1883 57.497 92.6906 56.9252 92.0305 56.8777C86.5885 56.4954 81.2239 58.4548 77.3125 62.2556L76.6154 62.9347C76.3113 63.2304 76.1865 63.6641 76.2872 64.0763L80.7426 82.3853C80.854 82.844 81.2246 83.194 81.6881 83.2804L87.3117 84.3217C87.7102 84.3953 88.1208 84.2616 88.3996 83.9662C88.678 83.6719 88.7889 83.2556 88.6933 82.8604L86.651 74.4682L89.6538 69.673Z" fill="white"/>
<path d="M31.3928 45.3265L32.5852 42.6837C28.0543 43.2886 20.9656 42.6957 16.5938 41.3297C12.9448 40.1901 9.52572 38.3836 6.52731 36.029C11.8299 36.9434 17.2438 36.3648 22.2446 34.3386C23.394 33.8728 24.5774 33.4596 25.7606 33.1109C26.3958 32.9244 26.7575 32.2576 26.5705 31.6235C26.3847 30.988 25.7177 30.6255 25.0846 30.813C23.8242 31.1839 22.567 31.6234 21.3451 32.1185C16.4831 34.0885 11.1976 34.5651 6.05842 33.5028L2.71947 32.8104C2.20559 32.7027 1.68232 32.9438 1.42752 33.4038C1.24991 33.7272 1.23332 34.1052 1.36602 34.4327C1.42194 34.5707 1.50518 34.7022 1.61411 34.8142C5.54496 38.8853 10.4788 41.93 15.8795 43.6153C20.035 44.9138 27.0655 45.681 31.3928 45.3265ZM45.8705 71.565L43.9183 69.7715C42.072 67.8497 40.5892 65.5791 39.5788 63.0854L37.8499 58.8184L40.171 58.1684L41.7988 62.1858C42.9148 64.9401 44.6136 67.3247 46.7941 69.2245C46.835 69.256 46.8751 69.2879 46.9126 69.3244C47.8584 70.135 48.8896 70.8564 50.0031 71.4783C50.5809 71.7998 50.7892 72.5288 50.4666 73.1061C50.1444 73.6842 49.4142 73.892 48.8366 73.5687C47.7895 72.9853 46.7977 72.3141 45.8705 71.565Z" fill="white"/>
<path d="M30.2709 61.3753L27.0375 60.1009C25.233 59.0528 23.7009 57.512 22.6701 55.573L18.0257 57.4548L18.0921 57.6186C19.0965 60.0975 17.8948 62.9347 15.4151 63.9395C14.8014 64.1881 14.1038 63.8934 13.8551 63.2797L11.2624 56.8808C10.2121 54.2888 11.466 51.3251 14.058 50.2749L22.3846 46.9011C24.0175 46.2395 25.8952 46.3883 27.4046 47.2973L30.1722 48.9656L30.4326 47.5247C30.5721 46.7556 30.7915 46.0131 31.0849 45.3078C31.0243 45.3151 32.5762 42.6591 32.6969 42.6365C33.7578 41.3497 35.1235 40.3089 36.7101 39.627C40.0023 38.2077 43.7593 38.5338 46.7606 40.4968C47.3144 40.8598 47.4695 41.6012 47.1074 42.1547C46.7444 42.7084 46.0034 42.8625 45.4495 42.5014C43.1229 40.9803 40.2098 40.7272 37.6569 41.827C35.1037 42.926 33.2843 45.2155 32.7909 47.95L32.2231 51.1014C32.1517 51.4898 31.8949 51.8171 31.5371 51.9803C31.1775 52.1414 30.7623 52.1181 30.4251 51.9134L26.1679 49.3489C25.2999 48.8264 24.2241 48.7412 23.2844 49.122L14.9579 52.4957C13.5909 53.0496 12.9282 54.6135 13.4824 55.9813L15.5086 60.9821C16.0475 60.3089 16.2177 59.3712 15.872 58.5181L15.3564 57.2455C15.1077 56.6318 15.404 55.9335 16.0161 55.6855L22.8236 52.9272C23.4373 52.6785 24.1353 52.974 24.384 53.5877C26.2686 58.2391 31.5863 60.4901 36.2377 58.6054L44.8957 55.0974C45.5086 54.849 46.2074 55.1442 46.4554 55.7563C46.704 56.37 46.4078 57.0683 45.7949 57.3167L41.3548 59.1157L41.3589 59.1258L39.1388 60.0254L39.1347 60.0152L37.1369 60.8247C34.874 61.7416 32.4873 61.8826 30.2709 61.3753Z" fill="white"/>
<path d="M36.0747 75.6993L32.8412 74.4249C31.0367 73.3768 29.5046 71.836 28.4738 69.897L23.8294 71.7788L23.8958 71.9426C24.9002 74.4215 23.6986 77.2587 21.2188 78.2635C20.6051 78.5121 19.9075 78.2174 19.6588 77.6037L17.0661 71.2048C16.0159 68.6128 17.2697 65.6491 19.8618 64.5989L31.327 59.9534C31.6696 59.7819 35.1962 60.9711 34.2574 61.3515L20.7616 66.8197C19.3946 67.3736 18.732 68.9375 19.2861 70.3053L21.3124 75.3061C21.8512 74.6329 22.0214 73.6952 21.6757 72.8421L21.1601 71.5695C20.9114 70.9558 21.2077 70.2575 21.8198 70.0095L28.6273 67.2512C29.241 67.0025 29.939 67.298 30.1877 67.9117C32.0724 72.5631 37.39 74.8141 42.0414 72.9294L42.9406 75.1487C40.6777 76.0656 38.291 76.2066 36.0747 75.6993Z" fill="white"/>
<path d="M65.5825 75.1245L67.7112 76.0249L67.1504 77.3497C66.893 77.9578 67.178 78.6612 67.7864 78.9194C68.3957 79.1773 69.0979 78.8918 69.3561 78.2834L70.3835 75.8563C70.6414 75.2471 70.3568 74.5445 69.7475 74.2866L66.4592 72.8946" fill="white"/>
<path d="M185.966 712H181.062V723.773L185.966 712Z" fill="white"/>
<path d="M189.416 712H194.314V723.773L189.416 712Z" fill="white"/>
<path d="M187.691 716.339L190.812 723.773H188.765L187.832 721.406H185.548L187.691 716.339Z" fill="white"/>
<path d="M202.314 719.487L202.892 721.151C202.911 721.193 202.94 721.212 202.991 721.212H204.103C204.163 721.212 204.173 721.184 204.163 721.123L201.867 714.718C201.857 714.667 201.847 714.657 201.796 714.657H200.416C200.378 714.657 200.356 714.686 200.356 714.728C200.336 715.064 200.308 715.167 200.266 715.266L198.218 721.113C198.209 721.184 198.231 721.212 198.289 721.212H199.282C199.343 721.212 199.372 721.193 199.394 721.132L199.94 719.487H202.314ZM200.256 718.4C200.557 717.489 200.953 716.321 201.113 715.654H201.122C201.32 716.354 201.787 717.739 201.998 718.4H200.256Z" fill="white"/>
<path d="M207.116 721.312C207.714 721.312 208.349 721.203 208.995 720.924C209.046 720.905 209.055 720.882 209.055 720.834C209.036 720.654 209.014 720.395 209.014 720.196V714.166C209.014 714.128 209.014 714.109 208.966 714.109H207.883C207.841 714.109 207.822 714.128 207.822 714.179V716.222C207.653 716.203 207.535 716.193 207.394 716.193C205.647 716.193 204.573 717.351 204.573 718.797C204.573 720.475 205.675 721.312 207.116 721.312V721.312ZM207.822 720.196C207.643 720.254 207.445 720.276 207.244 720.276C206.452 720.276 205.803 719.827 205.803 718.737C205.803 717.771 206.471 717.2 207.356 717.2C207.535 717.2 207.691 717.22 207.822 717.271V720.196Z" fill="white"/>
<path d="M212.51 716.193C211.018 716.193 210.095 717.341 210.095 718.759C210.095 720.026 210.83 721.312 212.488 721.312C213.89 721.312 214.874 720.276 214.874 718.727C214.874 717.361 214.04 716.193 212.51 716.193ZM212.45 717.2C213.293 717.2 213.651 717.928 213.651 718.759C213.651 719.785 213.124 720.295 212.51 720.295C211.753 720.295 211.306 719.657 211.306 718.736C211.306 717.79 211.782 717.2 212.45 717.2V717.2Z" fill="white"/>
<path d="M215.994 714.109C215.952 714.109 215.924 714.128 215.924 714.179V721.004C215.924 721.033 215.952 721.084 215.994 721.094C216.47 721.241 216.968 721.312 217.483 721.312C218.955 721.312 220.386 720.395 220.386 718.547C220.386 717.21 219.473 716.193 218.042 716.193C217.713 716.193 217.406 716.245 217.138 716.334L217.125 714.189C217.125 714.118 217.106 714.109 217.035 714.109H215.994ZM219.163 718.669C219.163 719.776 218.409 720.295 217.594 720.295C217.425 720.295 217.275 720.286 217.138 720.244V717.332C217.294 717.271 217.483 717.22 217.831 717.22C218.617 717.22 219.163 717.72 219.163 718.669Z" fill="white"/>
<path d="M224.428 719.028C224.914 719.028 225.313 719.019 225.45 718.987C225.501 718.977 225.521 718.958 225.53 718.916C225.559 718.807 225.572 718.579 225.572 718.3C225.572 717.351 225.003 716.193 223.533 716.193C222.032 716.193 221.198 717.421 221.198 718.807C221.198 720.035 221.844 721.312 223.652 721.312C224.329 721.312 224.767 721.203 225.144 721.023C225.182 721.004 225.201 720.972 225.201 720.914V720.083C225.201 720.035 225.172 720.026 225.144 720.045C224.767 720.205 224.358 720.285 223.91 720.285C222.898 720.285 222.438 719.724 222.409 719.028H224.428ZM222.409 718.169C222.489 717.681 222.796 717.152 223.482 717.152C224.239 717.152 224.438 717.79 224.438 718.079C224.438 718.089 224.438 718.13 224.438 718.159C224.396 718.169 224.268 718.169 223.891 718.169H222.409Z" fill="white"/>
<path d="M209.534 784.228L203.269 760.846L216.061 757.418L219.214 769.187C220.107 772.519 218.432 775.944 215.407 777.351L216.468 781.312C218.815 780.69 221.232 782.091 221.858 784.439C222.03 785.084 221.643 785.746 220.999 785.918L215.168 787.481C212.714 788.138 210.192 786.682 209.534 784.228Z" fill="white"/>
<path d="M213.634 775.423C216.073 774.77 217.525 772.254 216.871 769.815L214.171 759.736L206.064 761.908L211.877 783.6C212.187 784.758 213.382 785.448 214.54 785.137L218.798 783.996C218.326 783.637 217.699 783.492 217.083 783.657L215.924 783.968C215.277 784.141 214.612 783.757 214.439 783.11L212.777 776.908C212.604 776.261 212.987 775.596 213.634 775.423Z" fill="#0F0F0F"/>
<path d="M188.909 760.725L193.076 761.618H209.748H219.87L224.336 761.321C227.412 760.527 233.625 758.939 233.863 758.939C234.101 758.939 235.748 757.748 236.542 757.153L240.413 752.985L240.71 748.817L240.115 740.778L240.71 734.527L242.497 729.465L250.237 729.168L253.214 725.298L247.26 720.534L239.222 717.855L232.672 719.343L224.038 724.702L223.741 727.679L225.527 728.275L230.588 726.488L229.1 732.74L230.29 741.374L222.252 737.206L216 735.717H206.771L196.351 739.588L187.718 745.542L178.489 726.488L178.191 743.756L179.084 752.389L185.038 758.939L188.909 760.725Z" fill="#0F0F0F" stroke="black"/>
<path d="M216.427 734.807C214.857 734.576 213.255 734.459 211.665 734.459C202.9 734.459 194.514 737.982 188.394 744.18L179.223 724.944C178.989 724.452 178.444 724.187 177.911 724.307C177.378 724.428 177 724.901 177 725.447V745.567C177 751.199 179.789 756.446 184.462 759.602C184.662 759.738 184.89 759.803 185.115 759.803C185.49 759.803 185.858 759.623 186.084 759.289C186.445 758.754 186.305 758.027 185.77 757.666C181.742 754.944 179.337 750.421 179.337 745.567V730.613L186.667 745.989L184.235 748.432C183.78 748.89 183.782 749.629 184.239 750.084C184.467 750.311 184.765 750.425 185.064 750.425C185.364 750.425 185.664 750.31 185.892 750.081L188.904 747.054C188.918 747.04 188.93 747.025 188.943 747.011C188.945 747.009 188.948 747.007 188.95 747.004C194.705 740.516 202.984 736.796 211.665 736.796C213.141 736.796 214.629 736.904 216.087 737.119C216.725 737.213 217.319 736.771 217.413 736.133C217.507 735.495 217.065 734.901 216.427 734.807Z" fill="white"/>
<path d="M238.173 716.915C245.764 716.915 254.247 724.316 254.604 724.631C254.847 724.844 254.99 725.148 254.999 725.471C255.01 725.793 254.886 726.106 254.658 726.334L250.977 730.015C250.758 730.234 250.461 730.357 250.151 730.357H243.828C240.539 734.968 240.607 741.605 241.704 745.992C243.173 751.871 240.585 756.869 234.41 760.153L222.824 762.942C221.599 762.949 219.993 762.955 218.299 762.96L215.962 762.966C213.43 762.973 210.999 762.977 209.619 762.98L193.007 762.465C191.607 762.39 190.226 762.146 188.893 761.731C188.277 761.54 187.932 760.885 188.124 760.269C188.316 759.652 188.971 759.308 189.587 759.5C190.572 759.806 191.587 760.004 192.618 760.095C192.617 760.063 192.615 760.031 192.614 759.998L209.619 760.643C211.945 760.639 217.246 760.628 220.989 760.613L233.744 757.855C237.39 755.796 240.865 752.276 239.436 746.559C237.982 740.741 238.716 735.7 240.259 732.043C239.51 732.44 238.67 732.651 237.798 732.651C236.391 732.651 235.068 732.103 234.073 731.108L233.603 730.638C233.147 730.182 233.147 729.442 233.603 728.986C234.059 728.53 234.799 728.53 235.256 728.986L235.725 729.455C236.868 730.598 238.728 730.598 239.871 729.455L240.965 728.362C241.184 728.143 241.481 728.02 241.791 728.02H243.212C243.217 728.019 243.222 728.02 243.228 728.02H249.667L252.094 725.592C249.742 723.734 243.514 719.252 238.173 719.252C233.082 719.252 227.138 723.95 224.818 725.969C224.618 726.144 224.581 726.362 224.577 726.476C224.573 726.59 224.595 726.809 224.783 726.997C225.017 727.232 225.39 727.269 225.67 727.085C227.359 725.971 230.063 724.437 233.345 723.452C233.963 723.267 234.614 723.617 234.8 724.235C234.986 724.854 234.635 725.505 234.017 725.691C233.4 725.876 232.804 726.084 232.235 726.305C230.51 730.279 229.996 734.073 230.712 737.588C231.243 740.195 232.298 741.706 232.385 741.828C232.543 742.036 232.623 742.286 232.623 742.536C232.623 742.826 232.516 743.116 232.3 743.342C232.071 743.583 231.763 743.704 231.455 743.704C231.211 743.704 230.966 743.628 230.76 743.475L229.016 742.257C226.383 740.419 223.501 739.018 220.448 738.094C219.831 737.907 219.482 737.254 219.669 736.637C219.856 736.019 220.508 735.67 221.126 735.857C223.793 736.665 226.34 737.811 228.72 739.271C227.96 736.591 227.579 732.643 229.2 727.706C228.257 728.21 227.489 728.685 226.956 729.036C225.755 729.828 224.146 729.665 223.13 728.65C222.537 728.056 222.213 727.234 222.242 726.396C222.27 725.557 222.65 724.759 223.284 724.207C226.411 721.484 232.504 716.915 238.173 716.915Z" fill="white"/>
<path d="M238.56 721.864C238.184 722.256 238.131 722.87 238.429 723.323C238.717 723.743 239.252 723.942 239.741 723.792C240.19 723.654 240.516 723.255 240.564 722.789C240.675 721.712 239.31 721.082 238.56 721.864Z" fill="white"/>
<path d="M224.484 757.564L218.143 751.614L218.888 746.679L220.947 746.361L224.502 747.921L228.579 754.823L229.62 753.759L233.06 752.625C233.482 752.761 234.445 753.014 234.916 752.941C235.387 752.869 237.121 756.818 237.929 758.802L236.934 760.161L235.372 759.799L232.609 757.515L229.894 759.44L227.246 759.848L224.484 757.564Z" fill="#0F0F0F"/>
<path d="M234.632 751.554C234.98 751.672 235.308 751.837 235.608 752.041C236.175 752.349 236.882 753.484 237.165 754.012L238.891 757.861C239.391 758.976 239.071 760.219 238.094 760.953C237.737 761.222 237.338 761.388 236.93 761.451C236.225 761.56 235.494 761.362 234.903 760.862L232.568 758.886L230.545 760.485C229.219 761.534 227.374 761.477 226.115 760.368L223.883 758.285L217.282 752.103C216.772 751.625 216.754 750.819 217.251 750.32C217.73 749.838 218.521 749.861 219.017 750.326L227.729 758.484C228.086 758.817 228.622 758.84 229.004 758.537L231.824 756.308C232.288 755.941 232.946 755.952 233.397 756.334L236.507 758.966C236.534 758.989 236.548 758.993 236.548 758.993C236.576 758.994 236.633 758.95 236.639 758.924C236.639 758.924 236.638 758.909 236.624 758.878L234.803 754.817C234.621 754.41 234.295 754.077 233.878 753.922C233.437 753.758 232.965 753.791 232.553 754.013L229.041 755.905C228.447 756.225 227.705 756.011 227.372 755.423L224.29 749.983C223.281 748.2 221.252 747.257 219.235 747.635C218.516 747.767 217.825 747.256 217.767 746.505C217.718 745.863 218.196 745.298 218.829 745.184C221.872 744.635 224.928 746.068 226.452 748.759L228.933 753.141L231.375 751.826C232.372 751.289 233.559 751.189 234.632 751.554Z" fill="white"/>
<path d="M194.755 757.495L200.035 752.746L210.15 761.004L208.07 768.768L207.089 771.28L204.726 774.345L200.007 775.854L196.746 776.522L195.149 781.333L196.145 782.217L197.927 783.619L198.327 785.575L197.31 785.919L192.421 784.609L190.275 783.418L190.162 781.538L190.779 779.238L191.724 774.56L193.665 770.765L197.522 769.024L197.409 767.145L194.385 762.328L194.755 757.495Z" fill="#0F0F0F"/>
<path d="M210.548 760.085C211.197 760.28 211.549 760.986 211.373 761.641L210.798 763.787L210.157 766.178L209.229 769.643C208.661 771.764 207.473 773.556 205.914 774.88L202.867 776.686C201.249 777.305 199.467 777.529 197.669 777.269L196.594 781.28C198.987 781.928 200.409 784.401 199.764 786.796C199.587 787.454 198.907 787.842 198.249 787.665L192.297 786.07C189.792 785.399 188.306 782.825 188.977 780.32L191.052 772.575C191.475 770.996 192.617 769.708 194.134 769.099L196.583 768.116L195.863 767.336C194.265 765.604 193.375 763.389 193.299 761.098C193.258 760.721 193.25 759.687 193.55 758.565C193.558 758.531 193.565 758.497 193.574 758.463C194.349 755.3 196.641 752.755 199.706 751.654C200.366 751.417 201.095 751.775 201.307 752.451C201.505 753.086 201.137 753.768 200.512 753.995C198.067 754.886 196.289 757.013 195.863 759.615C195.501 761.833 196.237 764.091 197.762 765.742L199.621 767.757C199.984 768.149 200.062 768.743 199.775 769.231C199.633 769.474 199.403 769.653 199.142 769.758L195.056 771.398C194.267 771.714 193.664 772.394 193.444 773.216L191.369 780.961C191.051 782.145 191.754 783.362 192.938 783.679L197.286 784.844C197.051 784.285 196.571 783.837 195.942 783.668L194.758 783.351C194.098 783.174 193.706 782.495 193.882 781.835L195.579 775.503C195.754 774.85 196.424 774.446 197.076 774.622C201.319 775.77 205.7 773.246 206.837 769.003L208.995 760.95C209.175 760.277 209.876 759.883 210.548 760.085Z" fill="white"/>
<path d="M217.068 73.9688C215.758 73.9688 214.514 73.8051 213.336 73.4777C212.157 73.1285 211.098 72.6265 210.16 71.9717C209.243 71.3169 208.512 70.5094 207.966 69.549C207.443 68.5887 207.17 67.4755 207.148 66.2096C207.148 66.0132 207.213 65.8495 207.344 65.7185C207.475 65.5657 207.639 65.4893 207.835 65.4893L213.401 65.4893C213.75 65.4893 214.001 65.5657 214.154 65.7185C214.329 65.8713 214.482 66.1223 214.613 66.4715C214.765 66.908 214.951 67.2791 215.169 67.5846C215.409 67.8684 215.704 68.0757 216.053 68.2067C216.402 68.3376 216.806 68.4031 217.264 68.4031C218.116 68.4031 218.77 68.1303 219.229 67.5846C219.709 67.039 219.949 66.1769 219.949 64.9982L219.949 56.486L209.767 56.486C209.527 56.486 209.32 56.4096 209.145 56.2568C208.992 56.0822 208.916 55.8749 208.916 55.6348L208.916 51.5751C208.916 51.335 208.992 51.1386 209.145 50.9858C209.32 50.8112 209.527 50.7239 209.767 50.7239L226.366 50.7239C226.606 50.7239 226.802 50.8112 226.955 50.9858C227.13 51.1386 227.217 51.335 227.217 51.5751L227.217 65.2274C227.217 67.1699 226.77 68.796 225.875 70.1056C225.002 71.3933 223.79 72.3646 222.241 73.0194C220.713 73.6523 218.989 73.9688 217.068 73.9688Z" fill="white"/>
<defs>
<filter id="filter0_d_773_843" x="172.952" y="39.3582" width="41.8293" height="41.009" filterUnits="userSpaceOnUse" color-interpolation-filters="sRGB">
<feFlood flood-opacity="0" result="BackgroundImageFix"/>
<feColorMatrix in="SourceAlpha" type="matrix" values="0 0 0 0 0 0 0 0 0 0 0 0 0 0 0 0 0 0 127 0" result="hardAlpha"/>
<feOffset/>
<feGaussianBlur stdDeviation="8.5"/>
<feComposite in2="hardAlpha" operator="out"/>
<feColorMatrix type="matrix" values="0 0 0 0 0.988235 0 0 0 0 0.803922 0 0 0 0 0.368627 0 0 0 1 0"/>
<feBlend mode="normal" in2="BackgroundImageFix" result="effect1_dropShadow_773_843"/>
<feBlend mode="normal" in="SourceGraphic" in2="effect1_dropShadow_773_843" result="shape"/>
</filter>
<filter id="filter1_d_773_843" x="149.848" y="39.072" width="41.8293" height="41.009" filterUnits="userSpaceOnUse" color-interpolation-filters="sRGB">
<feFlood flood-opacity="0" result="BackgroundImageFix"/>
<feColorMatrix in="SourceAlpha" type="matrix" values="0 0 0 0 0 0 0 0 0 0 0 0 0 0 0 0 0 0 127 0" result="hardAlpha"/>
<feOffset/>
<feGaussianBlur stdDeviation="8.5"/>
<feComposite in2="hardAlpha" operator="out"/>
<feColorMatrix type="matrix" values="0 0 0 0 0.988235 0 0 0 0 0.803922 0 0 0 0 0.368627 0 0 0 1 0"/>
<feBlend mode="normal" in2="BackgroundImageFix" result="effect1_dropShadow_773_843"/>
<feBlend mode="normal" in="SourceGraphic" in2="effect1_dropShadow_773_843" result="shape"/>
</filter>
<filter id="filter2_d_773_843" x="128.561" y="38.3552" width="41.8293" height="41.009" filterUnits="userSpaceOnUse" color-interpolation-filters="sRGB">
<feFlood flood-opacity="0" result="BackgroundImageFix"/>
<feColorMatrix in="SourceAlpha" type="matrix" values="0 0 0 0 0 0 0 0 0 0 0 0 0 0 0 0 0 0 127 0" result="hardAlpha"/>
<feOffset/>
<feGaussianBlur stdDeviation="8.5"/>
<feComposite in2="hardAlpha" operator="out"/>
<feColorMatrix type="matrix" values="0 0 0 0 0.988235 0 0 0 0 0.803922 0 0 0 0 0.368627 0 0 0 1 0"/>
<feBlend mode="normal" in2="BackgroundImageFix" result="effect1_dropShadow_773_843"/>
<feBlend mode="normal" in="SourceGraphic" in2="effect1_dropShadow_773_843" result="shape"/>
</filter>
<filter id="filter3_f_773_843" x="226.771" y="50.313" width="9.47058" height="18.7324" filterUnits="userSpaceOnUse" color-interpolation-filters="sRGB">
<feFlood flood-opacity="0" result="BackgroundImageFix"/>
<feBlend mode="normal" in="SourceGraphic" in2="BackgroundImageFix" result="shape"/>
<feGaussianBlur stdDeviation="0.5" result="effect1_foregroundBlur_773_843"/>
</filter>
<linearGradient id="paint0_linear_773_843" x1="8.32606" y1="0" x2="8.32606" y2="7.1514" gradientUnits="userSpaceOnUse">
<stop stop-color="#CE4D45"/>
<stop offset="1" stop-color="#CE4D45" stop-opacity="0"/>
</linearGradient>
</defs>
</svg>
