<svg width="200" height="100" viewBox="0 0 200 100" fill="none" xmlns="http://www.w3.org/2000/svg">
<path d="M22.7338 15.4929C23.0658 15.6623 23.6639 15.8976 24.2349 15.8843C24.753 15.8843 25.0326 15.6097 25.0326 15.2714C25.0326 14.9447 24.833 14.7233 24.275 14.4099C23.5845 14.0184 23.0658 13.4703 23.0658 12.7521C23.0658 11.4859 24.169 10.5856 25.7761 10.5856C26.4807 10.5856 27.0252 10.7163 27.3172 10.8863L26.8922 12.1653C26.5341 12.0028 26.1446 11.918 25.7502 11.9166C25.2321 11.9166 24.8995 12.152 24.8995 12.5174C24.8995 12.8042 25.1385 13.0135 25.6036 13.2615C26.3217 13.6663 26.9192 14.2139 26.9192 14.9846C26.9192 16.4197 25.7366 17.2286 24.0889 17.2159C23.3319 17.2026 22.6273 17.0066 22.2823 16.7719L22.7338 15.4929ZM27.2913 17.1801L29.0714 8.04262H30.9051L30.2011 11.5842L30.227 11.561C30.7185 10.9869 31.3566 10.5902 32.1666 10.5902C33.1238 10.5902 33.6677 11.1944 33.6677 12.2127C33.6677 12.5261 33.6147 13.032 33.5353 13.424L32.8177 17.1801H30.9846L31.6751 13.5368C31.728 13.2881 31.7551 12.9678 31.7551 12.7203C31.7551 12.3289 31.5962 12.0438 31.1841 12.0438C30.599 12.0438 29.9744 12.8111 29.7354 13.9993L29.1238 17.1806H27.2913V17.1801ZM40.299 13.0916C40.299 15.3234 38.8368 17.2286 36.6717 17.2286C35.0234 17.2286 34.1475 16.1063 34.1475 14.71C34.1475 12.5301 35.6091 10.5723 37.8143 10.5723C39.5284 10.5729 40.2984 11.7998 40.2984 13.0916H40.299ZM36.0206 14.6706C36.0206 15.3234 36.2867 15.845 36.9112 15.845C37.8808 15.845 38.4259 14.1485 38.4259 13.0395C38.4259 12.5041 38.2128 11.9565 37.5623 11.9565C36.5651 11.9565 36.0206 13.6391 36.0206 14.6706ZM39.8605 19.7184L41.1361 13.1326C41.2827 12.389 41.4281 11.4269 41.5081 10.7498H43.1293L43.0228 11.7651H43.0493C43.5408 11.0881 44.2584 10.6336 44.9889 10.6336C46.3305 10.6336 46.8756 11.6859 46.8756 12.9002C46.8756 15.0927 45.4675 17.2523 43.3147 17.2523C42.8632 17.2523 42.4512 17.1801 42.2387 17.0112H42.1986L41.6936 19.719H39.8605V19.7184ZM42.4782 15.6102C42.6778 15.7663 42.9033 15.871 43.2359 15.871C44.259 15.871 44.9636 14.2139 44.9636 13.0522C44.9636 12.5694 44.7905 12.0606 44.2325 12.0606C43.5949 12.0606 42.9969 12.8048 42.7844 13.9271L42.4782 15.6102ZM46.9291 17.1801L48.1653 10.7504H50.012L48.7628 17.1801H46.9291ZM49.3079 10.0733C48.7899 10.0733 48.4444 9.6379 48.4444 9.10248C48.4444 8.5156 48.9094 8.02354 49.494 8.02354C50.052 8.02354 50.4105 8.45489 50.4105 8.97701C50.3976 9.64195 49.906 10.0733 49.335 10.0733H49.3079ZM50.3569 17.1801L51.3271 12.1034H50.477L50.7425 10.7504H51.5931L51.6461 10.4266C51.7927 9.66913 52.0841 8.90011 52.7087 8.37856C53.2002 7.9611 53.8513 7.77202 54.5029 7.77202C54.9544 7.77202 55.287 7.83505 55.4989 7.92583L55.1404 9.33377C54.9521 9.27166 54.7546 9.24059 54.5559 9.24183C53.9449 9.24183 53.5728 9.8131 53.4669 10.4272L53.3997 10.7498H54.6754L54.4223 12.104H53.1608L52.1906 17.1806H50.3569V17.1801ZM56.9476 10.7504L57.2396 13.6281C57.304 14.134 57.3572 14.6412 57.3991 15.1494H57.4256C57.5722 14.8111 57.7047 14.3069 57.9707 13.6154L59.0868 10.7504H61L58.7542 15.4582C57.9572 17.076 57.1866 18.2555 56.3495 19.0257C55.6985 19.6259 54.9279 19.9219 54.5559 20L54.0508 18.4706C54.3569 18.3666 54.7413 18.2087 55.0869 17.9612C55.5119 17.6739 55.871 17.2818 56.0835 16.8777C56.1365 16.7863 56.15 16.7244 56.1235 16.5943L55.0203 10.7504L56.9476 10.7492V10.7504ZM16.0083 6.71274L15.561 6.84862C15.5057 6.67027 15.434 6.49725 15.3467 6.3317C15.0294 5.73846 14.5649 5.42276 14.0045 5.42218H14.0022C13.9633 5.42218 13.9245 5.42565 13.8856 5.42912C13.8693 5.40922 13.8522 5.38993 13.8344 5.3713C13.5901 5.11515 13.2763 4.98968 12.9014 5.00066C12.1761 5.0209 11.4544 5.53493 10.8693 6.4485C10.4572 7.09031 10.1446 7.89807 10.0558 8.52254L8.62884 8.95677C8.20912 9.08629 8.19558 9.09901 8.14024 9.48815C8.09904 9.78246 7 18.1306 7 18.1306L16.1184 19.6797V6.69424C16.0812 6.69674 16.0443 6.70294 16.0083 6.71274ZM13.9027 7.3534L12.3645 7.82117C12.5134 7.26204 12.7954 6.70523 13.1415 6.34095C13.2699 6.2045 13.45 6.05358 13.6631 5.96685C13.8644 6.37738 13.9074 6.95964 13.9027 7.3534ZM12.9149 5.47422C13.0684 5.46636 13.2207 5.50556 13.3505 5.58639C13.1395 5.6975 12.9494 5.84318 12.7883 6.01716C12.328 6.50227 11.9748 7.2551 11.8347 7.98191L10.5714 8.36584C10.8204 7.22215 11.7959 5.50602 12.9149 5.4748V5.47422ZM11.5051 11.9895C11.5539 12.751 13.5948 12.9175 13.7096 14.7024C13.7997 16.1069 12.9514 17.0673 11.7287 17.1425C10.2618 17.2338 9.45414 16.3839 9.45414 16.3839L9.76496 15.0846C9.76496 15.0846 10.5773 15.6871 11.2284 15.6467C11.6534 15.6201 11.8053 15.2807 11.79 15.0401C11.7264 14.0462 10.0652 14.1046 9.95922 12.4717C9.87092 11.0973 10.7898 9.7044 12.8178 9.57835C13.5989 9.53036 13.9992 9.72579 13.9992 9.72579L13.5354 11.4292C13.5354 11.4292 13.0179 11.1979 12.4051 11.2361C11.5051 11.2927 11.495 11.8501 11.5051 11.9889V11.9895ZM14.3842 7.20653C14.3783 6.84631 14.3348 6.345 14.1641 5.91134C14.7139 6.01369 14.9847 6.62485 15.0989 6.98913L14.3842 7.20653ZM16.4204 19.6444L20.2032 18.7204C20.2032 18.7204 18.5743 7.90443 18.5643 7.82984C18.5592 7.79836 18.5435 7.76948 18.5197 7.74779C18.4959 7.7261 18.4654 7.71285 18.4331 7.71015C18.3789 7.70553 17.3134 7.68992 17.3134 7.68992C17.3134 7.68992 16.6641 7.07065 16.4204 6.8359V19.6444Z" fill="white"/>
<path d="M36.6364 91.6561V61.4729H53.1491V76.6656C53.1491 80.966 50.026 84.5503 45.929 85.2686V90.3818C48.9559 90.3907 51.4152 92.858 51.411 95.8879C51.4099 96.7195 50.7305 97.3921 49.8989 97.3921H42.3723C39.2045 97.3921 36.6364 94.824 36.6364 91.6561Z" fill="white"/>
<path d="M44.4164 82.375C47.5638 82.375 50.1246 79.8134 50.1246 76.665V63.6547H39.6604V91.6555C39.6604 93.1506 40.8769 94.3672 42.3721 94.3672H47.8691C47.4163 93.7825 46.7075 93.4055 45.9125 93.4055H44.4164C43.5812 93.4055 42.9043 92.7284 42.9043 91.8933V83.8871C42.9043 83.0521 43.5812 82.375 44.4164 82.375Z" fill="#0F0F0F"/>
<path d="M20.6742 66.2987L12.5075 63.329L9.53783 61.4729L6.56813 57.7608L4.71207 54.4199L2.4848 49.2229V33.2608L3.22723 22.4957L15.8484 46.2532L18.4469 43.2835L24.0151 38.4578L26.6136 36.9729L29.5833 34.7456L32.9242 32.8896L39.2348 30.6623H51.856L68.5605 36.2305L69.303 32.8896L69.6742 28.0638L68.5605 25.4653L65.9621 23.9805L63.7348 22.4957L66.7045 22.1244L68.5605 19.526L67.4469 17.2987V14.329L70.0454 15.0714L71.5302 14.329L74.4999 12.8441L78.9545 12.4729L83.0378 15.0714L86.0075 21.0108H88.9772L94.5454 23.9805L97.8863 28.435L96.4014 32.5184H87.8636L83.0378 34.0032C82.5429 36.1068 81.553 40.4623 81.553 41.0562C81.553 41.6502 79.0782 47.4906 77.8408 50.3365L71.9014 54.4199L62.9924 59.2456L58.5378 64.8138C57.3004 65.3088 54.5287 66.2987 53.3408 66.2987H36.6363H20.6742Z" fill="#0F0F0F"/>
<path d="M72.7456 55.8656L64.6722 59.6192C61.8585 61.8812 59.5744 65.1288 58.784 66.4699C57.4013 67.2994 55.8825 67.8325 54.289 68.0505L51.274 68.1726C48.1022 68.1935 44.9023 68.2076 43.0889 68.2151L21.655 67.559C10.1613 66.9411 1 57.3953 1 45.749V19.7874C1 19.0829 1.48789 18.4723 2.17523 18.3168C2.86276 18.1614 3.56561 18.5029 3.86899 19.1387L15.7584 44.079L20.0382 40.0104C20.6417 39.437 21.5961 39.4609 22.1697 40.0646C22.7434 40.6683 22.7192 41.6225 22.1155 42.1963L16.3561 47.6713L12.4719 51.5737C12.1777 51.8696 11.7905 52.0177 11.4035 52.0177C11.0188 52.0177 10.6342 51.8713 10.3399 51.5785C9.74994 50.9914 9.74765 50.0367 10.3351 49.4464L13.4734 46.2934L4.0156 26.4539V45.7494C4.0156 55.5612 11.5599 63.6426 21.1516 64.4993C21.1505 64.457 21.1478 64.4151 21.147 64.3726L43.0887 65.2005C45.1823 65.192 49.1103 65.1742 52.7095 65.148C54.1966 65.1367 55.6231 64.7683 56.9038 64.0727C58.3491 62.0117 61.712 57.67 63.6009 56.7918L71.4742 53.1311C72.2295 52.7803 73.1261 53.1076 73.4771 53.8627C73.8281 54.6178 73.5006 55.5145 72.7456 55.8656Z" fill="white"/>
<path d="M82.1828 21.982L81.1774 20.9767C80.5884 20.3879 79.6339 20.3879 79.0449 20.9767C78.4561 21.5655 78.4561 22.5202 79.0449 23.109L80.0502 24.114C80.3447 24.4084 80.7306 24.5556 81.1165 24.5556C81.5024 24.5556 81.8882 24.4084 82.1828 24.114C82.7718 23.5253 82.7718 22.5707 82.1828 21.982Z" fill="white"/>
<path d="M96.6591 23.65C93.3401 20.532 89.9911 19.0304 86.888 19.2425L86.7184 18.5048C85.7794 14.4445 82.3634 11.4429 78.2137 11.0352C77.8871 11.004 77.565 10.9881 77.2561 10.9881C74.7682 10.9881 72.4085 11.9413 70.6181 13.6341L65.7736 11.2597C65.1977 10.9772 64.5057 11.0903 64.0496 11.542C63.5933 11.9934 63.4731 12.6841 63.7495 13.2633L66.9898 20.0518L60.1112 22.34C59.4524 22.5592 59.0283 23.1998 59.0843 23.8919C59.14 24.5841 59.6612 25.1483 60.3469 25.2592L67.7508 26.4547L67.9838 33.8688L54.0056 29.6759C43.1773 26.4269 31.3599 29.2479 23.1666 37.0373C22.5629 37.6112 22.5388 38.5653 23.1126 39.1688C23.4091 39.4806 23.8068 39.6378 24.2055 39.6378C24.5786 39.6378 24.9524 39.5002 25.2441 39.2228C32.6557 32.177 43.3452 29.6257 53.1391 32.5642L69.1234 37.3589C69.5883 37.4982 70.0912 37.4056 70.4757 37.1103C70.86 36.8147 71.079 36.3521 71.0637 35.8675L70.7833 26.9443L73.5979 27.3989L74.2676 30.8813C74.7684 33.4848 77.0222 35.3375 79.6584 35.3375C79.7084 35.3375 79.7585 35.3369 79.8088 35.3355L80.9969 35.304L78.9177 44.0181C78.3404 46.4363 77.1079 48.6465 75.3539 50.4095C74.7664 50.9998 74.7689 51.9546 75.359 52.5418C75.6534 52.8345 76.038 52.9807 76.4225 52.9807C76.8097 52.9807 77.1969 52.8326 77.4911 52.5364C79.6368 50.3799 81.1441 47.6765 81.8504 44.7181L84.1913 34.9079C88.7297 33.5685 95.9683 34.2321 96.0445 34.2394C96.5485 34.2866 97.0408 34.0801 97.3589 33.6875C98.4172 32.3816 99 30.7366 99 29.0553C99 27.018 98.1469 25.0478 96.6591 23.65ZM95.9511 29.596C95.678 29.3055 95.3646 29.0132 95.0054 28.7309C91.8403 26.2432 87.6508 26.4822 84.6932 27.121C83.8791 27.2969 83.3619 28.0992 83.5378 28.9131C83.7137 29.7273 84.5165 30.2441 85.33 30.0684C89.3504 29.1996 91.7204 30.0368 93.0792 31.0641C90.1344 30.9979 85.7951 31.1349 82.6382 32.243L79.7286 32.3203C78.5151 32.3534 77.4591 31.5078 77.2291 30.3111L76.3605 25.7928C76.2408 25.1707 75.7453 24.6899 75.1202 24.589L66.8945 23.2609L69.5625 22.3733C69.9729 22.2368 70.3048 21.9306 70.474 21.5329C70.6432 21.1349 70.6336 20.6834 70.4472 20.2931L68.3377 15.8737L75.3743 19.3225C76.1224 19.6894 77.0254 19.3799 77.3918 18.6321C77.7583 17.8845 77.4492 16.9812 76.7014 16.6147L73.6075 15.0984C74.6815 14.3913 75.943 14.0031 77.2564 14.0031C77.4701 14.0031 77.6957 14.0144 77.9231 14.036C80.7795 14.3167 83.1334 16.3856 83.78 19.1822L84.2644 21.289C84.3559 21.686 84.604 22.0292 84.9523 22.2405C85.3007 22.4518 85.72 22.5129 86.1142 22.4099C89.2335 21.5962 92.4474 23.8301 94.5944 25.8472C95.4781 26.6775 95.9848 27.8466 95.9848 29.0547C95.9846 29.2377 95.9731 29.418 95.9511 29.596Z" fill="white"/>
<path d="M20.6743 62.2153L25.5001 54.7911L40.3485 61.4729V71.4956L39.9773 74.8365L38.1213 79.2911L32.9243 82.632L29.2122 84.488L28.841 90.7986L30.3258 91.5411L32.9243 92.6547L34.0379 94.882L32.9243 95.6244H26.6137L23.644 94.882L22.9016 92.6547V89.685L22.5304 83.7456L23.644 78.5486L27.7273 75.2077L26.9849 72.9805L21.788 68.1547L20.6743 62.2153Z" fill="#0F0F0F"/>
<path d="M40.5304 60.2374C41.3753 60.2625 42.0268 60.9997 42.0268 61.845V64.6154L42.0266 67.7021V72.1753C42.0266 74.913 41.1747 77.4546 39.7245 79.5523L36.6374 82.71C34.8887 83.9778 32.8146 84.8229 30.5649 85.0901V90.2677C33.6556 90.276 36.1666 92.7951 36.1623 95.8887C36.1611 96.7377 35.4677 97.4242 34.6187 97.4242H26.935C23.7017 97.4242 21.0803 94.803 21.0803 91.5696V81.5718C21.0803 79.5338 22.0397 77.6144 23.6702 76.3917L26.3034 74.4167L25.1845 73.7094C22.7005 72.14 20.9144 69.7589 20.0831 67.0246C19.9115 66.5838 19.5681 65.3402 19.5681 63.8927C19.5669 63.8492 19.5645 63.806 19.5634 63.7624C19.476 59.7025 21.4155 55.8967 24.7518 53.5817C25.4707 53.0833 26.464 53.2792 26.9366 54.0252C27.3804 54.7258 27.1571 55.6659 26.4778 56.1418C23.8209 58.0031 22.3655 61.1395 22.693 64.4105C22.9721 67.1992 24.5874 69.6806 26.9567 71.1777L29.8461 73.0035C30.4094 73.3592 30.6958 74.0488 30.5078 74.7297C30.4147 75.0677 30.1952 75.3578 29.9147 75.5681L25.5231 78.8619C24.6745 79.4981 24.168 80.5113 24.168 81.5718V91.57C24.168 93.0982 25.4067 94.3371 26.9352 94.3371H32.5476C32.0852 93.7401 31.3615 93.355 30.5497 93.355H29.0214C28.169 93.355 27.4778 92.6638 27.4778 91.8113V83.6376C27.4778 82.7945 28.154 82.0919 28.9971 82.0939C34.477 82.1071 38.9395 77.653 38.9395 72.1759V61.7804C38.9395 60.912 39.6563 60.2112 40.5304 60.2374Z" fill="white"/>
<path d="M55.7219 62.3608L51.886 53.3279L54.9034 48.5716L57.175 49.1819L60.1343 52.4125L61.1998 61.397L62.7594 60.7722L66.8279 61.1693C67.2024 61.5019 68.0814 62.2019 68.6006 62.3414C69.1198 62.4809 69.1107 67.3495 69.0413 69.7664L67.3946 70.7157L65.9464 69.6308L64.1349 66.0127L60.454 66.7635L57.5334 65.9788L55.7219 62.3608Z" fill="#0F0F0F"/>
<path d="M68.9394 60.7797C69.2451 61.0605 69.5079 61.3802 69.725 61.7271C70.1703 62.3042 70.3838 63.7975 70.4349 64.472L70.463 69.2333C70.4712 70.612 69.5746 71.7492 68.232 72.0628C67.7399 72.1776 67.2524 72.1668 66.8026 72.046C66.025 71.8371 65.3603 71.2997 64.9781 70.5143L63.4671 67.4101L60.6496 68.14C58.8027 68.6184 56.9237 67.7191 56.1284 65.9995L54.7732 62.8326L50.7733 53.4408C50.4643 52.7153 50.814 51.8748 51.5536 51.5857C52.2682 51.3062 53.0745 51.6902 53.3752 52.3963L58.6541 64.7904C58.87 65.2968 59.4132 65.5645 59.9464 65.4264L63.8739 64.4091C64.5196 64.2415 65.1938 64.553 65.4857 65.1525L67.4986 69.2876C67.5161 69.3236 67.5287 69.334 67.5287 69.334C67.5564 69.3474 67.6349 69.3288 67.6538 69.3039C67.6538 69.3039 67.6598 69.2887 67.6595 69.2499L67.6298 64.2268C67.6268 63.7244 67.4416 63.2311 67.0813 62.881C66.7007 62.5112 66.1982 62.33 65.6718 62.3712L61.1838 62.7245C60.4243 62.7842 59.7553 62.2254 59.6793 61.4667L58.9765 54.4456C58.7464 52.1442 57.0808 50.2456 54.8267 49.7172C54.0238 49.5265 53.5431 48.6835 53.8256 47.8816C54.0669 47.1963 54.8179 46.8307 55.524 47.0015C58.9157 47.8211 61.4185 50.6926 61.766 54.1663L62.3319 59.8219L65.4521 59.5762C66.7266 59.4758 67.9978 59.9145 68.9394 60.7797Z" fill="white"/>
<path d="M122.734 15.4929C123.066 15.6623 123.664 15.8976 124.235 15.8843C124.753 15.8843 125.033 15.6097 125.033 15.2714C125.033 14.9447 124.833 14.7233 124.275 14.4099C123.584 14.0184 123.066 13.4703 123.066 12.7521C123.066 11.4859 124.169 10.5856 125.776 10.5856C126.481 10.5856 127.025 10.7163 127.317 10.8863L126.892 12.1653C126.534 12.0028 126.145 11.918 125.75 11.9166C125.232 11.9166 124.9 12.152 124.9 12.5174C124.9 12.8042 125.139 13.0135 125.604 13.2615C126.322 13.6663 126.919 14.2139 126.919 14.9846C126.919 16.4197 125.737 17.2286 124.089 17.2159C123.332 17.2026 122.627 17.0066 122.282 16.7719L122.734 15.4929ZM127.291 17.1801L129.071 8.04262H130.905L130.201 11.5842L130.227 11.561C130.718 10.9869 131.357 10.5902 132.167 10.5902C133.124 10.5902 133.668 11.1944 133.668 12.2127C133.668 12.5261 133.615 13.032 133.535 13.424L132.818 17.1801H130.985L131.675 13.5368C131.728 13.2881 131.755 12.9678 131.755 12.7203C131.755 12.3289 131.596 12.0438 131.184 12.0438C130.599 12.0438 129.974 12.8111 129.735 13.9993L129.124 17.1806H127.291V17.1801ZM140.299 13.0916C140.299 15.3234 138.837 17.2286 136.672 17.2286C135.023 17.2286 134.147 16.1063 134.147 14.71C134.147 12.5301 135.609 10.5723 137.814 10.5723C139.528 10.5729 140.298 11.7998 140.298 13.0916H140.299ZM136.021 14.6706C136.021 15.3234 136.287 15.845 136.911 15.845C137.881 15.845 138.426 14.1485 138.426 13.0395C138.426 12.5041 138.213 11.9565 137.562 11.9565C136.565 11.9565 136.021 13.6391 136.021 14.6706ZM139.86 19.7184L141.136 13.1326C141.283 12.389 141.428 11.4269 141.508 10.7498H143.129L143.023 11.7651H143.049C143.541 11.0881 144.258 10.6336 144.989 10.6336C146.33 10.6336 146.876 11.6859 146.876 12.9002C146.876 15.0927 145.467 17.2523 143.315 17.2523C142.863 17.2523 142.451 17.1801 142.239 17.0112H142.199L141.694 19.719H139.86V19.7184ZM142.478 15.6102C142.678 15.7663 142.903 15.871 143.236 15.871C144.259 15.871 144.964 14.2139 144.964 13.0522C144.964 12.5694 144.791 12.0606 144.232 12.0606C143.595 12.0606 142.997 12.8048 142.784 13.9271L142.478 15.6102ZM146.929 17.1801L148.165 10.7504H150.012L148.763 17.1801H146.929ZM149.308 10.0733C148.79 10.0733 148.444 9.6379 148.444 9.10248C148.444 8.5156 148.909 8.02354 149.494 8.02354C150.052 8.02354 150.411 8.45489 150.411 8.97701C150.398 9.64195 149.906 10.0733 149.335 10.0733H149.308ZM150.357 17.1801L151.327 12.1034H150.477L150.743 10.7504H151.593L151.646 10.4266C151.793 9.66913 152.084 8.90011 152.709 8.37856C153.2 7.9611 153.851 7.77202 154.503 7.77202C154.954 7.77202 155.287 7.83505 155.499 7.92583L155.14 9.33377C154.952 9.27166 154.755 9.24059 154.556 9.24183C153.945 9.24183 153.573 9.8131 153.467 10.4272L153.4 10.7498H154.675L154.422 12.104H153.161L152.191 17.1806H150.357V17.1801ZM156.948 10.7504L157.24 13.6281C157.304 14.134 157.357 14.6412 157.399 15.1494H157.426C157.572 14.8111 157.705 14.3069 157.971 13.6154L159.087 10.7504H161L158.754 15.4582C157.957 17.076 157.187 18.2555 156.35 19.0257C155.698 19.6259 154.928 19.9219 154.556 20L154.051 18.4706C154.357 18.3666 154.741 18.2087 155.087 17.9612C155.512 17.6739 155.871 17.2818 156.083 16.8777C156.136 16.7863 156.15 16.7244 156.124 16.5943L155.02 10.7504L156.948 10.7492V10.7504ZM116.008 6.71274L115.561 6.84862C115.506 6.67027 115.434 6.49725 115.347 6.3317C115.029 5.73846 114.565 5.42276 114.005 5.42218H114.002C113.963 5.42218 113.924 5.42565 113.886 5.42912C113.869 5.40922 113.852 5.38993 113.834 5.3713C113.59 5.11515 113.276 4.98968 112.901 5.00066C112.176 5.0209 111.454 5.53493 110.869 6.4485C110.457 7.09031 110.145 7.89807 110.056 8.52254L108.629 8.95677C108.209 9.08629 108.196 9.09901 108.14 9.48815C108.099 9.78246 107 18.1306 107 18.1306L116.118 19.6797V6.69424C116.081 6.69674 116.044 6.70294 116.008 6.71274ZM113.903 7.3534L112.365 7.82117C112.513 7.26204 112.795 6.70523 113.142 6.34095C113.27 6.2045 113.45 6.05358 113.663 5.96685C113.864 6.37738 113.907 6.95964 113.903 7.3534ZM112.915 5.47422C113.068 5.46636 113.221 5.50556 113.351 5.58639C113.14 5.6975 112.949 5.84318 112.788 6.01716C112.328 6.50227 111.975 7.2551 111.835 7.98191L110.571 8.36584C110.82 7.22215 111.796 5.50602 112.915 5.4748V5.47422ZM111.505 11.9895C111.554 12.751 113.595 12.9175 113.71 14.7024C113.8 16.1069 112.951 17.0673 111.729 17.1425C110.262 17.2338 109.454 16.3839 109.454 16.3839L109.765 15.0846C109.765 15.0846 110.577 15.6871 111.228 15.6467C111.653 15.6201 111.805 15.2807 111.79 15.0401C111.726 14.0462 110.065 14.1046 109.959 12.4717C109.871 11.0973 110.79 9.7044 112.818 9.57835C113.599 9.53036 113.999 9.72579 113.999 9.72579L113.535 11.4292C113.535 11.4292 113.018 11.1979 112.405 11.2361C111.505 11.2927 111.495 11.8501 111.505 11.9889V11.9895ZM114.384 7.20653C114.378 6.84631 114.335 6.345 114.164 5.91134C114.714 6.01369 114.985 6.62485 115.099 6.98913L114.384 7.20653ZM116.42 19.6444L120.203 18.7204C120.203 18.7204 118.574 7.90443 118.564 7.82984C118.559 7.79836 118.543 7.76948 118.52 7.74779C118.496 7.7261 118.465 7.71285 118.433 7.71015C118.379 7.70553 117.313 7.68992 117.313 7.68992C117.313 7.68992 116.664 7.07065 116.42 6.8359V19.6444Z" fill="white"/>
<path d="M141.2 93.7136L131.105 65.2686L146.667 59.7458L151.748 74.0636C153.187 78.1163 151.442 82.5388 147.821 84.5859L149.531 89.4046C152.387 88.4007 155.53 89.9034 156.539 92.7601C156.816 93.5443 156.401 94.4053 155.617 94.6835L148.524 97.2008C145.539 98.2603 142.26 96.699 141.2 93.7136Z" fill="white"/>
<path d="M145.428 82.3648C148.394 81.3122 149.951 78.0417 148.898 75.0746L144.546 62.8135L134.685 66.3133L144.05 92.7016C144.55 94.1105 146.103 94.8503 147.512 94.3502L152.693 92.5117C152.07 92.1121 151.276 91.9938 150.527 92.2597L149.117 92.7601C148.33 93.0395 147.466 92.6277 147.186 91.8408L144.509 84.2957C144.229 83.5087 144.641 82.6442 145.428 82.3648Z" fill="#0F0F0F"/>
<path d="M120.674 66.2987L112.508 63.329L109.538 61.4729L106.568 57.7608L104.712 54.4199L102.485 49.2229V33.2608L103.227 22.4957L115.848 46.2532L118.447 43.2835L124.015 38.4578L126.614 36.9729L129.583 34.7456L132.924 32.8896L139.235 30.6623H151.856L168.561 36.2305L169.303 32.8896L169.674 28.0638L168.561 25.4653L165.962 23.9805L163.735 22.4957L166.704 22.1244L168.561 19.526L167.447 17.2987V14.329L170.045 15.0714L171.53 14.329L174.5 12.8441L178.954 12.4729L183.038 15.0714L186.007 21.0108H188.977L194.545 23.9805L197.886 28.435L196.401 32.5184H187.864L183.038 34.0032C182.543 36.1068 181.553 40.4623 181.553 41.0562C181.553 41.6502 179.078 47.4906 177.841 50.3365L171.901 54.4199L162.992 59.2456L158.538 64.8138C157.3 65.3088 154.529 66.2987 153.341 66.2987H136.636H120.674Z" fill="#0F0F0F"/>
<path d="M172.746 55.8656L164.672 59.6192C161.859 61.8812 159.574 65.1288 158.784 66.4699C157.401 67.2994 155.882 67.8325 154.289 68.0505L151.274 68.1726C148.102 68.1935 144.902 68.2076 143.089 68.2151L121.655 67.559C110.161 66.9411 101 57.3953 101 45.749V19.7874C101 19.0829 101.488 18.4723 102.175 18.3168C102.863 18.1614 103.566 18.5029 103.869 19.1387L115.758 44.079L120.038 40.0104C120.642 39.437 121.596 39.4609 122.17 40.0646C122.743 40.6683 122.719 41.6225 122.116 42.1963L116.356 47.6713L112.472 51.5737C112.178 51.8696 111.791 52.0177 111.404 52.0177C111.019 52.0177 110.634 51.8713 110.34 51.5785C109.75 50.9914 109.748 50.0367 110.335 49.4464L113.473 46.2934L104.016 26.4539V45.7494C104.016 55.5612 111.56 63.6426 121.152 64.4993C121.15 64.457 121.148 64.4151 121.147 64.3726L143.089 65.2005C145.182 65.192 149.11 65.1742 152.71 65.148C154.197 65.1367 155.623 64.7683 156.904 64.0727C158.349 62.0117 161.712 57.67 163.601 56.7918L171.474 53.1311C172.23 52.7803 173.126 53.1076 173.477 53.8627C173.828 54.6178 173.501 55.5145 172.746 55.8656Z" fill="white"/>
<path d="M182.183 21.982L181.177 20.9767C180.588 20.3879 179.634 20.3879 179.045 20.9767C178.456 21.5655 178.456 22.5202 179.045 23.109L180.05 24.114C180.345 24.4084 180.731 24.5556 181.116 24.5556C181.502 24.5556 181.888 24.4084 182.183 24.114C182.772 23.5253 182.772 22.5707 182.183 21.982Z" fill="white"/>
<path d="M196.659 23.65C193.34 20.532 189.991 19.0304 186.888 19.2425L186.718 18.5048C185.779 14.4445 182.363 11.4429 178.214 11.0352C177.887 11.004 177.565 10.9881 177.256 10.9881C174.768 10.9881 172.409 11.9413 170.618 13.6341L165.774 11.2597C165.198 10.9772 164.506 11.0903 164.05 11.542C163.593 11.9934 163.473 12.6841 163.749 13.2633L166.99 20.0518L160.111 22.34C159.452 22.5592 159.028 23.1998 159.084 23.8919C159.14 24.5841 159.661 25.1483 160.347 25.2592L167.751 26.4547L167.984 33.8688L154.006 29.6759C143.177 26.4269 131.36 29.2479 123.167 37.0373C122.563 37.6112 122.539 38.5653 123.113 39.1688C123.409 39.4806 123.807 39.6378 124.206 39.6378C124.579 39.6378 124.952 39.5002 125.244 39.2228C132.656 32.177 143.345 29.6257 153.139 32.5642L169.123 37.3589C169.588 37.4982 170.091 37.4056 170.476 37.1103C170.86 36.8147 171.079 36.3521 171.064 35.8675L170.783 26.9443L173.598 27.3989L174.268 30.8813C174.768 33.4848 177.022 35.3375 179.658 35.3375C179.708 35.3375 179.759 35.3369 179.809 35.3355L180.997 35.304L178.918 44.0181C178.34 46.4363 177.108 48.6465 175.354 50.4095C174.766 50.9998 174.769 51.9546 175.359 52.5418C175.653 52.8345 176.038 52.9807 176.422 52.9807C176.81 52.9807 177.197 52.8326 177.491 52.5364C179.637 50.3799 181.144 47.6765 181.85 44.7181L184.191 34.9079C188.73 33.5685 195.968 34.2321 196.044 34.2394C196.548 34.2866 197.041 34.0801 197.359 33.6875C198.417 32.3816 199 30.7366 199 29.0553C199 27.018 198.147 25.0478 196.659 23.65ZM195.951 29.596C195.678 29.3055 195.365 29.0132 195.005 28.7309C191.84 26.2432 187.651 26.4822 184.693 27.121C183.879 27.2969 183.362 28.0992 183.538 28.9131C183.714 29.7273 184.516 30.2441 185.33 30.0684C189.35 29.1996 191.72 30.0368 193.079 31.0641C190.134 30.9979 185.795 31.1349 182.638 32.243L179.729 32.3203C178.515 32.3534 177.459 31.5078 177.229 30.3111L176.36 25.7928C176.241 25.1707 175.745 24.6899 175.12 24.589L166.894 23.2609L169.562 22.3733C169.973 22.2368 170.305 21.9306 170.474 21.5329C170.643 21.1349 170.634 20.6834 170.447 20.2931L168.338 15.8737L175.374 19.3225C176.122 19.6894 177.025 19.3799 177.392 18.6321C177.758 17.8845 177.449 16.9812 176.701 16.6147L173.607 15.0984C174.681 14.3913 175.943 14.0031 177.256 14.0031C177.47 14.0031 177.696 14.0144 177.923 14.036C180.779 14.3167 183.133 16.3856 183.78 19.1822L184.264 21.289C184.356 21.686 184.604 22.0292 184.952 22.2405C185.301 22.4518 185.72 22.5129 186.114 22.4099C189.233 21.5962 192.447 23.8301 194.594 25.8472C195.478 26.6775 195.985 27.8466 195.985 29.0547C195.985 29.2377 195.973 29.418 195.951 29.596Z" fill="white"/>
<path d="M119.745 60.8554L125.622 54.2323L139.31 63.0501L137.818 72.9611L136.954 76.2096L134.455 80.3382L128.819 82.8682L124.872 84.151L123.565 90.336L124.923 91.2912L127.327 92.7792L128.096 95.1475L126.885 95.7158L120.644 94.7764L117.818 93.6002L117.416 91.2872L117.858 88.3506L118.375 82.4221L120.25 77.4488L124.785 74.753L124.382 72.4401L119.962 66.8944L119.745 60.8554Z" fill="#0F0F0F"/>
<path d="M139.674 61.8554C140.506 62.0061 141.04 62.8319 140.914 63.6678L140.502 66.4074L140.042 69.4597L139.376 73.883C138.969 76.5902 137.748 78.9767 136.002 80.8351L132.479 83.4981C130.561 84.4914 128.384 85.0184 126.12 84.9476L125.349 90.0676C128.404 90.5359 130.512 93.4007 130.047 96.4592C129.92 97.2986 129.132 97.8742 128.292 97.7478L120.694 96.604C117.497 96.1227 115.295 93.1405 115.776 89.943L117.265 80.0566C117.568 78.0414 118.802 76.2862 120.597 75.3198L123.495 73.7588L122.493 72.8928C120.271 70.9711 118.859 68.3507 118.444 65.5232C118.34 65.0617 118.186 63.7808 118.401 62.3494C118.406 62.3063 118.41 62.2632 118.416 62.2198C118.934 58.1922 121.418 54.7176 125.062 52.925C125.847 52.5391 126.8 52.8807 127.156 53.6888C127.491 54.4476 127.13 55.344 126.388 55.7135C123.483 57.1586 121.577 60.0434 121.414 63.3267C121.275 66.1259 122.503 68.82 124.623 70.6532L127.208 72.8888C127.712 73.3244 127.893 74.0489 127.606 74.6942C127.463 75.0146 127.203 75.2688 126.894 75.435L122.061 78.0383C121.127 78.5411 120.476 79.4676 120.318 80.5163L118.83 90.4031C118.602 91.9143 119.643 93.3238 121.154 93.5513L126.704 94.3868C126.335 93.7276 125.677 93.2391 124.874 93.1182L123.363 92.8907C122.52 92.7638 121.94 91.9774 122.066 91.1345L123.283 83.0518C123.409 82.2181 124.182 81.624 125.015 81.7515C130.432 82.5803 135.508 78.8401 136.323 73.4241L137.871 63.1444C138 62.2856 138.813 61.6994 139.674 61.8554Z" fill="white"/>
<path d="M158.794 64.0891L150.113 59.5114L149.447 53.9183L151.593 52.9561L155.928 53.5903L162.431 59.8809L163.245 58.4112L166.649 56.1484C167.15 56.1695 168.273 56.1568 168.764 55.9368C169.254 55.7169 172.324 59.4962 173.797 61.4134L173.12 63.1897L171.312 63.2638L167.622 61.604L165.243 64.5117L162.484 65.7489L158.794 64.0891Z" fill="#0F0F0F"/>
<path d="M168.04 54.5123C168.454 54.5368 168.86 54.6185 169.247 54.7502C169.957 54.9162 171.066 55.9387 171.532 56.4292L174.562 60.102C175.439 61.1654 175.463 62.6133 174.621 63.7047C174.312 64.1046 173.927 64.4043 173.502 64.5949C172.767 64.9243 171.913 64.9277 171.12 64.5604L167.988 63.1091L166.265 65.4551C165.136 66.9928 163.111 67.483 161.408 66.6526L158.357 65.0542L149.322 60.302C148.624 59.9349 148.364 59.0625 148.755 58.3711C149.132 57.7029 150 57.4911 150.679 57.8484L162.602 64.1196C163.089 64.3757 163.679 64.2399 164.005 63.796L166.407 60.526C166.801 59.9881 167.521 59.8036 168.126 60.0838L172.299 62.0171C172.335 62.0339 172.351 62.0341 172.351 62.0341C172.381 62.0269 172.43 61.9629 172.429 61.9316C172.429 61.9316 172.424 61.9161 172.399 61.8862L169.203 58.0116C168.883 57.6241 168.428 57.3587 167.927 57.315C167.398 57.2688 166.894 57.4459 166.513 57.8105L163.257 60.92C162.706 61.4461 161.835 61.4357 161.296 60.8957L156.315 55.8977C154.683 54.2593 152.192 53.8401 150.111 54.8547C149.368 55.2142 148.463 54.8645 148.175 54.0645C147.93 53.3809 148.281 52.6229 148.936 52.3092C152.083 50.8014 155.837 51.4457 158.301 53.9187L162.313 57.9447L164.576 55.7828C165.501 54.8998 166.763 54.4366 168.04 54.5123Z" fill="white"/>
</svg>
