<svg width="98" height="86" viewBox="0 0 98 86" fill="none" xmlns="http://www.w3.org/2000/svg">
<path d="M74.462 56.173L73.0207 50.9336C72.6583 49.6147 71.7546 48.4957 70.5419 47.863C69.329 47.2303 67.894 47.13 66.6052 47.5876L63.4499 48.7074L63.3187 48.3611L71.3472 44.6283C72.0981 44.2792 72.4238 43.3875 72.0747 42.6365C71.7256 41.8856 70.8341 41.5602 70.083 41.9091L62.2534 45.5494L61.2954 43.0212C59.9645 39.509 56.5503 37.2335 52.7939 37.3534C51.9663 37.3804 51.317 38.0731 51.344 38.9007C51.371 39.7283 52.0706 40.3743 52.8913 40.3505C55.3582 40.2708 57.6143 41.7703 58.491 44.0837L61.1657 51.1424C61.4551 51.9051 62.3013 52.2969 63.0692 52.0243L67.6079 50.4138C68.122 50.2314 68.6718 50.2699 69.1552 50.5221C69.6389 50.7745 69.9847 51.2028 70.1294 51.7291L71.5705 56.9685C71.5815 57.0086 71.5792 57.0259 71.5794 57.0259C71.5667 57.057 71.4917 57.0987 71.4586 57.0918C71.4584 57.0918 71.4428 57.0844 71.4146 57.0522L68.1873 53.3388C67.7193 52.8005 66.9362 52.6657 66.3159 53.0181L62.5408 55.1592C62.0284 55.4499 61.3928 55.3245 61.0291 54.861L58.9659 52.2304C58.9532 52.2137 58.9406 52.1969 58.9267 52.1808L54.9093 47.0586C54.3981 46.4069 53.4559 46.293 52.8041 46.8041C52.1526 47.3152 52.0386 48.2578 52.5498 48.9093L55.5934 52.7899C54.3199 53.4816 52.9012 53.848 51.4224 53.8592C47.8432 53.8853 43.937 53.903 41.855 53.9114V51.1636C41.855 50.3356 41.1839 49.6642 40.3557 49.6642C39.5275 49.6642 38.8563 50.3356 38.8563 51.1636V55.3886C38.8562 55.3998 38.8548 55.4105 38.8548 55.4217C38.8548 55.4314 38.8562 55.441 38.8563 55.4507V61.2611C38.8563 66.5732 34.5346 70.8948 29.2225 70.8948C28.3943 70.8948 27.7232 71.5661 27.7232 72.3941V80.3337C27.7232 81.1617 28.3943 81.833 29.2225 81.833H30.707C31.4954 81.833 32.1985 82.2071 32.6475 82.787H27.1959C25.7137 82.787 24.5079 81.5812 24.5079 80.099V70.3877C24.5079 69.3575 24.9999 68.3733 25.8241 67.7554L30.1219 64.532C30.5163 64.236 30.7403 63.7653 30.7205 63.2725C30.7007 62.7798 30.4401 62.3282 30.0235 62.0649L27.0979 60.2159C24.616 58.6475 23.0963 55.9591 23.0333 53.0238C22.9701 50.0887 24.3723 47.3371 26.7844 45.6636C27.4647 45.1915 27.6337 44.2571 27.1616 43.5768C26.6898 42.8966 25.7558 42.7275 25.0749 43.1996C21.8343 45.4483 19.9503 49.145 20.0352 53.0881C20.0359 53.1304 20.0386 53.1721 20.0397 53.2141C10.5013 52.3622 2.99886 44.3257 2.99886 34.5683V15.3799L12.4041 35.1092L9.28324 38.2448C8.69908 38.8318 8.70136 39.7812 9.288 40.365C9.58075 40.6562 9.96315 40.8018 10.3457 40.8018C10.7306 40.8018 11.1157 40.6545 11.4082 40.3602L15.2709 36.4795L20.9983 31.0349C21.5987 30.4643 21.6226 29.5154 21.0522 28.9151C20.4817 28.3147 19.5327 28.2909 18.9325 28.8612L14.6764 32.9071L2.85306 8.10538C2.55136 7.47306 1.85242 7.13349 1.16871 7.28804C0.485186 7.4426 0 8.0498 0 8.75045V34.5679C0 46.1495 9.11041 55.6423 20.5403 56.2568C21.3476 58.9128 23.0828 61.2259 25.4956 62.7505L26.5824 63.4375L24.0246 65.356C22.4493 66.5374 21.5088 68.4184 21.5088 70.3873V80.0986C21.5088 83.2344 24.06 85.7855 27.1957 85.7855H34.6593C35.4875 85.7855 36.1586 85.1142 36.1586 84.2862C36.1586 81.2849 33.7211 78.8422 30.7214 78.834V73.8049C32.9066 73.5455 34.9214 72.7245 36.62 71.493V80.0983C36.62 83.2345 39.1716 85.7859 42.3075 85.7859H49.7704C50.5986 85.7859 51.2698 85.1146 51.2698 84.2866C51.2698 81.2858 48.833 78.8435 45.8341 78.8348V73.7648C49.8965 73.0525 52.9932 69.4984 52.9932 65.2343V56.7456C54.5778 56.5288 56.0881 55.9987 57.4632 55.1737L58.6692 56.7115C59.9561 58.3523 62.2064 58.7963 64.0198 57.7677L66.728 56.2316L69.1507 59.0192C69.7636 59.7246 70.5996 60.0954 71.4607 60.0952C71.9586 60.0952 72.4653 59.9711 72.9419 59.7159C74.2422 59.019 74.853 57.5955 74.462 56.173ZM49.9947 65.2339C49.9945 68.3558 47.4557 70.8957 44.335 70.8957C43.5068 70.8957 42.8357 71.5671 42.8357 72.3951V80.3337C42.8357 81.1617 43.5068 81.833 44.335 81.833H45.8183C46.6066 81.833 47.3093 82.2069 47.7583 82.7867H42.3077C40.8251 82.7867 39.6191 81.5805 39.6191 80.0977V68.4256C41.0276 66.388 41.8552 63.9192 41.8552 61.2601V56.9093C43.6585 56.9018 46.8407 56.8878 49.9949 56.867V65.2339H49.9947Z" fill="white"/>
<path d="M80.7321 10.9328L79.7322 9.93311C79.1465 9.34761 78.1972 9.34761 77.6116 9.93311C77.0261 10.5186 77.0261 11.468 77.6116 12.0535L78.6112 13.053C78.9042 13.3458 79.2879 13.4922 79.6716 13.4922C80.0554 13.4922 80.4391 13.3458 80.7321 13.053C81.3177 12.4675 81.3177 11.5183 80.7321 10.9328Z" fill="white"/>
<path d="M95.1279 12.5916C91.8274 9.49091 88.4969 7.99766 85.4111 8.20856L85.2424 7.47498C84.3086 3.43722 80.9116 0.452256 76.7849 0.0468242C76.4602 0.0157982 76.1398 0 75.8326 0C73.3585 0 71.012 0.947911 69.2315 2.63131L64.4139 0.270098C63.8412 -0.0108495 63.1531 0.101643 62.6995 0.550854C62.2457 0.999684 62.1262 1.68663 62.401 2.26261L65.6234 9.01334L58.783 11.2889C58.1278 11.5068 57.706 12.1439 57.7618 12.8322C57.8172 13.5205 58.3355 14.0816 59.0173 14.1918L66.3802 15.3807L66.6118 22.7537L52.7112 18.584C41.9431 15.3531 30.1913 18.1584 22.0435 25.9046C21.4431 26.4753 21.4191 27.4241 21.9898 28.0243C22.2846 28.3343 22.6802 28.4906 23.0766 28.4906C23.4476 28.4906 23.8194 28.3538 24.1094 28.078C31.4799 21.0712 42.11 18.5341 51.8495 21.4563L67.7451 26.2244C68.2075 26.363 68.7075 26.2708 69.0899 25.9771C69.4721 25.6832 69.6899 25.2232 69.6746 24.7412L69.3958 15.8676L72.1948 16.3197L72.8608 19.7828C73.3587 22.3718 75.6 24.2142 78.2216 24.2142C78.2713 24.2142 78.3212 24.2136 78.3712 24.2123L79.5527 24.1809L77.485 32.8466C76.9109 35.2514 75.6853 37.4493 73.941 39.2026C73.3568 39.7896 73.3593 40.739 73.9461 41.323C74.2389 41.614 74.6213 41.7595 75.0037 41.7595C75.3887 41.7595 75.7738 41.6121 76.0664 41.3177C78.2001 39.1731 79.6991 36.4847 80.4014 33.5427L82.7293 23.787C87.2426 22.455 94.441 23.1149 94.5167 23.1222C95.0179 23.1692 95.5075 22.9638 95.8238 22.5734C96.8762 21.2747 97.4558 19.6389 97.4558 17.9669C97.4558 15.9409 96.6075 13.9817 95.1279 12.5916ZM94.4239 18.5046C94.1522 18.2157 93.8406 17.925 93.4834 17.6443C90.3359 15.1704 86.1696 15.4081 83.2284 16.0433C82.4189 16.2182 81.9046 17.0161 82.0795 17.8255C82.2544 18.6352 83.0527 19.1491 83.8617 18.9744C87.8599 18.1104 90.2167 18.943 91.5679 19.9646C88.6395 19.8987 84.3242 20.035 81.1849 21.1369L78.2915 21.2138C77.0847 21.2467 76.0346 20.4058 75.8058 19.2157L74.942 14.7225C74.823 14.1039 74.3302 13.6257 73.7086 13.5254L65.5286 12.2046L68.1818 11.322C68.5899 11.1863 68.9199 10.8817 69.0882 10.4862C69.2565 10.0905 69.2469 9.64147 69.0615 9.25336L66.9638 4.85852L73.9614 8.28813C74.7052 8.65302 75.6033 8.34523 75.9676 7.60156C76.3321 6.85808 76.0247 5.95985 75.281 5.59534L72.2043 4.08744C73.2723 3.38431 74.5269 2.99829 75.833 2.99829C76.0454 2.99829 76.2698 3.00952 76.496 3.03103C79.3365 3.31007 81.6773 5.3675 82.3203 8.14861L82.8021 10.2437C82.893 10.6385 83.1397 10.9798 83.4862 11.1899C83.8326 11.4001 84.2496 11.4608 84.6415 11.3584C87.7436 10.5492 90.9396 12.7707 93.0747 14.7766C93.9535 15.6023 94.4574 16.7649 94.4574 17.9663C94.4572 18.1483 94.4458 18.3276 94.4239 18.5046Z" fill="white"/>
</svg>
