<svg width="61" height="61" viewBox="0 0 61 61" fill="none" xmlns="http://www.w3.org/2000/svg">
<path d="M41.3651 5.54455C41.7048 5.54455 41.9802 5.27053 41.9802 4.93251V0.61205C41.9802 0.274024 41.7048 0 41.3651 0H25.9617C25.6219 0 25.3466 0.274023 25.3466 0.61205V4.93251C25.3466 5.27053 25.6219 5.54455 25.9617 5.54455H41.3651Z" fill="white"/>
<path d="M23.1551 25.3468C23.4905 25.3468 23.7624 25.0727 23.7624 24.7348V20.4143C23.7624 20.0763 23.4905 19.8022 23.1551 19.8022H6.15182C5.81643 19.8022 5.54456 20.0763 5.54456 20.4143V24.7348C5.54456 25.0727 5.81643 25.3468 6.15182 25.3468H23.1551Z" fill="white"/>
<path d="M20.5941 36.6159C20.5941 36.9539 20.3222 37.2279 19.9868 37.2279H2.98354C2.64816 37.2279 2.37628 36.9539 2.37628 36.6159V32.2954C2.37628 31.9574 2.64816 31.6833 2.98355 31.6833H19.9868C20.3222 31.6833 20.5941 31.9574 20.5941 32.2954V36.6159Z" fill="white"/>
<path d="M17.6106 48.317C17.946 48.317 18.2178 48.043 18.2178 47.705V43.3845C18.2178 43.0465 17.946 42.7725 17.6106 42.7725H0.607264C0.27188 42.7725 0 43.0465 0 43.3845V47.705C0 48.043 0.27188 48.317 0.607264 48.317H17.6106Z" fill="white"/>
<path d="M45.8038 23.9632C46.2316 23.42 45.5703 22.6934 44.9987 23.0786L29.5751 33.4737C29.2658 33.6821 29.2154 34.121 29.4692 34.3952L33.3787 38.6193C33.6297 38.8905 34.0607 38.873 34.2896 38.5824L45.8038 23.9632Z" fill="white"/>
<path d="M17.6396 54.2759C17.3967 54.0759 17.3562 53.7221 17.5415 53.468L20.5169 49.3898C20.7286 49.0995 21.1456 49.057 21.4206 49.2888C24.8632 52.1901 29.304 53.9374 34.1514 53.9374C45.0911 53.9374 53.9594 45.0378 53.9594 34.0596C53.9594 23.0813 45.0911 14.1816 34.1514 14.1816C30.0487 14.1816 26.2373 15.4334 23.0758 17.577C22.7958 17.7669 22.4124 17.7036 22.2182 17.4271L19.3192 13.2997C19.1294 13.0294 19.1919 12.6566 19.4645 12.4695C23.6457 9.59951 28.7032 7.9209 34.1514 7.9209C48.5366 7.9209 60.1981 19.6236 60.1981 34.0596C60.1981 48.4955 48.5366 60.1981 34.1514 60.1981C27.8841 60.1981 22.1338 57.9769 17.6396 54.2759Z" fill="white"/>
</svg>
