<svg width="200" height="100" viewBox="0 0 200 100" fill="none" xmlns="http://www.w3.org/2000/svg">
<g clip-path="url(#clip0_766_1078)">
<path d="M9.81046 14.8272L14.0938 10.5437C14.3832 10.2555 14.7748 10.0938 15.1829 10.0938C15.5911 10.0938 15.9826 10.2555 16.272 10.5437L16.6049 10.8769L17.2721 10.2089L16.9393 9.87413C16.4725 9.40785 15.84 9.14598 15.1806 9.14598C14.5212 9.14598 13.8887 9.40785 13.422 9.87413L9.14166 14.1591L9.81046 14.8272Z" fill="white"/>
<path d="M15.5287 11.9543L14.8615 11.2862L10.5766 15.5758C10.2871 15.8654 9.89463 16.028 9.48543 16.0278C9.07624 16.0277 8.68386 15.8648 8.39461 15.5751C8.10537 15.2853 7.94295 14.8924 7.94309 14.4827C7.94324 14.0731 8.10593 13.6803 8.39537 13.3907L12.092 9.69001L11.4247 9.022L7.72809 12.7227C7.49276 12.9528 7.30538 13.2274 7.17681 13.5305C7.04823 13.8337 6.98101 14.1593 6.97905 14.4887C6.97708 14.818 7.04041 15.1444 7.16536 15.4491C7.29031 15.7537 7.4744 16.0305 7.70697 16.2635C7.93953 16.4964 8.21595 16.6808 8.52022 16.806C8.82448 16.9312 9.15054 16.9948 9.4795 16.9929C9.80847 16.9911 10.1338 16.924 10.4367 16.7954C10.7395 16.6668 11.0139 16.4793 11.2439 16.2438L15.5287 11.9543ZM19.7939 12.7227C19.3269 12.2568 18.6945 11.9952 18.0352 11.9952C17.3759 11.9952 16.7435 12.2568 16.2766 12.7227L11.9917 17.0123L12.659 17.6803L16.9439 13.3907C17.1597 13.1751 17.4345 13.0283 17.7337 12.9689C18.0328 12.9095 18.3428 12.9402 18.6245 13.0572C18.9062 13.1741 19.147 13.3719 19.3164 13.6258C19.4859 13.8796 19.5764 14.178 19.5765 14.4833C19.5773 14.6866 19.5373 14.8881 19.459 15.0758C19.3807 15.2634 19.2656 15.4335 19.1205 15.5758L15.4284 19.2765L16.0972 19.9445L19.7939 16.2438C20.2596 15.7766 20.5212 15.1434 20.5212 14.4833C20.5212 13.8231 20.2596 13.19 19.7939 12.7227V12.7227Z" fill="white"/>
<path d="M17.7114 14.1394L13.4265 18.4274C13.1368 18.7166 12.7443 18.879 12.3352 18.879C11.926 18.879 11.5336 18.7166 11.2438 18.4274L10.9109 18.0926L10.2437 18.7607L10.5765 19.0954C11.0435 19.5613 11.6759 19.8229 12.3352 19.8229C12.9945 19.8229 13.6268 19.5613 14.0938 19.0954L18.3787 14.8043L17.7114 14.1394Z" fill="white"/>
<path d="M24.4344 15.6367C24.4783 15.8911 24.6168 16.1195 24.822 16.2758C25.0575 16.4389 25.3401 16.5196 25.6261 16.5056C25.8983 16.5229 26.1678 16.4425 26.3861 16.2788C26.4731 16.2064 26.5425 16.1149 26.5888 16.0116C26.6352 15.9082 26.6573 15.7956 26.6536 15.6823C26.6567 15.5764 26.6321 15.4715 26.5822 15.378C26.5322 15.2932 26.4636 15.2208 26.3815 15.1665C26.2837 15.1014 26.1773 15.0502 26.0654 15.0143L25.6428 14.8865L25.24 14.7769C25.0167 14.7177 24.7994 14.6377 24.591 14.538C24.412 14.4533 24.2466 14.3426 24.1 14.2094C23.9693 14.0879 23.8657 13.9401 23.796 13.7757C23.7217 13.5948 23.6855 13.4006 23.6896 13.2051C23.6875 12.9884 23.7342 12.7741 23.8264 12.5781C23.9153 12.3874 24.0469 12.2197 24.211 12.0882C24.3915 11.9435 24.5978 11.8346 24.819 11.7671C25.0774 11.6851 25.3474 11.6455 25.6185 11.6499C26.1769 11.6499 26.6192 11.7818 26.9455 12.0456C27.1072 12.1759 27.2413 12.3373 27.34 12.5202C27.4386 12.7031 27.4998 12.9038 27.52 13.1107L26.608 13.1853C26.5629 12.9758 26.4456 12.7889 26.2767 12.6573C26.0719 12.5202 25.8279 12.4539 25.582 12.4686C25.35 12.4549 25.1205 12.5227 24.933 12.6603C24.8581 12.7187 24.7979 12.7939 24.7573 12.8798C24.7166 12.9656 24.6967 13.0598 24.6989 13.1548C24.6952 13.2561 24.7188 13.3565 24.7673 13.4455C24.8162 13.5276 24.8833 13.5974 24.9634 13.6494C25.061 13.713 25.1662 13.7641 25.2765 13.8016C25.3996 13.8472 25.5395 13.8959 25.6945 13.9461L26.0806 14.0663C26.3207 14.1424 26.5381 14.2215 26.7327 14.3037C26.9116 14.3799 27.0781 14.4825 27.2267 14.608C27.3606 14.7215 27.4675 14.8634 27.5398 15.0235C27.618 15.2123 27.6553 15.4156 27.6492 15.6199C27.6518 15.8588 27.5998 16.0951 27.4972 16.3108C27.3983 16.518 27.2539 16.7 27.0747 16.8434C26.8821 16.9958 26.6631 17.1113 26.4287 17.1842C26.1615 17.2674 25.883 17.308 25.6033 17.3044C25.1086 17.3229 24.6206 17.1856 24.2079 16.9118C24.0153 16.7723 23.854 16.5939 23.7344 16.3882C23.6147 16.1825 23.5394 15.9539 23.5133 15.7173L24.4344 15.6367ZM31.4948 11.6651C31.8772 11.6602 32.2568 11.7305 32.612 11.8721C32.9365 12.0022 33.2293 12.2004 33.4708 12.4534C33.7131 12.7113 33.9008 13.0156 34.0226 13.3481C34.1563 13.7135 34.2227 14.1002 34.2187 14.4893C34.2241 14.8856 34.1534 15.2793 34.0104 15.6489C33.8771 15.9848 33.6758 16.2894 33.4191 16.5436L34.1427 17.3912V17.6544H33.2307L32.7245 17.0351C32.5411 17.1229 32.3491 17.1913 32.1515 17.239C31.9382 17.2847 31.7206 17.3071 31.5024 17.306C31.1157 17.3083 30.7324 17.2338 30.3746 17.0868C30.052 16.9559 29.7612 16.7572 29.5219 16.504C29.2825 16.2473 29.0979 15.9444 28.9792 15.6139C28.8481 15.252 28.7828 14.8697 28.7862 14.4848C28.7824 14.0974 28.8478 13.7125 28.9792 13.3481C29.0986 13.0164 29.2849 12.7129 29.5264 12.4564C29.7673 12.2034 30.059 12.0042 30.3822 11.8721C30.7354 11.7288 31.1138 11.6584 31.4948 11.6651V11.6651ZM31.4872 12.4807C31.2363 12.4769 30.9876 12.5288 30.7591 12.6329C30.5493 12.73 30.3638 12.873 30.2165 13.0514C30.0633 13.2384 29.9477 13.4534 29.876 13.6844C29.7967 13.9416 29.7578 14.2095 29.7605 14.4787C29.7578 14.7502 29.7984 15.0204 29.8806 15.2791C29.9542 15.5122 30.0707 15.7295 30.2241 15.9197C30.3712 16.1003 30.5565 16.2458 30.7667 16.3458C30.9949 16.4506 31.2438 16.5026 31.4948 16.4979C31.7456 16.5004 31.994 16.4485 32.2229 16.3458C32.4324 16.2508 32.6178 16.1099 32.7655 15.9334C32.9207 15.7461 33.0375 15.5299 33.1091 15.2974C33.1922 15.0325 33.2333 14.7563 33.2307 14.4787C33.233 14.2051 33.1919 13.9329 33.1091 13.6722C33.0364 13.441 32.9198 13.2261 32.7655 13.0392C32.6163 12.8627 32.43 12.7214 32.2199 12.6253C31.9891 12.5242 31.7391 12.4748 31.4872 12.4807V12.4807ZM37.8013 16.536C37.9703 16.5464 38.1395 16.5196 38.2971 16.4576C38.4546 16.3956 38.5967 16.2997 38.7133 16.1769C38.9291 15.9385 39.0371 15.5723 39.0371 15.0782V11.7701H39.984V15.1087C39.9915 15.4507 39.9401 15.7915 39.832 16.116C39.7447 16.376 39.5973 16.6116 39.4019 16.8038C39.208 16.9876 38.9729 17.1222 38.7163 17.1964C38.1195 17.3616 37.4891 17.3616 36.8923 17.1964C36.6367 17.1221 36.4027 16.9875 36.2099 16.8038C36.0149 16.6112 35.8676 16.3757 35.7797 16.116C35.6717 15.7914 35.6203 15.4507 35.6277 15.1087V11.7701H36.5777V15.0782C36.5777 15.5713 36.6861 15.9375 36.903 16.1769C37.018 16.2981 37.1578 16.393 37.3129 16.4549C37.4679 16.5169 37.6346 16.5446 37.8013 16.536V16.536ZM40.9325 16.9347L42.8553 11.7762H44.2811L46.1826 16.9347V17.1933H45.2478L44.7036 15.6443H42.3583L41.808 17.1933H40.9264L40.9325 16.9347ZM42.644 14.8348H44.4331L44.1382 13.9735C44.0227 13.6372 43.9299 13.3648 43.8585 13.1503C43.7871 12.9357 43.7263 12.7531 43.67 12.5918H43.4375L43.3463 12.849C43.3159 12.9342 43.2824 13.0301 43.2444 13.1351C43.2064 13.2401 43.1654 13.3618 43.1198 13.4987C43.0742 13.6357 43.0195 13.7924 42.9541 13.9735L42.644 14.8348ZM51.4935 17.1933H50.5815L48.9292 15.063H48.3212V17.1933H47.3849V11.7701H49.1436C49.407 11.7697 49.6702 11.7885 49.9309 11.8264C50.1732 11.8616 50.4044 11.9511 50.6073 12.0882C51.0349 12.3702 51.2487 12.7952 51.2487 13.3633C51.253 13.5835 51.2153 13.8024 51.1378 14.0085C51.0721 14.182 50.9735 14.3411 50.8475 14.4772C50.7272 14.605 50.5858 14.7111 50.4295 14.7906C50.2728 14.8709 50.1069 14.9317 49.9355 14.9717L51.4935 16.9347V17.1933ZM48.3182 14.2474H49.1405C49.4387 14.2633 49.7353 14.1947 49.9963 14.0496C50.1014 13.9792 50.1859 13.8821 50.2409 13.7681C50.296 13.6541 50.3196 13.5275 50.3094 13.4014C50.3218 13.2761 50.2986 13.1499 50.2424 13.0374C50.1862 12.9248 50.0992 12.8305 49.9917 12.7653C49.7278 12.634 49.4349 12.5722 49.1405 12.5857H48.3182V14.2474ZM52.7004 11.7701H56.2085V12.601H53.6245V14.0207H56.0231V14.8363H53.6291V16.358H56.2617V17.1933H52.7004V11.7701ZM58.3593 15.6367C58.4032 15.8911 58.5416 16.1195 58.7469 16.2758C58.9825 16.4387 59.265 16.5194 59.551 16.5056C59.8232 16.5229 60.0927 16.4425 60.311 16.2788C60.398 16.2064 60.4673 16.1149 60.5137 16.0116C60.5601 15.9082 60.5822 15.7956 60.5785 15.6823C60.5816 15.5764 60.5569 15.4715 60.5071 15.378C60.4571 15.2932 60.3885 15.2208 60.3064 15.1665C60.2086 15.1014 60.1022 15.0502 59.9903 15.0143L59.5677 14.8865L59.1604 14.7739C58.937 14.7147 58.7198 14.6347 58.5113 14.535C58.3324 14.4503 58.1669 14.3395 58.0204 14.2063C57.8896 14.0848 57.786 13.937 57.7164 13.7726C57.6412 13.5811 57.6052 13.3765 57.6105 13.1708C57.6157 12.9651 57.662 12.7625 57.7467 12.5751C57.8361 12.3847 57.9676 12.2171 58.1313 12.0851C58.3118 11.9405 58.5182 11.8315 58.7393 11.764C58.9978 11.6821 59.2678 11.6425 59.5388 11.6469C60.0972 11.6469 60.54 11.7788 60.8673 12.0425C61.0288 12.173 61.1627 12.3344 61.2611 12.5173C61.3595 12.7002 61.4204 12.9009 61.4404 13.1077L60.5284 13.1822C60.484 12.9732 60.3678 12.7863 60.2 12.6542C59.9953 12.517 59.7513 12.4507 59.5054 12.4655C59.2733 12.4519 59.0438 12.5197 58.8564 12.6573C58.7818 12.7158 58.7219 12.7911 58.6815 12.8769C58.6411 12.9628 58.6214 13.0569 58.6238 13.1518C58.6196 13.2529 58.6427 13.3533 58.6907 13.4424C58.7396 13.5245 58.8066 13.5943 58.8867 13.6463C58.9844 13.7099 59.0896 13.761 59.1999 13.7985C59.323 13.8442 59.4628 13.8929 59.6194 13.9431L60.004 14.0633C60.2451 14.1394 60.4625 14.2185 60.656 14.3007C60.835 14.3768 61.0015 14.4794 61.15 14.605C61.2839 14.7185 61.3909 14.8604 61.4632 15.0204C61.5414 15.2093 61.5787 15.4126 61.5726 15.6169C61.5751 15.8558 61.5231 16.092 61.4206 16.3077C61.3222 16.5152 61.1776 16.6974 60.998 16.8403C60.8051 16.9915 60.5862 17.106 60.352 17.1781C60.0844 17.2613 59.8054 17.3019 59.5252 17.2983C59.0305 17.3166 58.5425 17.1793 58.1298 16.9058C57.9384 16.7666 57.7781 16.589 57.659 16.3844C57.54 16.1798 57.4648 15.9526 57.4382 15.7173L58.3593 15.6367ZM62.9224 11.7701H64.8984C65.2114 11.762 65.5237 11.8057 65.8225 11.8995C66.0496 11.9695 66.2576 12.0908 66.4305 12.254C66.5825 12.402 66.6962 12.5848 66.7619 12.7866C66.8315 12.9997 66.8659 13.2228 66.8637 13.447C66.8699 13.6997 66.8223 13.9507 66.7239 14.1835C66.635 14.387 66.4965 14.5649 66.3211 14.7009C66.1291 14.8431 65.9112 14.9465 65.6796 15.0052C65.4011 15.0767 65.1144 15.111 64.8269 15.1071H63.8693V17.1933H62.9254L62.9224 11.7701ZM63.8663 14.2931H64.7707C64.9236 14.2942 65.0764 14.2804 65.2267 14.252C65.3546 14.228 65.4772 14.1811 65.5884 14.1135C65.6908 14.0494 65.7743 13.959 65.8301 13.8518C65.8913 13.7259 65.921 13.587 65.9167 13.447C65.9213 13.3036 65.8916 13.1612 65.8301 13.0316C65.7759 12.923 65.6935 12.831 65.5915 12.7653C65.4821 12.6972 65.3609 12.6503 65.2343 12.6268C65.084 12.5981 64.9312 12.5844 64.7783 12.5857H63.8587L63.8663 14.2931ZM67.1252 16.9347L69.0495 11.7762H70.4752L72.3752 16.9347V17.1933H71.448L70.9054 15.6443H68.5509L68.0083 17.1933H67.1252V16.9347ZM68.8382 14.8348H70.6257L70.3308 13.9735C70.2153 13.6372 70.1226 13.3648 70.0527 13.1503L69.8642 12.5918H69.624L69.5328 12.849C69.5024 12.9342 69.469 13.0301 69.431 13.1351C69.393 13.2401 69.352 13.3618 69.3064 13.4987C69.2608 13.6357 69.206 13.7924 69.1407 13.9735L68.8382 14.8348ZM78.1239 15.7584C78.038 15.9706 77.9257 16.171 77.7895 16.3549C77.6482 16.5434 77.4785 16.7087 77.2864 16.8449C77.0781 16.9913 76.8477 17.1033 76.6039 17.1766C76.3239 17.2606 76.0328 17.3016 75.7405 17.2983C75.3631 17.3041 74.9885 17.2321 74.64 17.0868C74.321 16.9535 74.0335 16.7544 73.7964 16.5025C73.5583 16.2448 73.3747 15.9415 73.2568 15.6108C73.1279 15.2511 73.0636 14.8715 73.0668 14.4893C73.0634 14.1072 73.1277 13.7275 73.2568 13.3679C73.3749 13.0357 73.5596 12.7313 73.7995 12.4731C74.038 12.2185 74.3268 12.0164 74.6476 11.8797C74.9972 11.7325 75.3735 11.6595 75.7527 11.6651C76.2801 11.6464 76.8005 11.7915 77.2423 12.0805C77.635 12.3484 77.9325 12.7341 78.092 13.1822L77.1328 13.3709C77.0134 13.1074 76.8242 12.8816 76.5856 12.7181C76.3335 12.5547 76.0377 12.4719 75.7375 12.4807C75.4913 12.4754 75.2472 12.5275 75.0246 12.6329C74.8196 12.7336 74.6394 12.8786 74.4972 13.0575C74.3477 13.248 74.2363 13.4655 74.1688 13.6981C74.0912 13.9541 74.0528 14.2203 74.0548 14.4878C74.0526 14.7571 74.092 15.025 74.1719 15.2821C74.2434 15.5124 74.3585 15.7268 74.5108 15.9136C74.6595 16.089 74.8447 16.2298 75.0535 16.326C75.2808 16.4304 75.5285 16.4824 75.7785 16.4782C76.0892 16.4907 76.3953 16.4003 76.6495 16.221C76.8735 16.0567 77.0557 15.842 77.1815 15.5941L78.1239 15.7584ZM79.3992 11.7701H82.9073V12.601H80.3233V14.0207H82.7264V14.8363H80.3279V16.358H82.9605V17.1933H79.3992V11.7701Z" fill="white"/>
</g>
<path d="M34.5265 89.7647V63.5528H48.8665V76.7466C48.8665 80.4811 46.1543 83.5938 42.5964 84.2176V88.658C45.2251 88.6658 47.3608 90.8084 47.3572 93.4397C47.3561 94.1619 46.7662 94.7459 46.044 94.7459H39.5077C36.7567 94.7459 34.5265 92.5157 34.5265 89.7647Z" fill="white"/>
<path d="M41.2829 81.7047C44.0161 81.7047 46.24 79.4802 46.24 76.746V65.4476H37.1526V89.7641C37.1526 91.0625 38.209 92.119 39.5075 92.119H44.2812C43.888 91.6113 43.2725 91.2839 42.5821 91.2839H41.2829C40.5575 91.2839 39.9697 90.6958 39.9697 89.9707V83.0179C39.9697 82.2927 40.5575 81.7047 41.2829 81.7047Z" fill="#0F0F0F"/>
<path d="M5.83556 58.4716L14.2172 66.2085L23.8883 67.8204L48.3884 69.7546L58.0594 65.5638L69.02 52.669L73.8556 47.1887L80.9477 39.1295L85.1385 37.5176H97.3885L96.7438 31.0702L89.0069 26.557L82.8819 25.9123L77.0793 28.1689L61.9279 43.3203L59.0266 43.965L53.2239 41.7084L41.2962 39.1295L33.237 40.4189L22.2764 43.3203L14.8619 47.8334L14.2172 45.8992L6.4803 31.3926L2.93423 24.6228L2.28949 51.7019L5.83556 58.4716Z" fill="#0F0F0F" stroke="black"/>
<path d="M91.5558 26.105L95.2266 28.1105C97.5545 29.3821 99.0004 31.8198 99 34.4725V37.399C99 37.5865 98.9742 37.7749 98.9074 37.9502C98.6769 38.5547 98.1109 38.9025 97.5176 38.8942L86.8401 38.6963C84.0925 38.6448 81.5314 39.8369 79.8007 41.9654L74.757 48.1681C74.2499 48.7917 73.3331 48.8862 72.7095 48.379C72.0859 47.872 71.9913 46.9553 72.4984 46.3317L77.5421 40.1288C79.8415 37.3013 83.2568 35.7176 86.8939 35.786L96.0891 35.9563V34.4721C96.0891 32.8848 95.2239 31.4257 93.8307 30.6649L90.1599 28.6593C88.4742 27.7383 86.5677 27.2515 84.647 27.2515C81.5871 27.2515 78.6006 28.502 76.4538 30.6825L61.6309 45.7372C61.2096 46.1648 60.5691 46.2904 60.0177 46.0527L54.4502 43.6541C42.3223 38.8104 28.6956 40.3889 17.996 47.8787C16.5231 48.9094 15.1827 50.1178 14.0051 51.4764L12.6287 53.0645C12.3409 53.3966 11.9357 53.5667 11.5282 53.5667C11.1819 53.5667 10.8341 53.444 10.5552 53.1933C9.95842 52.6566 9.94005 51.7218 10.466 51.1152L13.0718 48.1084L3.91053 28.8907V47.516C3.91053 56.9879 11.1941 64.7893 20.4546 65.6158L41.6307 68.453H45.3762C49.3599 68.453 53.1278 67.2757 56.361 65.0404L62.39 58.7646L70.0053 49.3992C70.5516 48.7274 71.5735 48.6694 72.1917 49.3167C72.7032 49.8521 72.6997 50.6996 72.2327 51.274L66.795 57.9612L58.1578 67.3312C56.3976 68.5619 54.4701 69.5281 52.4429 70.2055L49.532 70.9654C48.1671 71.2254 46.7761 71.3634 45.3758 71.3634H41.6303L20.94 68.569C9.84453 67.9732 1 58.7581 1 47.5154V22.513C1 21.8885 1.36827 21.3012 1.95589 21.0884C2.6729 20.8288 3.45039 21.1602 3.76928 21.8293L5.27603 24.9897L6.25049 24.0152C6.82949 23.4362 7.77466 23.4469 8.34008 24.0472C8.88654 24.6271 8.8297 25.5528 8.26619 26.1163L6.60497 27.7775L7.43319 29.5149L8.52976 28.4183C9.10877 27.8393 10.0539 27.85 10.6194 28.4503C11.1658 29.0303 11.109 29.9559 10.5455 30.5194L8.76232 32.3026L9.68854 34.2455L10.8586 33.0755C11.4376 32.4964 12.3828 32.5072 12.9482 33.1074C13.4947 33.6874 13.4378 34.613 12.8743 35.1765L11.0175 37.0332L11.9437 38.976L13.1871 37.7326C13.7661 37.1536 14.7112 37.1643 15.2767 37.7645C15.8231 38.3445 15.7663 39.2701 15.2028 39.8337L13.2728 41.7636L15.3706 46.1639L15.697 45.9355L15.6668 43.6377C15.6562 42.834 16.299 42.1738 17.1027 42.1631H17.1224C17.9173 42.1631 18.5668 42.8022 18.5773 43.5994L18.5828 44.0222C19.1408 43.6825 19.7062 43.3609 20.276 43.0497L20.2266 40.0524C20.2134 39.2485 20.8543 38.5864 21.658 38.5732C21.6662 38.573 21.6743 38.573 21.6825 38.573C22.4751 38.573 23.1242 39.2089 23.1372 40.0046L23.1636 41.6101C24.0448 41.2141 24.9379 40.8531 25.8397 40.5212L25.7905 37.5232C25.7774 36.7193 26.4181 36.0572 27.2218 36.044C28.0228 36.0319 28.688 36.6716 28.701 37.4753L28.7354 39.5749C29.671 39.3067 30.6139 39.0684 31.5639 38.8676L31.5149 35.8734C31.5019 35.0695 32.1425 34.4075 32.9462 34.3942C33.7407 34.3833 34.4122 35.0219 34.4254 35.8256L34.4669 38.3644C35.4347 38.231 36.4069 38.1326 37.3819 38.0681L37.3365 35.291C37.3235 34.4871 37.9641 33.825 38.7679 33.8118C39.5704 33.8057 40.234 34.4394 40.2471 35.2431L40.2918 37.9759C41.0894 37.9795 41.8878 38.0078 42.6858 38.0578L43.2946 35.5107C43.4847 34.7147 44.2953 34.2293 45.0914 34.4446C45.8608 34.6526 46.2969 35.4715 46.1116 36.2467L45.6103 38.343C46.3847 38.4471 47.1576 38.574 47.9284 38.7225L48.534 36.19C48.7239 35.3953 49.5311 34.9095 50.3275 35.1231C51.0987 35.3298 51.5366 36.1493 51.351 36.9256L50.7654 39.3731C51.715 39.6258 52.6588 39.9158 53.5962 40.2379L54.1114 38.0836C54.3013 37.2877 55.1119 36.8021 55.908 37.0175C56.6774 37.2257 57.1135 38.0448 56.9282 38.82L56.336 41.2968L58.6516 42.2944L58.3829 40.8826C58.2297 40.0785 58.7703 39.3029 59.5845 39.1729C60.3714 39.0473 61.1045 39.6149 61.2536 40.3977L61.5047 41.7169L63.5175 39.6727L62.2736 38.4287C61.7103 37.8652 61.6532 36.9398 62.1995 36.3598C62.7649 35.7594 63.7103 35.7486 64.2889 36.3276L65.5597 37.5984L67.2211 35.9111L65.7763 34.4666C65.213 33.9031 65.156 32.9776 65.7023 32.3977C66.2677 31.7972 67.213 31.7865 67.7917 32.3655L69.2632 33.8371L71.2161 31.8535L69.7117 30.3489C69.1327 29.77 69.1434 28.8249 69.7438 28.2597C70.3242 27.7132 71.25 27.7704 71.8135 28.3339L73.2586 29.779L74.3801 28.6402C74.6766 28.3393 74.9878 28.0547 75.3086 27.7825L74.381 25.8835C74.022 25.1479 74.3391 24.2575 75.0906 23.918C75.8168 23.5895 76.6737 23.9446 77.0234 24.6606L77.7345 26.1165C78.5244 25.6856 79.3536 25.3305 80.209 25.0524V22.8547C80.209 22.0359 80.8849 21.3751 81.7091 21.3998C82.5057 21.4236 83.1199 22.1185 83.1199 22.9156V24.4256C83.626 24.3706 84.1355 24.3408 84.6474 24.3408C87.0545 24.3408 89.4434 24.951 91.5558 26.105Z" fill="white"/>
<path d="M87.0537 28.9575L85.1132 27.9873C84.3941 27.6276 83.5197 27.9191 83.1605 28.6381C82.8008 29.357 83.0923 30.2313 83.8113 30.5906L85.7517 31.5608C85.9608 31.6654 86.183 31.7147 86.4016 31.7147C86.9354 31.7147 87.4495 31.4198 87.7045 30.9101C88.0641 30.1911 87.7726 29.3168 87.0537 28.9575Z" fill="white"/>
<path d="M19.9972 49.9388C19.559 49.2646 18.6577 49.0732 17.9837 49.5112C16.7989 50.2806 16.1426 50.8037 16.115 50.8256C15.488 51.3272 15.3864 52.2416 15.8875 52.8694C16.1746 53.2295 16.5983 53.4166 17.0258 53.4166C17.3439 53.4166 17.6643 53.3129 17.9323 53.0995C17.9378 53.0951 18.5178 52.6351 19.5692 51.952C20.2433 51.5144 20.4349 50.6131 19.9972 49.9388Z" fill="white"/>
<path d="M53.4241 44.5304C52.7245 44.2948 52.0117 44.077 51.3058 43.8825C50.5302 43.6689 49.7296 44.1244 49.5161 44.8994C49.3027 45.6743 49.7579 46.4757 50.5329 46.6891C51.1871 46.8692 51.8475 47.0711 52.496 47.2894C52.6499 47.3412 52.8064 47.3657 52.9603 47.3657C53.568 47.3657 54.135 46.9819 54.3396 46.374C54.5957 45.612 54.1861 44.7867 53.4241 44.5304Z" fill="white"/>
<path d="M44.3671 42.6393C43.6332 42.5769 42.8881 42.535 42.1519 42.5151C41.3499 42.4948 40.6794 43.127 40.6576 43.9305C40.6358 44.7341 41.2695 45.403 42.0731 45.4248C42.7535 45.4432 43.442 45.4819 44.1198 45.5395C44.1619 45.5431 44.2036 45.5449 44.2452 45.5449C44.993 45.5449 45.629 44.9718 45.6937 44.2129C45.7619 43.412 45.1679 42.7074 44.3671 42.6393Z" fill="white"/>
<path d="M28.0925 46.1822C27.8042 45.4317 26.9632 45.0566 26.2121 45.345C25.532 45.6061 24.8456 45.889 24.1723 46.1857C23.4365 46.5095 23.1031 47.3686 23.4271 48.1044C23.667 48.6493 24.2002 48.9735 24.7597 48.9735C24.9557 48.9735 25.1548 48.9337 25.3458 48.8495C25.9765 48.5718 26.619 48.3069 27.2555 48.0626C28.0058 47.7746 28.3807 46.9327 28.0925 46.1822Z" fill="white"/>
<path d="M36.7816 44.1794C36.6597 43.3848 35.9168 42.8405 35.1227 42.9614C34.3999 43.0723 33.6674 43.2047 32.945 43.3553C32.1582 43.5196 31.6534 44.2904 31.8173 45.0772C31.9604 45.764 32.5655 46.2358 33.2406 46.2358C33.3392 46.2358 33.4391 46.2257 33.5392 46.2048C34.2108 46.0647 34.8918 45.9416 35.5633 45.8387C36.3582 45.7169 36.9035 44.9739 36.7816 44.1794Z" fill="white"/>
<path d="M20.0198 64.1975L24.2106 57.7502L37.1054 63.5528V72.2568L36.783 75.1581L35.1712 79.0266L30.658 81.9279L27.4343 83.5397L27.1119 89.02L28.4014 89.6648L30.658 90.6319L31.6251 92.5661L30.658 93.2108H25.1777L22.5987 92.5661L21.954 90.6319V88.0529L21.6316 82.895L22.5987 78.3818L26.1448 75.4805L25.5001 73.5463L20.9869 69.3555L20.0198 64.1975Z" fill="#0F0F0F"/>
<path d="M37.2634 62.4798C37.9971 62.5017 38.5628 63.1418 38.5628 63.8759V66.2818L38.5627 68.9623V72.847C38.5627 75.2245 37.8229 77.4317 36.5635 79.2534L33.8826 81.9956C32.364 83.0966 30.5628 83.8305 28.6091 84.0625V88.5589C31.2932 88.5661 33.4737 90.7538 33.47 93.4403C33.469 94.1776 32.8668 94.7738 32.1295 94.7738H25.4567C22.6489 94.7738 20.3724 92.4975 20.3724 89.6895V81.0071C20.3724 79.2373 21.2056 77.5704 22.6216 76.5086L24.9083 74.7935L23.9366 74.1792C21.7794 72.8163 20.2284 70.7486 19.5065 68.374C19.3574 67.9912 19.0592 66.9113 19.0592 65.6542C19.0581 65.6164 19.056 65.5789 19.0551 65.541C18.9792 62.0153 20.6635 58.7103 23.5609 56.6998C24.1851 56.267 25.0477 56.4371 25.4582 57.085C25.8435 57.6934 25.6496 58.5098 25.0597 58.9231C22.7524 60.5395 21.4885 63.2633 21.7729 66.1039C22.0153 68.5257 23.4181 70.6805 25.4756 71.9807L27.9848 73.5663C28.474 73.8751 28.7228 74.474 28.5595 75.0653C28.4786 75.3588 28.288 75.6108 28.0444 75.7934L24.2306 78.6538C23.4937 79.2063 23.0539 80.0862 23.0539 81.0071V89.6898C23.0539 91.017 24.1296 92.0929 25.4569 92.0929H30.3309C29.9293 91.5744 29.3008 91.24 28.5958 91.24H27.2687C26.5284 91.24 25.9282 90.6397 25.9282 89.8994V82.8011C25.9282 82.069 26.5154 81.4588 27.2475 81.4606C32.0064 81.472 35.8817 77.6039 35.8817 72.8475V63.8198C35.8817 63.0656 36.5042 62.4571 37.2634 62.4798Z" fill="white"/>
<path d="M55.5736 64.6202L52.1339 55.8558L55.1536 51.3743L57.3159 52.0197L60.0685 55.1962L60.8525 63.8408L62.3647 63.2829L66.256 63.7715C66.6064 64.1004 67.4307 64.795 67.925 64.9425C68.4192 65.09 68.2817 69.7589 68.1511 72.0749L66.5467 72.9417L65.1866 71.8629L63.5452 68.3452L59.9951 68.9677L57.215 68.1379L55.5736 64.6202Z" fill="#0F0F0F"/>
<path d="M68.2912 63.4537C68.577 63.7311 68.8206 64.0447 69.0196 64.3831C69.4314 64.9483 69.5966 66.3861 69.6278 67.0343L69.5286 71.6013C69.5001 72.9237 68.6101 73.9906 67.3142 74.2558C66.8392 74.3528 66.372 74.3296 65.9438 74.2018C65.2036 73.9809 64.5804 73.4479 64.2346 72.6846L62.8677 69.6676L60.1463 70.293C58.3624 70.7029 56.5842 69.7907 55.867 68.1205L54.6512 65.0475L51.0638 55.9346C50.7867 55.2307 51.1443 54.4339 51.8612 54.1762C52.554 53.9271 53.3171 54.3167 53.5867 55.0018L58.3212 67.0278C58.5149 67.5191 59.0288 67.7902 59.5437 67.6719L63.3373 66.8003C63.9609 66.6567 64.5993 66.9733 64.8633 67.5559L66.6843 71.5749C66.7001 71.6098 66.7119 71.6202 66.7119 71.6202C66.7381 71.6338 66.8139 71.618 66.8327 71.5946C66.8327 71.5946 66.8388 71.5802 66.8396 71.543L66.9441 66.7249C66.9545 66.243 66.7899 65.765 66.4537 65.4198C66.0985 65.055 65.6213 64.8679 65.1154 64.8935L60.8019 65.1135C60.072 65.1507 59.4452 64.5971 59.3924 63.8675L58.9043 57.1154C58.7445 54.9022 57.1974 53.0374 55.0497 52.4709C54.2848 52.2667 53.8461 51.4456 54.1382 50.684C54.3878 50.0332 55.1177 49.7024 55.7903 49.8849C59.0214 50.7607 61.3456 53.5808 61.5868 56.9214L61.9799 62.3602L64.9787 62.2072C66.2036 62.1447 67.4112 62.599 68.2912 63.4537Z" fill="white"/>
<g clip-path="url(#clip1_766_1078)">
<path d="M109.81 14.8272L114.094 10.5437C114.383 10.2555 114.775 10.0938 115.183 10.0938C115.591 10.0938 115.983 10.2555 116.272 10.5437L116.605 10.8769L117.272 10.2089L116.939 9.87413C116.473 9.40785 115.84 9.14598 115.181 9.14598C114.521 9.14598 113.889 9.40785 113.422 9.87413L109.142 14.1591L109.81 14.8272Z" fill="white"/>
<path d="M115.529 11.9543L114.861 11.2862L110.577 15.5758C110.287 15.8654 109.895 16.028 109.485 16.0278C109.076 16.0277 108.684 15.8648 108.395 15.5751C108.105 15.2853 107.943 14.8924 107.943 14.4827C107.943 14.0731 108.106 13.6803 108.395 13.3907L112.092 9.69001L111.425 9.022L107.728 12.7227C107.493 12.9528 107.305 13.2274 107.177 13.5305C107.048 13.8337 106.981 14.1593 106.979 14.4887C106.977 14.818 107.04 15.1444 107.165 15.4491C107.29 15.7537 107.474 16.0305 107.707 16.2635C107.94 16.4964 108.216 16.6808 108.52 16.806C108.824 16.9312 109.151 16.9948 109.48 16.9929C109.808 16.9911 110.134 16.924 110.437 16.7954C110.74 16.6668 111.014 16.4793 111.244 16.2438L115.529 11.9543ZM119.794 12.7227C119.327 12.2568 118.694 11.9952 118.035 11.9952C117.376 11.9952 116.744 12.2568 116.277 12.7227L111.992 17.0123L112.659 17.6803L116.944 13.3907C117.16 13.1751 117.435 13.0283 117.734 12.9689C118.033 12.9095 118.343 12.9402 118.625 13.0572C118.906 13.1741 119.147 13.3719 119.316 13.6258C119.486 13.8796 119.576 14.178 119.576 14.4833C119.577 14.6866 119.537 14.8881 119.459 15.0758C119.381 15.2634 119.266 15.4335 119.12 15.5758L115.428 19.2765L116.097 19.9445L119.794 16.2438C120.26 15.7766 120.521 15.1434 120.521 14.4833C120.521 13.8231 120.26 13.19 119.794 12.7227V12.7227Z" fill="white"/>
<path d="M117.711 14.1394L113.427 18.4274C113.137 18.7166 112.744 18.879 112.335 18.879C111.926 18.879 111.534 18.7166 111.244 18.4274L110.911 18.0926L110.244 18.7607L110.577 19.0954C111.044 19.5613 111.676 19.8229 112.335 19.8229C112.994 19.8229 113.627 19.5613 114.094 19.0954L118.379 14.8043L117.711 14.1394Z" fill="white"/>
<path d="M124.434 15.6367C124.478 15.8911 124.617 16.1195 124.822 16.2758C125.057 16.4389 125.34 16.5196 125.626 16.5056C125.898 16.5229 126.168 16.4425 126.386 16.2788C126.473 16.2064 126.542 16.1149 126.589 16.0116C126.635 15.9082 126.657 15.7956 126.654 15.6823C126.657 15.5764 126.632 15.4715 126.582 15.378C126.532 15.2932 126.464 15.2208 126.382 15.1665C126.284 15.1014 126.177 15.0502 126.065 15.0143L125.643 14.8865L125.24 14.7769C125.017 14.7177 124.799 14.6377 124.591 14.538C124.412 14.4533 124.247 14.3426 124.1 14.2094C123.969 14.0879 123.866 13.9401 123.796 13.7757C123.722 13.5948 123.685 13.4006 123.69 13.2051C123.687 12.9884 123.734 12.7741 123.826 12.5781C123.915 12.3874 124.047 12.2197 124.211 12.0882C124.391 11.9435 124.598 11.8346 124.819 11.7671C125.077 11.6851 125.347 11.6455 125.618 11.6499C126.177 11.6499 126.619 11.7818 126.945 12.0456C127.107 12.1759 127.241 12.3373 127.34 12.5202C127.439 12.7031 127.5 12.9038 127.52 13.1107L126.608 13.1853C126.563 12.9758 126.446 12.7889 126.277 12.6573C126.072 12.5202 125.828 12.4539 125.582 12.4686C125.35 12.4549 125.12 12.5227 124.933 12.6603C124.858 12.7187 124.798 12.7939 124.757 12.8798C124.717 12.9656 124.697 13.0598 124.699 13.1548C124.695 13.2561 124.719 13.3565 124.767 13.4455C124.816 13.5276 124.883 13.5974 124.963 13.6494C125.061 13.713 125.166 13.7641 125.276 13.8016C125.4 13.8472 125.539 13.8959 125.694 13.9461L126.081 14.0663C126.321 14.1424 126.538 14.2215 126.733 14.3037C126.912 14.3799 127.078 14.4825 127.227 14.608C127.361 14.7215 127.467 14.8634 127.54 15.0235C127.618 15.2123 127.655 15.4156 127.649 15.6199C127.652 15.8588 127.6 16.0951 127.497 16.3108C127.398 16.518 127.254 16.7 127.075 16.8434C126.882 16.9958 126.663 17.1113 126.429 17.1842C126.162 17.2674 125.883 17.308 125.603 17.3044C125.109 17.3229 124.621 17.1856 124.208 16.9118C124.015 16.7723 123.854 16.5939 123.734 16.3882C123.615 16.1825 123.539 15.9539 123.513 15.7173L124.434 15.6367ZM131.495 11.6651C131.877 11.6602 132.257 11.7305 132.612 11.8721C132.936 12.0022 133.229 12.2004 133.471 12.4534C133.713 12.7113 133.901 13.0156 134.023 13.3481C134.156 13.7135 134.223 14.1002 134.219 14.4893C134.224 14.8856 134.153 15.2793 134.01 15.6489C133.877 15.9848 133.676 16.2894 133.419 16.5436L134.143 17.3912V17.6544H133.231L132.724 17.0351C132.541 17.1229 132.349 17.1913 132.151 17.239C131.938 17.2847 131.721 17.3071 131.502 17.306C131.116 17.3083 130.732 17.2338 130.375 17.0868C130.052 16.9559 129.761 16.7572 129.522 16.504C129.282 16.2473 129.098 15.9444 128.979 15.6139C128.848 15.252 128.783 14.8697 128.786 14.4848C128.782 14.0974 128.848 13.7125 128.979 13.3481C129.099 13.0164 129.285 12.7129 129.526 12.4564C129.767 12.2034 130.059 12.0042 130.382 11.8721C130.735 11.7288 131.114 11.6584 131.495 11.6651V11.6651ZM131.487 12.4807C131.236 12.4769 130.988 12.5288 130.759 12.6329C130.549 12.73 130.364 12.873 130.216 13.0514C130.063 13.2384 129.948 13.4534 129.876 13.6844C129.797 13.9416 129.758 14.2095 129.76 14.4787C129.758 14.7502 129.798 15.0204 129.881 15.2791C129.954 15.5122 130.071 15.7295 130.224 15.9197C130.371 16.1003 130.557 16.2458 130.767 16.3458C130.995 16.4506 131.244 16.5026 131.495 16.4979C131.746 16.5004 131.994 16.4485 132.223 16.3458C132.432 16.2508 132.618 16.1099 132.766 15.9334C132.921 15.7461 133.037 15.5299 133.109 15.2974C133.192 15.0325 133.233 14.7563 133.231 14.4787C133.233 14.2051 133.192 13.9329 133.109 13.6722C133.036 13.441 132.92 13.2261 132.766 13.0392C132.616 12.8627 132.43 12.7214 132.22 12.6253C131.989 12.5242 131.739 12.4748 131.487 12.4807V12.4807ZM137.801 16.536C137.97 16.5464 138.139 16.5196 138.297 16.4576C138.455 16.3956 138.597 16.2997 138.713 16.1769C138.929 15.9385 139.037 15.5723 139.037 15.0782V11.7701H139.984V15.1087C139.991 15.4507 139.94 15.7915 139.832 16.116C139.745 16.376 139.597 16.6116 139.402 16.8038C139.208 16.9876 138.973 17.1222 138.716 17.1964C138.12 17.3616 137.489 17.3616 136.892 17.1964C136.637 17.1221 136.403 16.9875 136.21 16.8038C136.015 16.6112 135.868 16.3757 135.78 16.116C135.672 15.7914 135.62 15.4507 135.628 15.1087V11.7701H136.578V15.0782C136.578 15.5713 136.686 15.9375 136.903 16.1769C137.018 16.2981 137.158 16.393 137.313 16.4549C137.468 16.5169 137.635 16.5446 137.801 16.536V16.536ZM140.932 16.9347L142.855 11.7762H144.281L146.183 16.9347V17.1933H145.248L144.704 15.6443H142.358L141.808 17.1933H140.926L140.932 16.9347ZM142.644 14.8348H144.433L144.138 13.9735C144.023 13.6372 143.93 13.3648 143.858 13.1503C143.787 12.9357 143.726 12.7531 143.67 12.5918H143.437L143.346 12.849C143.316 12.9342 143.282 13.0301 143.244 13.1351C143.206 13.2401 143.165 13.3618 143.12 13.4987C143.074 13.6357 143.019 13.7924 142.954 13.9735L142.644 14.8348ZM151.493 17.1933H150.581L148.929 15.063H148.321V17.1933H147.385V11.7701H149.144C149.407 11.7697 149.67 11.7885 149.931 11.8264C150.173 11.8616 150.404 11.9511 150.607 12.0882C151.035 12.3702 151.249 12.7952 151.249 13.3633C151.253 13.5835 151.215 13.8024 151.138 14.0085C151.072 14.182 150.973 14.3411 150.847 14.4772C150.727 14.605 150.586 14.7111 150.429 14.7906C150.273 14.8709 150.107 14.9317 149.935 14.9717L151.493 16.9347V17.1933ZM148.318 14.2474H149.14C149.439 14.2633 149.735 14.1947 149.996 14.0496C150.101 13.9792 150.186 13.8821 150.241 13.7681C150.296 13.6541 150.32 13.5275 150.309 13.4014C150.322 13.2761 150.299 13.1499 150.242 13.0374C150.186 12.9248 150.099 12.8305 149.992 12.7653C149.728 12.634 149.435 12.5722 149.14 12.5857H148.318V14.2474ZM152.7 11.7701H156.208V12.601H153.624V14.0207H156.023V14.8363H153.629V16.358H156.262V17.1933H152.7V11.7701ZM158.359 15.6367C158.403 15.8911 158.542 16.1195 158.747 16.2758C158.982 16.4387 159.265 16.5194 159.551 16.5056C159.823 16.5229 160.093 16.4425 160.311 16.2788C160.398 16.2064 160.467 16.1149 160.514 16.0116C160.56 15.9082 160.582 15.7956 160.578 15.6823C160.582 15.5764 160.557 15.4715 160.507 15.378C160.457 15.2932 160.388 15.2208 160.306 15.1665C160.209 15.1014 160.102 15.0502 159.99 15.0143L159.568 14.8865L159.16 14.7739C158.937 14.7147 158.72 14.6347 158.511 14.535C158.332 14.4503 158.167 14.3395 158.02 14.2063C157.89 14.0848 157.786 13.937 157.716 13.7726C157.641 13.5811 157.605 13.3765 157.61 13.1708C157.616 12.9651 157.662 12.7625 157.747 12.5751C157.836 12.3847 157.968 12.2171 158.131 12.0851C158.312 11.9405 158.518 11.8315 158.739 11.764C158.998 11.6821 159.268 11.6425 159.539 11.6469C160.097 11.6469 160.54 11.7788 160.867 12.0425C161.029 12.173 161.163 12.3344 161.261 12.5173C161.359 12.7002 161.42 12.9009 161.44 13.1077L160.528 13.1822C160.484 12.9732 160.368 12.7863 160.2 12.6542C159.995 12.517 159.751 12.4507 159.505 12.4655C159.273 12.4519 159.044 12.5197 158.856 12.6573C158.782 12.7158 158.722 12.7911 158.681 12.8769C158.641 12.9628 158.621 13.0569 158.624 13.1518C158.62 13.2529 158.643 13.3533 158.691 13.4424C158.74 13.5245 158.807 13.5943 158.887 13.6463C158.984 13.7099 159.09 13.761 159.2 13.7985C159.323 13.8442 159.463 13.8929 159.619 13.9431L160.004 14.0633C160.245 14.1394 160.462 14.2185 160.656 14.3007C160.835 14.3768 161.001 14.4794 161.15 14.605C161.284 14.7185 161.391 14.8604 161.463 15.0204C161.541 15.2093 161.579 15.4126 161.573 15.6169C161.575 15.8558 161.523 16.092 161.421 16.3077C161.322 16.5152 161.178 16.6974 160.998 16.8403C160.805 16.9915 160.586 17.106 160.352 17.1781C160.084 17.2613 159.805 17.3019 159.525 17.2983C159.03 17.3166 158.543 17.1793 158.13 16.9058C157.938 16.7666 157.778 16.589 157.659 16.3844C157.54 16.1798 157.465 15.9526 157.438 15.7173L158.359 15.6367ZM162.922 11.7701H164.898C165.211 11.762 165.524 11.8057 165.822 11.8995C166.05 11.9695 166.258 12.0908 166.43 12.254C166.582 12.402 166.696 12.5848 166.762 12.7866C166.832 12.9997 166.866 13.2228 166.864 13.447C166.87 13.6997 166.822 13.9507 166.724 14.1835C166.635 14.387 166.496 14.5649 166.321 14.7009C166.129 14.8431 165.911 14.9465 165.68 15.0052C165.401 15.0767 165.114 15.111 164.827 15.1071H163.869V17.1933H162.925L162.922 11.7701ZM163.866 14.2931H164.771C164.924 14.2942 165.076 14.2804 165.227 14.252C165.355 14.228 165.477 14.1811 165.588 14.1135C165.691 14.0494 165.774 13.959 165.83 13.8518C165.891 13.7259 165.921 13.587 165.917 13.447C165.921 13.3036 165.892 13.1612 165.83 13.0316C165.776 12.923 165.693 12.831 165.591 12.7653C165.482 12.6972 165.361 12.6503 165.234 12.6268C165.084 12.5981 164.931 12.5844 164.778 12.5857H163.859L163.866 14.2931ZM167.125 16.9347L169.049 11.7762H170.475L172.375 16.9347V17.1933H171.448L170.905 15.6443H168.551L168.008 17.1933H167.125V16.9347ZM168.838 14.8348H170.626L170.331 13.9735C170.215 13.6372 170.123 13.3648 170.053 13.1503L169.864 12.5918H169.624L169.533 12.849C169.502 12.9342 169.469 13.0301 169.431 13.1351C169.393 13.2401 169.352 13.3618 169.306 13.4987C169.261 13.6357 169.206 13.7924 169.141 13.9735L168.838 14.8348ZM178.124 15.7584C178.038 15.9706 177.926 16.171 177.789 16.3549C177.648 16.5434 177.478 16.7087 177.286 16.8449C177.078 16.9913 176.848 17.1033 176.604 17.1766C176.324 17.2606 176.033 17.3016 175.74 17.2983C175.363 17.3041 174.988 17.2321 174.64 17.0868C174.321 16.9535 174.033 16.7544 173.796 16.5025C173.558 16.2448 173.375 15.9415 173.257 15.6108C173.128 15.2511 173.064 14.8715 173.067 14.4893C173.063 14.1072 173.128 13.7275 173.257 13.3679C173.375 13.0357 173.56 12.7313 173.799 12.4731C174.038 12.2185 174.327 12.0164 174.648 11.8797C174.997 11.7325 175.373 11.6595 175.753 11.6651C176.28 11.6464 176.8 11.7915 177.242 12.0805C177.635 12.3484 177.932 12.7341 178.092 13.1822L177.133 13.3709C177.013 13.1074 176.824 12.8816 176.586 12.7181C176.333 12.5547 176.038 12.4719 175.737 12.4807C175.491 12.4754 175.247 12.5275 175.025 12.6329C174.82 12.7336 174.639 12.8786 174.497 13.0575C174.348 13.248 174.236 13.4655 174.169 13.6981C174.091 13.9541 174.053 14.2203 174.055 14.4878C174.053 14.7571 174.092 15.025 174.172 15.2821C174.243 15.5124 174.358 15.7268 174.511 15.9136C174.659 16.089 174.845 16.2298 175.053 16.326C175.281 16.4304 175.528 16.4824 175.778 16.4782C176.089 16.4907 176.395 16.4003 176.649 16.221C176.873 16.0567 177.056 15.842 177.181 15.5941L178.124 15.7584ZM179.399 11.7701H182.907V12.601H180.323V14.0207H182.726V14.8363H180.328V16.358H182.96V17.1933H179.399V11.7701Z" fill="white"/>
</g>
<path d="M137.229 91.155L131.054 65.6809L144.99 62.3026L148.099 75.1251C148.978 78.7545 147.076 82.4186 143.765 83.863L144.811 88.1784C147.368 87.5667 149.948 89.1459 150.564 91.7039C150.734 92.406 150.298 93.1126 149.596 93.2828L143.244 94.8226C140.57 95.4707 137.877 93.8287 137.229 91.155Z" fill="white"/>
<path d="M141.897 81.7302C144.553 81.0863 146.19 78.4005 145.546 75.7433L142.884 64.7628L134.053 66.9037L139.781 90.5358C140.087 91.7976 141.363 92.5756 142.625 92.2697L147.264 91.1451C146.762 90.7443 146.087 90.5711 145.416 90.7337L144.153 91.0398C143.448 91.2107 142.738 90.7777 142.568 90.0729L140.93 83.3158C140.759 82.6111 141.192 81.9011 141.897 81.7302Z" fill="#0F0F0F"/>
<path d="M105.836 58.4716L114.217 66.2085L123.888 67.8204L148.388 69.7546L158.059 65.5638L169.02 52.669L173.856 47.1887L180.948 39.1295L185.139 37.5176H197.389L196.744 31.0702L189.007 26.557L182.882 25.9123L177.079 28.1689L161.928 43.3203L159.027 43.965L153.224 41.7084L141.296 39.1295L133.237 40.4189L122.276 43.3203L114.862 47.8334L114.217 45.8992L106.48 31.3926L102.934 24.6228L102.289 51.7019L105.836 58.4716Z" fill="#0F0F0F" stroke="black"/>
<path d="M191.556 26.105L195.227 28.1105C197.554 29.3821 199 31.8198 199 34.4725V37.399C199 37.5865 198.974 37.7749 198.907 37.9502C198.677 38.5547 198.111 38.9025 197.518 38.8942L186.84 38.6963C184.092 38.6448 181.531 39.8369 179.801 41.9654L174.757 48.1681C174.25 48.7917 173.333 48.8862 172.709 48.379C172.086 47.872 171.991 46.9553 172.498 46.3317L177.542 40.1288C179.841 37.3013 183.257 35.7176 186.894 35.786L196.089 35.9563V34.4721C196.089 32.8848 195.224 31.4257 193.831 30.6649L190.16 28.6593C188.474 27.7383 186.568 27.2515 184.647 27.2515C181.587 27.2515 178.601 28.502 176.454 30.6825L161.631 45.7372C161.21 46.1648 160.569 46.2904 160.018 46.0527L154.45 43.6541C142.322 38.8104 128.696 40.3889 117.996 47.8787C116.523 48.9094 115.183 50.1178 114.005 51.4764L112.629 53.0645C112.341 53.3966 111.936 53.5667 111.528 53.5667C111.182 53.5667 110.834 53.444 110.555 53.1933C109.958 52.6566 109.94 51.7218 110.466 51.1152L113.072 48.1084L103.911 28.8907V47.516C103.911 56.9879 111.194 64.7893 120.455 65.6158L141.631 68.453H145.376C149.36 68.453 153.128 67.2757 156.361 65.0404L162.39 58.7646L170.005 49.3992C170.552 48.7274 171.573 48.6694 172.192 49.3167C172.703 49.8521 172.7 50.6996 172.233 51.274L166.795 57.9612L158.158 67.3312C156.398 68.5619 154.47 69.5281 152.443 70.2055L149.532 70.9654C148.167 71.2254 146.776 71.3634 145.376 71.3634H141.63L120.94 68.569C109.845 67.9732 101 58.7581 101 47.5154V22.513C101 21.8885 101.368 21.3012 101.956 21.0884C102.673 20.8288 103.45 21.1602 103.769 21.8293L105.276 24.9897L106.25 24.0152C106.829 23.4362 107.775 23.4469 108.34 24.0472C108.887 24.6271 108.83 25.5528 108.266 26.1163L106.605 27.7775L107.433 29.5149L108.53 28.4183C109.109 27.8393 110.054 27.85 110.619 28.4503C111.166 29.0303 111.109 29.9559 110.545 30.5194L108.762 32.3026L109.689 34.2455L110.859 33.0755C111.438 32.4964 112.383 32.5072 112.948 33.1074C113.495 33.6874 113.438 34.613 112.874 35.1765L111.017 37.0332L111.944 38.976L113.187 37.7326C113.766 37.1536 114.711 37.1643 115.277 37.7645C115.823 38.3445 115.766 39.2701 115.203 39.8337L113.273 41.7636L115.371 46.1639L115.697 45.9355L115.667 43.6377C115.656 42.834 116.299 42.1738 117.103 42.1631H117.122C117.917 42.1631 118.567 42.8022 118.577 43.5994L118.583 44.0222C119.141 43.6825 119.706 43.3609 120.276 43.0497L120.227 40.0524C120.213 39.2485 120.854 38.5864 121.658 38.5732C121.666 38.573 121.674 38.573 121.682 38.573C122.475 38.573 123.124 39.2089 123.137 40.0046L123.164 41.6101C124.045 41.2141 124.938 40.8531 125.84 40.5212L125.79 37.5232C125.777 36.7193 126.418 36.0572 127.222 36.044C128.023 36.0319 128.688 36.6716 128.701 37.4753L128.735 39.5749C129.671 39.3067 130.614 39.0684 131.564 38.8676L131.515 35.8734C131.502 35.0695 132.142 34.4075 132.946 34.3942C133.741 34.3833 134.412 35.0219 134.425 35.8256L134.467 38.3644C135.435 38.231 136.407 38.1326 137.382 38.0681L137.337 35.291C137.324 34.4871 137.964 33.825 138.768 33.8118C139.57 33.8057 140.234 34.4394 140.247 35.2431L140.292 37.9759C141.089 37.9795 141.888 38.0078 142.686 38.0578L143.295 35.5107C143.485 34.7147 144.295 34.2293 145.091 34.4446C145.861 34.6526 146.297 35.4715 146.112 36.2467L145.61 38.343C146.385 38.4471 147.158 38.574 147.928 38.7225L148.534 36.19C148.724 35.3953 149.531 34.9095 150.327 35.1231C151.099 35.3298 151.537 36.1493 151.351 36.9256L150.765 39.3731C151.715 39.6258 152.659 39.9158 153.596 40.2379L154.111 38.0836C154.301 37.2877 155.112 36.8021 155.908 37.0175C156.677 37.2257 157.113 38.0448 156.928 38.82L156.336 41.2968L158.652 42.2944L158.383 40.8826C158.23 40.0785 158.77 39.3029 159.585 39.1729C160.371 39.0473 161.104 39.6149 161.254 40.3977L161.505 41.7169L163.518 39.6727L162.274 38.4287C161.71 37.8652 161.653 36.9398 162.2 36.3598C162.765 35.7594 163.71 35.7486 164.289 36.3276L165.56 37.5984L167.221 35.9111L165.776 34.4666C165.213 33.9031 165.156 32.9776 165.702 32.3977C166.268 31.7972 167.213 31.7865 167.792 32.3655L169.263 33.8371L171.216 31.8535L169.712 30.3489C169.133 29.77 169.143 28.8249 169.744 28.2597C170.324 27.7132 171.25 27.7704 171.814 28.3339L173.259 29.779L174.38 28.6402C174.677 28.3393 174.988 28.0547 175.309 27.7825L174.381 25.8835C174.022 25.1479 174.339 24.2575 175.091 23.918C175.817 23.5895 176.674 23.9446 177.023 24.6606L177.734 26.1165C178.524 25.6856 179.354 25.3305 180.209 25.0524V22.8547C180.209 22.0359 180.885 21.3751 181.709 21.3998C182.506 21.4236 183.12 22.1185 183.12 22.9156V24.4256C183.626 24.3706 184.136 24.3408 184.647 24.3408C187.054 24.3408 189.443 24.951 191.556 26.105Z" fill="white"/>
<path d="M187.054 28.9575L185.113 27.9873C184.394 27.6276 183.52 27.9191 183.16 28.6381C182.801 29.357 183.092 30.2313 183.811 30.5906L185.752 31.5608C185.961 31.6654 186.183 31.7147 186.402 31.7147C186.935 31.7147 187.45 31.4198 187.704 30.9101C188.064 30.1911 187.773 29.3168 187.054 28.9575Z" fill="white"/>
<path d="M119.997 49.9388C119.559 49.2646 118.658 49.0732 117.984 49.5112C116.799 50.2806 116.143 50.8037 116.115 50.8256C115.488 51.3272 115.386 52.2416 115.887 52.8694C116.175 53.2295 116.598 53.4166 117.026 53.4166C117.344 53.4166 117.664 53.3129 117.932 53.0995C117.938 53.0951 118.518 52.6351 119.569 51.952C120.243 51.5144 120.435 50.6131 119.997 49.9388Z" fill="white"/>
<path d="M153.424 44.5304C152.725 44.2948 152.012 44.077 151.306 43.8825C150.53 43.6689 149.73 44.1244 149.516 44.8994C149.303 45.6743 149.758 46.4757 150.533 46.6891C151.187 46.8692 151.847 47.0711 152.496 47.2894C152.65 47.3412 152.806 47.3657 152.96 47.3657C153.568 47.3657 154.135 46.9819 154.34 46.374C154.596 45.612 154.186 44.7867 153.424 44.5304Z" fill="white"/>
<path d="M144.367 42.6393C143.633 42.5769 142.888 42.535 142.152 42.5151C141.35 42.4948 140.679 43.127 140.658 43.9305C140.636 44.7341 141.27 45.403 142.073 45.4248C142.754 45.4432 143.442 45.4819 144.12 45.5395C144.162 45.5431 144.204 45.5449 144.245 45.5449C144.993 45.5449 145.629 44.9718 145.694 44.2129C145.762 43.412 145.168 42.7074 144.367 42.6393Z" fill="white"/>
<path d="M128.093 46.1822C127.804 45.4317 126.963 45.0566 126.212 45.345C125.532 45.6061 124.846 45.889 124.172 46.1857C123.437 46.5095 123.103 47.3686 123.427 48.1044C123.667 48.6493 124.2 48.9735 124.76 48.9735C124.956 48.9735 125.155 48.9337 125.346 48.8495C125.977 48.5718 126.619 48.3069 127.255 48.0626C128.006 47.7746 128.381 46.9327 128.093 46.1822Z" fill="white"/>
<path d="M136.782 44.1794C136.66 43.3848 135.917 42.8405 135.123 42.9614C134.4 43.0723 133.667 43.2047 132.945 43.3553C132.158 43.5196 131.653 44.2904 131.817 45.0772C131.96 45.764 132.565 46.2358 133.241 46.2358C133.339 46.2358 133.439 46.2257 133.539 46.2048C134.211 46.0647 134.892 45.9416 135.563 45.8387C136.358 45.7169 136.904 44.9739 136.782 44.1794Z" fill="white"/>
<path d="M119.566 62.6296L124.997 57.186L136.417 65.5252L134.62 74.0417L133.706 76.8141L131.331 80.2665L126.316 82.1739L122.829 83.0857L121.382 88.3814L122.511 89.2784L124.519 90.6905L125.066 92.7826L123.987 93.2139L118.625 92.0828L116.234 90.9196L116.003 88.894L116.535 86.3706L117.284 81.2572L119.162 77.0408L123.23 74.9338L122.999 72.9082L119.448 67.8761L119.566 62.6296Z" fill="#0F0F0F"/>
<path d="M136.793 64.5079C137.506 64.6807 137.928 65.4238 137.776 66.1421L137.28 68.4962L136.726 71.119L135.924 74.92C135.434 77.2463 134.254 79.2533 132.646 80.7758L129.457 82.9057C127.744 83.6695 125.83 84.0159 123.87 83.8396L122.942 88.2392C125.567 88.8003 127.249 91.3909 126.691 94.0188C126.538 94.74 125.826 95.1991 125.104 95.0469L118.575 93.6697C115.828 93.0902 114.07 90.393 114.65 87.6454L116.442 79.1501C116.807 77.4183 117.966 75.9593 119.571 75.2126L122.162 74.0064L121.338 73.2048C119.509 71.426 118.418 69.0826 118.202 66.6102C118.135 66.2049 118.066 65.0867 118.325 63.8566C118.332 63.8195 118.338 63.7823 118.345 63.745C118.998 60.2796 121.328 57.3934 124.578 56.0242C125.279 55.7296 126.087 56.0741 126.355 56.7927C126.607 57.4675 126.249 58.2264 125.586 58.5089C122.995 59.6144 121.196 62.0186 120.888 64.8568C120.625 67.2764 121.553 69.6744 123.298 71.3712L125.426 73.4406C125.841 73.8438 125.961 74.4811 125.679 75.0259C125.539 75.2965 125.301 75.5036 125.025 75.632L120.702 77.6437C119.867 78.0322 119.255 78.8024 119.065 79.7035L117.273 88.1992C116.999 89.4978 117.83 90.7726 119.129 91.0465L123.898 92.0525C123.612 91.4623 123.066 91.0054 122.376 90.8599L121.077 90.5859C120.353 90.4331 119.89 89.7219 120.042 88.9976L121.507 82.0521C121.659 81.3357 122.359 80.8599 123.075 81.0127C127.729 82.0061 132.319 79.0212 133.301 74.3672L135.164 65.5339C135.32 64.7959 136.055 64.3289 136.793 64.5079Z" fill="white"/>
<path d="M162.349 62.8747L154.542 57.6126L154.483 52.209L156.63 51.5127L160.699 52.5649L166.252 59.236L167.181 57.9182L170.661 56.1112C171.136 56.183 172.209 56.2868 172.7 56.1276C173.191 55.9685 175.728 59.89 176.936 61.8707L176.107 63.4952L174.375 63.3793L171.026 61.4153L168.457 63.9433L165.698 64.8386L162.349 62.8747Z" fill="#0F0F0F"/>
<path d="M172.156 54.6941C172.549 54.7603 172.928 54.8801 173.284 55.0457C173.943 55.2772 174.896 56.367 175.289 56.8829L177.801 60.6988C178.528 61.8036 178.401 63.1871 177.485 64.1412C177.149 64.4908 176.751 64.7369 176.326 64.8748C175.591 65.1132 174.776 65.0283 174.058 64.5962L171.22 62.8886L169.334 64.9485C168.098 66.2987 166.117 66.5573 164.578 65.5896L161.833 63.7501L153.706 58.285C153.078 57.8629 152.92 57.0039 153.364 56.3847C153.793 55.7863 154.642 55.6738 155.253 56.0847L165.978 63.2967C166.416 63.5912 166.993 63.5227 167.35 63.1329L169.978 60.2617C170.41 59.7893 171.115 59.6875 171.663 60.0173L175.444 62.2919C175.477 62.3117 175.493 62.3135 175.493 62.3135C175.522 62.3098 175.575 62.2538 175.578 62.2239C175.578 62.2239 175.574 62.2085 175.554 62.1774L172.905 58.1518C172.64 57.7492 172.233 57.4492 171.76 57.3558C171.26 57.2572 170.761 57.3741 170.359 57.6824L166.933 60.3124C166.354 60.7574 165.523 60.6576 165.066 60.0869L160.83 54.8057C159.442 53.0745 157.11 52.4176 155.02 53.1707C154.275 53.4369 153.448 53.01 153.256 52.2172C153.092 51.5398 153.505 50.8531 154.162 50.6214C157.319 49.508 160.833 50.51 162.929 53.123L166.34 57.3771L168.722 55.5486C169.695 54.8017 170.947 54.4902 172.156 54.6941Z" fill="white"/>
<defs>
<clipPath id="clip0_766_1078">
<rect width="76" height="11" fill="white" transform="translate(7 9)"/>
</clipPath>
<clipPath id="clip1_766_1078">
<rect width="76" height="11" fill="white" transform="translate(107 9)"/>
</clipPath>
</defs>
</svg>
