<svg width="99" height="99" viewBox="0 0 99 99" fill="none" xmlns="http://www.w3.org/2000/svg">
<path d="M95.1877 18.1779L91.4795 16.1519C89.3456 14.9861 86.9323 14.3697 84.5006 14.3697C83.9835 14.3697 83.4688 14.3999 82.9576 14.4554V12.93C82.9576 12.1248 82.3371 11.4227 81.5323 11.3987C80.6997 11.3738 80.017 12.0413 80.017 12.8685V15.0886C79.1528 15.3696 78.3152 15.7282 77.5172 16.1635L76.7989 14.6928C76.4456 13.9694 75.5799 13.6108 74.8463 13.9426C74.0872 14.2856 73.7668 15.1851 74.1295 15.9282L75.0666 17.8465C74.7425 18.1215 74.4281 18.409 74.1286 18.7129L72.9957 19.8634L71.5358 18.4036C70.9666 17.8343 70.0313 17.7765 69.445 18.3285C68.8385 18.8995 68.8276 19.8543 69.4125 20.4391L70.9323 21.9591L68.9595 23.9628L67.473 22.4763C66.8884 21.8914 65.9334 21.9022 65.3622 22.5088C64.8104 23.0947 64.868 24.0296 65.4371 24.5988L66.8965 26.0581L65.2182 27.7625L63.9345 26.4788C63.35 25.8939 62.3949 25.9047 61.8238 26.5113C61.2719 27.0972 61.3295 28.0321 61.8986 28.6013L63.1552 29.858L61.1219 31.9231L60.8682 30.5904C60.7176 29.7996 59.977 29.2263 59.1821 29.3531C58.3595 29.4844 57.8135 30.2679 57.9682 31.0802L58.2397 32.5064L55.9004 31.4986L56.4986 28.9966C56.6858 28.2135 56.2453 27.3861 55.468 27.1757C54.6639 26.9582 53.845 27.4487 53.6532 28.2527L53.1326 30.429C52.1858 30.1035 51.2323 29.8106 50.2731 29.5554L50.8645 27.0829C51.0521 26.2986 50.6097 25.4709 49.8306 25.262C49.0261 25.0462 48.2107 25.537 48.0189 26.3398L47.4071 28.8981C46.6284 28.7481 45.8476 28.6199 45.0653 28.5147L45.5717 26.397C45.7589 25.6139 45.3184 24.7867 44.5411 24.5766C43.7369 24.359 42.918 24.8494 42.726 25.6536L42.111 28.2266C41.3049 28.1761 40.4984 28.1475 39.6926 28.1439L39.6474 25.3833C39.6342 24.5713 38.9639 23.9311 38.1531 23.9373C37.3412 23.9507 36.694 24.6195 36.7072 25.4316L36.753 28.2371C35.768 28.3022 34.7859 28.4016 33.8083 28.5364L33.7664 25.9717C33.753 25.1597 33.0747 24.5147 32.2721 24.5257C31.4602 24.5391 30.813 25.2079 30.8261 26.02L30.8756 29.0447C29.916 29.2475 28.9635 29.4883 28.0184 29.7592L27.9836 27.6382C27.9704 26.8263 27.2985 26.1801 26.4893 26.1923C25.6774 26.2056 25.0302 26.8744 25.0433 27.6866L25.093 30.7151C24.1821 31.0504 23.2799 31.4151 22.3897 31.8152L22.363 30.1933C22.3498 29.3895 21.6942 28.7471 20.8934 28.7471C20.8851 28.7471 20.877 28.7471 20.8687 28.7473C20.0568 28.7607 19.4094 29.4295 19.4228 30.2416L19.4726 33.2694C18.897 33.5838 18.3258 33.9087 17.7622 34.2519L17.7566 33.8248C17.7459 33.0194 17.0899 32.3738 16.2869 32.3738C16.2805 32.3738 16.2737 32.3738 16.2669 32.3738C15.455 32.3846 14.8057 33.0515 14.8164 33.8634L14.8469 36.1847L14.5172 36.4154L12.398 31.9702L14.3477 30.0206C14.9169 29.4513 14.9743 28.5163 14.4223 27.9304C13.8511 27.324 12.8963 27.3132 12.3114 27.8981L11.0553 29.1542L10.1197 27.1916L11.9954 25.316C12.5647 24.7467 12.6221 23.8116 12.0701 23.2258C11.4989 22.6194 10.5441 22.6086 9.95917 23.1935L8.77716 24.3755L7.8415 22.4127L9.64283 20.6113C10.2121 20.0421 10.2695 19.107 9.71747 18.5211C9.14629 17.9148 8.19148 17.9039 7.60657 18.4888L6.49881 19.5966L5.66214 17.8415L7.34031 16.1633C7.90956 15.5941 7.96699 14.659 7.41495 14.0731C6.84376 13.4667 5.88895 13.4559 5.30404 14.0408L4.31965 15.0252L2.79752 11.8326C2.47539 11.1567 1.68996 10.8219 0.965637 11.0841C0.372023 11.2992 0 11.8924 0 12.5233V37.7807C0 49.138 8.93475 58.4471 20.1434 59.0491C20.9352 61.6534 22.6364 63.9213 25.0025 65.4164L26.0683 66.09L23.5603 67.9712C22.0072 69.1358 21.0934 70.9641 21.0934 72.9052V82.4279C21.0934 85.5078 23.5902 88.0044 26.6699 88.0044H33.9885C34.7972 88.0044 35.4577 87.3505 35.4588 86.5419C35.4629 83.5953 33.071 81.1959 30.1271 81.1879V76.2563C32.2701 76.0018 34.2459 75.1967 35.9117 73.989V82.4285C35.9117 85.5085 38.4085 88.0052 41.4883 88.0052H48.8076C49.6162 88.0052 50.2767 87.3513 50.2779 86.5424C50.282 83.5958 47.8899 81.1962 44.946 81.1883V76.2169C48.9091 75.5221 51.9354 72.0695 51.9669 67.9167C51.9727 67.1547 51.422 66.4739 50.6648 66.3901C49.7775 66.2919 49.0267 66.9838 49.0267 67.851C49.0267 70.9142 46.5343 73.406 43.4713 73.4037C42.6609 73.4031 42.0054 74.0636 42.0054 74.874V82.6584C42.0054 83.4703 42.6638 84.1287 43.4757 84.1287H44.9315C45.7049 84.1287 46.3943 84.4955 46.8347 85.0644H41.4885C40.0325 85.0644 38.8525 83.8841 38.8525 82.4283V70.9815C40.2336 68.9835 41.0448 66.5628 41.0448 63.9556V61.8719H44.8284C46.2431 61.8719 47.6482 61.7325 49.027 61.4699V62.8886C49.027 63.6937 49.6475 64.3958 50.4523 64.4198C51.2849 64.4448 51.9677 63.7773 51.9677 62.9501V60.7023C54.0155 60.018 55.9627 59.0419 57.7408 57.7986L58.9296 59.3143C59.3787 59.8869 60.1789 60.0451 60.8119 59.6858L65.4359 57.0633L67.8115 59.7968C68.4127 60.4882 69.2323 60.8519 70.0767 60.8519C70.5652 60.8519 71.0619 60.7301 71.5292 60.4799C72.8041 59.7968 73.4029 58.4009 73.0195 57.006L71.6064 51.8683C71.251 50.5751 70.3648 49.4776 69.1759 48.8573C68.3384 48.4205 67.3933 48.2439 66.4661 48.3331L71.9593 41.5777C72.4311 40.9974 72.4346 40.1412 71.9179 39.6004C71.2933 38.9465 70.261 39.005 69.7092 39.6837L62.0162 49.1446L60.1083 44.1093C58.8033 40.6652 55.4551 38.4298 51.7716 38.5514C50.9601 38.5779 50.3235 39.2574 50.3498 40.0687C50.3761 40.8804 51.0643 41.5131 51.8671 41.4905C54.2986 41.4118 56.4986 42.8827 57.3583 45.1514L59.981 52.073C60.2645 52.821 61.0946 53.2052 61.8475 52.9377L62.6622 52.6489C62.6664 52.6473 62.6709 52.6458 62.6751 52.6442L66.2416 51.3787C66.738 51.2027 67.2902 51.2089 67.7642 51.4388C68.2651 51.6821 68.624 52.1138 68.771 52.6483L70.184 57.786C70.1949 57.8255 70.1927 57.8423 70.1929 57.8423C70.1806 57.8727 70.1055 57.9123 70.0744 57.9071C70.0742 57.9071 70.0587 57.8999 70.0313 57.8682L66.8666 54.2269C66.4077 53.699 65.6397 53.5669 65.0314 53.9125L60.4623 56.5039L51.0881 44.5517C50.5871 43.9127 49.6628 43.8011 49.0238 44.3021C48.3849 44.8031 48.2731 45.7276 48.7743 46.3664L55.9257 55.4845C52.6595 57.7425 48.8532 58.9319 44.8288 58.9319H41.0452V54.1159C41.0452 53.3107 40.4247 52.6086 39.6199 52.5847C38.7873 52.5597 38.1046 53.2272 38.1046 54.0544V63.9559C38.1046 69.1728 33.8539 73.4153 28.6344 73.4027C27.8314 73.4008 27.1873 74.07 27.1873 74.873V82.6584C27.1873 83.4703 27.8457 84.1287 28.6576 84.1287H30.1132C30.8865 84.1287 31.5758 84.4955 32.0164 85.0642H26.6706C25.2148 85.0642 24.0348 83.8841 24.0348 82.4283V72.9054C24.0348 71.8953 24.5172 70.93 25.3254 70.3242L29.5086 67.1868C29.7758 66.9863 29.9848 66.71 30.0736 66.3878C30.2524 65.7393 29.9796 65.0828 29.4432 64.7439L26.5743 62.9309C24.1405 61.393 22.6505 58.7567 22.5886 55.8784C22.5269 53.0116 23.8909 50.3233 26.2387 48.6804C26.8845 48.2285 27.0931 47.3328 26.6714 46.6671C26.2211 45.9565 25.2752 45.7701 24.5905 46.2448C21.4126 48.4499 19.5653 52.0748 19.6486 55.9416C19.6496 55.983 19.6519 56.0241 19.653 56.0657C10.2981 55.2308 2.94022 47.3499 2.94022 37.7813V18.966L12.195 38.3797L9.56259 41.4172C9.03124 42.03 9.0498 42.9743 9.65269 43.5165C9.93442 43.7698 10.2858 43.8937 10.6355 43.8937C11.0472 43.8937 11.4565 43.7219 11.7474 43.3864L13.1378 41.7821C14.3274 40.4096 15.6814 39.1889 17.1693 38.1477C27.9781 30.5815 41.7438 28.9869 53.9954 33.8801L59.6197 36.303C60.1767 36.5432 60.8237 36.4163 61.2493 35.9844L76.2234 20.7761C78.3921 18.5733 81.4091 17.3101 84.5002 17.3101C86.4405 17.3101 88.3664 17.8018 90.0693 18.7323L93.7776 20.7583C95.185 21.5269 96.059 23.0009 96.059 24.6044V26.1037L86.77 25.9316C83.0958 25.8626 79.6457 27.4625 77.3229 30.3188L72.2277 36.585C71.7154 37.2149 71.811 38.1409 72.4409 38.6531C73.0709 39.1655 73.9971 39.07 74.5093 38.44L79.6045 32.174C81.3529 30.0239 83.94 28.8196 86.7157 28.8717L97.5021 29.0716C98.1015 29.0799 98.6732 28.7286 98.906 28.1179C98.9735 27.9408 98.9996 27.7506 98.9996 27.5611V24.6048C99 21.925 97.5394 19.4624 95.1877 18.1779Z" fill="white"/>
<path d="M86.9315 19.0335L84.9712 18.0534C84.2447 17.6901 83.3615 17.9846 82.9985 18.7108C82.6352 19.4371 82.9297 20.3203 83.656 20.6833L85.6162 21.6634C85.8274 21.769 86.0519 21.8189 86.2727 21.8189C86.812 21.8189 87.3313 21.5209 87.5889 21.006C87.9522 20.2797 87.6577 19.3965 86.9315 19.0335Z" fill="white"/>
<path d="M19.1909 40.2288C18.7483 39.5478 17.8378 39.3544 17.157 39.7968C15.9601 40.5741 15.297 41.1026 15.2692 41.1246C14.6358 41.6314 14.5331 42.5551 15.0393 43.1893C15.3293 43.553 15.7574 43.7421 16.1892 43.7421C16.5106 43.7421 16.8342 43.6373 17.105 43.4217C17.1106 43.4173 17.6964 42.9527 18.7586 42.2626C19.4396 41.8205 19.6331 40.91 19.1909 40.2288Z" fill="white"/>
<path d="M52.9588 34.7652C52.2521 34.5272 51.532 34.3072 50.8189 34.1107C50.0354 33.8949 49.2266 34.3551 49.011 35.138C48.7954 35.9208 49.2552 36.7304 50.0381 36.946C50.699 37.1279 51.3661 37.3319 52.0212 37.5523C52.1767 37.6047 52.3348 37.6295 52.4903 37.6295C53.1042 37.6295 53.677 37.2418 53.8837 36.6277C54.1424 35.8579 53.7286 35.0242 52.9588 34.7652Z" fill="white"/>
<path d="M43.8094 32.8549C43.0681 32.7918 42.3154 32.7495 41.5717 32.7294C40.7615 32.7089 40.0842 33.3475 40.0621 34.1593C40.0401 34.971 40.6803 35.6468 41.492 35.6688C42.1794 35.6874 42.8749 35.7264 43.5596 35.7846C43.6022 35.7883 43.6443 35.79 43.6863 35.79C44.4417 35.79 45.0843 35.2111 45.1496 34.4445C45.2185 33.6354 44.6185 32.9237 43.8094 32.8549Z" fill="white"/>
<path d="M27.3689 36.4339C27.0777 35.6758 26.228 35.2968 25.4693 35.5882C24.7823 35.8519 24.0889 36.1377 23.4087 36.4374C22.6654 36.7646 22.3286 37.6324 22.6559 38.3756C22.8982 38.9261 23.4369 39.2537 24.0021 39.2537C24.2001 39.2537 24.4012 39.2135 24.5942 39.1284C25.2313 38.8478 25.8804 38.5802 26.5233 38.3335C27.2813 38.0425 27.6601 37.1921 27.3689 36.4339Z" fill="white"/>
<path d="M36.1466 34.4106C36.0234 33.608 35.273 33.0581 34.4708 33.1803C33.7406 33.2922 33.0006 33.426 32.2709 33.5782C31.476 33.7441 30.9661 34.5228 31.1316 35.3177C31.2763 36.0114 31.8875 36.4881 32.5695 36.4881C32.669 36.4881 32.77 36.4778 32.8711 36.4568C33.5496 36.3152 34.2376 36.1909 34.9159 36.0869C35.7189 35.9639 36.2698 35.2133 36.1466 34.4106Z" fill="white"/>
</svg>
