<svg width="308" height="308" viewBox="0 0 308 308" fill="none" xmlns="http://www.w3.org/2000/svg">
<path d="M77.3021 307V153.5" stroke="#181A1B"/>
<path d="M230.802 307V153.5" stroke="#181A1B"/>
<path d="M230.802 153.5V0" stroke="#181A1B"/>
<path d="M77.3021 153.5V0" stroke="#181A1B"/>
<path d="M77.3021 307V153.5" stroke="#181A1B" stroke-width="3"/>
<path d="M230.802 307V153.5" stroke="#181A1B" stroke-width="3"/>
<path d="M230.802 153.5V0" stroke="#181A1B" stroke-width="3"/>
<path d="M77.3021 153.5V0" stroke="#181A1B" stroke-width="3"/>
<path d="M153.5 307V153.5" stroke="#181A1B"/>
<path d="M307 307V153.5" stroke="#181A1B"/>
<path d="M307 153.5V0" stroke="#181A1B"/>
<path d="M153.5 153.5V0" stroke="#181A1B"/>
<path d="M153.5 153.5L0 153.5" stroke="#181A1B"/>
<path d="M307 153.5L153.5 153.5" stroke="#181A1B"/>
<path d="M307 -6.7097e-06L153.5 0" stroke="#181A1B"/>
<path d="M153.5 -6.7097e-06L0 0" stroke="#181A1B"/>
<path d="M38.6511 307V153.5" stroke="#181A1B"/>
<path d="M192.151 307V153.5" stroke="#181A1B"/>
<path d="M192.151 153.5V0" stroke="#181A1B"/>
<path d="M38.6511 153.5V0" stroke="#181A1B"/>
<path d="M153.5 268.349L0 268.349" stroke="#181A1B"/>
<path d="M307 268.349L153.5 268.349" stroke="#181A1B"/>
<path d="M307 114.849L153.5 114.849" stroke="#181A1B"/>
<path d="M153.5 114.849L0 114.849" stroke="#181A1B"/>
<path d="M114.849 307V153.5" stroke="#181A1B"/>
<path d="M268.349 307V153.5" stroke="#181A1B"/>
<path d="M268.349 153.5V0" stroke="#181A1B"/>
<path d="M114.849 153.5V0" stroke="#181A1B"/>
<path d="M153.5 192.151L0 192.151" stroke="#181A1B"/>
<path d="M307 192.151L153.5 192.151" stroke="#181A1B"/>
<path d="M307 38.6511L153.5 38.6511" stroke="#181A1B"/>
<path d="M153.5 38.6511L0 38.6511" stroke="#181A1B"/>
<path d="M0 307V153.5" stroke="#181A1B"/>
<path d="M153.5 307V153.5" stroke="#181A1B"/>
<path d="M153.5 153.5V0" stroke="#181A1B"/>
<path d="M0 153.5V0" stroke="#181A1B"/>
<path d="M153.5 307L0 307" stroke="#181A1B"/>
<path d="M307 307L153.5 307" stroke="#181A1B"/>
<path d="M307 153.5L153.5 153.5" stroke="#181A1B"/>
<path d="M153.5 153.5L0 153.5" stroke="#181A1B"/>
<path d="M153.5 230.802H0" stroke="#181A1B"/>
<path d="M307 230.802H153.5" stroke="#181A1B"/>
<path d="M307 77.3022L153.5 77.3022" stroke="#181A1B"/>
<path d="M153.5 77.3022L0 77.3022" stroke="#181A1B"/>
<path d="M153.5 230.802H0" stroke="#181A1B" stroke-width="3"/>
<path d="M307 230.802H153.5" stroke="#181A1B" stroke-width="3"/>
<path d="M307 77.3022L153.5 77.3022" stroke="#181A1B" stroke-width="3"/>
<path d="M153.5 77.3022L0 77.3022" stroke="#181A1B" stroke-width="3"/>
</svg>
