<svg width="72" height="58" viewBox="0 0 72 58" fill="none" xmlns="http://www.w3.org/2000/svg">
<path d="M44.7896 30.6898C45.6446 23.9537 45.2797 15.3808 44.2249 10.3668C38.4757 9.74031 23.5169 9.64921 20.2249 10.1475C20.0856 10.1686 19.9566 10.1836 19.7705 10.2025C19.1808 10.2623 19.0221 10.2871 18.8423 10.3495C18.6748 10.4077 18.5965 10.4721 18.4855 10.6852C18.2122 11.2099 18.0519 12.1791 18.117 13.6773C18.1538 14.524 17.7545 15.3306 17.0588 15.8146C15.4794 16.9134 15.2631 18.0046 15.9295 20.2899C16.3224 21.6369 15.5174 23.0281 14.1796 23.3751C14.149 23.4066 14.1097 23.4532 14.0653 23.515C13.8614 23.7989 13.6741 24.2344 13.5605 24.7225C13.3539 25.6107 13.467 26.3191 13.5233 26.3676C14.6313 27.3215 14.6743 29.0231 13.6159 30.0317C13.3638 30.272 12.9464 31.3743 12.9457 32.1893C12.9444 33.7198 13.2799 34.1505 14.7408 34.3968C15.8911 34.5908 17.2107 34.7158 18.6642 34.7762C21.0887 34.877 23.7122 34.7957 26.2766 34.598C26.9032 34.5496 27.4757 34.498 27.9814 34.4465C28.2803 34.416 28.4873 34.3928 28.5895 34.3804C29.5823 34.26 30.5499 34.7493 31.0412 35.6204C31.1907 35.8855 31.2934 36.1807 31.3583 36.511C31.6177 37.8292 31.3444 40.185 30.2915 44.2338C29.3909 47.6966 31.8026 51.1688 34.6853 52.4638C34.7889 52.5104 34.864 52.5399 34.9243 52.553C34.8938 51.6982 34.8798 50.8361 34.8902 50.0188C34.8998 49.2639 34.9301 48.5842 34.9859 47.9904C35.3313 44.3177 36.0279 42.1969 38.1176 38.169C38.8782 36.7096 40.0195 35.2391 41.4449 33.756C42.307 32.859 43.2231 32.0103 44.139 31.2314C44.3794 31.027 44.5978 30.8458 44.7896 30.6898ZM46.2669 35.953C45.8366 36.3511 45.4146 36.7629 45.0106 37.1831C43.8836 38.3558 43.0121 39.4788 42.4972 40.4667C40.6915 43.9473 40.1901 45.4737 39.9099 48.4534C39.8682 48.8973 39.8436 49.45 39.8355 50.0818C39.8254 50.8764 39.8415 51.739 39.8748 52.5902C39.8906 52.9948 39.9062 53.301 39.9163 53.4668C39.9463 53.9637 39.8257 54.4581 39.5702 54.8853C39.3389 55.2721 38.9726 55.7378 38.4385 56.1972C36.9102 57.5114 34.8565 57.9626 32.6585 56.9752C27.8063 54.7953 23.898 49.1684 25.505 42.9891C25.8612 41.6193 26.1138 40.4812 26.2768 39.5575C23.6544 39.7482 20.9824 39.8226 18.4588 39.7177C16.8117 39.6492 15.2911 39.5051 13.9184 39.2737C9.98985 38.6112 7.99665 36.0527 8 32.185C8.00116 30.8522 8.36907 29.3956 8.96842 28.1948C7.92209 25.5302 8.732 21.7872 10.7602 19.8151C10.319 16.9697 10.9753 14.5687 13.1653 12.5978C13.277 8.85828 14.6817 6.55905 17.2196 5.67758C17.6156 5.54005 18.012 5.44733 18.4347 5.38154C18.6984 5.34049 18.7307 5.33693 19.2713 5.28208C19.3825 5.2708 19.4456 5.26345 19.4847 5.25754C23.1064 4.70932 37.3888 4.76513 44.1505 5.39795C44.3806 5.16764 44.6601 4.9794 44.981 4.85108C50.4686 2.65668 52.4165 2.48123 61.1474 3.56079C62.1164 3.6806 62.9242 4.35932 63.2092 5.29315C65.7238 13.533 65.4094 22.5632 63.3882 34.6639C63.1474 36.1057 61.7152 37.0251 60.3041 36.6438C55.8969 35.4529 53.0245 35.3498 47.1191 36.005C46.823 36.0378 46.5363 36.0177 46.2669 35.953ZM58.9256 31.2358C60.3288 21.9097 60.5106 14.6343 58.906 8.27158C53.5764 7.64703 51.755 7.67678 48.9029 8.65483C50.1821 14.1651 50.6324 23.3366 49.7596 30.7892C53.305 30.5296 55.959 30.6432 58.9256 31.2358ZM54.6025 10.2087C56.1966 10.2087 57.4257 11.0866 57.5815 13.1219C57.7372 15.1572 55.9737 16.0436 54.3349 16.0436C52.696 16.0436 51.9308 14.8132 51.6466 13.1219C51.3625 11.4305 53.0083 10.2087 54.6025 10.2087Z" fill="#CE4D45"/>
</svg>
