<svg width="123" height="28" viewBox="0 0 123 28" fill="none" xmlns="http://www.w3.org/2000/svg">
<g clip-path="url(#clip0_73_3690)">
<path d="M61.6316 7C56.8508 7 53.4036 10.15 53.4036 14.875C53.4036 19.6 57.2795 22.75 62.0648 22.75C64.953 22.75 67.4995 21.595 69.0757 19.6481L65.7629 17.7144C64.8882 18.6813 63.5587 19.2456 62.0648 19.2456C59.9903 19.2456 58.2279 18.1519 57.5739 16.4019H69.7081C69.8032 15.9119 69.8597 15.4044 69.8597 14.8706C69.8597 10.15 66.4169 7 61.6316 7ZM57.5392 13.3437C58.0805 11.5981 59.5616 10.5 61.6316 10.5C63.7058 10.5 65.1869 11.5981 65.7241 13.3437H57.5392ZM56.5606 2.1875L44.5607 23.1875L32.5567 2.1875H37.056L44.5566 15.3125L52.0569 2.1875H56.5606ZM16.0012 0L32.0024 28H0L16.0012 0ZM87.2682 14.875C87.2682 17.5 88.9657 19.25 91.5987 19.25C93.383 19.25 94.7211 18.4319 95.4095 17.0975L98.7353 19.0356C97.3582 21.3544 94.7773 22.75 91.5987 22.75C86.8134 22.75 83.3709 19.6 83.3709 14.875C83.3709 10.15 86.8178 7 91.5987 7C94.7773 7 97.354 8.39563 98.7353 10.7144L95.4095 12.6525C94.7211 11.3181 93.383 10.5 91.5987 10.5C88.9702 10.5 87.2682 12.25 87.2682 14.875ZM122.986 2.1875V22.3125H119.089V2.1875H122.986ZM108.262 7C103.482 7 100.035 10.15 100.035 14.875C100.035 19.6 103.915 22.75 108.696 22.75C111.584 22.75 114.13 21.595 115.706 19.6481L112.394 17.7144C111.519 18.6813 110.189 19.2456 108.696 19.2456C106.621 19.2456 104.859 18.1519 104.205 16.4019H116.339C116.434 15.9119 116.49 15.4044 116.49 14.8706C116.49 10.15 113.048 7 108.262 7ZM104.17 13.3437C104.712 11.5981 106.188 10.5 108.262 10.5C110.337 10.5 111.818 11.5981 112.355 13.3437H104.17ZM82.0716 7.4375V11.6769C81.6387 11.55 81.1794 11.4625 80.6858 11.4625C78.1698 11.4625 76.3553 13.2125 76.3553 15.8375V22.3125H72.458V7.4375H76.3553V11.4625C76.3553 9.24 78.9145 7.4375 82.0716 7.4375Z" fill="white"/>
</g>
<defs>
<clipPath id="clip0_73_3690">
<rect width="123" height="28" fill="white"/>
</clipPath>
</defs>
</svg>
