<svg width="95" height="95" viewBox="0 0 95 95" fill="none" xmlns="http://www.w3.org/2000/svg">
<g clip-path="url(#clip0_757_59)">
<path d="M78.214 6.41644L76.4598 6.04085C75.6995 5.87772 74.9502 6.36292 74.7864 7.12315C74.6235 7.88454 75.1085 8.63388 75.8698 8.79677L77.6239 9.1733C77.7226 9.19415 77.822 9.20504 77.9207 9.20504C78.5706 9.20504 79.1552 8.75159 79.2973 8.08983C79.4604 7.3296 78.9752 6.58026 78.214 6.41644Z" fill="white"/>
<path d="M88.2478 4.86954L79.5724 2.01491C77.782 1.42568 75.933 0.976629 74.0775 0.679811C72.2166 0.382994 70.3203 0.231689 68.4405 0.231689C64.925 0.231689 61.5824 1.74868 59.2681 4.39431C56.9548 7.03809 55.8956 10.5517 56.3627 14.0329L58.6455 31.0868C52.145 28.8703 45.1766 28.1163 38.3456 28.9064C30.7273 29.7871 23.3797 32.5776 17.0965 36.9754L15.8068 37.8779L10.4087 26.556C10.0739 25.8525 9.23301 25.5548 8.52955 25.8898C7.82725 26.2246 7.52858 27.0664 7.86432 27.7687L13.581 39.7624L10.557 43.2514C10.0484 43.8388 10.0655 44.7441 10.6441 45.2635C10.9138 45.5061 11.2505 45.6255 11.5862 45.6255C11.9808 45.6255 12.3726 45.4607 12.6516 45.1387L14.1948 43.3582C15.528 41.8204 17.0448 40.4528 18.7131 39.2862C19.1475 38.9813 19.5882 38.6879 20.0327 38.4001V40.4927C20.0327 41.2638 20.6272 41.9372 21.3986 41.9599C22.1968 41.9844 22.8511 41.3445 22.8511 40.5515V36.7237C24.5556 35.7925 26.3078 34.9797 28.0982 34.2917V39.365C28.0982 40.137 28.6927 40.8094 29.4638 40.8331C30.2618 40.8565 30.9176 40.2167 30.9176 39.4238V33.3151C32.8734 32.7143 34.8656 32.2562 36.8785 31.9376V40.2102C36.8785 40.9814 37.4733 41.6549 38.2444 41.6774C39.0426 41.702 39.697 41.062 39.697 40.2691V31.5856C41.0383 31.4624 42.3843 31.4028 43.7328 31.4054V37.3908C43.7328 38.1629 44.3276 38.8364 45.0997 38.8589C45.8979 38.8835 46.5523 38.2426 46.5523 37.4497V31.5013C48.262 31.6162 49.9699 31.8363 51.6679 32.1559V35.4178C51.6679 36.1899 52.2627 36.8623 53.0347 36.8859C53.833 36.9093 54.4873 36.2694 54.4873 35.4767V32.7822C56.2759 33.2428 58.0473 33.8193 59.7904 34.5144C60.1604 34.662 60.5787 34.671 60.9399 34.5035C61.5164 34.2375 61.8315 33.6374 61.7509 33.0347L59.1569 13.6582C58.7984 10.9827 59.612 8.28167 61.3896 6.24982C63.1691 4.21682 65.7388 3.05018 68.4405 3.05018C70.172 3.05018 71.9189 3.18967 73.6321 3.46308C75.341 3.73626 77.0435 4.14986 78.6917 4.69206L87.3673 7.54692C89.0777 8.10974 90.4473 9.29376 91.2618 10.7999H73.3796C72.6075 10.7999 71.9351 11.3944 71.9115 12.1665C71.8881 12.9647 72.528 13.6193 73.3209 13.6193H92.0728C92.0827 13.7685 92.0883 13.9179 92.0883 14.069C92.0883 14.5496 91.8999 15.003 91.5595 15.3453C91.2203 15.6847 90.7666 15.8719 90.2842 15.8719C90.2842 15.8719 73.0376 15.8719 72.9815 15.8775C72.9027 15.8838 71.0236 16.0239 69.4968 14.6193C68.1156 13.3493 67.4115 11.1889 67.4015 8.19756C67.3987 7.42643 66.8123 6.75124 66.0419 6.72506C65.2408 6.69702 64.5821 7.33769 64.5821 8.13337C64.5821 12.0108 65.6093 14.9053 67.6348 16.7374C69.0179 17.9872 70.5692 18.4506 71.6925 18.6144L71.5549 36.0532C71.5486 36.8315 72.1749 37.4678 72.9534 37.4742C73.7299 37.4868 74.3671 36.8542 74.3733 36.0759L74.511 18.6904H90.2842C91.5197 18.6904 92.681 18.2099 93.5545 17.3366C94.4269 16.4612 94.9077 15.3008 94.9077 14.0699C94.9077 9.87558 92.2303 6.17823 88.2478 4.86954Z" fill="white"/>
<path d="M57.7564 61.9199V72.4478C57.7564 77.0449 54.3704 80.8662 49.9606 81.5469V87.4779H50.168C53.3178 87.4779 55.8809 90.0413 55.8809 93.1918C55.8809 93.9704 55.25 94.6011 54.4717 94.6011H46.3448C43.0538 94.6011 40.3765 91.9239 40.3765 88.6321V76.4985L43.195 73.2249V88.6321C43.195 90.369 44.6079 91.7817 46.3448 91.7817H52.695C52.1989 90.8965 51.2523 90.2974 50.168 90.2974H48.5513C47.773 90.2974 47.1421 89.6657 47.1421 88.8881V80.2445C47.1421 79.466 47.773 78.835 48.5513 78.835C52.0731 78.835 54.9379 75.9695 54.9379 72.4469V63.0481L57.7564 61.9199Z" fill="white"/>
<path d="M63.0909 57.8401L64.8067 60.093C62.7781 61.528 59.603 63.5869 57.2526 64.3548C56.0843 64.7042 55.1702 64.9401 54.4341 65.0962C52.8321 65.4192 51.1955 65.5868 49.5492 65.5868H43.9206L43.9204 62.7674H49.5492C54.0453 62.7674 59.4225 60.3998 63.0909 57.8401ZM23.2212 62.4564C10.8592 61.8303 0 51.5766 0 39.0607V10.9537C0 10.2947 0.456232 9.72353 1.09876 9.57871C1.74059 9.43297 2.39863 9.75249 2.68178 10.3471L8.33868 22.213C8.67373 22.9156 8.37576 23.7571 7.67252 24.0922C6.96929 24.427 6.12843 24.1283 5.79361 23.426L2.81849 17.1852V39.0607C2.81849 49.8499 11.9445 58.7299 22.5118 59.5981L23.2212 62.4564ZM67.6836 52.7694C69.5634 49.5158 71.4715 44.8443 71.5144 41.0448C71.5234 40.2718 72.1532 39.6508 72.9236 39.6508H72.9398C73.7191 39.6599 74.3428 40.298 74.3338 41.0765C74.2958 44.4497 71.9368 49.8138 70.6003 52.8503L67.6836 52.7694Z" fill="white"/>
<path d="M68.7063 52.5049C68.7239 52.4747 71.9478 51.4181 71.9478 51.4181L72.3696 51.2689C73.7146 50.7918 75.2117 50.8968 76.4777 51.5567C77.7431 52.2166 78.6864 53.3851 79.0647 54.7617L80.6341 60.4665C81.0315 61.9119 80.4105 63.3594 79.0891 64.068C78.6048 64.3277 78.0899 64.4535 77.583 64.4535C76.7078 64.4535 75.8579 64.0761 75.2351 63.3594L72.4782 60.1869L67.186 63.1882C66.5787 63.5332 65.8111 63.381 65.3813 62.8325L63.9331 60.986L62.1881 58.7623L54.1045 48.4558C53.6249 47.8431 53.7317 46.9568 54.3443 46.4763C54.9563 45.9967 55.8423 46.1035 56.3229 46.7161L66.8494 60.1371L72.089 57.1656C72.6729 56.8343 73.4085 56.961 73.8485 57.4671L77.3622 61.5102C77.4083 61.5628 77.5304 61.7039 77.7567 61.5827C77.9831 61.4613 77.9342 61.2812 77.9152 61.2133L76.3466 55.5085C76.1728 54.8757 75.7555 54.3599 75.1737 54.0566C74.5916 53.7526 73.9308 53.7063 73.3117 53.9264L69.3275 55.34C69.3231 55.3409 69.3194 55.3419 69.3157 55.3437L68.3698 55.6795C67.6476 55.9355 66.8528 55.5673 66.5806 54.8504L63.6687 47.1652C62.6805 44.5575 60.1442 42.8658 57.3556 42.9573C56.5792 42.9826 55.9264 42.3716 55.9012 41.5942C55.8766 40.8159 56.4867 40.165 57.2643 40.1398C61.2576 40.0093 64.8898 42.4314 66.3044 46.1667L68.7063 52.5049Z" fill="white"/>
<path d="M22.3118 62.4608C22.2981 62.4601 21.8071 59.6052 21.8285 59.6068C21.8222 59.4784 21.8166 59.3489 21.8141 59.2194C21.7235 55.0016 23.7391 51.0464 27.2048 48.6415C27.8447 48.1971 28.7236 48.3565 29.1671 48.9962C29.6106 49.6362 29.4521 50.5142 28.8123 50.9576C26.125 52.8222 24.5619 55.8886 24.6326 59.1589C24.703 62.4299 26.3966 65.4257 29.1615 67.1728L32.3468 69.1856C32.7386 69.4335 32.984 69.858 33.0021 70.3214C33.0211 70.7839 32.8102 71.2267 32.44 71.5054L27.7606 75.0144C26.8074 75.7295 26.2381 76.8671 26.2381 78.0593V88.6328C26.2381 90.3687 27.651 91.7817 29.3879 91.7817H35.7371C35.2422 90.8973 34.2945 90.2971 33.2101 90.2971H31.5945C30.8161 90.2971 30.1845 89.6664 30.1845 88.8879V80.2434C30.1845 79.466 30.8161 78.8341 31.5945 78.8341C37.5004 78.8341 42.3056 74.0287 42.3056 68.1221V57.1287C42.3056 56.3504 42.9375 55.7195 43.7158 55.7195C44.4941 55.7195 45.125 56.3504 45.125 57.1287V68.1221C45.125 70.995 44.2244 73.6606 42.6912 75.8534C41.8507 76.9406 40.9167 77.9342 39.8727 78.8177C37.933 80.3228 35.5743 81.3132 33.0039 81.581V87.4787H33.2111C36.3609 87.4787 38.9241 90.0411 38.9241 93.1919C38.9241 93.9704 38.2924 94.6011 37.5139 94.6011H29.3879C26.097 94.6011 23.4196 91.9237 23.4196 88.6328V78.0593C23.4196 75.9848 24.4099 74.0044 26.0689 72.7599L29.1129 70.4771L27.6564 69.5568C25.0297 67.8968 23.1554 65.3643 22.3118 62.4608Z" fill="white"/>
</g>
<defs>
<clipPath id="clip0_757_59">
<rect width="95" height="95" fill="white"/>
</clipPath>
</defs>
</svg>
