<svg width="200" height="100" viewBox="0 0 200 100" fill="none" xmlns="http://www.w3.org/2000/svg">
<g clip-path="url(#clip0_561_293)">
<path d="M34 97.5L37.5 96.5L37 94.5L35 93.5L32.5 92L33 84L38.5 83.5L45 78.5L47.5 93.5L49 96.5L51.5 97.5L56.5 97L59.5 97L60.5 95.5L60 94L58.5 92.5L56.5 92.5L54.5 92L53.5 85L54.5 83.5L56.5 83L58.5 80.5L59.5 77.5L59 72.5L58.5 67.5L66.5 63.5L69 61L71.5 60.5L74.5 63L78 59.5L79.5 57.5L83 60L85 61L86.5 60.5L86.5 58L85 55L83 52.5L81 51L76.5 52.5L73.5 55L73 53.5L74.5 50.5L76 47L76 40L76 24L76 21.5L81 21.5L86 21.5L91.5 21.5L95.4999 20.5L96.5 18L95.4999 14.4999L92.4999 11.5L89.5 10.5L81 6.99988L74.9999 5.5L69.5 5.5L65.5 7.5L62.5 10.5L61 15.5L62.5 33.5L63.5 36L62.5 37L59 36L54.5 35L48.4999 34L43 34L33.5 36L24.5 40L20.4999 42.5L18.5 43L17.5 43L12 32L9.5 26L4.49988 17L4.49988 37.5L4.49988 44.4999C4.49988 45.6999 5.16663 48.6666 5.5 50C6.49996 51.6667 8.49988 55.1 8.49988 55.5C8.49988 55.9 10.4999 58 11.4999 59L14 61L20.4999 63.5C21.6666 63.8333 24.1 64.6 24.5 65C24.9 65.4 26.3333 65.8333 27 66C27.6667 67.3333 29 70.1 29 70.5C29 70.9 30.6667 71.6667 31.5 72L34 74C33.3333 74.5 31.9 75.5 31.5 75.5C31.1 75.5 29 76.8333 28 77.5L26.5 79.5L26 85.5L25 90.5L26 94.5L28 96.5L34 97.5Z" fill="#0F0F0F"/>
<path d="M25.4281 65.4861C25.4145 65.4842 25.1844 62.5966 25.2055 62.6001C25.2109 62.4717 25.2171 62.3422 25.2264 62.213C25.5186 58.0044 27.8846 54.2482 31.554 52.1675C32.2316 51.7829 33.0924 52.0214 33.4761 52.6987C33.8597 53.3763 33.6222 54.2362 32.9449 54.6199C30.0996 56.2331 28.2649 59.1451 28.0387 62.4084C27.8123 65.6723 29.2272 68.8092 31.8223 70.7998L34.812 73.0932C35.1797 73.3757 35.3856 73.8206 35.3615 74.2838C35.3385 74.7461 35.0884 75.1679 34.6944 75.412L29.7161 78.4822C28.702 79.1078 28.0319 80.1892 27.9238 81.3764L26.965 91.9064C26.8076 93.6352 28.0866 95.1704 29.8163 95.3279L36.1394 95.9037C35.7267 94.978 34.8373 94.2944 33.7574 94.1961L32.1484 94.0496C31.3733 93.979 30.8014 93.2936 30.872 92.5183L31.6559 83.9094C31.7264 83.1352 32.4127 82.5632 33.1878 82.6338C39.0695 83.1693 44.2906 78.8194 44.8262 72.9371L45.823 61.989C45.8936 61.2139 46.5801 60.6429 47.3552 60.7135C48.1303 60.784 48.7014 61.4696 48.6308 62.2447L47.634 73.1928C47.3734 76.0539 46.2348 78.6268 44.5091 80.6716C43.5735 81.6781 42.5533 82.5828 41.4334 83.368C39.3653 84.6911 36.9264 85.4635 34.3424 85.4971L33.8076 91.3705L34.0139 91.3893C37.1508 91.6749 39.471 94.4592 39.1853 97.597C39.1147 98.3723 38.4285 98.9432 37.6531 98.8726L29.5606 98.1357C26.2833 97.8373 23.8597 94.9282 24.1581 91.6508L25.1169 81.1209C25.305 79.0549 26.4708 77.1725 28.2358 76.0835L31.4742 74.0862L30.1072 73.0376C27.6419 71.1463 26.005 68.4542 25.4281 65.4861Z" fill="white"/>
<g clip-path="url(#clip1_561_293)">
<path d="M81.214 10.4164L79.4598 10.0408C78.6995 9.87772 77.9502 10.3629 77.7864 11.1232C77.6235 11.8845 78.1085 12.6339 78.8698 12.7968L80.6239 13.1733C80.7226 13.1942 80.822 13.205 80.9207 13.205C81.5706 13.205 82.1552 12.7516 82.2973 12.0898C82.4604 11.3296 81.9752 10.5803 81.214 10.4164Z" fill="white"/>
<path d="M91.2478 8.86954L82.5724 6.01491C80.782 5.42568 78.933 4.97663 77.0775 4.67981C75.2166 4.38299 73.3203 4.23169 71.4405 4.23169C67.925 4.23169 64.5824 5.74868 62.2681 8.39431C59.9548 11.0381 58.8956 14.5517 59.3627 18.0329L61.6455 35.0868C55.145 32.8702 48.1766 32.1163 41.3456 32.9064C33.7273 33.7871 26.3797 36.5776 20.0965 40.9754L18.8068 41.8779L13.4087 30.556C13.0739 29.8525 12.233 29.5547 11.5296 29.8898C10.8272 30.2246 10.5286 31.0664 10.8643 31.7687L16.581 43.7623L13.557 47.2514C13.0484 47.8388 13.0655 48.7441 13.6441 49.2635C13.9138 49.5061 14.2505 49.6255 14.5862 49.6255C14.9808 49.6255 15.3726 49.4607 15.6516 49.1387L17.1948 47.3582C18.528 45.8204 20.0448 44.4528 21.7131 43.2862C22.1475 42.9813 22.5882 42.6879 23.0327 42.4001V44.4927C23.0327 45.2638 23.6272 45.9372 24.3986 45.9599C25.1968 45.9844 25.8511 45.3444 25.8511 44.5515V40.7237C27.5556 39.7925 29.3078 38.9797 31.0982 38.2917V43.365C31.0982 44.137 31.6927 44.8094 32.4638 44.8331C33.2618 44.8565 33.9176 44.2167 33.9176 43.4238V37.3151C35.8734 36.7143 37.8656 36.2562 39.8785 35.9376V44.2102C39.8785 44.9814 40.4733 45.6549 41.2444 45.6774C42.0426 45.702 42.697 45.062 42.697 44.2691V35.5856C44.0383 35.4624 45.3843 35.4028 46.7328 35.4054V41.3908C46.7328 42.1629 47.3276 42.8364 48.0997 42.8589C48.8979 42.8835 49.5523 42.2426 49.5523 41.4497V35.5013C51.262 35.6162 52.9699 35.8363 54.6679 36.1559V39.4178C54.6679 40.1899 55.2627 40.8623 56.0347 40.8859C56.833 40.9093 57.4873 40.2694 57.4873 39.4767V36.7822C59.2759 37.2428 61.0473 37.8193 62.7904 38.5144C63.1604 38.662 63.5787 38.671 63.9399 38.5035C64.5164 38.2375 64.8315 37.6374 64.7509 37.0347L62.1569 17.6582C61.7985 14.9827 62.612 12.2817 64.3896 10.2498C66.1691 8.21682 68.7388 7.05018 71.4405 7.05018C73.172 7.05018 74.9189 7.18966 76.6321 7.46308C78.341 7.73626 80.0435 8.14986 81.6917 8.69206L90.3673 11.5469C92.0777 12.1097 93.4474 13.2938 94.2618 14.7999H76.3796C75.6075 14.7999 74.9351 15.3944 74.9115 16.1665C74.8881 16.9647 75.528 17.6193 76.3209 17.6193H95.0728C95.0827 17.7685 95.0883 17.9179 95.0883 18.069C95.0883 18.5496 94.8999 19.003 94.5595 19.3453C94.2203 19.6847 93.7666 19.8719 93.2842 19.8719C93.2842 19.8719 76.0376 19.8719 75.9815 19.8775C75.9027 19.8837 74.0236 20.0239 72.4968 18.6193C71.1156 17.3493 70.4115 15.1889 70.4015 12.1976C70.3987 11.4264 69.8123 10.7512 69.0419 10.7251C68.2408 10.697 67.5821 11.3377 67.5821 12.1334C67.5821 16.0108 68.6093 18.9052 70.6348 20.7374C72.0179 21.9872 73.5692 22.4506 74.6925 22.6144L74.5549 40.0532C74.5486 40.8315 75.1749 41.4677 75.9534 41.4742C76.7299 41.4867 77.3671 40.8542 77.3734 40.0759L77.511 22.6904H93.2842C94.5197 22.6904 95.681 22.2099 96.5545 21.3366C97.4269 20.4612 97.9077 19.3008 97.9077 18.0699C97.9077 13.8756 95.2303 10.1782 91.2478 8.86954Z" fill="white"/>
<path d="M59.7036 66.7292L61.0058 74.8959C61.7296 79.4356 58.9875 83.7424 54.7399 85.109L55.6737 90.9661L55.8785 90.9334C58.9891 90.4375 61.9238 92.5653 62.4199 95.6765C62.5425 96.4453 62.0187 97.1675 61.2501 97.2901L53.2246 98.5697C49.9747 99.0878 46.9092 96.8656 46.3909 93.6148L44.0779 79.1078L46.505 76.4301L49.1742 93.1711C49.4477 94.8863 51.0655 96.0589 52.7807 95.7854L59.0516 94.7856C58.4224 93.9896 57.3933 93.5469 56.3224 93.7177L54.726 93.9722C53.9574 94.0947 53.2349 93.5703 53.1124 92.8024L51.7515 84.2666C51.6289 83.4978 52.1526 82.7754 52.9212 82.6528C56.399 82.0983 58.7769 78.8175 58.2223 75.3388L57.0979 68.2871L59.7036 66.7292Z" fill="white"/>
<path d="M69.0864 58.8447L71.1131 61.3242C69.0848 62.7592 62.603 67.3817 60.2526 68.1496C59.0843 68.499 58.1702 68.9402 57.4341 69.0964C55.832 69.4194 54.1955 69.5869 52.5492 69.5869H46.9206L46.9204 66.7675H52.5492C58.0562 66.6141 66.9913 61.6556 69.0864 58.8447ZM26.2212 66.4565C13.8592 65.8305 3 55.5767 3 43.0608V14.9538C3 14.2948 3.45623 13.7236 4.09876 13.5788C4.74059 13.4331 5.39863 13.7526 5.68178 14.3472L11.3387 26.2131C11.6737 26.9157 11.3758 27.7572 10.6725 28.0923C9.96929 28.4271 9.12843 28.1284 8.79361 27.4261L5.81849 21.1853V43.0608C5.81849 53.85 14.9445 62.73 25.5118 63.5982L26.2212 66.4565ZM71.6259 53.7977C73.5055 50.5443 74.4715 48.8445 74.5144 45.0449C74.5234 44.2719 75.1532 43.651 75.9236 43.651H75.9398C76.7191 43.66 77.3428 44.2981 77.3338 45.0767C77.2958 48.4499 75.8791 50.842 74.5426 53.8788L71.6259 53.7977Z" fill="white"/>
<path d="M74.029 52.9224C74.0377 52.8886 76.8482 50.9883 76.8482 50.9883L77.2129 50.7292C78.3755 49.9015 79.8439 49.5918 81.2424 49.8792C82.6402 50.1667 83.8678 51.0317 84.6092 52.2517L87.6831 57.3074C88.4616 58.5884 88.2615 60.1507 87.1851 61.1945C86.7906 61.5771 86.33 61.8393 85.8425 61.9783C85.0009 62.2184 84.08 62.0885 83.2845 61.5701L79.7633 59.2753L75.4972 63.613C75.0078 64.1114 74.2278 64.1755 73.6641 63.766L71.765 62.3875L69.477 60.7277L58.8767 53.0334C58.2474 52.5758 58.1071 51.6942 58.5644 51.0641C59.0213 50.435 59.9027 50.2947 60.5328 50.752L74.3366 60.7713L78.5603 56.4767C79.0309 55.998 79.7732 55.9181 80.3351 56.284L84.8228 59.2084C84.8816 59.2463 85.0377 59.3485 85.2222 59.1699C85.4066 58.9911 85.3102 58.8313 85.2733 58.7713L82.2001 53.7154C81.8595 53.1545 81.3167 52.773 80.674 52.6409C80.0309 52.5082 79.3827 52.6448 78.8477 53.0263L75.404 55.4785C75.4 55.4806 75.3967 55.4825 75.3936 55.4853L74.5762 56.0676C73.9519 56.5119 73.0866 56.3758 72.6282 55.7611L67.7201 49.1691C66.0546 46.9325 63.1516 46.0013 60.4951 46.8542C59.7553 47.0914 58.96 46.6829 58.7225 45.9422C58.4855 45.2005 58.8936 44.4073 59.6345 44.1697C63.4388 42.949 67.5961 44.282 69.9809 47.4861L74.029 52.9224Z" fill="white"/>
<path d="M37.0696 10.9965C36.2734 11.5826 36.0362 12.461 36.4171 14.6683C36.4171 14.6683 36.7776 14.1575 37.4295 13.7758C37.9052 13.4993 38.2257 13.1898 38.4545 12.9559C39.1119 12.2592 39.1103 11.5566 38.9048 10.3658C38.8903 10.3683 37.687 10.5012 37.0696 10.9965Z" fill="white"/>
<path d="M31.8275 11.6867C31.1802 12.4414 31.1768 13.5487 31.1768 13.5487L30.351 23.3219L27.0263 16.0146C26.6972 15.2339 26.1467 14.2971 25.46 13.6977C24.6101 12.9322 23.1479 13.1247 22.9736 13.1548C22.8429 13.1773 21.4152 13.4835 20.813 14.4997C20.3669 15.2945 20.1622 16.3616 20.1138 17.2075L19.5466 25.1864L15.493 16.2552C15.493 16.2552 15.1313 15.2857 14.2559 14.719C12.8796 13.8498 11.1676 14.4145 11.1676 14.4145L18.8344 31.1116C18.8344 31.1116 20.3672 30.9817 21.0572 30.4738C21.9715 29.7926 22.4171 29.3418 22.57 26.848C22.768 24.6155 23.2057 18.1394 23.2467 17.6837C23.2722 17.4849 23.3052 16.896 23.6827 16.8308C24.0603 16.7657 24.2787 17.2514 24.3794 17.4883C24.5853 17.9014 27.1536 23.8587 28.0884 25.8957C29.1238 28.1695 29.6246 28.4719 30.7289 28.8048C31.5492 29.052 33.0369 28.6607 33.0369 28.6607L34.6352 10.3647C34.6352 10.3647 32.8354 10.4211 31.8275 11.6867Z" fill="white"/>
<path d="M39.3765 12.4488C39.3765 12.4488 39.1322 12.9396 38.5729 13.4249C38.1799 13.747 37.8248 13.9428 37.4318 14.2649C36.7418 14.7728 36.6182 15.1829 36.7159 15.7493L38.7633 27.6138C38.7633 27.6138 39.9767 27.539 40.6667 27.0311C41.581 26.3499 41.6846 25.8236 41.3162 23.6889L39.3765 12.4488Z" fill="white"/>
<path d="M51.9516 17.1618L56.3414 7.41661C56.3414 7.41661 53.8265 7.40197 52.7586 8.75271C52.0656 9.59011 51.4779 11.0374 51.4779 11.0374L49.8845 14.5426C49.7864 14.7539 49.6927 14.9047 49.5039 14.9372C49.3152 14.9698 49.0938 14.8136 49.0132 14.6929L46.3371 11.9246C46.3371 11.9246 45.2503 10.826 44.3648 10.2012C42.9204 9.28399 40.5414 10.1432 40.5414 10.1432L47.7522 17.8715L43.4179 27.5922C43.4179 27.5922 46.0435 27.4681 47.1114 26.1174C47.8044 25.28 48.354 23.9588 48.354 23.9588L49.9475 20.4537C50.0456 20.2424 50.1392 20.0916 50.328 20.059C50.5168 20.0264 50.7381 20.1827 50.8188 20.3033L53.4948 23.0717C53.4948 23.0717 54.5135 24.1222 55.389 24.6889C56.8334 25.6061 59.2905 24.8531 59.2905 24.8531L51.9516 17.1618Z" fill="white"/>
</g>
<g clip-path="url(#clip2_561_293)">
<path d="M134.5 97.5L140 98L139.5 95L136.5 93L134 92L134.5 84.5L139 83.5L145.5 78.5L144.5 93L148 97.5L150.5 97.5L154 97.5L156.5 97.5L156.5 96L156 94.5L155 93.5L153.5 93L151.5 92L151.5 84.5L155 83.5L157 83L159 80.5L160 77.5L159.5 72.5L159 67.5L167 63.5L167 63L168 63.5L169.5 66L175.5 63L180.5 67.5L181.5 67L182 63.5L181 61L180.5 58.5L178 56.5L176.5 56.5L173.5 57.5L171.5 57.5L173.5 54.5L173.5 53.5L175 50.5L176 47L176 39.5L176.5 24L176.5 21.5L181.5 21.5L186.5 21.5L192 21.5L196 20.5L197 18L196 14.4999L193 11.5L190 10.5L181.5 6.99988L175.5 5.5L170 5.5L166 7.5L163 10.5L161.5 15.5L163 33.5L164 36L163 37L159.5 36L155 35L149 34L143.5 34L134 36L125 40L121 42.5L119 43L118 43L112.5 32L110 26L105 17L105 37.5L105 44.4999C105 45.6999 105.667 48.6666 106 50C107 51.6667 109 55.1 109 55.5C109 55.9 111 58 112 59L114.5 61L121 63.5C122.167 63.8333 124.6 64.6 125 65C125.4 65.4 126.833 65.8333 127.5 66C128.167 67.3333 129.5 70.1 129.5 70.5C129.5 70.9 131.167 71.6667 132 72L134.5 74C133.833 74.5 132.4 75.5 132 75.5C131.6 75.5 130.5 77.3333 129.5 78L128 80L127 85.5L127.5 90L127.5 93.5L128.5 96.5L134.5 97.5Z" fill="#0F0F0F"/>
<path d="M181.214 10.4164L179.46 10.0408C178.7 9.87772 177.95 10.3629 177.786 11.1232C177.623 11.8845 178.108 12.6339 178.87 12.7968L180.624 13.1733C180.723 13.1942 180.822 13.205 180.921 13.205C181.571 13.205 182.155 12.7516 182.297 12.0898C182.46 11.3296 181.975 10.5803 181.214 10.4164Z" fill="white"/>
<path d="M191.248 8.86954L182.572 6.01491C180.782 5.42568 178.933 4.97663 177.077 4.67981C175.217 4.38299 173.32 4.23169 171.44 4.23169C167.925 4.23169 164.582 5.74868 162.268 8.39431C159.955 11.0381 158.896 14.5517 159.363 18.0329L161.646 35.0868C155.145 32.8703 148.177 32.1163 141.346 32.9064C133.727 33.7871 126.38 36.5776 120.096 40.9754L118.807 41.8779L113.409 30.556C113.074 29.8525 112.233 29.5548 111.53 29.8898C110.827 30.2246 110.529 31.0664 110.864 31.7687L116.581 43.7624L113.557 47.2514C113.048 47.8388 113.066 48.7441 113.644 49.2635C113.914 49.5061 114.25 49.6255 114.586 49.6255C114.981 49.6255 115.373 49.4607 115.652 49.1387L117.195 47.3582C118.528 45.8204 120.045 44.4528 121.713 43.2862C122.148 42.9813 122.588 42.6879 123.033 42.4001V44.4927C123.033 45.2638 123.627 45.9372 124.399 45.9599C125.197 45.9844 125.851 45.3445 125.851 44.5515V40.7237C127.556 39.7925 129.308 38.9797 131.098 38.2917V43.365C131.098 44.137 131.693 44.8094 132.464 44.8331C133.262 44.8565 133.918 44.2167 133.918 43.4238V37.3151C135.873 36.7143 137.866 36.2562 139.878 35.9376V44.2102C139.878 44.9814 140.473 45.6549 141.244 45.6774C142.043 45.702 142.697 45.062 142.697 44.2691V35.5856C144.038 35.4624 145.384 35.4028 146.733 35.4054V41.3908C146.733 42.1629 147.328 42.8364 148.1 42.8589C148.898 42.8835 149.552 42.2426 149.552 41.4497V35.5013C151.262 35.6162 152.97 35.8363 154.668 36.1559V39.4178C154.668 40.1899 155.263 40.8623 156.035 40.8859C156.833 40.9093 157.487 40.2694 157.487 39.4767V36.7822C159.276 37.2428 161.047 37.8193 162.79 38.5144C163.16 38.662 163.579 38.671 163.94 38.5035C164.516 38.2375 164.831 37.6374 164.751 37.0347L162.157 17.6582C161.798 14.9827 162.612 12.2817 164.39 10.2498C166.169 8.21682 168.739 7.05018 171.44 7.05018C173.172 7.05018 174.919 7.18967 176.632 7.46308C178.341 7.73626 180.044 8.14986 181.692 8.69206L190.367 11.5469C192.078 12.1097 193.447 13.2938 194.262 14.7999H176.38C175.608 14.7999 174.935 15.3944 174.911 16.1665C174.888 16.9647 175.528 17.6193 176.321 17.6193H195.073C195.083 17.7685 195.088 17.9179 195.088 18.069C195.088 18.5496 194.9 19.003 194.56 19.3453C194.22 19.6847 193.767 19.8719 193.284 19.8719C193.284 19.8719 176.038 19.8719 175.981 19.8775C175.903 19.8838 174.024 20.0239 172.497 18.6193C171.116 17.3493 170.411 15.1889 170.402 12.1976C170.399 11.4264 169.812 10.7512 169.042 10.7251C168.241 10.697 167.582 11.3377 167.582 12.1334C167.582 16.0108 168.609 18.9053 170.635 20.7374C172.018 21.9872 173.569 22.4506 174.692 22.6144L174.555 40.0532C174.549 40.8315 175.175 41.4678 175.953 41.4742C176.73 41.4868 177.367 40.8542 177.373 40.0759L177.511 22.6904H193.284C194.52 22.6904 195.681 22.2099 196.555 21.3366C197.427 20.4612 197.908 19.3008 197.908 18.0699C197.908 13.8756 195.23 10.1782 191.248 8.86954Z" fill="white"/>
<path d="M160.756 65.9198V76.4477C160.756 81.0447 157.37 84.8661 152.961 85.5468V91.4778H153.168C156.318 91.4778 158.881 94.0412 158.881 97.1917C158.881 97.9703 158.25 98.601 157.472 98.601H149.345C146.054 98.601 143.376 95.9238 143.376 92.632V80.4984L146.195 77.2248V92.632C146.195 94.3688 147.608 95.7815 149.345 95.7815H155.695C155.199 94.8964 154.252 94.2972 153.168 94.2972H151.551C150.773 94.2972 150.142 93.6656 150.142 92.888V84.2444C150.142 83.4658 150.773 82.8349 151.551 82.8349C155.073 82.8349 157.938 79.9694 157.938 76.4467V67.048L160.756 65.9198Z" fill="white"/>
<path d="M166.091 61.8402L167.807 64.0931C165.778 65.5281 162.603 67.587 160.253 68.3549C159.084 68.7043 158.17 68.9402 157.434 69.0964C155.832 69.4194 154.196 69.5869 152.549 69.5869H146.921L146.92 66.7675H152.549C157.045 66.7675 162.423 64.3999 166.091 61.8402ZM126.221 66.4565C113.859 65.8305 103 55.5767 103 43.0608V14.9538C103 14.2948 103.456 13.7236 104.099 13.5788C104.741 13.4331 105.399 13.7526 105.682 14.3472L111.339 26.2131C111.674 26.9157 111.376 27.7572 110.673 28.0923C109.969 28.4271 109.128 28.1284 108.794 27.4261L105.818 21.1853V43.0608C105.818 53.85 114.945 62.73 125.512 63.5982L126.221 66.4565ZM170.684 56.7695C172.563 53.5159 174.472 48.8445 174.514 45.0449C174.523 44.2719 175.153 43.651 175.924 43.651H175.94C176.719 43.66 177.343 44.2981 177.334 45.0767C177.296 48.4499 174.937 53.8139 173.6 56.8504L170.684 56.7695Z" fill="white"/>
<path d="M171.706 56.5049C171.724 56.4747 174.948 55.4181 174.948 55.4181L175.37 55.2689C176.715 54.7918 178.212 54.8968 179.478 55.5567C180.743 56.2166 181.686 57.3851 182.065 58.7617L183.634 64.4665C184.031 65.9119 183.41 67.3594 182.089 68.068C181.605 68.3277 181.09 68.4535 180.583 68.4535C179.708 68.4535 178.858 68.0761 178.235 67.3594L175.478 64.1869L170.186 67.1882C169.579 67.5332 168.811 67.381 168.381 66.8325L166.933 64.986L165.188 62.7623L157.105 52.4558C156.625 51.8431 156.732 50.9568 157.344 50.4763C157.956 49.9967 158.842 50.1035 159.323 50.7161L169.849 64.1371L175.089 61.1656C175.673 60.8343 176.409 60.961 176.849 61.4671L180.362 65.5102C180.408 65.5628 180.53 65.7039 180.757 65.5827C180.983 65.4613 180.934 65.2812 180.915 65.2133L179.347 59.5085C179.173 58.8757 178.755 58.3599 178.174 58.0566C177.592 57.7526 176.931 57.7063 176.312 57.9264L172.327 59.34C172.323 59.3409 172.319 59.3419 172.316 59.3437L171.37 59.6795C170.648 59.9355 169.853 59.5673 169.581 58.8504L166.669 51.1652C165.68 48.5575 163.144 46.8658 160.356 46.9573C159.579 46.9826 158.926 46.3716 158.901 45.5942C158.877 44.8159 159.487 44.165 160.264 44.1398C164.258 44.0093 167.89 46.4314 169.304 50.1667L171.706 56.5049Z" fill="white"/>
<path d="M125.312 66.4606C125.298 66.4599 124.807 63.6051 124.828 63.6067C124.822 63.4783 124.817 63.3488 124.814 63.2193C124.723 59.0015 126.739 55.0463 130.205 52.6414C130.845 52.197 131.724 52.3564 132.167 52.9961C132.611 53.6361 132.452 54.514 131.812 54.9575C129.125 56.8221 127.562 59.8885 127.633 63.1588C127.703 66.4298 129.397 69.4256 132.162 71.1726L135.347 73.1855C135.739 73.4334 135.984 73.8579 136.002 74.3213C136.021 74.7838 135.81 75.2266 135.44 75.5053L130.761 79.0143C129.807 79.7293 129.238 80.867 129.238 82.0592V92.6327C129.238 94.3686 130.651 95.7816 132.388 95.7816H138.737C138.242 94.8971 137.295 94.297 136.21 94.297H134.594C133.816 94.297 133.185 93.6663 133.185 92.8878V84.2432C133.185 83.4659 133.816 82.834 134.594 82.834C140.5 82.834 145.306 78.0286 145.306 72.1219V61.1286C145.306 60.3503 145.937 59.7193 146.716 59.7193C147.494 59.7193 148.125 60.3503 148.125 61.1286V72.1219C148.125 74.9949 147.224 77.6604 145.691 79.8533C144.851 80.9405 143.917 81.934 142.873 82.8175C140.933 84.3227 138.574 85.313 136.004 85.5809V91.4785H136.211C139.361 91.4785 141.924 94.041 141.924 97.1917C141.924 97.9703 141.292 98.601 140.514 98.601H132.388C129.097 98.601 126.42 95.9236 126.42 92.6327V82.0592C126.42 79.9847 127.41 78.0043 129.069 76.7598L132.113 74.477L130.656 73.5567C128.03 71.8967 126.155 69.3642 125.312 66.4606Z" fill="white"/>
<path d="M137.07 10.9965C136.273 11.5826 136.036 12.461 136.417 14.6683C136.417 14.6683 136.778 14.1575 137.43 13.7758C137.905 13.4993 138.226 13.1898 138.455 12.9559C139.112 12.2592 139.11 11.5566 138.905 10.3658C138.89 10.3683 137.687 10.5012 137.07 10.9965Z" fill="white"/>
<path d="M131.828 11.6867C131.18 12.4414 131.177 13.5487 131.177 13.5487L130.351 23.3219L127.026 16.0146C126.697 15.2339 126.147 14.2971 125.46 13.6977C124.61 12.9322 123.148 13.1247 122.974 13.1548C122.843 13.1773 121.415 13.4835 120.813 14.4997C120.367 15.2945 120.162 16.3616 120.114 17.2075L119.547 25.1864L115.493 16.2552C115.493 16.2552 115.131 15.2857 114.256 14.719C112.88 13.8498 111.168 14.4145 111.168 14.4145L118.834 31.1116C118.834 31.1116 120.367 30.9817 121.057 30.4738C121.972 29.7926 122.417 29.3418 122.57 26.848C122.768 24.6155 123.206 18.1394 123.247 17.6837C123.272 17.4849 123.305 16.896 123.683 16.8308C124.06 16.7657 124.279 17.2514 124.379 17.4883C124.585 17.9014 127.154 23.8587 128.088 25.8957C129.124 28.1695 129.625 28.4719 130.729 28.8048C131.549 29.052 133.037 28.6607 133.037 28.6607L134.635 10.3647C134.635 10.3647 132.835 10.4211 131.828 11.6867Z" fill="white"/>
<path d="M139.377 12.4488C139.377 12.4488 139.132 12.9396 138.573 13.4249C138.18 13.747 137.825 13.9428 137.432 14.2649C136.742 14.7728 136.618 15.1829 136.716 15.7493L138.763 27.6138C138.763 27.6138 139.977 27.539 140.667 27.0311C141.581 26.3499 141.685 25.8236 141.316 23.6889L139.377 12.4488Z" fill="white"/>
<path d="M151.952 17.1618L156.341 7.41661C156.341 7.41661 153.826 7.40197 152.759 8.75271C152.066 9.59011 151.478 11.0374 151.478 11.0374L149.884 14.5426C149.786 14.7539 149.693 14.9047 149.504 14.9372C149.315 14.9698 149.094 14.8136 149.013 14.6929L146.337 11.9246C146.337 11.9246 145.25 10.826 144.365 10.2012C142.92 9.28399 140.541 10.1432 140.541 10.1432L147.752 17.8715L143.418 27.5922C143.418 27.5922 146.043 27.4681 147.111 26.1174C147.804 25.28 148.354 23.9588 148.354 23.9588L149.947 20.4537C150.046 20.2424 150.139 20.0916 150.328 20.059C150.517 20.0264 150.738 20.1827 150.819 20.3033L153.495 23.0717C153.495 23.0717 154.514 24.1222 155.389 24.6889C156.833 25.6061 159.291 24.8531 159.291 24.8531L151.952 17.1618Z" fill="white"/>
</g>
</g>
<defs>
<clipPath id="clip0_561_293">
<rect width="200" height="100" fill="white"/>
</clipPath>
<clipPath id="clip1_561_293">
<rect width="95" height="95" fill="white" transform="translate(3 4)"/>
</clipPath>
<clipPath id="clip2_561_293">
<rect width="95" height="95" fill="white" transform="translate(103 4)"/>
</clipPath>
</defs>
</svg>
