<svg width="200" height="100" viewBox="0 0 200 100" fill="none" xmlns="http://www.w3.org/2000/svg">
<g clip-path="url(#clip0_168_1384)">
<path d="M81.214 10.4164L79.4598 10.0408C78.6995 9.87772 77.9502 10.3629 77.7864 11.1232C77.6235 11.8845 78.1085 12.6339 78.8698 12.7968L80.6239 13.1733C80.7226 13.1942 80.822 13.205 80.9207 13.205C81.5706 13.205 82.1552 12.7516 82.2973 12.0898C82.4604 11.3296 81.9752 10.5803 81.214 10.4164Z" fill="white"/>
<path d="M91.2478 8.86954L82.5725 6.01491C80.7821 5.42568 78.933 4.97663 77.0775 4.67981C75.2167 4.38299 73.3204 4.23169 71.4405 4.23169C67.9251 4.23169 64.5825 5.74868 62.2682 8.39431C59.9548 11.0381 58.8957 14.5517 59.3628 18.0329L61.6456 35.0868C55.145 32.8702 48.1767 32.1163 41.3457 32.9064C33.7274 33.7871 26.3797 36.5776 20.0965 40.9754L18.8068 41.8779L13.4088 30.556C13.0739 29.8525 12.2331 29.5547 11.5296 29.8898C10.8273 30.2246 10.5286 31.0664 10.8644 31.7687L16.5811 43.7623L13.5571 47.2514C13.0485 47.8388 13.0656 48.7441 13.6442 49.2635C13.9139 49.5061 14.2506 49.6255 14.5863 49.6255C14.9809 49.6255 15.3727 49.4607 15.6517 49.1387L17.1949 47.3582C18.5281 45.8204 20.0449 44.4528 21.7131 43.2862C22.1476 42.9813 22.5883 42.6879 23.0327 42.4001V44.4927C23.0327 45.2638 23.6273 45.9372 24.3986 45.9599C25.1969 45.9844 25.8512 45.3444 25.8512 44.5515V40.7237C27.5556 39.7925 29.3078 38.9797 31.0982 38.2917V43.365C31.0982 44.137 31.6928 44.8094 32.4639 44.8331C33.2619 44.8565 33.9176 44.2167 33.9176 43.4238V37.3151C35.8735 36.7143 37.8657 36.2562 39.8785 35.9376V44.2102C39.8785 44.9814 40.4733 45.6549 41.2444 45.6774C42.0427 45.702 42.697 45.062 42.697 44.2691V35.5856C44.0384 35.4624 45.3844 35.4028 46.7329 35.4054V41.3908C46.7329 42.1629 47.3277 42.8364 48.0997 42.8589C48.898 42.8835 49.5523 42.2426 49.5523 41.4497V35.5013C51.2621 35.6162 52.97 35.8363 54.668 36.1559V39.4178C54.668 40.1899 55.2627 40.8623 56.0348 40.8859C56.833 40.9093 57.4874 40.2694 57.4874 39.4767V36.7822C59.2759 37.2428 61.0473 37.8193 62.7904 38.5144C63.1605 38.662 63.5787 38.671 63.9399 38.5035C64.5164 38.2375 64.8316 37.6374 64.7509 37.0347L62.157 17.6582C61.7985 14.9827 62.612 12.2817 64.3897 10.2498C66.1692 8.21682 68.7388 7.05018 71.4405 7.05018C73.1721 7.05018 74.9189 7.18966 76.6322 7.46308C78.341 7.73626 80.0436 8.14986 81.6917 8.69206L90.3673 11.5469C92.0778 12.1097 93.4474 13.2938 94.2619 14.7999H76.3796C75.6076 14.7999 74.9352 15.3944 74.9115 16.1665C74.8881 16.9647 75.5281 17.6193 76.321 17.6193H95.0728C95.0828 17.7685 95.0884 17.9179 95.0884 18.069C95.0884 18.5496 94.9 19.003 94.5596 19.3453C94.2204 19.6847 93.7667 19.8719 93.2843 19.8719C93.2843 19.8719 76.0376 19.8719 75.9815 19.8775C75.9028 19.8837 74.0236 20.0239 72.4969 18.6193C71.1157 17.3493 70.4115 15.1889 70.4016 12.1976C70.3988 11.4264 69.8123 10.7512 69.0419 10.7251C68.2409 10.697 67.5822 11.3377 67.5822 12.1334C67.5822 16.0108 68.6093 18.9052 70.6349 20.7374C72.018 21.9872 73.5692 22.4506 74.6926 22.6144L74.5549 40.0532C74.5487 40.8315 75.175 41.4677 75.9535 41.4742C76.73 41.4867 77.3672 40.8542 77.3734 40.0759L77.511 22.6904H93.2843C94.5198 22.6904 95.6811 22.2099 96.5546 21.3366C97.427 20.4612 97.9078 19.3008 97.9078 18.0699C97.9078 13.8756 95.2304 10.1782 91.2478 8.86954Z" fill="white"/>
<path d="M59.7036 66.7291L61.0058 74.8958C61.7296 79.4355 58.9875 83.7423 54.7399 85.1089L55.6737 90.9659L55.8785 90.9333C58.9891 90.4373 61.9238 92.5652 62.4199 95.6764C62.5425 96.4452 62.0187 97.1674 61.2501 97.29L53.2246 98.5696C49.9747 99.0877 46.9092 96.8655 46.3909 93.6147L44.0779 79.1077L46.505 76.43L49.1742 93.1709C49.4477 94.8862 51.0655 96.0588 52.7807 95.7853L59.0516 94.7855C58.4224 93.9895 57.3933 93.5468 56.3224 93.7175L54.726 93.9721C53.9574 94.0946 53.2349 93.5702 53.1124 92.8023L51.7515 84.2665C51.6289 83.4977 52.1526 82.7753 52.9212 82.6527C56.399 82.0982 58.7769 78.8174 58.2223 75.3386L57.0979 68.287L59.7036 66.7291Z" fill="white"/>
<path d="M69.0864 58.8446L71.1131 61.3241C69.0848 62.7591 62.603 67.3816 60.2526 68.1495C59.0843 68.4989 58.1702 68.9401 57.4341 69.0962C55.832 69.4192 54.1955 69.5868 52.5492 69.5868H46.9206L46.9204 66.7674H52.5492C58.0562 66.614 66.9913 61.6554 69.0864 58.8446ZM26.2212 66.4564C13.8592 65.8303 3 55.5766 3 43.0607V14.9537C3 14.2947 3.45623 13.7235 4.09876 13.5787C4.74059 13.433 5.39863 13.7525 5.68178 14.3471L11.3387 26.213C11.6737 26.9156 11.3758 27.7571 10.6725 28.0922C9.96929 28.427 9.12843 28.1283 8.79361 27.426L5.81849 21.1852V43.0607C5.81849 53.8499 14.9445 62.7299 25.5118 63.5981L26.2212 66.4564ZM71.6259 53.7975C73.5055 50.5441 74.4715 48.8443 74.5144 45.0448C74.5234 44.2718 75.1532 43.6508 75.9236 43.6508H75.9398C76.7191 43.6599 77.3428 44.298 77.3338 45.0765C77.2958 48.4497 75.8791 50.8419 74.5426 53.8786L71.6259 53.7975Z" fill="white"/>
<path d="M74.029 52.9224C74.0377 52.8886 76.8482 50.9883 76.8482 50.9883L77.2129 50.7292C78.3755 49.9015 79.8439 49.5918 81.2424 49.8792C82.6402 50.1667 83.8678 51.0317 84.6092 52.2517L87.6831 57.3074C88.4616 58.5884 88.2615 60.1507 87.1851 61.1945C86.7906 61.5771 86.33 61.8393 85.8425 61.9783C85.0009 62.2184 84.08 62.0885 83.2845 61.5701L79.7633 59.2753L75.4972 63.613C75.0078 64.1114 74.2278 64.1755 73.6641 63.766L71.765 62.3875L69.477 60.7277L58.8767 53.0334C58.2474 52.5758 58.1071 51.6942 58.5644 51.0641C59.0213 50.435 59.9027 50.2947 60.5328 50.752L74.3366 60.7713L78.5603 56.4767C79.0309 55.998 79.7732 55.9181 80.3351 56.284L84.8228 59.2084C84.8816 59.2463 85.0377 59.3485 85.2222 59.1699C85.4066 58.9911 85.3102 58.8313 85.2733 58.7713L82.2001 53.7154C81.8595 53.1545 81.3167 52.773 80.674 52.6409C80.0309 52.5082 79.3827 52.6448 78.8477 53.0263L75.404 55.4785C75.4 55.4806 75.3967 55.4825 75.3936 55.4853L74.5762 56.0676C73.9519 56.5119 73.0866 56.3758 72.6282 55.7611L67.7201 49.1691C66.0546 46.9325 63.1516 46.0013 60.4951 46.8542C59.7553 47.0914 58.96 46.6829 58.7225 45.9422C58.4855 45.2005 58.8936 44.4073 59.6345 44.1697C63.4388 42.949 67.5961 44.282 69.9809 47.4861L74.029 52.9224Z" fill="white"/>
<path d="M25.4282 65.4863C25.4146 65.4843 25.1845 62.5967 25.2056 62.6002C25.211 62.4718 25.2172 62.3424 25.2264 62.2131C25.5186 58.0045 27.8846 54.2483 31.554 52.1676C32.2317 51.7831 33.0925 52.0215 33.4761 52.6988C33.8598 53.3764 33.6223 54.2363 32.945 54.62C30.0996 56.2332 28.2649 59.1452 28.0388 62.4085C27.8123 65.6724 29.2272 68.8094 31.8224 70.8L34.812 73.0933C35.1798 73.3758 35.3856 73.8208 35.3616 74.2839C35.3386 74.7462 35.0885 75.1681 34.6944 75.4121L29.7162 78.4823C28.702 79.108 28.0319 80.1893 27.9238 81.3766L26.965 91.9065C26.8076 93.6353 28.0866 95.1705 29.8164 95.328L36.1395 95.9038C35.7268 94.9781 34.8374 94.2945 33.7575 94.1962L32.1484 94.0497C31.3733 93.9791 30.8015 93.2937 30.8721 92.5184L31.656 83.9095C31.7264 83.1353 32.4128 82.5633 33.1879 82.6339C39.0695 83.1694 44.2906 78.8196 44.8262 72.9372L45.8231 61.9892C45.8936 61.2141 46.5801 60.643 47.3552 60.7136C48.1303 60.7842 48.7014 61.4697 48.6309 62.2448L47.634 73.1929C47.3735 76.054 46.2349 78.6269 44.5091 80.6717C43.5736 81.6782 42.5534 82.583 41.4335 83.3682C39.3654 84.6912 36.9265 85.4636 34.3425 85.4973L33.8077 91.3706L34.014 91.3894C37.1508 91.675 39.4711 94.4593 39.1854 97.5971C39.1148 98.3724 38.4285 98.9433 37.6532 98.8727L29.5607 98.1358C26.2833 97.8374 23.8598 94.9283 24.1582 91.6509L25.1169 81.121C25.3051 79.055 26.4709 77.1726 28.2359 76.0837L31.4743 74.0863L30.1072 73.0377C27.642 71.1464 26.005 68.4543 25.4282 65.4863Z" fill="white"/>
<path d="M37.0696 10.9964C36.2734 11.5824 36.0362 12.4608 36.4171 14.6682C36.4171 14.6682 36.7776 14.1573 37.4295 13.7757C37.9052 13.4992 38.2257 13.1896 38.4545 12.9557C39.1119 12.2591 39.1103 11.5565 38.9048 10.3657C38.8903 10.3682 37.687 10.5011 37.0696 10.9964Z" fill="white"/>
<path d="M31.8275 11.6867C31.1802 12.4414 31.1768 13.5487 31.1768 13.5487L30.351 23.3219L27.0263 16.0146C26.6972 15.2339 26.1467 14.2971 25.46 13.6977C24.6101 12.9322 23.1479 13.1247 22.9736 13.1548C22.8429 13.1773 21.4152 13.4835 20.813 14.4997C20.3669 15.2945 20.1622 16.3616 20.1138 17.2075L19.5466 25.1864L15.493 16.2552C15.493 16.2552 15.1313 15.2857 14.2559 14.719C12.8796 13.8498 11.1676 14.4145 11.1676 14.4145L18.8344 31.1116C18.8344 31.1116 20.3672 30.9817 21.0572 30.4738C21.9715 29.7926 22.4171 29.3418 22.57 26.848C22.768 24.6155 23.2057 18.1394 23.2467 17.6837C23.2722 17.4849 23.3052 16.896 23.6827 16.8308C24.0603 16.7657 24.2787 17.2514 24.3794 17.4883C24.5853 17.9014 27.1536 23.8587 28.0884 25.8957C29.1238 28.1695 29.6246 28.4719 30.7289 28.8048C31.5492 29.052 33.0369 28.6607 33.0369 28.6607L34.6352 10.3647C34.6352 10.3647 32.8354 10.4211 31.8275 11.6867Z" fill="white"/>
<path d="M39.3765 12.4487C39.3765 12.4487 39.1322 12.9395 38.5729 13.4248C38.1799 13.7469 37.8248 13.9427 37.4318 14.2648C36.7418 14.7727 36.6182 15.1828 36.7159 15.7492L38.7633 27.6137C38.7633 27.6137 39.9767 27.5389 40.6667 27.031C41.581 26.3498 41.6846 25.8235 41.3162 23.6888L39.3765 12.4487Z" fill="white"/>
<path d="M51.9516 17.1617L56.3414 7.41649C56.3414 7.41649 53.8265 7.40184 52.7586 8.75259C52.0656 9.58998 51.4779 11.0373 51.4779 11.0373L49.8845 14.5425C49.7864 14.7538 49.6927 14.9045 49.5039 14.9371C49.3152 14.9697 49.0938 14.8135 49.0132 14.6928L46.3371 11.9244C46.3371 11.9244 45.2503 10.8259 44.3648 10.2011C42.9204 9.28387 40.5414 10.1431 40.5414 10.1431L47.7522 17.8714L43.4179 27.5921C43.4179 27.5921 46.0435 27.468 47.1114 26.1172C47.8044 25.2798 48.354 23.9587 48.354 23.9587L49.9475 20.4536C50.0456 20.2422 50.1392 20.0915 50.328 20.0589C50.5168 20.0263 50.7381 20.1825 50.8188 20.3032L53.4948 23.0716C53.4948 23.0716 54.5135 24.1221 55.389 24.6888C56.8334 25.606 59.2905 24.853 59.2905 24.853L51.9516 17.1617Z" fill="white"/>
</g>
<g clip-path="url(#clip1_168_1384)">
<path d="M181.214 10.4164L179.46 10.0408C178.7 9.87772 177.95 10.3629 177.786 11.1232C177.623 11.8845 178.108 12.6339 178.87 12.7968L180.624 13.1733C180.723 13.1942 180.822 13.205 180.921 13.205C181.571 13.205 182.155 12.7516 182.297 12.0898C182.46 11.3296 181.975 10.5803 181.214 10.4164Z" fill="white"/>
<path d="M191.248 8.86954L182.572 6.01491C180.782 5.42568 178.933 4.97663 177.077 4.67981C175.217 4.38299 173.32 4.23169 171.44 4.23169C167.925 4.23169 164.582 5.74868 162.268 8.39431C159.955 11.0381 158.896 14.5517 159.363 18.0329L161.646 35.0868C155.145 32.8703 148.177 32.1163 141.346 32.9064C133.727 33.7871 126.38 36.5776 120.096 40.9754L118.807 41.8779L113.409 30.556C113.074 29.8525 112.233 29.5548 111.53 29.8898C110.827 30.2246 110.529 31.0664 110.864 31.7687L116.581 43.7624L113.557 47.2514C113.048 47.8388 113.066 48.7441 113.644 49.2635C113.914 49.5061 114.25 49.6255 114.586 49.6255C114.981 49.6255 115.373 49.4607 115.652 49.1387L117.195 47.3582C118.528 45.8204 120.045 44.4528 121.713 43.2862C122.148 42.9813 122.588 42.6879 123.033 42.4001V44.4927C123.033 45.2638 123.627 45.9372 124.399 45.9599C125.197 45.9844 125.851 45.3445 125.851 44.5515V40.7237C127.556 39.7925 129.308 38.9797 131.098 38.2917V43.365C131.098 44.137 131.693 44.8094 132.464 44.8331C133.262 44.8565 133.918 44.2167 133.918 43.4238V37.3151C135.873 36.7143 137.866 36.2562 139.878 35.9376V44.2102C139.878 44.9814 140.473 45.6549 141.244 45.6774C142.043 45.702 142.697 45.062 142.697 44.2691V35.5856C144.038 35.4624 145.384 35.4028 146.733 35.4054V41.3908C146.733 42.1629 147.328 42.8364 148.1 42.8589C148.898 42.8835 149.552 42.2426 149.552 41.4497V35.5013C151.262 35.6162 152.97 35.8363 154.668 36.1559V39.4178C154.668 40.1899 155.263 40.8623 156.035 40.8859C156.833 40.9093 157.487 40.2694 157.487 39.4767V36.7822C159.276 37.2428 161.047 37.8193 162.79 38.5144C163.16 38.662 163.579 38.671 163.94 38.5035C164.516 38.2375 164.831 37.6374 164.751 37.0347L162.157 17.6582C161.798 14.9827 162.612 12.2817 164.39 10.2498C166.169 8.21682 168.739 7.05018 171.44 7.05018C173.172 7.05018 174.919 7.18967 176.632 7.46308C178.341 7.73626 180.044 8.14986 181.692 8.69206L190.367 11.5469C192.078 12.1097 193.447 13.2938 194.262 14.7999H176.38C175.608 14.7999 174.935 15.3944 174.911 16.1665C174.888 16.9647 175.528 17.6193 176.321 17.6193H195.073C195.083 17.7685 195.088 17.9179 195.088 18.069C195.088 18.5496 194.9 19.003 194.56 19.3453C194.22 19.6847 193.767 19.8719 193.284 19.8719C193.284 19.8719 176.038 19.8719 175.981 19.8775C175.903 19.8838 174.024 20.0239 172.497 18.6193C171.116 17.3493 170.411 15.1889 170.402 12.1976C170.399 11.4264 169.812 10.7512 169.042 10.7251C168.241 10.697 167.582 11.3377 167.582 12.1334C167.582 16.0108 168.609 18.9053 170.635 20.7374C172.018 21.9872 173.569 22.4506 174.692 22.6144L174.555 40.0532C174.549 40.8315 175.175 41.4678 175.953 41.4742C176.73 41.4868 177.367 40.8542 177.373 40.0759L177.511 22.6904H193.284C194.52 22.6904 195.681 22.2099 196.555 21.3366C197.427 20.4612 197.908 19.3008 197.908 18.0699C197.908 13.8756 195.23 10.1782 191.248 8.86954Z" fill="white"/>
<path d="M160.756 65.9199V76.4478C160.756 81.0449 157.37 84.8662 152.961 85.5469V91.4779H153.168C156.318 91.4779 158.881 94.0413 158.881 97.1918C158.881 97.9704 158.25 98.6011 157.472 98.6011H149.345C146.054 98.6011 143.376 95.9239 143.376 92.6321V80.4985L146.195 77.2249V92.6321C146.195 94.369 147.608 95.7817 149.345 95.7817H155.695C155.199 94.8965 154.252 94.2974 153.168 94.2974H151.551C150.773 94.2974 150.142 93.6657 150.142 92.8881V84.2445C150.142 83.466 150.773 82.835 151.551 82.835C155.073 82.835 157.938 79.9695 157.938 76.4469V67.0481L160.756 65.9199Z" fill="white"/>
<path d="M166.091 61.8401L167.807 64.093C165.778 65.528 162.603 67.5869 160.253 68.3548C159.084 68.7042 158.17 68.9401 157.434 69.0962C155.832 69.4192 154.196 69.5868 152.549 69.5868H146.921L146.92 66.7674H152.549C157.045 66.7674 162.423 64.3998 166.091 61.8401ZM126.221 66.4564C113.859 65.8303 103 55.5766 103 43.0607V14.9537C103 14.2947 103.456 13.7235 104.099 13.5787C104.741 13.433 105.399 13.7525 105.682 14.3471L111.339 26.213C111.674 26.9156 111.376 27.7571 110.673 28.0922C109.969 28.427 109.128 28.1283 108.794 27.426L105.818 21.1852V43.0607C105.818 53.8499 114.945 62.7299 125.512 63.5981L126.221 66.4564ZM170.684 56.7694C172.563 53.5158 174.472 48.8443 174.514 45.0448C174.523 44.2718 175.153 43.6508 175.924 43.6508H175.94C176.719 43.6599 177.343 44.298 177.334 45.0765C177.296 48.4497 174.937 53.8138 173.6 56.8503L170.684 56.7694Z" fill="white"/>
<path d="M171.706 56.5049C171.724 56.4747 174.948 55.4181 174.948 55.4181L175.37 55.2689C176.715 54.7918 178.212 54.8968 179.478 55.5567C180.743 56.2166 181.686 57.3851 182.065 58.7617L183.634 64.4665C184.031 65.9119 183.41 67.3594 182.089 68.068C181.605 68.3277 181.09 68.4535 180.583 68.4535C179.708 68.4535 178.858 68.0761 178.235 67.3594L175.478 64.1869L170.186 67.1882C169.579 67.5332 168.811 67.381 168.381 66.8325L166.933 64.986L165.188 62.7623L157.105 52.4558C156.625 51.8431 156.732 50.9568 157.344 50.4763C157.956 49.9967 158.842 50.1035 159.323 50.7161L169.849 64.1371L175.089 61.1656C175.673 60.8343 176.409 60.961 176.849 61.4671L180.362 65.5102C180.408 65.5628 180.53 65.7039 180.757 65.5827C180.983 65.4613 180.934 65.2812 180.915 65.2133L179.347 59.5085C179.173 58.8757 178.755 58.3599 178.174 58.0566C177.592 57.7526 176.931 57.7063 176.312 57.9264L172.327 59.34C172.323 59.3409 172.319 59.3419 172.316 59.3437L171.37 59.6795C170.648 59.9355 169.853 59.5673 169.581 58.8504L166.669 51.1652C165.68 48.5575 163.144 46.8658 160.356 46.9573C159.579 46.9826 158.926 46.3716 158.901 45.5942C158.877 44.8159 159.487 44.165 160.264 44.1398C164.258 44.0093 167.89 46.4314 169.304 50.1667L171.706 56.5049Z" fill="white"/>
<path d="M125.312 66.4608C125.298 66.4601 124.807 63.6052 124.828 63.6068C124.822 63.4784 124.817 63.3489 124.814 63.2194C124.723 59.0016 126.739 55.0464 130.205 52.6415C130.845 52.1971 131.724 52.3565 132.167 52.9962C132.611 53.6362 132.452 54.5142 131.812 54.9576C129.125 56.8222 127.562 59.8886 127.633 63.1589C127.703 66.4299 129.397 69.4257 132.162 71.1728L135.347 73.1856C135.739 73.4335 135.984 73.858 136.002 74.3214C136.021 74.7839 135.81 75.2267 135.44 75.5054L130.761 79.0144C129.807 79.7295 129.238 80.8671 129.238 82.0593V92.6328C129.238 94.3687 130.651 95.7817 132.388 95.7817H138.737C138.242 94.8973 137.295 94.2971 136.21 94.2971H134.594C133.816 94.2971 133.185 93.6664 133.185 92.8879V84.2434C133.185 83.466 133.816 82.8341 134.594 82.8341C140.5 82.8341 145.306 78.0287 145.306 72.1221V61.1287C145.306 60.3504 145.937 59.7195 146.716 59.7195C147.494 59.7195 148.125 60.3504 148.125 61.1287V72.1221C148.125 74.995 147.224 77.6606 145.691 79.8534C144.851 80.9406 143.917 81.9342 142.873 82.8177C140.933 84.3228 138.574 85.3132 136.004 85.581V91.4787H136.211C139.361 91.4787 141.924 94.0411 141.924 97.1919C141.924 97.9704 141.292 98.6011 140.514 98.6011H132.388C129.097 98.6011 126.42 95.9237 126.42 92.6328V82.0593C126.42 79.9848 127.41 78.0044 129.069 76.7599L132.113 74.4771L130.656 73.5568C128.03 71.8968 126.155 69.3643 125.312 66.4608Z" fill="white"/>
<path d="M137.07 10.9964C136.273 11.5824 136.036 12.4608 136.417 14.6682C136.417 14.6682 136.778 14.1573 137.43 13.7757C137.905 13.4992 138.226 13.1896 138.455 12.9557C139.112 12.2591 139.11 11.5565 138.905 10.3657C138.89 10.3682 137.687 10.5011 137.07 10.9964Z" fill="white"/>
<path d="M131.828 11.6867C131.18 12.4414 131.177 13.5487 131.177 13.5487L130.351 23.3219L127.026 16.0146C126.697 15.2339 126.147 14.2971 125.46 13.6977C124.61 12.9322 123.148 13.1247 122.974 13.1548C122.843 13.1773 121.415 13.4835 120.813 14.4997C120.367 15.2945 120.162 16.3616 120.114 17.2075L119.547 25.1864L115.493 16.2552C115.493 16.2552 115.131 15.2857 114.256 14.719C112.88 13.8498 111.168 14.4145 111.168 14.4145L118.834 31.1116C118.834 31.1116 120.367 30.9817 121.057 30.4738C121.972 29.7926 122.417 29.3418 122.57 26.848C122.768 24.6155 123.206 18.1394 123.247 17.6837C123.272 17.4849 123.305 16.896 123.683 16.8308C124.06 16.7657 124.279 17.2514 124.379 17.4883C124.585 17.9014 127.154 23.8587 128.088 25.8957C129.124 28.1695 129.625 28.4719 130.729 28.8048C131.549 29.052 133.037 28.6607 133.037 28.6607L134.635 10.3647C134.635 10.3647 132.835 10.4211 131.828 11.6867Z" fill="white"/>
<path d="M139.377 12.4487C139.377 12.4487 139.132 12.9395 138.573 13.4248C138.18 13.7469 137.825 13.9427 137.432 14.2648C136.742 14.7727 136.618 15.1828 136.716 15.7492L138.763 27.6137C138.763 27.6137 139.977 27.5389 140.667 27.031C141.581 26.3498 141.685 25.8235 141.316 23.6888L139.377 12.4487Z" fill="white"/>
<path d="M151.952 17.1617L156.341 7.41649C156.341 7.41649 153.826 7.40184 152.759 8.75259C152.066 9.58998 151.478 11.0373 151.478 11.0373L149.884 14.5425C149.786 14.7538 149.693 14.9045 149.504 14.9371C149.315 14.9697 149.094 14.8135 149.013 14.6928L146.337 11.9244C146.337 11.9244 145.25 10.8259 144.365 10.2011C142.92 9.28387 140.541 10.1431 140.541 10.1431L147.752 17.8714L143.418 27.5921C143.418 27.5921 146.043 27.468 147.111 26.1172C147.804 25.2798 148.354 23.9587 148.354 23.9587L149.947 20.4536C150.046 20.2422 150.139 20.0915 150.328 20.0589C150.517 20.0263 150.738 20.1825 150.819 20.3032L153.495 23.0716C153.495 23.0716 154.514 24.1221 155.389 24.6888C156.833 25.606 159.291 24.853 159.291 24.853L151.952 17.1617Z" fill="white"/>
</g>
<defs>
<clipPath id="clip0_168_1384">
<rect width="95" height="95" fill="white" transform="translate(3 4)"/>
</clipPath>
<clipPath id="clip1_168_1384">
<rect width="95" height="95" fill="white" transform="translate(103 4)"/>
</clipPath>
</defs>
</svg>
