<svg width="179" height="179" viewBox="0 0 179 179" fill="none" xmlns="http://www.w3.org/2000/svg">
<g clip-path="url(#clip0_575_387)">
<path d="M146.235 11.0315L142.929 10.3232C141.499 10.0166 140.083 10.9291 139.775 12.3642C139.468 13.7987 140.381 15.2108 141.817 15.5184L145.122 16.2267C145.31 16.2673 145.497 16.2862 145.682 16.2862C146.907 16.2862 148.009 15.4328 148.276 14.1857C148.583 12.7509 147.67 11.3388 146.235 11.0315Z" fill="#F25D54"/>
<path d="M123.117 110.279C122.198 109.137 120.526 108.955 119.383 109.875C117.179 111.648 114.835 113.167 112.384 114.435C112.279 114.482 112.178 114.536 112.081 114.596C106.358 117.495 100.041 119.002 93.4495 119.002H85.1134V108.377C85.1134 106.91 83.9244 105.721 82.4571 105.721C80.9898 105.721 79.8008 106.91 79.8008 108.377V129.097C79.8008 140.228 70.7448 149.285 59.6126 149.285C58.1453 149.285 56.9562 150.474 56.9562 151.941V168.232C56.9562 169.699 58.1453 170.889 59.6126 170.889H62.6587C64.7025 170.889 66.4873 172.019 67.4207 173.687H55.4547C52.1816 173.687 49.5186 171.024 49.5186 167.751V147.824C49.5186 145.578 50.5912 143.433 52.3875 142.086L61.2064 135.472C61.9057 134.948 62.3021 134.114 62.2668 133.24C62.2318 132.368 61.7704 131.567 61.0316 131.101L55.0285 127.307C49.8165 124.014 46.6256 118.368 46.4928 112.204C46.3599 106.04 49.3047 100.262 54.3702 96.747C55.5756 95.9107 55.8749 94.2557 55.0386 93.0499C54.2027 91.8444 52.548 91.5452 51.3415 92.3818C44.8084 96.9152 41.0098 104.368 41.1812 112.318C41.2637 116.148 42.2635 119.821 44.0266 123.076C41.7629 134.191 36.7859 144.673 29.5832 153.442C24.2013 159.994 17.6409 165.518 10.3023 169.72C16.5998 159.582 19.9179 147.971 19.9179 136.003C19.9179 133.253 20.0543 130.477 20.3235 127.752C20.4675 126.292 19.4008 124.992 17.9405 124.848C16.4813 124.702 15.18 125.771 15.036 127.23C14.7496 130.128 14.6049 133.079 14.6049 136.003C14.6049 147.636 11.1857 158.901 4.71795 168.579L0.513547 174.867C-0.13428 175.835 -0.0751956 177.113 0.659683 178.018C1.17501 178.653 1.93855 179 2.72203 179C3.05451 179 3.39153 178.937 3.71387 178.807C15.3569 174.118 25.7221 166.513 33.688 156.815C40.4655 148.564 45.4097 138.902 48.1761 128.61C49.3809 129.801 50.7227 130.873 52.1893 131.799L54.9351 133.534L49.1995 137.836C46.0722 140.181 44.2053 143.915 44.2053 147.824V167.751C44.2053 173.954 49.2515 179 55.4543 179H70.7686C72.2359 179 73.4249 177.811 73.4249 176.344C73.4249 170.407 68.5947 165.576 62.658 165.576H62.2685V154.461C67.112 153.957 71.5559 152.09 75.2118 149.254V167.75C75.2118 173.953 80.2584 179 86.4615 179H101.777C103.244 179 104.433 177.81 104.433 176.343C104.433 170.406 99.6026 165.576 93.6656 165.576H93.2757V154.462C106.094 153.129 116.121 142.262 116.121 129.097V118.441C118.433 117.161 120.64 115.682 122.712 114.014C123.855 113.095 124.036 111.422 123.117 110.279ZM110.809 129.097C110.809 140.229 101.752 149.286 90.6198 149.286C89.1525 149.286 87.9634 150.476 87.9634 151.943V168.232C87.9634 169.699 89.1525 170.888 90.6198 170.888H93.6663C95.7104 170.888 97.4952 172.018 98.4286 173.687H86.4619C83.1885 173.687 80.5251 171.023 80.5251 167.75V143.669C83.4143 139.535 85.1134 134.512 85.1134 129.097V124.315H93.4495C99.4194 124.315 105.32 123.158 110.809 120.963V129.097V129.097Z" fill="#F25D54"/>
<path d="M178.935 26.0298V15.9352C178.935 14.7881 178.198 13.7704 177.108 13.4117L140.215 1.27572C138.924 0.853047 137.597 0.531406 136.273 0.320242C134.943 0.10768 133.583 0 132.23 0C120.33 0 110.103 8.08647 107.359 19.6655L100.69 47.8371C77.921 48.3671 56.5955 57.4831 40.4362 73.6431C28.1691 85.9099 19.8568 101.329 16.3978 118.234C16.1037 119.671 17.0302 121.075 18.4678 121.369C18.6478 121.405 18.8268 121.423 19.0034 121.423C20.2389 121.423 21.3458 120.557 21.6031 119.299C24.8531 103.417 32.6647 88.9284 44.1938 77.3993C45.1091 76.484 46.0439 75.595 46.9935 74.7283L49.5635 76.8375C50.0575 77.243 50.6539 77.4406 51.2472 77.4406C52.0146 77.4406 52.7767 77.1091 53.3022 76.4694C54.2325 75.3352 54.0678 73.6613 52.9337 72.731L51.0961 71.2228C53.6063 69.2115 56.2158 67.3561 58.9141 65.6654L60.5443 68.3654C61.0432 69.1919 61.9211 69.6492 62.8206 69.6492C63.2881 69.6492 63.7621 69.5254 64.1915 69.2664C65.4476 68.5081 65.8507 66.875 65.092 65.6192L63.5048 62.9909C66.1199 61.5791 68.8063 60.3139 71.5539 59.1969L72.8198 62.8947C73.1974 63.9977 74.2287 64.6917 75.3328 64.6917C75.6184 64.6917 75.9086 64.6452 76.1939 64.548C77.5818 64.0726 78.322 62.5622 77.8465 61.1743L76.5386 57.3541C79.7991 56.2693 83.1326 55.3855 86.5256 54.7139L88.4225 60.3489C88.7963 61.4582 89.8308 62.1585 90.9397 62.1585C91.2208 62.1585 91.5068 62.1134 91.7879 62.019C93.1779 61.5508 93.9257 60.0444 93.458 58.6536L91.8393 53.8454C95.0291 53.4266 98.2619 53.191 101.525 53.142L107.453 60.6202C107.977 61.282 108.753 61.6263 109.536 61.6263C110.114 61.6263 110.696 61.4386 111.185 61.0516C112.335 60.1402 112.528 58.469 111.616 57.3199L105.679 49.8295L112.529 20.8913C114.703 11.7186 122.804 5.31301 132.23 5.31301C133.303 5.31301 134.381 5.39832 135.435 5.56648C136.484 5.73394 137.537 5.98951 138.559 6.32408L173.622 17.858V23.3731H147.057C147.053 23.3731 147.049 23.3742 147.044 23.3742H137.887C136.419 23.3742 135.23 24.5636 135.23 26.0305C135.23 27.4975 136.419 28.6868 137.887 28.6868H145.909L153.661 36.9338C154.164 37.468 154.864 37.7707 155.597 37.7707H171.799L168.991 44.0295H130.432L130.106 43.4781C124.735 34.3596 123.501 23.3431 126.721 13.2537C127.167 11.856 126.396 10.3614 124.998 9.91527C123.6 9.46987 122.105 10.2404 121.66 11.6385C117.98 23.1672 119.39 35.7549 125.529 46.1775L126.628 48.037C127.106 48.846 127.976 49.3425 128.915 49.3425H135.172L134.848 78.0632C134.744 87.4139 131.603 96.2041 125.765 103.483C124.847 104.627 125.03 106.299 126.175 107.217C127.319 108.135 128.991 107.951 129.909 106.807C135.948 99.2782 139.42 90.3163 140.051 80.7507H146.192V83.9381C146.192 85.405 147.381 86.5944 148.848 86.5944C150.315 86.5944 151.504 85.405 151.504 83.9381V78.0943C151.504 76.6274 150.315 75.438 148.848 75.438H140.191L140.485 49.3428H170.71C171.756 49.3428 172.705 48.7286 173.134 47.7741L178.326 36.2024C178.695 35.3805 178.622 34.4274 178.133 33.6712C177.643 32.915 176.804 32.4584 175.902 32.4584H156.745L153.2 28.6861H176.278C177.745 28.6861 178.935 27.4968 178.935 26.0298Z" fill="#F25D54"/>
<path d="M127.234 75.4384H121.441L126.69 68.5483C127.579 67.3813 127.354 65.7144 126.187 64.8253C125.02 63.9359 123.352 64.1614 122.464 65.3284L113.963 76.4848C113.351 77.2882 113.248 78.3688 113.696 79.2736C114.144 80.1787 115.067 80.7511 116.076 80.7511H124.577V83.9384C124.577 85.4058 125.766 86.5951 127.233 86.5951C128.7 86.5951 129.889 85.4058 129.889 83.9388V78.0951C129.89 76.6278 128.701 75.4384 127.234 75.4384Z" fill="#F25D54"/>
</g>
<defs>
<clipPath id="clip0_575_387">
<rect width="179" height="179" fill="white"/>
</clipPath>
</defs>
</svg>
