<svg width="200" height="100" viewBox="0 0 200 100" fill="none" xmlns="http://www.w3.org/2000/svg">
<g clip-path="url(#clip0_558_159)">
<path fill-rule="evenodd" clip-rule="evenodd" d="M8.64374 95.0298C8.23827 95.1398 13.2533 75.8561 14.3675 67.4952C13.5 66.9999 14.1287 65.3122 14.3675 63.9999C16.769 50.7433 35.1945 25.7862 58.3318 30.8185C58.3318 30.8185 62.4415 14.7017 62.6788 13.1741C62.9146 11.6449 66.4947 3.3845 77.3278 6.97877C88.1625 10.573 96.3757 12.4181 96.3757 12.4181V16.9999H77.3278L76.5939 18.2959L81.1735 18.6731L85.6212 25.5332L94.3751 27.0482L92.3194 31.8259L77.5463 29.665L75.7908 50.1619L70.3153 59.7676L68.0883 62.0275L66.3768 72.8324C66.3768 72.8324 67.5147 80.8146 56.7664 83.5507L54.1261 83.7063L54.1937 92.6299C54.1937 92.6299 60.4927 91.019 60.2507 96.9361L50.9043 96.9582C50.9043 96.9582 47.8648 96.0718 47.6511 91.9164C47.4389 87.7595 47.1215 77.6116 47.1215 77.6116C47.1215 77.6116 45.3377 80.5631 41.9462 82.1709C38.5531 83.7786 36.2004 84.2878 36.2004 84.2878V91.7168C36.2004 91.7168 38.7118 91.7577 40.4091 94.2C42.1065 96.6423 41.3898 97.3982 41.3898 97.3982L36.2004 97.0619L32.5039 96.5825L30.4498 95.8187L29.2083 93.048L29.444 88.4149L29.4409 81.9178L30.0522 78.3833L32.7978 75.2448H36.2004L32.1927 71.8171L29.51 68.5686L28.0767 71.8171L25.9315 78.245L22.1046 83.3543L19.0478 88.4652L14.0799 91.6823L10.6397 94.0475L8.64374 95.0298Z" fill="#0F0F0F"/>
<path fill-rule="evenodd" clip-rule="evenodd" d="M109.023 94.9483C108.618 95.0583 113.633 75.7747 114.747 67.4137C114.827 66.8134 115.346 65.9065 115.585 64.5943C117.986 51.3377 135.574 25.7048 158.711 30.7371C158.711 30.7371 162.821 14.6202 163.058 13.0926C163.294 11.5634 167.667 2.40561 178.5 5.99988C189.335 9.59415 197.5 11.9998 197.5 11.9998V16.4998H177.926L176.973 18.2145L181.553 18.5917L186.589 22.2519L196.628 22.571L194.255 28.8197L177.926 29.5835L176.17 50.0804L174 55.4998L170.695 59.6861L168.468 61.9461C168.468 61.9461 165.432 64.5282 164.665 65.4791C161.616 69.2604 162.235 77.8304 158.381 80.7064L156.525 83.4614L158.974 90.5447C158.974 90.5447 166.989 86.82 166.747 92.7371L156.525 95.9542C156.525 95.9542 152.323 96.5278 152.109 92.3709C151.897 88.214 147.501 77.5302 147.501 77.5302C147.501 77.5302 145.717 80.4817 142.326 82.0894C138.933 83.6972 133.762 84.417 133.762 84.417L133.437 92.8691L137.545 97.3167L132.884 96.5011L129.042 97.3167L125.579 93.6643L126.195 88.4921L126.344 82.278L127.886 78.4056L133.177 75.1633L134.249 75.0014L132.572 71.7356L129.89 68.4871L128.456 71.7356L126.311 78.1635L122.484 83.2728L119.427 88.3837L114.46 91.6008L111.019 93.9661L109.023 94.9483Z" fill="#0F0F0F"/>
<path d="M25.785 26.681L22.988 29.093L23.244 29.39C24.119 28.635 24.421 28.701 25.378 29.811L27.103 31.811C28.059 32.92 28.094 33.245 27.219 33.999C26.467 34.485 25.703 34.516 24.485 34.368L23.093 34.206C23.913 33.199 23.903 32.145 23.31 31.457C22.57 30.598 21.269 30.575 19.894 31.761L17.144 34.132L17.4 34.429C18.275 33.675 18.577 33.741 19.534 34.85L21.259 36.85C22.216 37.96 22.25 38.284 21.375 39.039L21.631 39.336L24.741 36.654L24.485 36.357C23.61 37.112 23.294 37.03 22.337 35.92L21.852 35.358L22.118 35.129L25.725 35.805L30.272 31.884C32.506 29.957 32.451 27.934 31.225 26.512C29.999 25.09 28.019 24.754 25.785 26.681ZM21.434 34.873L19.642 32.795L20.283 32.243C20.986 31.637 21.716 31.852 22.201 32.414C22.673 32.961 22.778 33.715 22.075 34.321L21.434 34.873ZM29.901 31.359L29.792 31.454C29.229 31.939 29.03 31.865 28.41 31.147L25.486 27.756L26.236 27.109C27.861 25.708 29.182 26.639 29.977 27.561C30.799 28.514 31.526 29.958 29.901 31.359Z" fill="white"/>
<path d="M11.136 44.7629L9.465 40.6449C8.983 39.4539 8.613 39.3089 7.613 40.1719L7.344 39.8589L10.281 37.3259L10.551 37.6389C9.567 38.4869 9.534 38.9239 10.127 40.4009L12.954 47.2809L12.751 47.4569L6.94 43.9399L9.532 50.2319L9.329 50.4069L2.987 46.5589C1.628 45.7419 1.176 45.7229 0.269 46.5049L0 46.1919L3.469 43.2009L3.738 43.5129C2.816 44.3089 2.755 44.7429 3.918 45.4289L7.714 47.7139L5.25 41.6649L5.547 41.4089L11.136 44.7629Z" fill="white"/>
<path d="M18.416 42.4621C16.697 43.9451 14.199 43.8921 12.865 42.3451C11.545 40.8131 11.86 38.3351 13.578 36.8531C15.297 35.3711 17.795 35.4241 19.115 36.9551C20.449 38.5021 20.135 40.9801 18.416 42.4621ZM13.996 37.3381C12.559 38.5771 13.177 40.3051 14.053 41.3211C14.942 42.3521 16.547 43.2021 17.985 41.9631C19.438 40.7091 18.833 38.9971 17.944 37.9651C17.068 36.9501 15.45 36.0841 13.996 37.3381Z" fill="white"/>
<path d="M37.065 25.4819L37.334 25.7939L33.756 28.8799L33.487 28.5669C34.534 27.6639 34.492 27.2369 33.145 25.6739L30.989 23.1739C29.641 21.6119 29.238 21.5229 28.191 22.4259L27.922 22.1139L31.156 19.3249C32.765 17.9369 34.37 17.9969 35.327 19.1059C36.257 20.1839 36.094 21.7959 34.484 23.1839L33.594 23.9519L34.254 24.7179C35.601 26.2809 36.018 26.3839 37.065 25.4819ZM31.641 19.8869L30.75 20.6549L33.095 23.3739L33.986 22.6059C34.861 21.8509 34.742 20.8919 34.108 20.1569C33.461 19.4069 32.516 19.1329 31.641 19.8869Z" fill="white"/>
<path d="M48.959 13.209L49.123 13.558C49.427 14.195 49.417 14.53 48.307 15.487L48.088 15.676C47.276 16.376 46.974 16.31 46.017 15.201L45.397 14.482C46.616 13.431 46.804 13.459 47.505 14.272L47.802 14.016L45.794 11.688L45.497 11.944C46.198 12.756 46.198 12.946 44.979 13.998L43.47 12.248L44.33 11.507C45.439 10.55 45.773 10.589 46.358 10.984L46.692 11.213L46.942 10.997L45.566 9.62305L40.972 13.584L41.228 13.881C42.103 13.127 42.406 13.193 43.362 14.302L45.087 16.302C45.962 17.317 46.063 17.676 45.405 18.307C44.663 18.773 43.904 18.803 42.704 18.657L41.312 18.496C42.132 17.488 42.122 16.434 41.529 15.746C40.789 14.887 39.488 14.864 38.113 16.05L35.363 18.421L35.619 18.718C36.494 17.964 36.796 18.03 37.753 19.139L39.478 21.139C40.435 22.249 40.469 22.573 39.594 23.328L39.85 23.625L42.96 20.943L42.704 20.646C41.829 21.401 41.513 21.319 40.556 20.21L40.071 19.647L40.337 19.418L43.944 20.094L50.366 14.556L49.193 13.007L48.959 13.209ZM39.653 19.163L37.861 17.085L38.502 16.532C39.205 15.926 39.935 16.141 40.42 16.703C40.892 17.25 40.997 18.004 40.294 18.61L39.653 19.163Z" fill="white"/>
<path d="M53.572 12.1449C52.947 12.6839 52.117 12.8279 51.707 12.8269C51.697 12.9729 51.758 13.3279 51.916 13.5739L51.619 13.8299L49.76 11.6739L50.072 11.4039C51.086 12.3269 52.33 12.3169 53.252 11.5219C53.752 11.0909 53.916 10.4589 53.512 9.9909C53.162 9.5839 52.533 9.5819 51.636 9.8369L50.382 10.1839C49.5 10.4259 48.587 10.3139 47.994 9.6269C47.347 8.8769 47.498 7.6299 48.467 6.7939C48.983 6.3499 49.582 6.1599 50.036 6.1489C50.06 6.0199 49.99 5.7799 49.875 5.5519L50.172 5.2959L51.762 7.1399L51.434 7.4229C50.691 6.7829 49.76 6.5239 48.932 7.2379C48.494 7.6149 48.303 8.2159 48.64 8.6069C48.99 9.0129 49.507 8.9479 50.554 8.6449L51.777 8.3259C52.837 8.0389 53.632 8.3609 54.037 8.8299C54.885 9.8139 54.619 11.2429 53.572 12.1449Z" fill="white"/>
<path d="M58.384 7.995C57.759 8.534 56.929 8.678 56.52 8.677C56.509 8.822 56.571 9.178 56.728 9.424L56.431 9.68L54.572 7.524L54.885 7.254C55.899 8.178 57.143 8.167 58.065 7.372C58.565 6.941 58.729 6.309 58.325 5.841C57.974 5.434 57.345 5.432 56.449 5.687L55.194 6.034C54.313 6.275 53.399 6.164 52.807 5.477C52.16 4.727 52.311 3.48 53.28 2.644C53.795 2.2 54.394 2.01 54.849 2C54.873 1.87 54.803 1.63 54.687 1.402L54.984 1.146L56.575 2.99L56.246 3.273C55.504 2.633 54.572 2.374 53.744 3.088C53.307 3.465 53.116 4.066 53.453 4.457C53.803 4.863 54.32 4.799 55.366 4.495L56.589 4.176C57.649 3.889 58.445 4.211 58.849 4.68C59.698 5.664 59.431 7.093 58.384 7.995Z" fill="white"/>
<path d="M12.18 19.422C14.541 22.159 18.171 23.153 21.444 22.285L10.352 16.092C10.71 17.283 11.316 18.42 12.18 19.422Z" fill="white"/>
<path d="M23.463 9.08498C22.726 8.22998 21.908 7.90298 21.248 7.66898C20.406 7.40198 19.662 7.20298 19.17 6.63298C18.622 5.99798 18.594 4.98998 19.273 4.40498C19.304 4.37798 19.336 4.35698 19.367 4.33298C17.165 4.26698 14.933 4.99198 13.132 6.54498C10.717 8.62799 9.66003 11.7 10.043 14.644C10.209 14.509 10.365 14.38 10.495 14.268C11.218 13.645 12.262 12.591 12.262 12.591C12.616 12.248 13.132 12.757 12.798 13.123C12.798 13.123 12.461 13.49 12.063 13.871L21.04 19.19L18.64 13.346L15.017 11.323C14.626 11.623 14.235 11.883 14.235 11.883C13.843 12.182 13.396 11.575 13.787 11.275C13.787 11.275 15.005 10.378 15.684 9.79198C16.408 9.16898 17.452 8.11498 17.452 8.11498C17.806 7.77198 18.322 8.28199 17.987 8.64699C17.987 8.64699 17.65 9.01499 17.253 9.39499L26.162 14.674L24.864 11.774C24.338 10.56 23.973 9.67698 23.463 9.08498Z" fill="white"/>
<path d="M19.738 13.959L22.863 21.777C23.639 21.425 24.38 20.96 25.059 20.375C25.864 19.68 26.516 18.875 27.017 18.002C26.973 17.989 26.929 17.972 26.886 17.95L19.738 13.959Z" fill="white"/>
<path d="M22.302 4.90894C22.522 5.10394 22.742 5.32594 22.962 5.57994C23.567 6.28194 24.116 7.18294 24.572 8.50994L27.726 16.4389C28.748 13.4669 28.21 10.0469 26.01 7.49594C24.974 6.29394 23.692 5.42794 22.302 4.90894Z" fill="white"/>
<path d="M12.144 5.39899C7.7 9.23099 7.202 15.966 11.035 20.41C14.868 24.856 21.602 25.353 26.047 21.52C30.491 17.687 30.99 10.953 27.157 6.50799C23.324 2.06298 16.589 1.56599 12.144 5.39899ZM25.728 21.151C21.487 24.808 15.062 24.333 11.404 20.092C7.747 15.851 8.222 9.42499 12.463 5.76799C16.704 2.11099 23.129 2.58599 26.786 6.82699C30.444 11.068 29.969 17.494 25.728 21.151Z" fill="white"/>
<path d="M81.229 9.44392L79.457 9.06492C78.69 8.90092 77.932 9.38892 77.767 10.1589C77.603 10.9269 78.092 11.6839 78.86 11.8489L80.632 12.2289C80.733 12.2499 80.833 12.2599 80.932 12.2599C81.588 12.2599 82.179 11.8019 82.323 11.1349C82.487 10.3649 81.997 9.60892 81.229 9.44392Z" fill="white"/>
<path d="M75.3 29.9741L75.126 45.3651C75.071 50.3761 73.387 55.0861 70.259 58.9861C69.767 59.5991 69.865 60.4961 70.478 60.9871C71.092 61.4791 71.988 61.3811 72.48 60.7671C75.716 56.7331 77.577 51.9311 77.915 46.8041L77.99 43.9581L78.148 29.9741" fill="white"/>
<path d="M84.961 18.905H97.328C98.114 18.905 98.751 18.268 98.751 17.481V12.072C98.751 11.458 98.357 10.913 97.772 10.72L78.002 4.21596C77.311 3.98996 76.6 3.81696 75.89 3.70496C75.178 3.59096 74.448 3.53296 73.724 3.53296C67.347 3.53296 61.867 7.86596 60.397 14.071L56.823 29.168C44.621 29.451 33.193 34.336 24.534 42.996C17.96 49.57 13.506 57.832 11.652 66.8909C11.494 67.6609 11.991 68.413 12.761 68.57C12.858 68.591 12.954 68.6 13.049 68.6C13.711 68.6 14.304 68.1359 14.442 67.4619C16.184 58.951 20.37 51.187 26.547 45.009C27.037 44.518 27.539 44.042 28.047 43.578L29.425 44.708C29.69 44.925 30.01 45.031 30.327 45.031C30.739 45.031 31.147 44.853 31.428 44.51C31.927 43.903 31.838 43.006 31.231 42.508L30.246 41.699C31.591 40.621 32.99 39.627 34.435 38.722L35.309 40.167C35.577 40.61 36.047 40.856 36.529 40.856C36.78 40.856 37.033 40.79 37.264 40.651C37.937 40.245 38.153 39.369 37.746 38.697L36.896 37.288C38.297 36.531 39.736 35.854 41.209 35.254L41.887 37.237C42.09 37.828 42.643 38.199 43.233 38.199C43.387 38.199 43.543 38.174 43.696 38.122C44.439 37.867 44.835 37.058 44.581 36.315L43.88 34.267C45.628 33.686 47.414 33.213 49.232 32.852L50.248 35.872C50.448 36.467 51.003 36.842 51.597 36.842C51.748 36.842 51.901 36.818 52.052 36.767C52.797 36.516 53.197 35.709 52.947 34.964L52.079 32.387C53.788 32.163 55.521 32.036 57.27 32.01L60.446 36.017C60.727 36.372 61.143 36.557 61.563 36.557C61.872 36.557 62.184 36.457 62.446 36.249C63.062 35.76 63.166 34.865 62.677 34.249L59.496 30.235L63.166 14.728C64.331 9.81296 68.672 6.37996 73.724 6.37996C74.298 6.37996 74.877 6.42596 75.441 6.51596C76.004 6.60596 76.567 6.74296 77.115 6.92196L95.905 13.102V16.058H81.669C81.667 16.058 81.664 16.059 81.662 16.059H76.755C75.969 16.059 75.331 16.696 75.331 17.482C75.331 18.268 75.969 18.906 76.755 18.906H81.054" fill="white"/>
<path d="M68.648 46.1299L65.649 45.3259L69.322 42.4869C69.944 42.0069 70.059 41.1129 69.578 40.4899C69.098 39.8679 68.203 39.7539 67.582 40.2349L61.634 44.8309C61.205 45.1609 61.002 45.7059 61.108 46.2369C61.215 46.7669 61.613 47.1919 62.136 47.3319L66.535 48.5109L66.093 50.1609C65.89 50.9199 66.341 51.7009 67.1 51.9039C67.86 52.1079 68.64 51.6569 68.843 50.8969L69.653 47.8729C69.858 47.1129 69.407 46.3329 68.648 46.1299Z" fill="white"/>
<path d="M82.549 17.929L78.933 17.505L84.506 25.51C84.73 25.832 85.079 26.047 85.467 26.104L94.056 27.369L92.079 30.468L71.636 27.456L71.507 27.139C69.372 21.886 69.578 15.948 72.072 10.851C72.419 10.145 72.126 9.29299 71.42 8.94599C70.714 8.60099 69.862 8.89399 69.515 9.59999C66.665 15.424 66.429 22.208 68.87 28.213L69.307 29.284C69.497 29.751 69.919 30.082 70.418 30.155L92.575 33.419C93.13 33.501 93.681 33.249 93.983 32.777L97.64 27.047C97.899 26.641 97.935 26.129 97.734 25.69C97.534 25.252 97.125 24.944 96.647 24.873L86.491 23.377L82.549 17.929Z" fill="white"/>
<path d="M29.726 71.2399L27.347 68.7469C25.991 74.0079 22.174 81.5519 18.718 85.7579C15.834 89.2689 12.318 92.2289 8.38602 94.4809C11.76 89.0479 13.539 82.8259 13.539 76.4129C13.539 74.9389 13.612 73.4509 13.756 71.9919C13.834 71.2089 13.261 70.5129 12.479 70.4359C11.696 70.3569 10.999 70.9299 10.923 71.7109C10.769 73.2649 10.692 74.8459 10.692 76.4129C10.692 82.6479 8.85802 88.6829 5.39402 93.8699L3.14102 97.2389C2.79302 97.7569 2.82502 98.4409 3.21802 98.9269C3.49502 99.2669 3.90402 99.4539 4.32402 99.4539C4.50102 99.4539 4.68302 99.4209 4.85502 99.3509C11.094 96.8379 16.65 92.7619 20.917 87.5649C24.202 83.5669 28.185 76.1649 29.726 71.2399ZM65.091 67.0029L62.244 68.3529C59.303 69.5289 56.14 70.1489 52.942 70.1489H47.47L47.79 67.3019H52.942C56.474 67.3019 59.859 66.4949 62.925 64.9409C62.978 64.9099 63.031 64.8799 63.088 64.8549C64.403 64.1749 65.658 63.3609 66.84 62.4119C67.452 61.9189 68.348 62.0149 68.84 62.6279C69.333 63.2409 69.236 64.1379 68.622 64.6299C67.512 65.5229 66.33 66.3159 65.091 67.0029Z" fill="white"/>
<path d="M46.904 79.6389L44.057 82.6319C42.097 84.1519 39.716 85.1519 37.12 85.4219V91.3779H37.33C40.509 91.3779 43.098 93.9679 43.098 97.1479C43.098 97.9349 42.462 98.5719 41.675 98.5719H33.469C30.145 98.5719 27.44 95.8679 27.44 92.5439V81.8659C27.44 79.7719 28.442 77.7699 30.117 76.5129L33.19 74.2089L31.719 73.2789C30.934 72.7819 30.214 72.2089 29.568 71.5709C29.549 71.6409 27.316 68.7459 27.345 68.6029C26.401 66.8599 25.864 64.8909 25.821 62.8389C25.727 58.5789 27.763 54.5859 31.265 52.1559C31.912 51.7079 32.798 51.8679 33.246 52.5139C33.694 53.1609 33.533 54.0459 32.888 54.4949C30.174 56.3789 28.595 59.4749 28.667 62.7779C28.738 66.0809 30.448 69.1069 33.24 70.8709L36.458 72.9029C36.854 73.1549 37.1 73.5839 37.12 74.0509C37.137 74.5189 36.926 74.9659 36.55 75.2459L31.825 78.7909C30.862 79.5139 30.288 80.6609 30.288 81.8659V92.5439C30.288 94.2969 31.715 95.7249 33.469 95.7249H39.882C39.381 94.8309 38.424 94.2249 37.33 94.2249H35.698C34.911 94.2249 34.274 93.5869 34.274 92.8019V84.0719C34.274 83.2849 34.911 82.6479 35.698 82.6479C41.663 82.6479 46.516 77.7949 46.516 71.8299V60.7269C46.516 59.9409 47.153 59.3029 47.938 59.3029C48.725 59.3029 49.362 59.9409 49.362 60.7269V66.4209H49.375V69.2679H49.362V71.8299C49.362 74.7319 48.452 77.4239 46.904 79.6389Z" fill="white"/>
<path d="M65.273 79.6391L62.426 82.6321C60.466 84.1521 58.085 85.1521 55.489 85.4221V91.3781H55.699C58.878 91.3781 61.467 93.9681 61.467 97.1481C61.467 97.9351 60.831 98.5721 60.044 98.5721H51.838C48.514 98.5721 45.809 95.8681 45.809 92.5441V77.8411C45.773 77.3871 48.657 74.0331 48.657 75.2371V92.5441C48.657 94.2971 50.084 95.7251 51.838 95.7251H58.251C57.75 94.8311 56.793 94.2251 55.699 94.2251H54.067C53.28 94.2251 52.643 93.5871 52.643 92.8021V84.0721C52.643 83.2851 53.28 82.6481 54.067 82.6481C60.032 82.6481 64.885 77.7951 64.885 71.8301H67.731C67.731 74.7321 66.821 77.4241 65.273 79.6391Z" fill="white"/>
<path fill-rule="evenodd" clip-rule="evenodd" d="M64.885 71.9441V66.6721L67.732 63.9971V71.9441H64.885Z" fill="white"/>
<path d="M77.81 46.878L79.752 44.935L80.961 46.144C81.516 46.699 82.418 46.699 82.974 46.144C83.53 45.588 83.529 44.687 82.974 44.131L80.759 41.916C80.203 41.36 79.302 41.36 78.746 41.916L75.745 44.917" fill="white"/>
<path d="M126.87 26.535L124.073 28.947L124.329 29.243C125.204 28.489 125.506 28.555 126.463 29.665L128.188 31.665C129.144 32.774 129.179 33.098 128.304 33.853C127.552 34.339 126.788 34.37 125.57 34.221L124.178 34.06C124.998 33.053 124.989 31.999 124.396 31.311C123.655 30.452 122.354 30.429 120.979 31.615L118.229 33.986L118.485 34.283C119.36 33.528 119.662 33.595 120.619 34.704L122.344 36.704C123.301 37.814 123.335 38.138 122.46 38.892L122.716 39.189L125.826 36.508L125.57 36.211C124.695 36.966 124.379 36.884 123.422 35.774L122.937 35.212L123.203 34.983L126.81 35.659L131.357 31.738C133.591 29.811 133.536 27.788 132.31 26.366C131.084 24.944 129.105 24.608 126.87 26.535ZM122.519 34.727L120.727 32.649L121.368 32.097C122.071 31.491 122.801 31.705 123.286 32.268C123.758 32.815 123.863 33.569 123.16 34.175L122.519 34.727ZM130.986 31.213L130.877 31.307C130.314 31.792 130.115 31.719 129.495 31L126.571 27.61L127.321 26.963C128.946 25.562 130.267 26.493 131.062 27.415C131.884 28.368 132.611 29.812 130.986 31.213Z" fill="white"/>
<path d="M112.221 44.6159L110.55 40.4989C110.068 39.3069 109.699 39.1629 108.699 40.0259L108.429 39.7129L111.366 37.1799L111.636 37.4919C110.652 38.3409 110.619 38.7779 111.212 40.2549L114.039 47.1349L113.836 47.3099L108.025 43.7939L110.617 50.0859L110.414 50.2609L104.072 46.4129C102.713 45.5959 102.261 45.5769 101.355 46.3589L101.085 46.0459L104.554 43.0549L104.823 43.3669C103.901 44.1619 103.84 44.5969 105.003 45.2819L108.799 47.5669L106.335 41.5189L106.632 41.2629L112.221 44.6159Z" fill="white"/>
<path d="M119.501 42.3161C117.782 43.7981 115.284 43.7451 113.95 42.1981C112.63 40.6671 112.945 38.1891 114.663 36.7071C116.382 35.2241 118.88 35.2771 120.2 36.8091C121.534 38.3561 121.22 40.8341 119.501 42.3161ZM115.081 37.1911C113.644 38.4311 114.262 40.1591 115.138 41.1741C116.027 42.2061 117.632 43.0561 119.07 41.8161C120.523 40.5631 119.918 38.8511 119.029 37.8191C118.153 36.8041 116.535 35.9381 115.081 37.1911Z" fill="white"/>
<path d="M138.15 25.3349L138.419 25.6479L134.841 28.7329L134.572 28.4209C135.619 27.5179 135.577 27.0909 134.23 25.5279L132.074 23.0279C130.726 21.4659 130.323 21.3769 129.276 22.2799L129.007 21.9679L132.241 19.1779C133.85 17.7909 135.455 17.8499 136.412 18.9599C137.342 20.0379 137.179 21.6499 135.569 23.0379L134.679 23.8059L135.339 24.5709C136.686 26.1339 137.103 26.2379 138.15 25.3349ZM132.726 19.7409L131.835 20.5089L134.18 23.2279L135.071 22.4599C135.946 21.7049 135.827 20.7459 135.193 20.0109C134.547 19.2609 133.601 18.9859 132.726 19.7409Z" fill="white"/>
<path d="M150.044 13.0631L150.208 13.4111C150.512 14.0481 150.502 14.384 149.392 15.341L149.173 15.53C148.361 16.2301 148.059 16.1641 147.102 15.0551L146.482 14.3361C147.701 13.2851 147.889 13.3131 148.59 14.1261L148.887 13.87L146.879 11.5411L146.582 11.7971C147.283 12.6101 147.283 12.8001 146.064 13.851L144.555 12.1011L145.415 11.3601C146.524 10.4031 146.858 10.4431 147.443 10.8371L147.777 11.0671L148.027 10.8511L146.651 9.47705L142.057 13.4381L142.313 13.735C143.188 12.9801 143.491 13.0471 144.447 14.1561L146.172 16.1561C147.047 17.1711 147.148 17.53 146.49 18.161C145.748 18.626 144.989 18.6571 143.789 18.511L142.397 18.3491C143.217 17.3421 143.207 16.2881 142.615 15.6001C141.874 14.7411 140.573 14.7181 139.198 15.9041L136.448 18.275L136.704 18.5721C137.579 17.8171 137.881 17.8841 138.838 18.993L140.563 20.993C141.52 22.1031 141.554 22.427 140.679 23.181L140.935 23.4781L144.045 20.7971L143.789 20.5C142.914 21.2541 142.598 21.173 141.641 20.063L141.156 19.501L141.422 19.272L145.029 19.948L151.451 14.41L150.278 12.8611L150.044 13.0631ZM140.738 19.017L138.946 16.939L139.587 16.386C140.29 15.78 141.02 15.995 141.505 16.557C141.977 17.104 142.082 17.8581 141.379 18.4641L140.738 19.017Z" fill="white"/>
<path d="M154.657 11.9989C154.032 12.5379 153.202 12.6819 152.792 12.6809C152.782 12.8259 152.843 13.1819 153.001 13.4269L152.704 13.6829L150.845 11.5269L151.157 11.2579C152.171 12.1809 153.415 12.1709 154.337 11.3759C154.837 10.9449 155.001 10.3129 154.597 9.8439C154.247 9.4379 153.618 9.4349 152.721 9.6909L151.467 10.0369C150.585 10.2789 149.672 10.1679 149.079 9.4799C148.433 8.7299 148.583 7.4839 149.552 6.6479C150.068 6.2029 150.667 6.0139 151.121 6.0029C151.145 5.8729 151.075 5.6339 150.96 5.4059L151.257 5.1499L152.847 6.9939L152.519 7.2769C151.776 6.6369 150.845 6.3779 150.017 7.0919C149.579 7.4689 149.388 8.0699 149.725 8.4599C150.076 8.8669 150.592 8.8019 151.639 8.4989L152.862 8.1799C153.922 7.8929 154.717 8.2149 155.122 8.6839C155.97 9.6679 155.704 11.0959 154.657 11.9989Z" fill="white"/>
<path d="M159.469 7.849C158.844 8.388 158.015 8.532 157.605 8.531C157.594 8.676 157.656 9.032 157.813 9.277L157.516 9.533L155.657 7.377L155.97 7.108C156.984 8.031 158.228 8.021 159.15 7.226C159.65 6.795 159.814 6.163 159.41 5.694C159.059 5.288 158.43 5.285 157.534 5.541L156.279 5.887C155.398 6.129 154.484 6.018 153.892 5.331C153.245 4.581 153.396 3.334 154.365 2.498C154.88 2.053 155.479 1.864 155.934 1.853C155.958 1.724 155.888 1.484 155.773 1.256L156.069 1L157.66 2.844L157.332 3.127C156.589 2.487 155.657 2.228 154.829 2.942C154.392 3.319 154.201 3.92 154.538 4.31C154.888 4.717 155.405 4.652 156.451 4.349L157.674 4.03C158.734 3.743 159.53 4.065 159.934 4.534C160.783 5.518 160.516 6.946 159.469 7.849Z" fill="white"/>
<path d="M113.266 19.276C115.626 22.013 119.256 23.007 122.53 22.139L111.437 15.946C111.795 17.137 112.401 18.274 113.266 19.276Z" fill="white"/>
<path d="M124.548 8.9381C123.811 8.0841 122.993 7.7571 122.333 7.5231C121.491 7.2561 120.747 7.0571 120.255 6.4871C119.707 5.8511 119.679 4.8441 120.358 4.2581C120.389 4.2321 120.421 4.2111 120.453 4.1871C118.25 4.1201 116.018 4.8461 114.218 6.3981C111.802 8.4821 110.745 11.5541 111.128 14.4971C111.294 14.3621 111.45 14.2341 111.58 14.1221C112.303 13.4981 113.347 12.4451 113.347 12.4451C113.701 12.1021 114.217 12.6111 113.883 12.9761C113.883 12.9761 113.546 13.3441 113.148 13.7251L122.125 19.0431L119.725 13.2001L116.102 11.1771C115.711 11.4761 115.32 11.7371 115.32 11.7371C114.928 12.0361 114.481 11.4291 114.872 11.1291C114.872 11.1291 116.09 10.2321 116.77 9.6461C117.493 9.0231 118.537 7.9691 118.537 7.9691C118.891 7.6261 119.407 8.1351 119.072 8.5011C119.072 8.5011 118.735 8.8681 118.338 9.2491L127.247 14.5271L125.949 11.6281C125.423 10.4141 125.058 9.5301 124.548 8.9381Z" fill="white"/>
<path d="M120.824 13.813L123.948 21.631C124.724 21.279 125.465 20.814 126.144 20.228C126.949 19.534 127.602 18.729 128.102 17.856C128.058 17.842 128.014 17.826 127.971 17.803L120.824 13.813Z" fill="white"/>
<path d="M123.387 4.76294C123.607 4.95694 123.828 5.17894 124.047 5.43394C124.652 6.13494 125.201 7.03694 125.657 8.36394L128.811 16.2919C129.833 13.3209 129.295 9.90094 127.095 7.34994C126.059 6.14794 124.777 5.28194 123.387 4.76294Z" fill="white"/>
<path d="M113.229 5.252C108.785 9.085 108.287 15.82 112.12 20.264C115.953 24.709 122.687 25.207 127.132 21.374C131.576 17.541 132.075 10.806 128.242 6.361C124.409 1.917 117.674 1.42 113.229 5.252ZM126.813 21.004C122.573 24.661 116.147 24.186 112.489 19.945C108.832 15.705 109.307 9.279 113.548 5.622C117.789 1.965 124.214 2.44 127.871 6.681C131.529 10.922 131.054 17.347 126.813 21.004Z" fill="white"/>
<path d="M182.314 9.2981L180.542 8.9181C179.775 8.7551 179.017 9.2431 178.852 10.0121C178.688 10.7811 179.177 11.5371 179.945 11.7031L181.717 12.0831C181.818 12.1041 181.918 12.1141 182.017 12.1141C182.673 12.1141 183.264 11.6561 183.408 10.9891C183.572 10.2191 183.082 9.4631 182.314 9.2981Z" fill="white"/>
<path d="M176.385 29.8279L176.211 45.2179C176.156 50.2289 174.472 54.9399 171.344 58.8399C170.852 59.4529 170.95 60.3489 171.563 60.8409C172.177 61.3329 173.073 61.2349 173.565 60.6209C176.802 56.5869 178.662 51.7849 179 46.6579L179.075 43.8109L179.233 29.8279" fill="white"/>
<path d="M186.046 18.759H198.413C199.199 18.759 199.836 18.122 199.836 17.335V11.926C199.836 11.311 199.442 10.766 198.858 10.574L179.087 4.06996C178.396 3.84396 177.685 3.67096 176.975 3.55896C176.263 3.44396 175.533 3.38696 174.809 3.38696C168.432 3.38696 162.952 7.71996 161.482 13.925L157.908 29.021C145.706 29.305 134.278 34.19 125.619 42.85C119.045 49.423 114.591 57.686 112.737 66.745C112.579 67.515 113.076 68.267 113.846 68.424C113.943 68.444 114.039 68.453 114.134 68.453C114.796 68.453 115.389 67.99 115.527 67.315C117.269 58.804 121.455 51.041 127.632 44.862C128.122 44.372 128.624 43.895 129.132 43.432L130.51 44.561C130.775 44.779 131.095 44.884 131.412 44.884C131.824 44.884 132.232 44.707 132.513 44.364C133.012 43.757 132.923 42.86 132.316 42.362L131.331 41.553C132.676 40.475 134.075 39.481 135.52 38.575L136.394 40.021C136.662 40.464 137.132 40.709 137.614 40.709C137.865 40.709 138.118 40.644 138.349 40.504C139.022 40.098 139.238 39.223 138.831 38.55L137.981 37.142C139.382 36.385 140.821 35.707 142.294 35.108L142.972 37.091C143.175 37.681 143.728 38.053 144.318 38.053C144.472 38.053 144.628 38.028 144.781 37.976C145.524 37.721 145.92 36.912 145.666 36.168L144.965 34.121C146.713 33.539 148.499 33.066 150.317 32.706L151.333 35.726C151.533 36.32 152.088 36.695 152.682 36.695C152.833 36.695 152.986 36.672 153.137 36.62C153.882 36.37 154.282 35.563 154.032 34.817L153.165 32.24C154.873 32.016 156.606 31.89 158.355 31.864L161.531 35.871C161.812 36.226 162.228 36.411 162.648 36.411C162.957 36.411 163.269 36.31 163.531 36.103C164.147 35.614 164.251 34.719 163.762 34.103L160.581 30.089L164.251 14.582C165.416 9.66696 169.758 6.23296 174.809 6.23296C175.384 6.23296 175.962 6.27896 176.526 6.36996C177.089 6.45896 177.652 6.59696 178.2 6.77596L196.99 12.956V15.912H182.754C182.752 15.912 182.749 15.913 182.747 15.913H177.84C177.054 15.913 176.416 16.549 176.416 17.336C176.416 18.122 177.054 18.76 177.84 18.76H182.139" fill="white"/>
<path d="M167.619 42.321L166.816 45.32L163.977 41.647C163.496 41.025 162.602 40.91 161.98 41.391C161.358 41.871 161.244 42.766 161.724 43.387L166.32 49.335C166.651 49.764 167.196 49.966 167.726 49.861C168.257 49.753 168.681 49.356 168.822 48.833L170 44.433L171.65 44.875C172.409 45.079 173.19 44.628 173.393 43.869C173.597 43.109 173.146 42.329 172.387 42.126L169.362 41.315C168.603 41.111 167.823 41.562 167.619 42.321Z" fill="white"/>
<path d="M183.151 16.2729L179.512 16.3799L186.192 23.4869C186.461 23.7729 186.837 23.9349 187.23 23.9349H195.912L194.407 27.2889H173.744L173.569 26.9929C170.691 22.1069 170.03 16.2029 171.755 10.7969C171.995 10.0479 171.582 9.24788 170.832 9.00788C170.083 8.76888 169.283 9.18288 169.043 9.93188C167.072 16.1089 167.827 22.8549 171.117 28.4399L171.706 29.4359C171.962 29.8699 172.428 30.1359 172.932 30.1359H195.328C195.889 30.1359 196.398 29.8069 196.627 29.2959L199.41 23.0939C199.608 22.6539 199.568 22.1429 199.306 21.7379C199.044 21.3329 198.594 21.0879 198.111 21.0879H187.845L183.151 16.2729Z" fill="white"/>
<path d="M130.811 71.0941L128.432 68.6011C127.076 73.8621 123.258 81.4061 119.803 85.6121C116.919 89.1221 113.403 92.0831 109.471 94.3351C112.845 88.9021 114.624 82.6801 114.624 76.2661C114.624 74.7921 114.697 73.3051 114.841 71.8451C114.919 71.0631 114.346 70.3671 113.564 70.2891C112.781 70.2101 112.084 70.7841 112.008 71.5651C111.854 73.1181 111.777 74.7001 111.777 76.2661C111.777 82.5011 109.943 88.5371 106.479 93.7241L104.226 97.0921C103.878 97.6111 103.91 98.2951 104.303 98.7811C104.58 99.1211 104.989 99.3071 105.409 99.3071C105.586 99.3071 105.768 99.2751 105.94 99.2041C112.179 96.6911 117.734 92.6161 122.002 87.4191C125.287 83.4211 129.27 76.0191 130.811 71.0941ZM166.176 66.8571L163.329 68.2071C160.388 69.3831 157.225 70.0031 154.027 70.0031H148.555L148.875 67.1561H154.027C157.559 67.1561 160.944 66.3481 164.01 64.7951C164.063 64.7641 164.116 64.7341 164.173 64.7091C165.488 64.0291 166.743 63.2151 167.925 62.2661C168.537 61.7721 169.433 61.8691 169.925 62.4821C170.418 63.0941 170.321 63.9921 169.707 64.4841C168.597 65.3761 167.415 66.1691 166.176 66.8571Z" fill="white"/>
<path d="M145.528 81.1601L142.339 83.7861C140.209 85.0571 137.725 85.762 135.115 85.715L134.393 91.627L134.602 91.6521C137.758 92.0381 140.014 94.9211 139.628 98.0791C139.533 98.8601 138.824 99.4151 138.043 99.319L129.898 98.325C126.598 97.922 124.241 94.9101 124.644 91.6101L125.938 81.0111C126.192 78.9321 127.429 77.0661 129.244 76.0221L132.575 74.1081L131.227 73.006C130.507 72.418 129.862 71.7611 129.299 71.0501C129.271 71.1171 127.406 67.9731 127.451 67.834C126.726 65.9901 126.432 63.9711 126.638 61.9281C127.061 57.6881 129.566 53.9711 133.336 51.9841C134.033 51.6171 134.894 51.8841 135.259 52.5791C135.626 53.2761 135.359 54.1351 134.664 54.5021C131.741 56.0431 129.799 58.9251 129.47 62.2121C129.14 65.5001 130.471 68.7111 133.028 70.8011L135.976 73.208C136.339 73.5061 136.531 73.9621 136.494 74.4271C136.455 74.8941 136.19 75.312 135.784 75.545L130.664 78.49C129.62 79.091 128.912 80.1611 128.766 81.3561L127.471 91.9561C127.259 93.6961 128.501 95.2861 130.243 95.4991L136.608 96.2761C136.219 95.3281 135.343 94.611 134.257 94.478L132.637 94.28C131.855 94.1851 131.301 93.4751 131.396 92.695L132.454 84.029C132.55 83.2481 133.259 82.6931 134.04 82.7891C139.961 83.5121 145.367 79.283 146.09 73.362L147.436 62.3401C147.531 61.5611 148.241 61.0051 149.02 61.1C149.802 61.1951 150.356 61.9061 150.261 62.6851L149.57 68.337L149.584 68.339L149.239 71.1651L149.225 71.1631L148.915 73.7071C148.563 76.5871 147.334 79.1491 145.528 81.1601Z" fill="white"/>
<path d="M164.715 74.79L163.327 78.681C162.152 80.865 160.382 82.745 158.118 84.045L160.534 89.489L160.727 89.404C163.633 88.114 167.049 89.43 168.34 92.338C168.659 93.057 168.335 93.897 167.616 94.216L160.116 97.545C157.078 98.894 153.508 97.52 152.16 94.482L146.195 81.043C145.093 79.013 148.256 75.137 148.256 75.137C147.336 75.002 149.943 82.465 150.431 83.566L154.763 93.326C155.475 94.928 157.358 95.655 158.961 94.943L164.822 92.342C164.002 91.727 162.881 91.562 161.881 92.006L160.39 92.668C159.67 92.988 158.83 92.663 158.511 91.945L154.969 83.965C154.65 83.246 154.974 82.406 155.693 82.087C161.145 79.667 163.612 73.262 161.192 67.81L163.793 66.655C164.971 69.308 165.232 72.137 164.715 74.79Z" fill="white"/>
<path d="M177.797 46.4061L180.326 47.4771L179.66 49.0501C179.354 49.7741 179.693 50.6101 180.416 50.9161C181.14 51.2221 181.975 50.8841 182.282 50.1601L183.503 47.2761C183.809 46.5521 183.471 45.7171 182.747 45.4101L178.839 43.7561" fill="white"/>
</g>
<defs>
<clipPath id="clip0_558_159">
<rect width="200" height="100" fill="white"/>
</clipPath>
</defs>
</svg>
