<svg width="200" height="100" viewBox="0 0 200 100" fill="none" xmlns="http://www.w3.org/2000/svg">
<g clip-path="url(#clip0_140_297)">
<g clip-path="url(#clip1_140_297)">
<path d="M25.785 26.6809L22.988 29.0929L23.2439 29.3896C24.1187 28.6352 24.4211 28.7014 25.3778 29.8108L27.1027 31.811C28.0593 32.9203 28.094 33.2446 27.219 33.9992C26.4665 34.4848 25.7032 34.5162 24.4853 34.3677L23.093 34.2062C23.9132 33.1988 23.9034 32.145 23.3104 31.4574C22.5695 30.5982 21.2693 30.575 19.8942 31.7609L17.1442 34.1323L17.4 34.429C18.2749 33.6746 18.5773 33.7408 19.534 34.8503L21.2588 36.8504C22.2155 37.9597 22.25 38.2842 21.3752 39.0386L21.6311 39.3355L24.7405 36.6541L24.4845 36.3573C23.6096 37.1117 23.2938 37.0299 22.3371 35.9205L21.8522 35.3582L22.1177 35.1292L25.725 35.8052L30.2719 31.8841C32.5063 29.9573 32.4512 27.9344 31.2248 26.5123C29.9987 25.0905 28.0194 24.754 25.785 26.6809ZM21.4344 34.8734L19.6424 32.7954L20.2829 32.2431C20.986 31.6368 21.7163 31.8515 22.2013 32.414C22.673 32.961 22.778 33.7148 22.0749 34.3211L21.4344 34.8734ZM29.9012 31.3592L29.7918 31.4536C29.2294 31.9386 29.0301 31.8654 28.4102 31.1466L25.4862 27.756L26.2362 27.1092C27.8612 25.7079 29.1819 26.6394 29.9769 27.5614C30.7988 28.5144 31.5261 29.958 29.9012 31.3592Z" fill="white"/>
<path d="M11.1362 44.7625L9.46539 40.645C8.98307 39.4536 8.61343 39.3093 7.61343 40.1717L7.34383 39.8591L10.2813 37.3259L10.5509 37.6385C9.56659 38.4874 9.53433 38.9238 10.1273 40.4013L12.9542 47.2814L12.7511 47.4565L6.93958 43.9402L9.53232 50.2322L9.32916 50.4074L2.98654 46.5592C1.62788 45.742 1.17579 45.7232 0.269478 46.5048L-0.00012207 46.1921L3.4687 43.2008L3.7383 43.5134C2.81632 44.3085 2.75477 44.7429 3.91842 45.4285L7.71425 47.7135L5.24988 41.6648L5.54685 41.4087L11.1362 44.7625Z" fill="white"/>
<path d="M18.4157 42.4623C16.697 43.9445 14.1993 43.8917 12.8652 42.3446C11.5447 40.8134 11.8596 38.3348 13.5782 36.8528C15.297 35.3705 17.7948 35.4237 19.1152 36.9549C20.4493 38.502 20.1345 40.9801 18.4157 42.4623ZM13.9962 37.3375C12.5588 38.577 13.1769 40.305 14.0528 41.3207C14.9423 42.3521 16.5472 43.202 17.9846 41.9625C19.4379 40.7092 18.8331 38.9969 17.9436 37.9654C17.0677 36.9498 15.4495 36.0842 13.9962 37.3375Z" fill="white"/>
<path d="M37.0648 25.4815L37.3343 25.794L33.7562 28.8797L33.4867 28.5672C34.5336 27.6643 34.4922 27.2371 33.1445 25.6743L30.9887 23.1745C29.6411 21.6117 29.2381 21.5235 28.1911 22.4264L27.9215 22.1138L31.1559 19.3246C32.7652 17.9368 34.3703 17.9967 35.3272 19.1063C36.2569 20.1844 36.0936 21.7964 34.4842 23.1842L33.5936 23.9523L34.2536 24.7177C35.6014 26.2806 36.0179 26.3844 37.0648 25.4815ZM31.6409 19.8871L30.7503 20.6552L33.095 23.3741L33.9856 22.6061C34.8608 21.8514 34.7415 20.8918 34.1082 20.1574C33.4614 19.4074 32.5161 19.1325 31.6409 19.8871Z" fill="white"/>
<path d="M48.9585 13.2091L49.1228 13.5576C49.427 14.1945 49.4165 14.5304 48.3072 15.487L48.0884 15.6757C47.276 16.3763 46.9737 16.3101 46.017 15.2007L45.3973 14.4821C46.6161 13.431 46.8041 13.4593 47.5049 14.2719L47.8017 14.016L45.7939 11.6877L45.497 11.9437C46.1977 12.7562 46.1982 12.9464 44.9794 13.9975L43.4703 12.2476L44.3296 11.5066C45.4392 10.5498 45.7726 10.5892 46.3579 10.9836L46.6921 11.2128L46.9419 10.9973L45.5662 9.62278L40.9722 13.5844L41.2281 13.8811C42.103 13.1266 42.4055 13.1927 43.3622 14.3022L45.0871 16.3023C45.9622 17.3172 46.0632 17.6759 45.4048 18.3072C44.6628 18.7725 43.9042 18.8031 42.7042 18.6568L41.3117 18.4955C42.1321 17.488 42.1224 16.4341 41.5294 15.7464C40.7885 14.8872 39.4882 14.8642 38.1132 16.0499L35.3632 18.4214L35.619 18.7181C36.4939 17.9637 36.7962 18.0299 37.753 19.1393L39.4778 21.1394C40.4345 22.2488 40.4692 22.5731 39.5942 23.3277L39.8501 23.6245L42.9596 20.9431L42.7036 20.6462C41.8288 21.4007 41.5128 21.3189 40.5561 20.2096L40.0712 19.6472L40.3368 19.4181L43.944 20.0942L50.3658 14.5563L49.1932 13.0069L48.9586 13.2092L48.9585 13.2091ZM39.6531 19.1627L37.8611 17.0847L38.5017 16.5323C39.2048 15.926 39.9351 16.1407 40.4202 16.7032C40.8919 17.2502 40.9968 18.004 40.2937 18.6104L39.6531 19.1627Z" fill="white"/>
<path d="M53.5719 12.1454C52.9469 12.6843 52.1171 12.828 51.7074 12.8268C51.6968 12.9725 51.7583 13.328 51.9157 13.5736L51.6187 13.8297L49.7595 11.6736L50.072 11.4041C51.0863 12.3274 52.3304 12.3171 53.2523 11.522C53.7523 11.0909 53.9162 10.4593 53.512 9.99061C53.1617 9.58443 52.5328 9.58167 51.6361 9.83731L50.3817 10.1835C49.5004 10.4255 48.587 10.314 47.9942 9.62666C47.3475 8.87666 47.4983 7.62977 48.4671 6.7943C48.9827 6.34963 49.5818 6.15996 50.0362 6.14944C50.0603 6.01965 49.9902 5.78028 49.8753 5.55214L50.1722 5.29616L51.7623 7.1401L51.4341 7.42309C50.6913 6.78302 49.7596 6.52396 48.9316 7.23801C48.4941 7.61529 48.3033 8.21579 48.6403 8.60657C48.9905 9.01276 49.5073 8.94845 50.5539 8.64539L51.7769 8.32629C52.8369 8.03875 53.6324 8.3613 54.0366 8.82998C54.8853 9.81419 54.6187 11.2426 53.5719 12.1454Z" fill="white"/>
<path d="M58.3844 7.99534C57.7593 8.53443 56.9294 8.67809 56.5199 8.67677C56.5093 8.82246 56.5708 9.17798 56.7282 9.42356L56.4313 9.67965L54.572 7.52361L54.8845 7.25413C55.8987 8.17751 57.1429 8.16709 58.0648 7.37203C58.5648 6.94085 58.7287 6.30928 58.3245 5.84059C57.9742 5.43441 57.3453 5.43166 56.4485 5.68741L55.1941 6.03363C54.3129 6.27549 53.3994 6.16412 52.8066 5.47675C52.1598 4.72676 52.3106 3.47987 53.2795 2.64441C53.7951 2.19973 54.3942 2.01006 54.8485 1.99954C54.8727 1.86975 54.8025 1.63037 54.6874 1.40246L54.9844 1.14637L56.5745 2.99031L56.2465 3.27318C55.5037 2.63312 54.572 2.37406 53.744 3.08811C53.3065 3.46539 53.1156 4.06589 53.4526 4.45668C53.8029 4.86286 54.3196 4.79855 55.3663 4.49549L56.5893 4.17638C57.6493 3.88885 58.4448 4.2114 58.849 4.68008C59.6977 5.66429 59.4311 7.09271 58.3844 7.99534Z" fill="white"/>
<path d="M12.1804 19.4224C14.5408 22.1594 18.1712 23.1531 21.4444 22.285L10.3522 16.0919C10.7102 17.2827 11.3159 18.4199 12.1804 19.4224Z" fill="white"/>
<path d="M23.4627 9.08466C22.7257 8.23006 21.9083 7.90294 21.2478 7.66933C20.4061 7.40201 19.6615 7.20297 19.1703 6.63337C18.6222 5.99771 18.594 4.99026 19.2731 4.40465C19.3037 4.37821 19.3361 4.35695 19.3674 4.33291C17.1652 4.26673 14.9327 4.99204 13.1324 6.5445C10.7166 8.62776 9.66012 11.7001 10.0426 14.6437C10.2091 14.5086 10.3649 14.3802 10.4948 14.2682C11.2181 13.6445 12.262 12.5912 12.262 12.5912C12.6158 12.2478 13.1319 12.7574 12.7975 13.1226C12.7975 13.1226 12.4609 13.4897 12.0629 13.871L21.0403 19.1896L18.6397 13.3461L15.0168 11.3233C14.6256 11.6226 14.2348 11.8827 14.2348 11.8827C13.8433 12.1822 13.3957 11.5748 13.7873 11.2754C13.7873 11.2754 15.0049 10.3784 15.6844 9.79247C16.4076 9.16885 17.4516 8.11548 17.4516 8.11548C17.8057 7.77182 18.3217 8.28154 17.9872 8.64684C17.9872 8.64684 17.6498 9.01464 17.2526 9.39527L26.1618 14.6737L24.8639 11.774C24.3381 10.5598 23.9731 9.67664 23.4627 9.08466Z" fill="white"/>
<path d="M19.7383 13.9594L22.8626 21.7773C23.6391 21.4252 24.3801 20.9599 25.0589 20.3745C25.8642 19.6801 26.5164 18.8749 27.0172 18.0023C26.9731 17.9887 26.9292 17.9718 26.8859 17.9495L19.7383 13.9594Z" fill="white"/>
<path d="M22.302 4.90906C22.5217 5.10368 22.7424 5.3256 22.9618 5.57994C23.5669 6.28165 24.1161 7.18347 24.5719 8.51019L27.7261 16.4386C28.7481 13.467 28.2101 10.0473 26.0102 7.4963C24.9736 6.29396 23.6916 5.42827 22.302 4.90906Z" fill="white"/>
<path d="M12.1444 5.39861C7.69974 9.23143 7.20177 15.9658 11.0346 20.4104C14.8679 24.8555 21.6022 25.3528 26.0468 21.52C30.4913 17.6873 30.9899 10.9526 27.1566 6.50752C23.3236 2.06304 16.5888 1.5659 12.1444 5.39861ZM25.7282 21.1505C21.4874 24.8076 15.0615 24.3327 11.4042 20.0916C7.74714 15.8508 8.22216 9.42538 12.4631 5.76821C16.7037 2.11127 23.1291 2.58616 26.7862 6.82693C30.4435 11.068 29.9688 17.4936 25.7282 21.1505Z" fill="white"/>
<path d="M81.2288 9.44416L79.4567 9.06455C78.6902 8.90086 77.9317 9.38936 77.7671 10.1586C77.6025 10.927 78.0919 11.6836 78.8603 11.8492L80.6323 12.2288C80.7328 12.2499 80.8325 12.2599 80.9323 12.2599C81.5883 12.2599 82.1791 11.8024 82.3227 11.1347C82.4866 10.3654 81.9971 9.60879 81.2288 9.44416Z" fill="white"/>
<path d="M75.3001 29.9744L75.1263 45.3645C75.0706 50.3755 73.3873 55.0858 70.2588 58.9864C69.7666 59.5992 69.8654 60.4957 70.4783 60.987C71.092 61.479 71.9878 61.3811 72.4798 60.7673C75.7164 56.7333 77.577 51.9307 77.9145 46.8043L77.9897 43.9575L78.1477 29.9744" fill="white"/>
<path d="M84.961 18.9048H97.328C98.1136 18.9048 98.7513 18.2681 98.7513 17.4812V12.0724C98.7513 11.4576 98.357 10.9125 97.7724 10.7202L78.0023 4.2163C77.3107 3.99031 76.6 3.81749 75.8902 3.70485C75.1776 3.59057 74.4483 3.53296 73.724 3.53296C67.347 3.53296 61.8666 7.86624 60.3967 14.0711L56.8226 29.1676C44.6212 29.4512 33.1926 34.336 24.5337 42.9962C17.9602 49.5697 13.506 57.8318 11.6518 66.8909C11.4944 67.6611 11.9911 68.413 12.7613 68.5704C12.8583 68.5906 12.9536 68.5997 13.0487 68.5997C13.7109 68.5997 14.3037 68.1358 14.4418 67.4616C16.1837 58.9507 20.3697 51.1869 26.5472 45.0085C27.0373 44.5184 27.5387 44.0416 28.0474 43.5779L29.4251 44.7076C29.6895 44.9254 30.0096 45.0305 30.3269 45.0305C30.7386 45.0305 31.1465 44.853 31.4283 44.51C31.9268 43.9027 31.8381 43.0063 31.2309 42.5077L30.2463 41.6991C31.5913 40.6214 32.9898 39.627 34.4352 38.7215L35.3089 40.1675C35.5768 40.6104 36.0471 40.8556 36.5292 40.8556C36.7798 40.8556 37.0332 40.7898 37.2636 40.6507C37.9369 40.2446 38.1528 39.369 37.7458 38.6966L36.896 37.288C38.2973 36.5314 39.7364 35.8537 41.2091 35.2544L41.8869 37.2368C42.0901 37.8276 42.6426 38.199 43.2334 38.199C43.3873 38.199 43.5428 38.1744 43.6955 38.1222C44.4392 37.8669 44.8352 37.0583 44.5809 36.3146L43.8802 34.2673C45.6275 33.6856 47.414 33.2126 49.2318 32.8522L50.2481 35.872C50.4483 36.4665 51.0027 36.8415 51.5972 36.8415C51.7483 36.8415 51.901 36.8178 52.052 36.7665C52.7965 36.516 53.1972 35.709 52.9466 34.9636L52.0794 32.3866C53.7883 32.1625 55.5207 32.0363 57.2699 32.0098L60.4458 36.0174C60.7269 36.3722 61.143 36.5572 61.5629 36.5572C61.872 36.5572 62.1839 36.4565 62.4458 36.2488C63.0621 35.7602 63.1656 34.8647 62.6771 34.2491L59.4955 30.235L63.1663 14.728C64.3309 9.81276 68.6724 6.37966 73.724 6.37966C74.2984 6.37966 74.8766 6.42556 75.441 6.51596C76.0035 6.60565 76.567 6.74288 77.115 6.92226L95.9046 13.1023V16.0579H81.6686C81.667 16.0579 81.6642 16.0588 81.6623 16.0588H76.7546C75.9689 16.0588 75.3312 16.6956 75.3312 17.4822C75.3312 18.2681 75.9689 18.9058 76.7546 18.9058H81.0539" fill="white"/>
<path d="M68.6479 46.1298L65.6489 45.3263L69.3219 42.4871C69.9439 42.007 70.0587 41.1126 69.5776 40.4903C69.0975 39.8683 68.2026 39.7543 67.5815 40.2347L61.6336 44.831C61.205 45.1611 61.0022 45.7063 61.1082 46.2365C61.2152 46.7673 61.6127 47.1919 62.1359 47.3321L66.5353 48.5109L66.0933 50.1606C65.8899 50.9197 66.3409 51.7005 67.0998 51.9038C67.8598 52.1075 68.6396 51.6565 68.843 50.8974L69.6535 47.8728C69.858 47.1133 69.407 46.3333 68.6479 46.1298Z" fill="white"/>
<path d="M82.5487 17.9291L78.9325 17.5051L84.506 25.5095C84.7302 25.8318 85.0787 26.0469 85.4668 26.1041L94.0564 27.3694L92.0789 30.4677L71.6364 27.4564L71.5066 27.1386C69.3715 21.8856 69.5776 15.9483 72.0723 10.8512C72.4188 10.145 72.1262 9.29282 71.42 8.9464C70.7137 8.60114 69.8615 8.89364 69.5151 9.59984C66.6645 15.4241 66.4291 22.2075 68.8695 28.213L69.307 29.2844C69.4973 29.7506 69.9191 30.0818 70.4179 30.1553L92.5751 33.4192C93.13 33.5009 93.6812 33.2493 93.9828 32.7768L97.6396 27.0474C97.8992 26.6409 97.9348 26.1292 97.7342 25.6901C97.5343 25.2519 97.1248 24.9437 96.6468 24.8733L86.4908 23.3772L82.5487 17.9291Z" fill="white"/>
<path d="M29.7261 71.2404L27.3472 68.7467C25.9908 74.0084 22.1735 81.552 18.7183 85.7584C15.8341 89.2686 12.3179 92.2288 8.38579 94.481C11.7604 89.048 13.5387 82.8264 13.5387 76.4126C13.5387 74.9385 13.6117 73.4509 13.7563 71.9916C13.8338 71.2091 13.2614 70.513 12.4789 70.4355C11.6963 70.3565 10.9987 70.9304 10.9227 71.7114C10.7692 73.2646 10.6917 74.846 10.6917 76.4126C10.6917 82.6476 8.85829 88.6828 5.39423 93.8699L3.14051 97.2386C2.79321 97.7573 2.82451 98.4414 3.21802 98.9274C3.49526 99.2672 3.90368 99.4535 4.32401 99.4535C4.50139 99.4535 4.68324 99.4207 4.85465 99.3507C11.0941 96.8376 16.6495 92.7624 20.9169 87.5649C24.2021 83.5672 28.1849 76.1652 29.7261 71.2404ZM65.0911 67.0028L62.2442 68.3532C59.3033 69.5293 56.1403 70.1493 52.9416 70.1493H47.4697L47.7902 67.3024H52.9416C56.4742 67.3024 59.8593 66.4945 62.9254 64.9413C62.9775 64.91 63.0312 64.8802 63.0878 64.8549C64.4025 64.1752 65.6576 63.3614 66.8396 62.4119C67.4522 61.9185 68.348 62.0154 68.8399 62.628C69.3333 63.2406 69.2364 64.1379 68.6223 64.6298C67.5118 65.5227 66.3298 66.3156 65.0911 67.0028Z" fill="white"/>
<path d="M46.9036 79.6389L44.0566 82.6319C42.0965 84.1522 39.7161 85.1524 37.1195 85.4222V91.3784H37.3297C40.5091 91.3784 43.0982 93.9675 43.0982 97.1483C43.0982 97.9353 42.4617 98.5718 41.6747 98.5718H33.4692C30.1452 98.5718 27.4399 95.868 27.4399 92.544V81.8657C27.4399 79.7715 28.4415 77.7697 30.1169 76.5132L33.1904 74.2088L31.7193 73.2787C30.9337 72.7823 30.2138 72.2085 29.5684 71.5705C29.549 71.6406 27.3161 68.7459 27.3445 68.6028C26.4009 66.8604 25.8643 64.8914 25.8211 62.8389C25.7272 58.5789 27.7633 54.5857 31.2646 52.1561C31.9115 51.7075 32.7984 51.8684 33.2456 52.5138C33.6942 53.1607 33.5333 54.0461 32.8878 54.4948C30.1735 56.3788 28.595 59.4747 28.6666 62.7778C28.7381 66.0808 30.4478 69.1066 33.2396 70.8714L36.4577 72.9031C36.8542 73.155 37.1002 73.5842 37.1195 74.0508C37.1374 74.5188 36.9258 74.966 36.5501 75.2462L31.8251 78.7907C30.8622 79.5137 30.2883 80.6614 30.2883 81.8657V92.544C30.2883 94.2969 31.7148 95.7249 33.4692 95.7249H39.8816C39.3807 94.8305 38.4238 94.2254 37.3297 94.2254H35.6976C34.9105 94.2254 34.2741 93.5874 34.2741 92.8019V84.0718C34.2741 83.2847 34.9105 82.6483 35.6976 82.6483C41.6628 82.6483 46.516 77.7951 46.516 71.8299V60.7268C46.516 59.9413 47.1525 59.3033 47.938 59.3033C48.725 59.3033 49.3615 59.9413 49.3615 60.7268V66.4207H49.3749V69.2676H49.3615V71.8299C49.3615 74.732 48.4523 77.4239 46.9036 79.6389Z" fill="white"/>
<path d="M65.2727 79.6388L62.4257 82.6318C60.4656 84.1522 58.0852 85.1524 55.4886 85.4222V91.3784H55.6988C58.8782 91.3784 61.4673 93.9675 61.4673 97.1483C61.4673 97.9353 60.8308 98.5718 60.0438 98.5718H51.8382C48.5143 98.5718 45.8089 95.8679 45.8089 92.544V77.8412C45.7732 77.3866 48.6574 74.0329 48.6574 75.2372V92.544C48.6574 94.2969 50.0839 95.7248 51.8382 95.7248H58.2506C57.7498 94.8305 56.7929 94.2253 55.6988 94.2253H54.0666C53.2796 94.2253 52.6431 93.5874 52.6431 92.8019V84.0717C52.6431 83.2847 53.2796 82.6482 54.0666 82.6482C60.0318 82.6482 64.8851 77.795 64.8851 71.8298H67.7306C67.7306 74.7319 66.8213 77.4239 65.2727 79.6388Z" fill="white"/>
<path fill-rule="evenodd" clip-rule="evenodd" d="M64.8845 71.9444V66.6717L67.7321 63.9973V71.9444H64.8845Z" fill="white"/>
<path d="M77.8101 46.8776L79.7524 44.9354L80.9607 46.1437C81.5164 46.6994 82.4181 46.6993 82.9736 46.1437C83.5299 45.5875 83.5294 44.6865 82.9736 44.1308L80.7588 41.916C80.2033 41.3604 79.3021 41.3598 78.7459 41.916L75.7454 44.9165" fill="white"/>
<path d="M126.87 26.5347L124.073 28.9467L124.329 29.2434C125.204 28.4889 125.506 28.5551 126.463 29.6646L128.188 31.6647C129.144 32.7741 129.179 33.0984 128.304 33.853C127.552 34.3385 126.788 34.3699 125.57 34.2214L124.178 34.06C124.998 33.0525 124.989 31.9988 124.396 31.3111C123.655 30.4519 122.354 30.4288 120.979 31.6146L118.229 33.9861L118.485 34.2828C119.36 33.5283 119.662 33.5946 120.619 34.704L122.344 36.7041C123.301 37.8135 123.335 38.1379 122.46 38.8924L122.716 39.1892L125.826 36.5079L125.57 36.211C124.695 36.9655 124.379 36.8836 123.422 35.7743L122.937 35.2119L123.203 34.9829L126.81 35.6589L131.357 31.7378C133.591 29.811 133.536 27.7882 132.31 26.3661C131.084 24.9443 129.105 24.6078 126.87 26.5347ZM122.519 34.7272L120.727 32.6492L121.368 32.0968C122.071 31.4906 122.801 31.7053 123.286 32.2678C123.758 32.8148 123.863 33.5686 123.16 34.1748L122.519 34.7272ZM130.986 31.213L130.877 31.3074C130.314 31.7923 130.115 31.7192 129.495 31.0004L126.571 27.6097L127.321 26.963C128.946 25.5617 130.267 26.4932 131.062 27.4151C131.884 28.3681 132.611 29.8118 130.986 31.213Z" fill="white"/>
<path d="M112.221 44.6163L110.55 40.4988C110.068 39.3073 109.699 39.1631 108.699 40.0255L108.429 39.7128L111.366 37.1797L111.636 37.4923C110.652 38.3411 110.619 38.7776 111.212 40.2551L114.039 47.1351L113.836 47.3102L108.025 43.794L110.617 50.086L110.414 50.2612L104.072 46.413C102.713 45.5957 102.261 45.577 101.355 46.3585L101.085 46.0459L104.554 43.0546L104.823 43.3672C103.901 44.1623 103.84 44.5966 105.003 45.2822L108.799 47.5672L106.335 41.5185L106.632 41.2625L112.221 44.6163Z" fill="white"/>
<path d="M119.501 42.3161C117.782 43.7982 115.284 43.7454 113.95 42.1983C112.63 40.6672 112.945 38.1885 114.663 36.7065C116.382 35.2243 118.88 35.2774 120.2 36.8086C121.534 38.3557 121.22 40.8339 119.501 42.3161ZM115.081 37.1912C113.644 38.4308 114.262 40.1588 115.138 41.1744C116.027 42.2059 117.632 43.0558 119.07 41.8162C120.523 40.563 119.918 38.8506 119.029 37.8192C118.153 36.8035 116.535 35.938 115.081 37.1912Z" fill="white"/>
<path d="M138.15 25.3353L138.419 25.6478L134.841 28.7334L134.572 28.4209C135.619 27.5181 135.577 27.0909 134.23 25.5281L132.074 23.0282C130.726 21.4655 130.323 21.3773 129.276 22.2802L129.007 21.9675L132.241 19.1784C133.85 17.7906 135.455 17.8504 136.412 18.96C137.342 20.0382 137.179 21.6502 135.569 23.038L134.679 23.806L135.339 24.5714C136.686 26.1343 137.103 26.2382 138.15 25.3353ZM132.726 19.7409L131.835 20.5089L134.18 23.2279L135.071 22.4598C135.946 21.7051 135.827 20.7455 135.193 20.0112C134.547 19.2612 133.601 18.9862 132.726 19.7409Z" fill="white"/>
<path d="M150.044 13.0628L150.208 13.4114C150.512 14.0482 150.502 14.3841 149.392 15.3408L149.173 15.5295C148.361 16.23 148.059 16.1638 147.102 15.0545L146.482 14.3358C147.701 13.2848 147.889 13.3131 148.59 14.1257L148.887 13.8697L146.879 11.5414L146.582 11.7974C147.283 12.6099 147.283 12.8002 146.064 13.8512L144.555 12.1013L145.415 11.3604C146.524 10.4035 146.858 10.443 147.443 10.8373L147.777 11.0665L148.027 10.851L146.651 9.47654L142.057 13.4381L142.313 13.7349C143.188 12.9804 143.491 13.0465 144.447 14.156L146.172 16.1561C147.047 17.171 147.148 17.5296 146.49 18.161C145.748 18.6263 144.989 18.6568 143.789 18.5106L142.397 18.3493C143.217 17.3417 143.207 16.2878 142.615 15.6002C141.874 14.741 140.573 14.7179 139.198 15.9037L136.448 18.2751L136.704 18.5719C137.579 17.8174 137.881 17.8836 138.838 18.9931L140.563 20.9932C141.52 22.1025 141.554 22.4269 140.679 23.1814L140.935 23.4783L144.045 20.7968L143.789 20.5C142.914 21.2544 142.598 21.1727 141.641 20.0633L141.156 19.501L141.422 19.2719L145.029 19.948L151.451 14.4101L150.278 12.8606L150.044 13.0629L150.044 13.0628ZM140.738 19.0165L138.946 16.9385L139.587 16.3861C140.29 15.7797 141.02 15.9945 141.505 16.557C141.977 17.1039 142.082 17.8578 141.379 18.4641L140.738 19.0165Z" fill="white"/>
<path d="M154.657 11.9991C154.032 12.5381 153.202 12.6817 152.792 12.6805C152.782 12.8262 152.843 13.1818 153.001 13.4273L152.704 13.6834L150.845 11.5274L151.157 11.2579C152.171 12.1812 153.415 12.1709 154.337 11.3758C154.837 10.9446 155.001 10.3131 154.597 9.84437C154.247 9.43819 153.618 9.43543 152.721 9.69107L151.467 10.0373C150.585 10.2793 149.672 10.1678 149.079 9.48042C148.433 8.73042 148.583 7.48353 149.552 6.64806C150.068 6.20339 150.667 6.01372 151.121 6.0032C151.145 5.87341 151.075 5.63404 150.96 5.4059L151.257 5.14992L152.847 6.99386L152.519 7.27685C151.776 6.63678 150.845 6.37772 150.017 7.09177C149.579 7.46905 149.388 8.06955 149.725 8.46033C150.076 8.86652 150.592 8.80221 151.639 8.49915L152.862 8.18005C153.922 7.89251 154.717 8.21506 155.122 8.68374C155.97 9.66795 155.704 11.0964 154.657 11.9991Z" fill="white"/>
<path d="M159.469 7.8491C158.844 8.38819 158.015 8.53185 157.605 8.53053C157.594 8.67622 157.656 9.03174 157.813 9.27732L157.516 9.53341L155.657 7.37737L155.97 7.10788C156.984 8.03127 158.228 8.02085 159.15 7.22578C159.65 6.79461 159.814 6.16304 159.41 5.69435C159.059 5.28817 158.43 5.28542 157.534 5.54117L156.279 5.88739C155.398 6.12925 154.484 6.01788 153.892 5.33051C153.245 4.58052 153.396 3.33363 154.365 2.49817C154.88 2.05349 155.479 1.86382 155.934 1.8533C155.958 1.72351 155.888 1.48413 155.773 1.25622L156.069 1.00013L157.66 2.84407L157.332 3.12694C156.589 2.48688 155.657 2.22782 154.829 2.94187C154.392 3.31915 154.201 3.91965 154.538 4.31043C154.888 4.71662 155.405 4.65231 156.451 4.34925L157.674 4.03014C158.734 3.74261 159.53 4.06516 159.934 4.53384C160.783 5.51805 160.516 6.94647 159.469 7.8491Z" fill="white"/>
<path d="M113.266 19.2761C115.626 22.0132 119.256 23.0069 122.53 22.1387L111.437 15.9456C111.795 17.1365 112.401 18.2736 113.266 19.2761Z" fill="white"/>
<path d="M124.548 8.93842C123.811 8.08382 122.993 7.7567 122.333 7.52309C121.491 7.25577 120.747 7.05673 120.255 6.48713C119.707 5.85147 119.679 4.84402 120.358 4.25841C120.389 4.23197 120.421 4.21071 120.453 4.18667C118.25 4.12049 116.018 4.8458 114.218 6.39826C111.802 8.48152 110.745 11.5538 111.128 14.4974C111.294 14.3624 111.45 14.234 111.58 14.122C112.303 13.4983 113.347 12.445 113.347 12.445C113.701 12.1016 114.217 12.6112 113.883 12.9764C113.883 12.9764 113.546 13.3435 113.148 13.7248L122.125 19.0434L119.725 13.1998L116.102 11.1771C115.711 11.4763 115.32 11.7365 115.32 11.7365C114.928 12.036 114.481 11.4286 114.872 11.1292C114.872 11.1292 116.09 10.2322 116.77 9.64623C117.493 9.02261 118.537 7.96924 118.537 7.96924C118.891 7.62558 119.407 8.1353 119.072 8.5006C119.072 8.5006 118.735 8.8684 118.338 9.24903L127.247 14.5274L125.949 11.6278C125.423 10.4136 125.058 9.5304 124.548 8.93842Z" fill="white"/>
<path d="M120.824 13.8131L123.948 21.6311C124.724 21.279 125.465 20.8136 126.144 20.2283C126.949 19.5338 127.602 18.7287 128.102 17.8561C128.058 17.8424 128.014 17.8255 127.971 17.8032L120.824 13.8131Z" fill="white"/>
<path d="M123.387 4.76282C123.607 4.95744 123.828 5.17936 124.047 5.4337C124.652 6.13541 125.201 7.03723 125.657 8.36395L128.811 16.2924C129.833 13.3208 129.295 9.90111 127.095 7.35006C126.059 6.14772 124.777 5.28203 123.387 4.76282Z" fill="white"/>
<path d="M113.229 5.25237C108.785 9.08519 108.287 15.8195 112.12 20.2641C115.953 24.7092 122.687 25.2066 127.132 21.3738C131.576 17.5411 132.075 10.8064 128.242 6.36128C124.409 1.9168 117.674 1.41966 113.229 5.25237ZM126.813 21.0043C122.573 24.6613 116.147 24.1864 112.489 19.9454C108.832 15.7046 109.307 9.27914 113.548 5.62197C117.789 1.96503 124.214 2.43992 127.871 6.68069C131.529 10.9217 131.054 17.3473 126.813 21.0043Z" fill="white"/>
<path d="M182.314 9.29792L180.542 8.91831C179.775 8.75462 179.017 9.24312 178.852 10.0124C178.688 10.7808 179.177 11.5374 179.945 11.703L181.717 12.0826C181.818 12.1036 181.918 12.1137 182.017 12.1137C182.673 12.1137 183.264 11.6561 183.408 10.9885C183.572 10.2192 183.082 9.46255 182.314 9.29792Z" fill="white"/>
<path d="M176.385 29.8281L176.211 45.2183C176.156 50.2293 174.472 54.9396 171.344 58.8401C170.852 59.453 170.95 60.3494 171.563 60.8407C172.177 61.3327 173.073 61.2348 173.565 60.6211C176.802 56.5871 178.662 51.7845 179 46.658L179.075 43.8113L179.233 29.8281" fill="white"/>
<path d="M186.046 18.7586H198.413C199.199 18.7586 199.836 18.1219 199.836 17.335V11.9261C199.836 11.3114 199.442 10.7662 198.858 10.574L179.087 4.07006C178.396 3.84407 177.685 3.67125 176.975 3.55861C176.263 3.44433 175.533 3.38672 174.809 3.38672C168.432 3.38672 162.952 7.72 161.482 13.9249L157.908 29.0213C145.706 29.3049 134.278 34.1897 125.619 42.85C119.045 49.4234 114.591 57.6856 112.737 66.7446C112.579 67.5148 113.076 68.2668 113.846 68.4242C113.943 68.4443 114.039 68.4534 114.134 68.4534C114.796 68.4534 115.389 67.9895 115.527 67.3153C117.269 58.8045 121.455 51.0407 127.632 44.8623C128.122 44.3721 128.624 43.8954 129.132 43.4317L130.51 44.5614C130.775 44.7792 131.095 44.8843 131.412 44.8843C131.824 44.8843 132.232 44.7068 132.513 44.3637C133.012 43.7565 132.923 42.86 132.316 42.3615L131.331 41.5528C132.676 40.4751 134.075 39.4808 135.52 38.5752L136.394 40.0213C136.662 40.4641 137.132 40.7093 137.614 40.7093C137.865 40.7093 138.118 40.6435 138.349 40.5044C139.022 40.0983 139.238 39.2227 138.831 38.5504L137.981 37.1418C139.382 36.3852 140.821 35.7074 142.294 35.1082L142.972 37.0905C143.175 37.6814 143.728 38.0528 144.318 38.0528C144.472 38.0528 144.628 38.0282 144.781 37.976C145.524 37.7207 145.92 36.9121 145.666 36.1683L144.965 34.1211C146.713 33.5394 148.499 33.0664 150.317 32.7059L151.333 35.7257C151.533 36.3203 152.088 36.6952 152.682 36.6952C152.833 36.6952 152.986 36.6716 153.137 36.6203C153.882 36.3697 154.282 35.5627 154.032 34.8173L153.165 32.2404C154.873 32.0163 156.606 31.8901 158.355 31.8636L161.531 35.8711C161.812 36.2259 162.228 36.4109 162.648 36.4109C162.957 36.4109 163.269 36.3102 163.531 36.1025C164.147 35.614 164.251 34.7185 163.762 34.1028L160.581 30.0887L164.251 14.5817C165.416 9.66652 169.758 6.23342 174.809 6.23342C175.384 6.23342 175.962 6.27932 176.526 6.36972C177.089 6.45941 177.652 6.59664 178.2 6.77602L196.99 12.9561V15.9117L182.754 15.9117C182.752 15.9117 182.749 15.9126 182.747 15.9126H177.84C177.054 15.9126 176.416 16.5493 176.416 17.3359C176.416 18.1219 177.054 18.7595 177.84 18.7595H182.139" fill="white"/>
<path d="M167.619 42.3208L166.816 45.3198L163.977 41.6468C163.496 41.0248 162.602 40.91 161.98 41.391C161.358 41.8712 161.244 42.7661 161.724 43.3872L166.32 49.335C166.651 49.7636 167.196 49.9664 167.726 49.8605C168.257 49.7534 168.681 49.3559 168.822 48.8327L170 44.4333L171.65 44.8753C172.409 45.0788 173.19 44.6278 173.393 43.8689C173.597 43.1088 173.146 42.329 172.387 42.1256L169.362 41.3152C168.603 41.1107 167.823 41.5616 167.619 42.3208Z" fill="white"/>
<path d="M183.151 16.2727L179.512 16.3802L186.192 23.4869C186.461 23.7731 186.837 23.9352 187.23 23.9352L195.912 23.9352L194.407 27.2886L173.744 27.2886L173.569 26.9931C170.691 22.1074 170.03 16.2034 171.755 10.7971C171.995 10.048 171.582 9.24755 170.832 9.00775C170.083 8.76912 169.283 9.18268 169.043 9.93183C167.072 16.1093 167.827 22.8546 171.117 28.4403L171.706 29.4365C171.962 29.87 172.428 30.1363 172.932 30.1363L195.328 30.1363C195.889 30.1363 196.398 29.807 196.627 29.2956L199.41 23.0944C199.608 22.6544 199.568 22.143 199.306 21.7378C199.044 21.3334 198.594 21.0882 198.111 21.0882L187.845 21.0882L183.151 16.2727Z" fill="white"/>
<path d="M130.811 71.0942L128.432 68.6005C127.076 73.8621 123.258 81.4058 119.803 85.6121C116.919 89.1224 113.403 92.0826 109.471 94.3348C112.845 88.9018 114.624 82.6802 114.624 76.2664C114.624 74.7922 114.697 73.3046 114.841 71.8454C114.919 71.0629 114.346 70.3668 113.564 70.2893C112.781 70.2103 112.084 70.7841 112.008 71.5652C111.854 73.1183 111.777 74.6998 111.777 76.2664C111.777 82.5013 109.943 88.5366 106.479 93.7237L104.226 97.0923C103.878 97.611 103.91 98.2952 104.303 98.7811C104.58 99.121 104.989 99.3073 105.409 99.3073C105.586 99.3073 105.768 99.2745 105.94 99.2044C112.179 96.6914 117.734 92.6162 122.002 87.4187C125.287 83.421 129.27 76.0189 130.811 71.0942ZM166.176 66.8565L163.329 68.207C160.388 69.383 157.225 70.0031 154.027 70.0031H148.555L148.875 67.1561H154.027C157.559 67.1561 160.944 66.3483 164.01 64.7951C164.063 64.7638 164.116 64.734 164.173 64.7087C165.488 64.029 166.743 63.2151 167.925 62.2656C168.537 61.7723 169.433 61.8692 169.925 62.4818C170.418 63.0944 170.321 63.9917 169.707 64.4836C168.597 65.3764 167.415 66.1694 166.176 66.8565Z" fill="white"/>
<path d="M145.528 81.1599L142.339 83.7857C140.209 85.0572 137.725 85.7615 135.115 85.7145L134.393 91.6268L134.602 91.6523C137.758 92.0377 140.014 94.9215 139.628 98.0789C139.533 98.8601 138.824 99.4147 138.043 99.3193L129.898 98.3246C126.598 97.9217 124.241 94.9098 124.644 91.6104L125.938 81.0108C126.192 78.932 127.429 77.0664 129.244 76.0223L132.575 74.1075L131.227 73.0059C130.507 72.4179 129.862 71.761 129.299 71.0496C129.271 71.1167 127.406 67.9728 127.451 67.8342C126.726 65.9902 126.432 63.9706 126.638 61.928C127.061 57.6881 129.566 53.9712 133.336 51.984C134.033 51.617 134.894 51.8843 135.259 52.5792C135.626 53.2757 135.359 54.1351 134.664 54.5022C131.741 56.0433 129.799 58.9249 129.47 62.2123C129.14 65.4997 130.471 68.7105 133.028 70.8007L135.976 73.2075C136.339 73.5056 136.531 73.9615 136.494 74.4269C136.455 74.8937 136.19 75.3119 135.784 75.5445L130.664 78.4901C129.62 79.091 128.912 80.1606 128.766 81.3561L127.471 91.9557C127.259 93.6956 128.501 95.286 130.243 95.4987L136.608 96.276C136.219 95.3276 135.343 94.6109 134.257 94.4782L132.637 94.2804C131.855 94.1849 131.301 93.4745 131.396 92.6948L132.454 84.0291C132.55 83.2478 133.259 82.6932 134.04 82.7886C139.961 83.5118 145.367 79.2827 146.09 73.3615L147.436 62.3403C147.531 61.5606 148.241 61.0045 149.02 61.0997C149.802 61.1951 150.356 61.9055 150.261 62.6852L149.57 68.3371L149.584 68.3388L149.239 71.1647L149.225 71.1631L148.915 73.7065C148.563 76.5872 147.334 79.149 145.528 81.1599Z" fill="white"/>
<path d="M164.715 74.79L163.327 78.6806C162.152 80.8654 160.382 82.7453 158.118 84.0453L160.534 89.4894L160.727 89.4041C163.633 88.1143 167.049 89.4304 168.34 92.3377C168.659 93.0571 168.335 93.897 167.616 94.2163L160.116 97.5451C157.078 98.8936 153.508 97.5197 152.16 94.4816L146.195 81.043C145.093 79.0125 148.256 75.1367 148.256 75.1367C147.336 75.0017 149.943 82.4651 150.431 83.5659L154.763 93.326C155.475 94.9282 157.358 95.6547 158.961 94.943L164.822 92.3416C164.002 91.7273 162.881 91.5624 161.881 92.0062L160.39 92.6684C159.67 92.9877 158.83 92.6628 158.511 91.9448L154.969 83.9653C154.65 83.246 154.974 82.406 155.693 82.0867C161.145 79.6668 163.612 73.262 161.192 67.8097L163.793 66.6554C164.971 69.3079 165.232 72.1372 164.715 74.79Z" fill="white"/>
<path d="M177.797 46.406L180.326 47.4766L179.66 49.0503C179.354 49.774 179.693 50.6096 180.416 50.9159C181.14 51.2225 181.975 50.8837 182.282 50.1599L183.503 47.2755C183.809 46.552 183.471 45.7165 182.747 45.4099L178.839 43.7559" fill="white"/>
</g>
</g>
<defs>
<clipPath id="clip0_140_297">
<rect width="200" height="100" fill="white"/>
</clipPath>
<clipPath id="clip1_140_297">
<rect width="200" height="200" fill="white" transform="translate(0 -50)"/>
</clipPath>
</defs>
</svg>
