<svg width="200" height="100" viewBox="0 0 200 100" fill="none" xmlns="http://www.w3.org/2000/svg">
<g clip-path="url(#clip0_766_758)">
<path fill-rule="evenodd" clip-rule="evenodd" d="M8.64374 95.0299C8.23827 95.1399 13.2533 75.8562 14.3675 67.4953C13.5 67 14.1287 65.3123 14.3675 64C16.769 50.7434 35.1945 25.7863 58.3318 30.8186C58.3318 30.8186 62.4415 14.7017 62.6788 13.1741C62.9146 11.645 66.4947 3.38458 77.3278 6.97885C88.1625 10.5731 96.3757 12.4182 96.3757 12.4182V17H77.3278L76.5939 18.296L81.1735 18.6732L85.6212 25.5333L94.3751 27.0483L92.3194 31.826L77.5463 29.665L75.7908 50.162L70.3153 59.7677L68.0883 62.0276L66.3768 72.8324C66.3768 72.8324 67.5147 80.8146 56.7664 83.5508L54.1261 83.7064L54.1937 92.63C54.1937 92.63 60.4927 91.0191 60.2507 96.9362L50.9043 96.9582C50.9043 96.9582 47.8648 96.0718 47.6511 91.9165C47.4389 87.7596 47.1215 77.6117 47.1215 77.6117C47.1215 77.6117 45.3377 80.5632 41.9462 82.171C38.5531 83.7787 36.2004 84.2879 36.2004 84.2879V91.7169C36.2004 91.7169 38.7118 91.7578 40.4091 94.2001C42.1065 96.6423 41.3898 97.3983 41.3898 97.3983L36.2004 97.062L32.5039 96.5826L30.4498 95.8188L29.2083 93.0481L29.444 88.415L29.4409 81.9179L30.0522 78.3834L32.7978 75.2449H36.2004L32.1927 71.8172L29.51 68.5687L28.0767 71.8172L25.9315 78.2451L22.1046 83.3544L19.0478 88.4653L14.0799 91.6823L10.6397 94.0476L8.64374 95.0299Z" fill="#0F0F0F"/>
<path fill-rule="evenodd" clip-rule="evenodd" d="M109.023 94.9484C108.618 95.0585 113.633 75.7748 114.747 67.4138C114.827 66.8135 115.346 65.9067 115.585 64.5944C117.986 51.3378 135.574 25.7049 158.711 30.7372C158.711 30.7372 162.821 14.6203 163.058 13.0927C163.294 11.5635 167.667 2.40573 178.5 6C189.335 9.59427 197.5 12 197.5 12V16.5H177.926L176.973 18.2146L181.553 18.5918L186.589 22.2521L196.628 22.5711L194.255 28.8198L177.926 29.5836L176.17 50.0806L174 55.5L170.695 59.6862L168.468 61.9462C168.468 61.9462 165.432 64.5284 164.665 65.4792C161.616 69.2605 162.235 77.8305 158.381 80.7065L156.525 83.4616L158.974 90.5448C158.974 90.5448 166.989 86.8201 166.747 92.7372L156.525 95.9543C156.525 95.9543 152.323 96.5279 152.109 92.371C151.897 88.2141 147.501 77.5303 147.501 77.5303C147.501 77.5303 145.717 80.4818 142.326 82.0895C138.933 83.6973 133.762 84.4171 133.762 84.4171L133.437 92.8692L137.545 97.3169L132.884 96.5012L129.042 97.3169L125.579 93.6644L126.195 88.4923L126.344 82.2781L127.886 78.4057L133.177 75.1635L134.249 75.0016L132.572 71.7358L129.89 68.4872L128.456 71.7358L126.311 78.1637L122.484 83.273L119.427 88.3838L114.46 91.6009L111.019 93.9662L109.023 94.9484Z" fill="#0F0F0F"/>
<path d="M25.785 26.681L22.988 29.093L23.244 29.39C24.119 28.635 24.421 28.701 25.378 29.811L27.103 31.811C28.059 32.92 28.094 33.245 27.219 33.999C26.467 34.485 25.703 34.516 24.485 34.368L23.093 34.206C23.913 33.199 23.903 32.145 23.31 31.457C22.57 30.598 21.269 30.575 19.894 31.761L17.144 34.132L17.4 34.429C18.275 33.675 18.577 33.741 19.534 34.85L21.259 36.85C22.216 37.96 22.25 38.284 21.375 39.039L21.631 39.336L24.741 36.654L24.485 36.357C23.61 37.112 23.294 37.03 22.337 35.92L21.852 35.358L22.118 35.129L25.725 35.805L30.272 31.884C32.506 29.957 32.451 27.934 31.225 26.512C29.999 25.09 28.019 24.754 25.785 26.681ZM21.434 34.873L19.642 32.795L20.283 32.243C20.986 31.637 21.716 31.852 22.201 32.414C22.673 32.961 22.778 33.715 22.075 34.321L21.434 34.873ZM29.901 31.359L29.792 31.454C29.229 31.939 29.03 31.865 28.41 31.147L25.486 27.756L26.236 27.109C27.861 25.708 29.182 26.639 29.977 27.561C30.799 28.514 31.526 29.958 29.901 31.359Z" fill="white"/>
<path d="M11.136 44.763L9.465 40.645C8.983 39.454 8.613 39.309 7.613 40.172L7.344 39.859L10.281 37.326L10.551 37.639C9.567 38.487 9.534 38.924 10.127 40.401L12.954 47.281L12.751 47.457L6.94 43.94L9.532 50.232L9.329 50.407L2.987 46.559C1.628 45.742 1.176 45.723 0.269 46.505L0 46.192L3.469 43.201L3.738 43.513C2.816 44.309 2.755 44.743 3.918 45.429L7.714 47.714L5.25 41.665L5.547 41.409L11.136 44.763Z" fill="white"/>
<path d="M18.416 42.462C16.697 43.945 14.199 43.892 12.865 42.345C11.545 40.813 11.86 38.335 13.578 36.853C15.297 35.371 17.795 35.424 19.115 36.955C20.449 38.502 20.135 40.98 18.416 42.462ZM13.996 37.338C12.559 38.577 13.177 40.305 14.053 41.321C14.942 42.352 16.547 43.202 17.985 41.963C19.438 40.709 18.833 38.997 17.944 37.965C17.068 36.95 15.45 36.084 13.996 37.338Z" fill="white"/>
<path d="M37.065 25.482L37.334 25.794L33.756 28.88L33.487 28.567C34.534 27.664 34.492 27.237 33.145 25.674L30.989 23.174C29.641 21.612 29.238 21.523 28.191 22.426L27.922 22.114L31.156 19.325C32.765 17.937 34.37 17.997 35.327 19.106C36.257 20.184 36.094 21.796 34.484 23.184L33.594 23.952L34.254 24.718C35.601 26.281 36.018 26.384 37.065 25.482ZM31.641 19.887L30.75 20.655L33.095 23.374L33.986 22.606C34.861 21.851 34.742 20.892 34.108 20.157C33.461 19.407 32.516 19.133 31.641 19.887Z" fill="white"/>
<path d="M48.959 13.209L49.123 13.558C49.427 14.195 49.417 14.53 48.307 15.487L48.088 15.676C47.276 16.376 46.974 16.31 46.017 15.201L45.397 14.482C46.616 13.431 46.804 13.459 47.505 14.272L47.802 14.016L45.794 11.688L45.497 11.944C46.198 12.756 46.198 12.946 44.979 13.998L43.47 12.248L44.33 11.507C45.439 10.55 45.773 10.589 46.358 10.984L46.692 11.213L46.942 10.997L45.566 9.623L40.972 13.584L41.228 13.881C42.103 13.127 42.406 13.193 43.362 14.302L45.087 16.302C45.962 17.317 46.063 17.676 45.405 18.307C44.663 18.773 43.904 18.803 42.704 18.657L41.312 18.496C42.132 17.488 42.122 16.434 41.529 15.746C40.789 14.887 39.488 14.864 38.113 16.05L35.363 18.421L35.619 18.718C36.494 17.964 36.796 18.03 37.753 19.139L39.478 21.139C40.435 22.249 40.469 22.573 39.594 23.328L39.85 23.625L42.96 20.943L42.704 20.646C41.829 21.401 41.513 21.319 40.556 20.21L40.071 19.647L40.337 19.418L43.944 20.094L50.366 14.556L49.193 13.007L48.959 13.209ZM39.653 19.163L37.861 17.085L38.502 16.532C39.205 15.926 39.935 16.141 40.42 16.703C40.892 17.25 40.997 18.004 40.294 18.61L39.653 19.163Z" fill="white"/>
<path d="M53.572 12.145C52.947 12.684 52.117 12.828 51.707 12.827C51.697 12.973 51.758 13.328 51.916 13.574L51.619 13.83L49.76 11.674L50.072 11.404C51.086 12.327 52.33 12.317 53.252 11.522C53.752 11.091 53.916 10.459 53.512 9.991C53.162 9.584 52.533 9.582 51.636 9.837L50.382 10.184C49.5 10.426 48.587 10.314 47.994 9.627C47.347 8.877 47.498 7.63 48.467 6.794C48.983 6.35 49.582 6.16 50.036 6.149C50.06 6.02 49.99 5.78 49.875 5.552L50.172 5.296L51.762 7.14L51.434 7.423C50.691 6.783 49.76 6.524 48.932 7.238C48.494 7.615 48.303 8.216 48.64 8.607C48.99 9.013 49.507 8.948 50.554 8.645L51.777 8.326C52.837 8.039 53.632 8.361 54.037 8.83C54.885 9.814 54.619 11.243 53.572 12.145Z" fill="white"/>
<path d="M58.384 7.995C57.759 8.534 56.929 8.678 56.52 8.677C56.509 8.822 56.571 9.178 56.728 9.424L56.431 9.68L54.572 7.524L54.885 7.254C55.899 8.178 57.143 8.167 58.065 7.372C58.565 6.941 58.729 6.309 58.325 5.841C57.974 5.434 57.345 5.432 56.449 5.687L55.194 6.034C54.313 6.275 53.399 6.164 52.807 5.477C52.16 4.727 52.311 3.48 53.28 2.644C53.795 2.2 54.394 2.01 54.849 2C54.873 1.87 54.803 1.63 54.687 1.402L54.984 1.146L56.575 2.99L56.246 3.273C55.504 2.633 54.572 2.374 53.744 3.088C53.307 3.465 53.116 4.066 53.453 4.457C53.803 4.863 54.32 4.799 55.366 4.495L56.589 4.176C57.649 3.889 58.445 4.211 58.849 4.68C59.698 5.664 59.431 7.093 58.384 7.995Z" fill="white"/>
<path d="M12.18 19.422C14.541 22.159 18.171 23.153 21.444 22.285L10.352 16.092C10.71 17.283 11.316 18.42 12.18 19.422Z" fill="white"/>
<path d="M23.463 9.085C22.726 8.23 21.908 7.903 21.248 7.669C20.406 7.402 19.662 7.203 19.17 6.633C18.622 5.998 18.594 4.99 19.273 4.405C19.304 4.378 19.336 4.357 19.367 4.333C17.165 4.267 14.933 4.992 13.132 6.545C10.717 8.628 9.66003 11.7 10.043 14.644C10.209 14.509 10.365 14.38 10.495 14.268C11.218 13.645 12.262 12.591 12.262 12.591C12.616 12.248 13.132 12.757 12.798 13.123C12.798 13.123 12.461 13.49 12.063 13.871L21.04 19.19L18.64 13.346L15.017 11.323C14.626 11.623 14.235 11.883 14.235 11.883C13.843 12.182 13.396 11.575 13.787 11.275C13.787 11.275 15.005 10.378 15.684 9.792C16.408 9.169 17.452 8.115 17.452 8.115C17.806 7.772 18.322 8.282 17.987 8.647C17.987 8.647 17.65 9.015 17.253 9.395L26.162 14.674L24.864 11.774C24.338 10.56 23.973 9.677 23.463 9.085Z" fill="white"/>
<path d="M19.738 13.959L22.863 21.777C23.639 21.425 24.38 20.96 25.059 20.375C25.864 19.68 26.516 18.875 27.017 18.002C26.973 17.989 26.929 17.972 26.886 17.95L19.738 13.959Z" fill="white"/>
<path d="M22.302 4.909C22.522 5.104 22.742 5.326 22.962 5.58C23.567 6.282 24.116 7.183 24.572 8.51L27.726 16.439C28.748 13.467 28.21 10.047 26.01 7.496C24.974 6.294 23.692 5.428 22.302 4.909Z" fill="white"/>
<path d="M12.144 5.399C7.7 9.231 7.202 15.966 11.035 20.41C14.868 24.856 21.602 25.353 26.047 21.52C30.491 17.687 30.99 10.953 27.157 6.508C23.324 2.063 16.589 1.566 12.144 5.399ZM25.728 21.151C21.487 24.808 15.062 24.333 11.404 20.092C7.747 15.851 8.222 9.425 12.463 5.768C16.704 2.111 23.129 2.586 26.786 6.827C30.444 11.068 29.969 17.494 25.728 21.151Z" fill="white"/>
<path d="M81.229 9.444L79.457 9.065C78.69 8.901 77.932 9.389 77.767 10.159C77.603 10.927 78.092 11.684 78.86 11.849L80.632 12.229C80.733 12.25 80.833 12.26 80.932 12.26C81.588 12.26 82.179 11.802 82.323 11.135C82.487 10.365 81.997 9.609 81.229 9.444Z" fill="white"/>
<path d="M75.3 29.974L75.126 45.365C75.071 50.376 73.387 55.086 70.259 58.986C69.767 59.599 69.865 60.496 70.478 60.987C71.092 61.479 71.988 61.381 72.48 60.767C75.716 56.733 77.577 51.931 77.915 46.804L77.99 43.958L78.148 29.974" fill="white"/>
<path d="M84.961 18.905H97.328C98.114 18.905 98.751 18.268 98.751 17.481V12.072C98.751 11.458 98.357 10.913 97.772 10.72L78.002 4.216C77.311 3.99 76.6 3.817 75.89 3.705C75.178 3.591 74.448 3.533 73.724 3.533C67.347 3.533 61.867 7.866 60.397 14.071L56.823 29.168C44.621 29.451 33.193 34.336 24.534 42.996C17.96 49.57 13.506 57.832 11.652 66.891C11.494 67.661 11.991 68.413 12.761 68.57C12.858 68.591 12.954 68.6 13.049 68.6C13.711 68.6 14.304 68.136 14.442 67.462C16.184 58.951 20.37 51.187 26.547 45.009C27.037 44.518 27.539 44.042 28.047 43.578L29.425 44.708C29.69 44.925 30.01 45.031 30.327 45.031C30.739 45.031 31.147 44.853 31.428 44.51C31.927 43.903 31.838 43.006 31.231 42.508L30.246 41.699C31.591 40.621 32.99 39.627 34.435 38.722L35.309 40.167C35.577 40.61 36.047 40.856 36.529 40.856C36.78 40.856 37.033 40.79 37.264 40.651C37.937 40.245 38.153 39.369 37.746 38.697L36.896 37.288C38.297 36.531 39.736 35.854 41.209 35.254L41.887 37.237C42.09 37.828 42.643 38.199 43.233 38.199C43.387 38.199 43.543 38.174 43.696 38.122C44.439 37.867 44.835 37.058 44.581 36.315L43.88 34.267C45.628 33.686 47.414 33.213 49.232 32.852L50.248 35.872C50.448 36.467 51.003 36.842 51.597 36.842C51.748 36.842 51.901 36.818 52.052 36.767C52.797 36.516 53.197 35.709 52.947 34.964L52.079 32.387C53.788 32.163 55.521 32.036 57.27 32.01L60.446 36.017C60.727 36.372 61.143 36.557 61.563 36.557C61.872 36.557 62.184 36.457 62.446 36.249C63.062 35.76 63.166 34.865 62.677 34.249L59.496 30.235L63.166 14.728C64.331 9.813 68.672 6.38 73.724 6.38C74.298 6.38 74.877 6.426 75.441 6.516C76.004 6.606 76.567 6.743 77.115 6.922L95.905 13.102V16.058H81.669C81.667 16.058 81.664 16.059 81.662 16.059H76.755C75.969 16.059 75.331 16.696 75.331 17.482C75.331 18.268 75.969 18.906 76.755 18.906H81.054" fill="white"/>
<path d="M68.648 46.13L65.649 45.326L69.322 42.487C69.944 42.007 70.059 41.113 69.578 40.49C69.098 39.868 68.203 39.754 67.582 40.235L61.634 44.831C61.205 45.161 61.002 45.706 61.108 46.237C61.215 46.767 61.613 47.192 62.136 47.332L66.535 48.511L66.093 50.161C65.89 50.92 66.341 51.701 67.1 51.904C67.86 52.108 68.64 51.657 68.843 50.897L69.653 47.873C69.858 47.113 69.407 46.333 68.648 46.13Z" fill="white"/>
<path d="M82.549 17.929L78.933 17.505L84.506 25.51C84.73 25.832 85.079 26.047 85.467 26.104L94.056 27.369L92.079 30.468L71.636 27.456L71.507 27.139C69.372 21.886 69.578 15.948 72.072 10.851C72.419 10.145 72.126 9.293 71.42 8.946C70.714 8.601 69.862 8.894 69.515 9.6C66.665 15.424 66.429 22.208 68.87 28.213L69.307 29.284C69.497 29.751 69.919 30.082 70.418 30.155L92.575 33.419C93.13 33.501 93.681 33.249 93.983 32.777L97.64 27.047C97.899 26.641 97.935 26.129 97.734 25.69C97.534 25.252 97.125 24.944 96.647 24.873L86.491 23.377L82.549 17.929Z" fill="white"/>
<path d="M29.726 71.24L27.347 68.747C25.991 74.008 22.174 81.552 18.718 85.758C15.834 89.269 12.318 92.229 8.38602 94.481C11.76 89.048 13.539 82.826 13.539 76.413C13.539 74.939 13.612 73.451 13.756 71.992C13.834 71.209 13.261 70.513 12.479 70.436C11.696 70.357 10.999 70.93 10.923 71.711C10.769 73.265 10.692 74.846 10.692 76.413C10.692 82.648 8.85802 88.683 5.39402 93.87L3.14102 97.239C2.79302 97.757 2.82502 98.441 3.21802 98.927C3.49502 99.267 3.90402 99.454 4.32402 99.454C4.50102 99.454 4.68302 99.421 4.85502 99.351C11.094 96.838 16.65 92.762 20.917 87.565C24.202 83.567 28.185 76.165 29.726 71.24ZM65.091 67.003L62.244 68.353C59.303 69.529 56.14 70.149 52.942 70.149H47.47L47.79 67.302H52.942C56.474 67.302 59.859 66.495 62.925 64.941C62.978 64.91 63.031 64.88 63.088 64.855C64.403 64.175 65.658 63.361 66.84 62.412C67.452 61.919 68.348 62.015 68.84 62.628C69.333 63.241 69.236 64.138 68.622 64.63C67.512 65.523 66.33 66.316 65.091 67.003Z" fill="white"/>
<path d="M46.904 79.639L44.057 82.632C42.097 84.152 39.716 85.152 37.12 85.422V91.378H37.33C40.509 91.378 43.098 93.968 43.098 97.148C43.098 97.935 42.462 98.572 41.675 98.572H33.469C30.145 98.572 27.44 95.868 27.44 92.544V81.866C27.44 79.772 28.442 77.77 30.117 76.513L33.19 74.209L31.719 73.279C30.934 72.782 30.214 72.209 29.568 71.571C29.549 71.641 27.316 68.746 27.345 68.603C26.401 66.86 25.864 64.891 25.821 62.839C25.727 58.579 27.763 54.586 31.265 52.156C31.912 51.708 32.798 51.868 33.246 52.514C33.694 53.161 33.533 54.046 32.888 54.495C30.174 56.379 28.595 59.475 28.667 62.778C28.738 66.081 30.448 69.107 33.24 70.871L36.458 72.903C36.854 73.155 37.1 73.584 37.12 74.051C37.137 74.519 36.926 74.966 36.55 75.246L31.825 78.791C30.862 79.514 30.288 80.661 30.288 81.866V92.544C30.288 94.297 31.715 95.725 33.469 95.725H39.882C39.381 94.831 38.424 94.225 37.33 94.225H35.698C34.911 94.225 34.274 93.587 34.274 92.802V84.072C34.274 83.285 34.911 82.648 35.698 82.648C41.663 82.648 46.516 77.795 46.516 71.83V60.727C46.516 59.941 47.153 59.303 47.938 59.303C48.725 59.303 49.362 59.941 49.362 60.727V66.421H49.375V69.268H49.362V71.83C49.362 74.732 48.452 77.424 46.904 79.639Z" fill="white"/>
<path d="M65.273 79.639L62.426 82.632C60.466 84.152 58.085 85.152 55.489 85.422V91.378H55.699C58.878 91.378 61.467 93.968 61.467 97.148C61.467 97.935 60.831 98.572 60.044 98.572H51.838C48.514 98.572 45.809 95.868 45.809 92.544V77.841C45.773 77.387 48.657 74.033 48.657 75.237V92.544C48.657 94.297 50.084 95.725 51.838 95.725H58.251C57.75 94.831 56.793 94.225 55.699 94.225H54.067C53.28 94.225 52.643 93.587 52.643 92.802V84.072C52.643 83.285 53.28 82.648 54.067 82.648C60.032 82.648 64.885 77.795 64.885 71.83H67.731C67.731 74.732 66.821 77.424 65.273 79.639Z" fill="white"/>
<path fill-rule="evenodd" clip-rule="evenodd" d="M64.885 71.944V66.672L67.732 63.997V71.944H64.885Z" fill="white"/>
<path d="M77.81 46.878L79.752 44.935L80.961 46.144C81.516 46.699 82.418 46.699 82.974 46.144C83.53 45.588 83.529 44.687 82.974 44.131L80.759 41.916C80.203 41.36 79.302 41.36 78.746 41.916L75.745 44.917" fill="white"/>
<path d="M126.87 26.535L124.073 28.947L124.329 29.243C125.204 28.489 125.506 28.555 126.463 29.665L128.188 31.665C129.144 32.774 129.179 33.098 128.304 33.853C127.552 34.339 126.788 34.37 125.57 34.221L124.178 34.06C124.998 33.053 124.989 31.999 124.396 31.311C123.655 30.452 122.354 30.429 120.979 31.615L118.229 33.986L118.485 34.283C119.36 33.528 119.662 33.595 120.619 34.704L122.344 36.704C123.301 37.814 123.335 38.138 122.46 38.892L122.716 39.189L125.826 36.508L125.57 36.211C124.695 36.966 124.379 36.884 123.422 35.774L122.937 35.212L123.203 34.983L126.81 35.659L131.357 31.738C133.591 29.811 133.536 27.788 132.31 26.366C131.084 24.944 129.105 24.608 126.87 26.535ZM122.519 34.727L120.727 32.649L121.368 32.097C122.071 31.491 122.801 31.705 123.286 32.268C123.758 32.815 123.863 33.569 123.16 34.175L122.519 34.727ZM130.986 31.213L130.877 31.307C130.314 31.792 130.115 31.719 129.495 31L126.571 27.61L127.321 26.963C128.946 25.562 130.267 26.493 131.062 27.415C131.884 28.368 132.611 29.812 130.986 31.213Z" fill="white"/>
<path d="M112.221 44.616L110.55 40.499C110.068 39.307 109.699 39.163 108.699 40.026L108.429 39.713L111.366 37.18L111.636 37.492C110.652 38.341 110.619 38.778 111.212 40.255L114.039 47.135L113.836 47.31L108.025 43.794L110.617 50.086L110.414 50.261L104.072 46.413C102.713 45.596 102.261 45.577 101.355 46.359L101.085 46.046L104.554 43.055L104.823 43.367C103.901 44.162 103.84 44.597 105.003 45.282L108.799 47.567L106.335 41.519L106.632 41.263L112.221 44.616Z" fill="white"/>
<path d="M119.501 42.316C117.782 43.798 115.284 43.745 113.95 42.198C112.63 40.667 112.945 38.189 114.663 36.707C116.382 35.224 118.88 35.277 120.2 36.809C121.534 38.356 121.22 40.834 119.501 42.316ZM115.081 37.191C113.644 38.431 114.262 40.159 115.138 41.174C116.027 42.206 117.632 43.056 119.07 41.816C120.523 40.563 119.918 38.851 119.029 37.819C118.153 36.804 116.535 35.938 115.081 37.191Z" fill="white"/>
<path d="M138.15 25.335L138.419 25.648L134.841 28.733L134.572 28.421C135.619 27.518 135.577 27.091 134.23 25.528L132.074 23.028C130.726 21.466 130.323 21.377 129.276 22.28L129.007 21.968L132.241 19.178C133.85 17.791 135.455 17.85 136.412 18.96C137.342 20.038 137.179 21.65 135.569 23.038L134.679 23.806L135.339 24.571C136.686 26.134 137.103 26.238 138.15 25.335ZM132.726 19.741L131.835 20.509L134.18 23.228L135.071 22.46C135.946 21.705 135.827 20.746 135.193 20.011C134.547 19.261 133.601 18.986 132.726 19.741Z" fill="white"/>
<path d="M150.044 13.063L150.208 13.411C150.512 14.048 150.502 14.384 149.392 15.341L149.173 15.53C148.361 16.23 148.059 16.164 147.102 15.055L146.482 14.336C147.701 13.285 147.889 13.313 148.59 14.126L148.887 13.87L146.879 11.541L146.582 11.797C147.283 12.61 147.283 12.8 146.064 13.851L144.555 12.101L145.415 11.36C146.524 10.403 146.858 10.443 147.443 10.837L147.777 11.067L148.027 10.851L146.651 9.477L142.057 13.438L142.313 13.735C143.188 12.98 143.491 13.047 144.447 14.156L146.172 16.156C147.047 17.171 147.148 17.53 146.49 18.161C145.748 18.626 144.989 18.657 143.789 18.511L142.397 18.349C143.217 17.342 143.207 16.288 142.615 15.6C141.874 14.741 140.573 14.718 139.198 15.904L136.448 18.275L136.704 18.572C137.579 17.817 137.881 17.884 138.838 18.993L140.563 20.993C141.52 22.103 141.554 22.427 140.679 23.181L140.935 23.478L144.045 20.797L143.789 20.5C142.914 21.254 142.598 21.173 141.641 20.063L141.156 19.501L141.422 19.272L145.029 19.948L151.451 14.41L150.278 12.861L150.044 13.063ZM140.738 19.017L138.946 16.939L139.587 16.386C140.29 15.78 141.02 15.995 141.505 16.557C141.977 17.104 142.082 17.858 141.379 18.464L140.738 19.017Z" fill="white"/>
<path d="M154.657 11.999C154.032 12.538 153.202 12.682 152.792 12.681C152.782 12.826 152.843 13.182 153.001 13.427L152.704 13.683L150.845 11.527L151.157 11.258C152.171 12.181 153.415 12.171 154.337 11.376C154.837 10.945 155.001 10.313 154.597 9.844C154.247 9.438 153.618 9.435 152.721 9.691L151.467 10.037C150.585 10.279 149.672 10.168 149.079 9.48C148.433 8.73 148.583 7.484 149.552 6.648C150.068 6.203 150.667 6.014 151.121 6.003C151.145 5.873 151.075 5.634 150.96 5.406L151.257 5.15L152.847 6.994L152.519 7.277C151.776 6.637 150.845 6.378 150.017 7.092C149.579 7.469 149.388 8.07 149.725 8.46C150.076 8.867 150.592 8.802 151.639 8.499L152.862 8.18C153.922 7.893 154.717 8.215 155.122 8.684C155.97 9.668 155.704 11.096 154.657 11.999Z" fill="white"/>
<path d="M159.469 7.849C158.844 8.388 158.015 8.532 157.605 8.531C157.594 8.676 157.656 9.032 157.813 9.277L157.516 9.533L155.657 7.377L155.97 7.108C156.984 8.031 158.228 8.021 159.15 7.226C159.65 6.795 159.814 6.163 159.41 5.694C159.059 5.288 158.43 5.285 157.534 5.541L156.279 5.887C155.398 6.129 154.484 6.018 153.892 5.331C153.245 4.581 153.396 3.334 154.365 2.498C154.88 2.053 155.479 1.864 155.934 1.853C155.958 1.724 155.888 1.484 155.773 1.256L156.069 1L157.66 2.844L157.332 3.127C156.589 2.487 155.657 2.228 154.829 2.942C154.392 3.319 154.201 3.92 154.538 4.31C154.888 4.717 155.405 4.652 156.451 4.349L157.674 4.03C158.734 3.743 159.53 4.065 159.934 4.534C160.783 5.518 160.516 6.946 159.469 7.849Z" fill="white"/>
<path d="M113.266 19.276C115.626 22.013 119.256 23.007 122.53 22.139L111.437 15.946C111.795 17.137 112.401 18.274 113.266 19.276Z" fill="white"/>
<path d="M124.548 8.938C123.811 8.084 122.993 7.757 122.333 7.523C121.491 7.256 120.747 7.057 120.255 6.487C119.707 5.851 119.679 4.844 120.358 4.258C120.389 4.232 120.421 4.211 120.453 4.187C118.25 4.12 116.018 4.846 114.218 6.398C111.802 8.482 110.745 11.554 111.128 14.497C111.294 14.362 111.45 14.234 111.58 14.122C112.303 13.498 113.347 12.445 113.347 12.445C113.701 12.102 114.217 12.611 113.883 12.976C113.883 12.976 113.546 13.344 113.148 13.725L122.125 19.043L119.725 13.2L116.102 11.177C115.711 11.476 115.32 11.737 115.32 11.737C114.928 12.036 114.481 11.429 114.872 11.129C114.872 11.129 116.09 10.232 116.77 9.646C117.493 9.023 118.537 7.969 118.537 7.969C118.891 7.626 119.407 8.135 119.072 8.501C119.072 8.501 118.735 8.868 118.338 9.249L127.247 14.527L125.949 11.628C125.423 10.414 125.058 9.53 124.548 8.938Z" fill="white"/>
<path d="M120.824 13.813L123.948 21.631C124.724 21.279 125.465 20.814 126.144 20.228C126.949 19.534 127.602 18.729 128.102 17.856C128.058 17.842 128.014 17.826 127.971 17.803L120.824 13.813Z" fill="white"/>
<path d="M123.387 4.763C123.607 4.957 123.828 5.179 124.047 5.434C124.652 6.135 125.201 7.037 125.657 8.364L128.811 16.292C129.833 13.321 129.295 9.901 127.095 7.35C126.059 6.148 124.777 5.282 123.387 4.763Z" fill="white"/>
<path d="M113.229 5.252C108.785 9.085 108.287 15.82 112.12 20.264C115.953 24.709 122.687 25.207 127.132 21.374C131.576 17.541 132.075 10.806 128.242 6.361C124.409 1.917 117.674 1.42 113.229 5.252ZM126.813 21.004C122.573 24.661 116.147 24.186 112.489 19.945C108.832 15.705 109.307 9.279 113.548 5.622C117.789 1.965 124.214 2.44 127.871 6.681C131.529 10.922 131.054 17.347 126.813 21.004Z" fill="white"/>
<path d="M182.314 9.298L180.542 8.918C179.775 8.755 179.017 9.243 178.852 10.012C178.688 10.781 179.177 11.537 179.945 11.703L181.717 12.083C181.818 12.104 181.918 12.114 182.017 12.114C182.673 12.114 183.264 11.656 183.408 10.989C183.572 10.219 183.082 9.463 182.314 9.298Z" fill="white"/>
<path d="M176.385 29.828L176.211 45.218C176.156 50.229 174.472 54.94 171.344 58.84C170.852 59.453 170.95 60.349 171.563 60.841C172.177 61.333 173.073 61.235 173.565 60.621C176.802 56.587 178.662 51.785 179 46.658L179.075 43.811L179.233 29.828" fill="white"/>
<path d="M186.046 18.759H198.413C199.199 18.759 199.836 18.122 199.836 17.335V11.926C199.836 11.311 199.442 10.766 198.858 10.574L179.087 4.07C178.396 3.844 177.685 3.671 176.975 3.559C176.263 3.444 175.533 3.387 174.809 3.387C168.432 3.387 162.952 7.72 161.482 13.925L157.908 29.021C145.706 29.305 134.278 34.19 125.619 42.85C119.045 49.423 114.591 57.686 112.737 66.745C112.579 67.515 113.076 68.267 113.846 68.424C113.943 68.444 114.039 68.453 114.134 68.453C114.796 68.453 115.389 67.99 115.527 67.315C117.269 58.804 121.455 51.041 127.632 44.862C128.122 44.372 128.624 43.895 129.132 43.432L130.51 44.561C130.775 44.779 131.095 44.884 131.412 44.884C131.824 44.884 132.232 44.707 132.513 44.364C133.012 43.757 132.923 42.86 132.316 42.362L131.331 41.553C132.676 40.475 134.075 39.481 135.52 38.575L136.394 40.021C136.662 40.464 137.132 40.709 137.614 40.709C137.865 40.709 138.118 40.644 138.349 40.504C139.022 40.098 139.238 39.223 138.831 38.55L137.981 37.142C139.382 36.385 140.821 35.707 142.294 35.108L142.972 37.091C143.175 37.681 143.728 38.053 144.318 38.053C144.472 38.053 144.628 38.028 144.781 37.976C145.524 37.721 145.92 36.912 145.666 36.168L144.965 34.121C146.713 33.539 148.499 33.066 150.317 32.706L151.333 35.726C151.533 36.32 152.088 36.695 152.682 36.695C152.833 36.695 152.986 36.672 153.137 36.62C153.882 36.37 154.282 35.563 154.032 34.817L153.165 32.24C154.873 32.016 156.606 31.89 158.355 31.864L161.531 35.871C161.812 36.226 162.228 36.411 162.648 36.411C162.957 36.411 163.269 36.31 163.531 36.103C164.147 35.614 164.251 34.719 163.762 34.103L160.581 30.089L164.251 14.582C165.416 9.667 169.758 6.233 174.809 6.233C175.384 6.233 175.962 6.279 176.526 6.37C177.089 6.459 177.652 6.597 178.2 6.776L196.99 12.956V15.912H182.754C182.752 15.912 182.749 15.913 182.747 15.913H177.84C177.054 15.913 176.416 16.549 176.416 17.336C176.416 18.122 177.054 18.76 177.84 18.76H182.139" fill="white"/>
<path d="M167.619 42.321L166.816 45.32L163.977 41.647C163.496 41.025 162.602 40.91 161.98 41.391C161.358 41.871 161.244 42.766 161.724 43.387L166.32 49.335C166.651 49.764 167.196 49.966 167.726 49.861C168.257 49.753 168.681 49.356 168.822 48.833L170 44.433L171.65 44.875C172.409 45.079 173.19 44.628 173.393 43.869C173.597 43.109 173.146 42.329 172.387 42.126L169.362 41.315C168.603 41.111 167.823 41.562 167.619 42.321Z" fill="white"/>
<path d="M183.151 16.273L179.512 16.38L186.192 23.487C186.461 23.773 186.837 23.935 187.23 23.935H195.912L194.407 27.289H173.744L173.569 26.993C170.691 22.107 170.03 16.203 171.755 10.797C171.995 10.048 171.582 9.248 170.832 9.008C170.083 8.769 169.283 9.183 169.043 9.932C167.072 16.109 167.827 22.855 171.117 28.44L171.706 29.436C171.962 29.87 172.428 30.136 172.932 30.136H195.328C195.889 30.136 196.398 29.807 196.627 29.296L199.41 23.094C199.608 22.654 199.568 22.143 199.306 21.738C199.044 21.333 198.594 21.088 198.111 21.088H187.845L183.151 16.273Z" fill="white"/>
<path d="M130.811 71.094L128.432 68.601C127.076 73.862 123.258 81.406 119.803 85.612C116.919 89.122 113.403 92.083 109.471 94.335C112.845 88.902 114.624 82.68 114.624 76.266C114.624 74.792 114.697 73.305 114.841 71.845C114.919 71.063 114.346 70.367 113.564 70.289C112.781 70.21 112.084 70.784 112.008 71.565C111.854 73.118 111.777 74.7 111.777 76.266C111.777 82.501 109.943 88.537 106.479 93.724L104.226 97.092C103.878 97.611 103.91 98.295 104.303 98.781C104.58 99.121 104.989 99.307 105.409 99.307C105.586 99.307 105.768 99.275 105.94 99.204C112.179 96.691 117.734 92.616 122.002 87.419C125.287 83.421 129.27 76.019 130.811 71.094ZM166.176 66.857L163.329 68.207C160.388 69.383 157.225 70.003 154.027 70.003H148.555L148.875 67.156H154.027C157.559 67.156 160.944 66.348 164.01 64.795C164.063 64.764 164.116 64.734 164.173 64.709C165.488 64.029 166.743 63.215 167.925 62.266C168.537 61.772 169.433 61.869 169.925 62.482C170.418 63.094 170.321 63.992 169.707 64.484C168.597 65.376 167.415 66.169 166.176 66.857Z" fill="white"/>
<path d="M145.528 81.16L142.339 83.786C140.209 85.057 137.725 85.762 135.115 85.715L134.393 91.627L134.602 91.652C137.758 92.038 140.014 94.921 139.628 98.079C139.533 98.86 138.824 99.415 138.043 99.319L129.898 98.325C126.598 97.922 124.241 94.91 124.644 91.61L125.938 81.011C126.192 78.932 127.429 77.066 129.244 76.022L132.575 74.108L131.227 73.006C130.507 72.418 129.862 71.761 129.299 71.05C129.271 71.117 127.406 67.973 127.451 67.834C126.726 65.99 126.432 63.971 126.638 61.928C127.061 57.688 129.566 53.971 133.336 51.984C134.033 51.617 134.894 51.884 135.259 52.579C135.626 53.276 135.359 54.135 134.664 54.502C131.741 56.043 129.799 58.925 129.47 62.212C129.14 65.5 130.471 68.711 133.028 70.801L135.976 73.208C136.339 73.506 136.531 73.962 136.494 74.427C136.455 74.894 136.19 75.312 135.784 75.545L130.664 78.49C129.62 79.091 128.912 80.161 128.766 81.356L127.471 91.956C127.259 93.696 128.501 95.286 130.243 95.499L136.608 96.276C136.219 95.328 135.343 94.611 134.257 94.478L132.637 94.28C131.855 94.185 131.301 93.475 131.396 92.695L132.454 84.029C132.55 83.248 133.259 82.693 134.04 82.789C139.961 83.512 145.367 79.283 146.09 73.362L147.436 62.34C147.531 61.561 148.241 61.005 149.02 61.1C149.802 61.195 150.356 61.906 150.261 62.685L149.57 68.337L149.584 68.339L149.239 71.165L149.225 71.163L148.915 73.707C148.563 76.587 147.334 79.149 145.528 81.16Z" fill="white"/>
<path d="M164.715 74.79L163.327 78.681C162.152 80.865 160.382 82.745 158.118 84.045L160.534 89.489L160.727 89.404C163.633 88.114 167.049 89.43 168.34 92.338C168.659 93.057 168.335 93.897 167.616 94.216L160.116 97.545C157.078 98.894 153.508 97.52 152.16 94.482L146.195 81.043C145.093 79.013 148.256 75.137 148.256 75.137C147.336 75.002 149.943 82.465 150.431 83.566L154.763 93.326C155.475 94.928 157.358 95.655 158.961 94.943L164.822 92.342C164.002 91.727 162.881 91.562 161.881 92.006L160.39 92.668C159.67 92.988 158.83 92.663 158.511 91.945L154.969 83.965C154.65 83.246 154.974 82.406 155.693 82.087C161.145 79.667 163.612 73.262 161.192 67.81L163.793 66.655C164.971 69.308 165.232 72.137 164.715 74.79Z" fill="white"/>
<path d="M177.797 46.406L180.326 47.477L179.66 49.05C179.354 49.774 179.693 50.61 180.416 50.916C181.14 51.222 181.975 50.884 182.282 50.16L183.503 47.276C183.809 46.552 183.471 45.717 182.747 45.41L178.839 43.756" fill="white"/>
</g>
<defs>
<clipPath id="clip0_766_758">
<rect width="200" height="100" fill="white"/>
</clipPath>
</defs>
</svg>
