<svg width="200" height="100" viewBox="0 0 200 100" fill="none" xmlns="http://www.w3.org/2000/svg">
<g clip-path="url(#clip0_766_711)">
<path d="M34 97.5L37.5 96.5L37 94.5L35 93.5L32.5 92L33 84L38.5 83.5L45 78.5L47.5 93.5L49 96.5L51.5 97.5L56.5 97L59.5 97L60.5 95.5L60 94L58.5 92.5L56.5 92.5L54.5 92L53.5 85L54.5 83.5L56.5 83L58.5 80.5L59.5 77.5L59 72.5L58.5 67.5L66.5 63.5L69 61L71.5 60.5L74.5 63L78 59.5L79.5 57.5L83 60L85 61L86.5 60.5L86.5 58L85 55L83 52.5L81 51L76.5 52.5L73.5 55L73 53.5L74.5 50.5L76 47L76 40L76 24L76 21.5L81 21.5L86 21.5L91.5 21.5L95.4999 20.5L96.5 18L95.4999 14.4998L92.4999 11.5L89.5 10.5L81 6.99985L74.9999 5.49997L69.5 5.49997L65.5 7.49997L62.5 10.5L61 15.5L62.5 33.5L63.5 36L62.5 37L59 36L54.5 35L48.4999 34L43 34L33.5 36L24.5 40L20.4999 42.5L18.5 43L17.5 43L12 32L9.5 26L4.49988 17L4.49988 37.5L4.49988 44.4998C4.49988 45.6998 5.16663 48.6666 5.5 50C6.49996 51.6666 8.49988 55.1 8.49988 55.5C8.49988 55.9 10.4999 58 11.4999 59L14 61L20.4999 63.5C21.6666 63.8333 24.1 64.6 24.5 65C24.9 65.4 26.3333 65.8333 27 66C27.6667 67.3333 29 70.1 29 70.5C29 70.9 30.6667 71.6666 31.5 72L34 74C33.3333 74.5 31.9 75.5 31.5 75.5C31.1 75.5 29 76.8333 28 77.5L26.5 79.5L26 85.5L25 90.5L26 94.5L28 96.5L34 97.5Z" fill="#0F0F0F"/>
<path d="M25.4281 65.4861C25.4145 65.4842 25.1844 62.5966 25.2055 62.6001C25.2109 62.4717 25.2171 62.3422 25.2264 62.213C25.5186 58.0044 27.8846 54.2482 31.554 52.1675C32.2316 51.7829 33.0924 52.0214 33.4761 52.6987C33.8597 53.3763 33.6222 54.2362 32.9449 54.6199C30.0996 56.233 28.2649 59.1451 28.0387 62.4083C27.8123 65.6723 29.2272 68.8092 31.8223 70.7998L34.812 73.0932C35.1797 73.3756 35.3856 73.8206 35.3615 74.2838C35.3385 74.7461 35.0884 75.1679 34.6944 75.412L29.7161 78.4822C28.702 79.1078 28.0319 80.1892 27.9238 81.3764L26.965 91.9064C26.8076 93.6352 28.0866 95.1704 29.8163 95.3279L36.1394 95.9036C35.7267 94.978 34.8373 94.2944 33.7574 94.1961L32.1484 94.0496C31.3733 93.979 30.8014 93.2936 30.872 92.5183L31.6559 83.9094C31.7264 83.1352 32.4127 82.5632 33.1878 82.6338C39.0695 83.1693 44.2906 78.8194 44.8262 72.9371L45.823 61.989C45.8936 61.2139 46.5801 60.6429 47.3552 60.7135C48.1302 60.784 48.7014 61.4696 48.6308 62.2447L47.634 73.1927C47.3734 76.0538 46.2348 78.6268 44.5091 80.6716C43.5735 81.6781 42.5533 82.5828 41.4334 83.368C39.3653 84.6911 36.9264 85.4635 34.3424 85.4971L33.8076 91.3705L34.0139 91.3893C37.1508 91.6749 39.471 94.4592 39.1853 97.597C39.1147 98.3723 38.4285 98.9431 37.6531 98.8725L29.5607 98.1357C26.2833 97.8373 23.8597 94.9282 24.1581 91.6508L25.1169 81.1208C25.305 79.0549 26.4708 77.1725 28.2358 76.0835L31.4742 74.0862L30.1072 73.0376C27.6419 71.1463 26.005 68.4542 25.4281 65.4861Z" fill="white"/>
<g clip-path="url(#clip1_766_711)">
<path d="M81.214 10.4164L79.4597 10.0408C78.6995 9.87772 77.9501 10.3629 77.7863 11.1232C77.6234 11.8845 78.1084 12.6339 78.8698 12.7968L80.6238 13.1733C80.7225 13.1942 80.8219 13.205 80.9206 13.205C81.5706 13.205 82.1552 12.7516 82.2972 12.0898C82.4603 11.3296 81.9751 10.5803 81.214 10.4164Z" fill="white"/>
<path d="M91.2478 8.86957L82.5725 6.01493C80.7821 5.4257 78.933 4.97665 77.0775 4.67983C75.2167 4.38302 73.3204 4.23171 71.4405 4.23171C67.9251 4.23171 64.5825 5.7487 62.2682 8.39433C59.9548 11.0381 58.8957 14.5517 59.3628 18.0329L61.6456 35.0868C55.145 32.8703 48.1767 32.1163 41.3457 32.9064C33.7274 33.7871 26.3797 36.5776 20.0965 40.9754L18.8068 41.8779L13.4088 30.556C13.0739 29.8525 12.2331 29.5548 11.5296 29.8898C10.8273 30.2246 10.5286 31.0664 10.8644 31.7687L16.5811 43.7624L13.5571 47.2514C13.0485 47.8388 13.0656 48.7441 13.6442 49.2636C13.9139 49.5062 14.2506 49.6255 14.5863 49.6255C14.9809 49.6255 15.3727 49.4607 15.6517 49.1387L17.1949 47.3582C18.5281 45.8204 20.0449 44.4529 21.7131 43.2862C22.1476 42.9813 22.5883 42.6879 23.0327 42.4002V44.4927C23.0327 45.2638 23.6273 45.9372 24.3986 45.9599C25.1969 45.9844 25.8512 45.3445 25.8512 44.5516V40.7238C27.5556 39.7925 29.3078 38.9797 31.0982 38.2918V43.365C31.0982 44.137 31.6928 44.8095 32.4639 44.8331C33.2619 44.8565 33.9176 44.2167 33.9176 43.4238V37.3151C35.8735 36.7143 37.8657 36.2562 39.8785 35.9376V44.2103C39.8785 44.9814 40.4733 45.655 41.2444 45.6774C42.0427 45.702 42.697 45.062 42.697 44.2691V35.5856C44.0384 35.4624 45.3844 35.4028 46.7329 35.4054V41.3908C46.7329 42.1629 47.3277 42.8365 48.0997 42.8589C48.898 42.8835 49.5523 42.2426 49.5523 41.4497V35.5013C51.2621 35.6162 52.97 35.8364 54.668 36.1559V39.4179C54.668 40.1899 55.2627 40.8623 56.0348 40.886C56.833 40.9094 57.4874 40.2694 57.4874 39.4767V36.7822C59.2759 37.2428 61.0473 37.8193 62.7905 38.5144C63.1605 38.662 63.5787 38.6711 63.9399 38.5035C64.5164 38.2375 64.8316 37.6374 64.7509 37.0347L62.157 17.6582C61.7985 14.9827 62.612 12.2817 64.3897 10.2498C66.1692 8.21685 68.7388 7.0502 71.4405 7.0502C73.1721 7.0502 74.9189 7.18969 76.6322 7.4631C78.341 7.73629 80.0436 8.14988 81.6917 8.69208L90.3673 11.5469C92.0778 12.1098 93.4474 13.2938 94.2619 14.7999H76.3796C75.6076 14.7999 74.9352 15.3944 74.9115 16.1665C74.8881 16.9647 75.5281 17.6193 76.321 17.6193H95.0728C95.0828 17.7685 95.0884 17.918 95.0884 18.069C95.0884 18.5496 94.9 19.0031 94.5596 19.3453C94.2204 19.6847 93.7667 19.872 93.2843 19.872C93.2843 19.872 76.0376 19.872 75.9815 19.8775C75.9028 19.8838 74.0236 20.024 72.4969 18.6193C71.1157 17.3494 70.4115 15.1889 70.4016 12.1976C70.3988 11.4265 69.8123 10.7513 69.0419 10.7251C68.2409 10.697 67.5822 11.3377 67.5822 12.1334C67.5822 16.0108 68.6093 18.9053 70.6349 20.7374C72.018 21.9872 73.5692 22.4506 74.6926 22.6144L74.5549 40.0532C74.5487 40.8315 75.175 41.4678 75.9535 41.4743C76.73 41.4868 77.3672 40.8542 77.3734 40.0759L77.511 22.6904H93.2843C94.5198 22.6904 95.6811 22.2099 96.5546 21.3366C97.427 20.4612 97.9078 19.3008 97.9078 18.07C97.9078 13.8756 95.2304 10.1782 91.2478 8.86957Z" fill="white"/>
<path d="M59.7036 66.7292L61.0057 74.8959C61.7295 79.4356 58.9875 83.7424 54.7399 85.109L55.6737 90.966L55.8785 90.9334C58.989 90.4374 61.9238 92.5652 62.4199 95.6765C62.5425 96.4453 62.0187 97.1675 61.2501 97.29L53.2246 98.5696C49.9747 99.0878 46.9092 96.8656 46.3909 93.6148L44.0778 79.1078L46.505 76.4301L49.1742 93.171C49.4477 94.8862 51.0654 96.0589 52.7806 95.7854L59.0516 94.7855C58.4223 93.9896 57.3933 93.5469 56.3224 93.7176L54.726 93.9722C53.9574 94.0947 53.2348 93.5703 53.1124 92.8024L51.7514 84.2666C51.6289 83.4978 52.1526 82.7753 52.9212 82.6528C56.399 82.0983 58.7769 78.8174 58.2222 75.3387L57.0979 68.287L59.7036 66.7292Z" fill="white"/>
<path d="M69.0864 58.8447L71.1131 61.3242C69.0848 62.7591 62.603 67.3817 60.2526 68.1496C59.0843 68.499 58.1702 68.9402 57.4341 69.0963C55.832 69.4193 54.1955 69.5868 52.5492 69.5868H46.9206L46.9203 66.7674H52.5492C58.0562 66.614 66.9913 61.6555 69.0864 58.8447ZM26.2212 66.4565C13.8592 65.8304 3 55.5767 3 43.0608V14.9537C3 14.2948 3.45623 13.7236 4.09876 13.5788C4.74059 13.433 5.39863 13.7526 5.68178 14.3471L11.3387 26.2131C11.6737 26.9156 11.3758 27.7572 10.6725 28.0922C9.96929 28.4271 9.12843 28.1284 8.79361 27.4261L5.81849 21.1853V43.0608C5.81849 53.85 14.9445 62.7299 25.5118 63.5981L26.2212 66.4565ZM71.6259 53.7976C73.5055 50.5442 74.4715 48.8444 74.5144 45.0449C74.5234 44.2719 75.1532 43.6509 75.9236 43.6509H75.9398C76.7191 43.66 77.3428 44.2981 77.3338 45.0766C77.2958 48.4498 75.8791 50.842 74.5426 53.8787L71.6259 53.7976Z" fill="white"/>
<path d="M74.029 52.9225C74.0377 52.8887 76.8483 50.9884 76.8483 50.9884L77.2129 50.7292C78.3755 49.9015 79.844 49.5919 81.2424 49.8792C82.6403 50.1668 83.8679 51.0318 84.6093 52.2518L87.6831 57.3074C88.4617 58.5884 88.2615 60.1507 87.1851 61.1945C86.7906 61.5771 86.33 61.8393 85.8425 61.9784C85.0009 62.2184 84.0801 62.0885 83.2846 61.5702L79.7633 59.2754L75.4972 63.6131C75.0078 64.1114 74.2278 64.1756 73.6641 63.766L71.765 62.3876L69.4771 60.7277L58.8767 53.0335C58.2474 52.5759 58.1071 51.6943 58.5644 51.0641C59.0213 50.435 59.9027 50.2947 60.5329 50.7521L74.3366 60.7713L78.5603 56.4768C79.031 55.998 79.7732 55.9181 80.3351 56.2841L84.8229 59.2084C84.8816 59.2464 85.0378 59.3486 85.2222 59.1699C85.4066 58.9911 85.3102 58.8314 85.2733 58.7713L82.2002 53.7154C81.8595 53.1546 81.3167 52.773 80.674 52.6409C80.0309 52.5082 79.3827 52.6449 78.8477 53.0264L75.404 55.4786C75.4 55.4807 75.3967 55.4826 75.3937 55.4854L74.5762 56.0676C73.9519 56.5119 73.0866 56.3759 72.6282 55.7611L67.7202 49.1692C66.0546 46.9326 63.1516 46.0014 60.4951 46.8542C59.7553 47.0915 58.9601 46.6829 58.7226 45.9423C58.4855 45.2005 58.8937 44.4073 59.6345 44.1697C63.4389 42.9491 67.5961 44.282 69.9809 47.4862L74.029 52.9225Z" fill="white"/>
<path d="M39.2906 13.6001C38.5096 14.0087 38.1815 14.7506 38.218 16.7476C38.218 16.7476 38.6049 16.3462 39.2312 16.0982C39.6879 15.919 40.0123 15.6896 40.2456 15.5145C40.9194 14.9896 41.0132 14.3703 40.9935 13.293C40.9803 13.2932 39.9018 13.2472 39.2906 13.6001Z" fill="white"/>
<path d="M34.5774 13.4981C33.9046 14.0756 33.7516 15.0509 33.7516 15.0509L31.6993 23.5519L29.7596 16.6616C29.5754 15.929 29.2172 15.0287 28.6933 14.4075C28.048 13.6177 26.7333 13.5892 26.5756 13.592C26.4574 13.5942 25.1577 13.6706 24.4892 14.4845C23.9884 15.1245 23.6634 16.0372 23.5061 16.776L21.9249 23.7308L19.563 15.3106C19.563 15.3106 19.3756 14.4072 18.6809 13.7891C17.5858 12.8367 16.0005 13.1022 16.0005 13.1022L20.4943 28.8561C20.4943 28.8561 21.8628 28.9494 22.5397 28.5953C23.4378 28.1189 23.8916 27.782 24.3642 25.6049C24.8413 23.6643 26.1046 18.0164 26.2025 17.6203C26.252 17.4486 26.3608 16.9341 26.7024 16.9278C27.044 16.9215 27.1706 17.3792 27.2273 17.6016C27.3527 17.9935 28.8088 23.5917 29.3565 25.5135C29.9609 27.6578 30.3613 27.9921 31.2893 28.4351C31.9787 28.7642 33.3429 28.6209 33.3429 28.6209L37.2309 12.7136C37.2309 12.7136 35.6371 12.5194 34.5774 13.4981Z" fill="white"/>
<path d="M41.1268 15.1927C41.1268 15.1927 40.845 15.5921 40.2864 15.944C39.8963 16.1746 39.5569 16.2991 39.1669 16.5296C38.49 16.8837 38.3254 17.2284 38.3348 17.7408L38.5313 28.4742C38.5313 28.4742 39.6107 28.5727 40.2877 28.2187C41.1857 27.7422 41.3483 27.2924 41.313 25.3612L41.1268 15.1927Z" fill="white"/>
<path d="M51.5702 21.0504L56.7596 13.057C56.7596 13.057 54.5453 12.7033 53.421 13.749C52.6969 14.393 51.9828 15.5889 51.9828 15.5889L50.1035 18.462C49.9884 18.6349 49.8855 18.7551 49.7147 18.7582C49.5439 18.7613 49.37 18.5937 49.3153 18.4764L47.3321 15.674C47.3321 15.674 46.5232 14.5586 45.8275 13.888C44.6789 12.8839 42.4659 13.3187 42.4659 13.3187L47.7732 21.1067L42.6362 29.086C42.6362 29.086 44.9669 29.3325 46.0911 28.2868C46.8152 27.6427 47.4787 26.5529 47.4787 26.5529L49.358 23.6799C49.4731 23.5069 49.576 23.3867 49.7468 23.3836C49.9176 23.3805 50.0915 23.5481 50.1462 23.6654L52.1294 26.4678C52.1294 26.4678 52.8848 27.5316 53.5795 28.1497C54.7281 29.1538 56.9956 28.8231 56.9956 28.8231L51.5702 21.0504Z" fill="white"/>
</g>
<g clip-path="url(#clip2_766_711)">
<path d="M134.5 97.5L140 98L139.5 95L136.5 93L134 92L134.5 84.5L139 83.5L145.5 78.5L144.5 93L148 97.5L150.5 97.5L154 97.5L156.5 97.5L156.5 96L156 94.5L155 93.5L153.5 93L151.5 92L151.5 84.5L155 83.5L157 83L159 80.5L160 77.5L159.5 72.5L159 67.5L167 63.5L167 63L168 63.5L169.5 66L175.5 63L180.5 67.5L181.5 67L182 63.5L181 61L180.5 58.5L178 56.5L176.5 56.5L173.5 57.5L171.5 57.5L173.5 54.5L173.5 53.5L175 50.5L176 47L176 39.5L176.5 24L176.5 21.5L181.5 21.5L186.5 21.5L192 21.5L196 20.5L197 18L196 14.4999L193 11.5L190 10.5L181.5 6.99988L175.5 5.5L170 5.5L166 7.5L163 10.5L161.5 15.5L163 33.5L164 36L163 37L159.5 36L155 35L149 34L143.5 34L134 36L125 40L121 42.5L119 43L118 43L112.5 32L110 26L105 17L105 37.5L105 44.4999C105 45.6999 105.667 48.6666 106 50C107 51.6667 109 55.1 109 55.5C109 55.9 111 58 112 59L114.5 61L121 63.5C122.167 63.8333 124.6 64.6 125 65C125.4 65.4 126.833 65.8333 127.5 66C128.167 67.3333 129.5 70.1 129.5 70.5C129.5 70.9 131.167 71.6667 132 72L134.5 74C133.833 74.5 132.4 75.5 132 75.5C131.6 75.5 130.5 77.3333 129.5 78L128 80L127 85.5L127.5 90L127.5 93.5L128.5 96.5L134.5 97.5Z" fill="#0F0F0F"/>
<path d="M181.214 10.4164L179.46 10.0408C178.699 9.87772 177.95 10.3629 177.786 11.1231C177.623 11.8845 178.108 12.6339 178.87 12.7968L180.624 13.1733C180.723 13.1941 180.822 13.205 180.921 13.205C181.571 13.205 182.155 12.7516 182.297 12.0898C182.46 11.3296 181.975 10.5803 181.214 10.4164Z" fill="white"/>
<path d="M191.248 8.86957L182.572 6.01493C180.782 5.4257 178.933 4.97665 177.078 4.67983C175.217 4.38302 173.32 4.23171 171.441 4.23171C167.925 4.23171 164.582 5.7487 162.268 8.39433C159.955 11.0381 158.896 14.5517 159.363 18.0329L161.646 35.0868C155.145 32.8703 148.177 32.1163 141.346 32.9064C133.727 33.7871 126.38 36.5776 120.097 40.9754L118.807 41.8779L113.409 30.556C113.074 29.8525 112.233 29.5548 111.53 29.8898C110.827 30.2246 110.529 31.0664 110.864 31.7687L116.581 43.7624L113.557 47.2514C113.048 47.8388 113.066 48.7441 113.644 49.2636C113.914 49.5062 114.251 49.6255 114.586 49.6255C114.981 49.6255 115.373 49.4608 115.652 49.1387L117.195 47.3582C118.528 45.8204 120.045 44.4529 121.713 43.2862C122.148 42.9813 122.588 42.6879 123.033 42.4002V44.4927C123.033 45.2638 123.627 45.9372 124.399 45.9599C125.197 45.9845 125.851 45.3445 125.851 44.5516V40.7238C127.556 39.7925 129.308 38.9797 131.098 38.2918V43.365C131.098 44.137 131.693 44.8095 132.464 44.8331C133.262 44.8565 133.918 44.2168 133.918 43.4239V37.3151C135.873 36.7143 137.866 36.2562 139.879 35.9376V44.2103C139.879 44.9814 140.473 45.655 141.244 45.6774C142.043 45.702 142.697 45.062 142.697 44.2691V35.5857C144.038 35.4624 145.384 35.4028 146.733 35.4054V41.3909C146.733 42.1629 147.328 42.8365 148.1 42.8589C148.898 42.8835 149.552 42.2426 149.552 41.4497V35.5013C151.262 35.6162 152.97 35.8364 154.668 36.1559V39.4179C154.668 40.1899 155.263 40.8623 156.035 40.886C156.833 40.9094 157.487 40.2694 157.487 39.4767V36.7822C159.276 37.2428 161.047 37.8193 162.79 38.5144C163.16 38.662 163.579 38.6711 163.94 38.5035C164.516 38.2375 164.832 37.6374 164.751 37.0348L162.157 17.6582C161.799 14.9827 162.612 12.2817 164.39 10.2498C166.169 8.21685 168.739 7.0502 171.441 7.0502C173.172 7.0502 174.919 7.18969 176.632 7.4631C178.341 7.73629 180.044 8.14988 181.692 8.69208L190.367 11.5469C192.078 12.1098 193.447 13.2938 194.262 14.7999H176.38C175.608 14.7999 174.935 15.3944 174.912 16.1665C174.888 16.9647 175.528 17.6193 176.321 17.6193H195.073C195.083 17.7685 195.088 17.918 195.088 18.069C195.088 18.5496 194.9 19.0031 194.56 19.3453C194.22 19.6847 193.767 19.872 193.284 19.872C193.284 19.872 176.038 19.872 175.982 19.8775C175.903 19.8838 174.024 20.024 172.497 18.6193C171.116 17.3494 170.412 15.1889 170.402 12.1976C170.399 11.4265 169.812 10.7513 169.042 10.7251C168.241 10.697 167.582 11.3377 167.582 12.1334C167.582 16.0108 168.609 18.9053 170.635 20.7374C172.018 21.9872 173.569 22.4506 174.693 22.6144L174.555 40.0532C174.549 40.8315 175.175 41.4678 175.954 41.4743C176.73 41.4868 177.367 40.8542 177.373 40.0759L177.511 22.6904H193.284C194.52 22.6904 195.681 22.2099 196.555 21.3366C197.427 20.4612 197.908 19.3008 197.908 18.07C197.908 13.8756 195.23 10.1782 191.248 8.86957Z" fill="white"/>
<path d="M160.756 65.9198V76.4477C160.756 81.0448 157.37 84.8661 152.961 85.5468V91.4779H153.168C156.318 91.4779 158.881 94.0412 158.881 97.1918C158.881 97.9703 158.25 98.601 157.472 98.601H149.345C146.054 98.601 143.376 95.9239 143.376 92.632V80.4984L146.195 77.2248V92.632C146.195 94.3689 147.608 95.7816 149.345 95.7816H155.695C155.199 94.8965 154.252 94.2973 153.168 94.2973H151.551C150.773 94.2973 150.142 93.6656 150.142 92.888V84.2444C150.142 83.4659 150.773 82.8349 151.551 82.8349C155.073 82.8349 157.938 79.9694 157.938 76.4468V67.048L160.756 65.9198Z" fill="white"/>
<path d="M166.091 61.8402L167.807 64.0931C165.778 65.528 162.603 67.587 160.253 68.3549C159.084 68.7043 158.17 68.9402 157.434 69.0963C155.832 69.4193 154.196 69.5868 152.549 69.5868H146.921L146.92 66.7674H152.549C157.045 66.7674 162.423 64.3998 166.091 61.8402ZM126.221 66.4565C113.859 65.8304 103 55.5767 103 43.0608V14.9537C103 14.2948 103.456 13.7236 104.099 13.5788C104.741 13.433 105.399 13.7526 105.682 14.3471L111.339 26.2131C111.674 26.9156 111.376 27.7572 110.673 28.0922C109.969 28.4271 109.128 28.1284 108.794 27.4261L105.818 21.1853V43.0608C105.818 53.85 114.945 62.7299 125.512 63.5981L126.221 66.4565ZM170.684 56.7695C172.563 53.5159 174.472 48.8444 174.514 45.0449C174.523 44.2719 175.153 43.6509 175.924 43.6509H175.94C176.719 43.66 177.343 44.2981 177.334 45.0766C177.296 48.4498 174.937 53.8138 173.6 56.8504L170.684 56.7695Z" fill="white"/>
<path d="M171.706 56.5049C171.724 56.4748 174.948 55.4182 174.948 55.4182L175.37 55.269C176.715 54.7919 178.212 54.8968 179.478 55.5567C180.743 56.2166 181.686 57.3851 182.065 58.7617L183.634 64.4666C184.032 65.912 183.411 67.3594 182.089 68.068C181.605 68.3277 181.09 68.4536 180.583 68.4536C179.708 68.4536 178.858 68.0761 178.235 67.3594L175.478 64.1869L170.186 67.1882C169.579 67.5332 168.811 67.381 168.381 66.8325L166.933 64.9861L165.188 62.7624L157.105 52.4558C156.625 51.8432 156.732 50.9569 157.344 50.4763C157.956 49.9967 158.842 50.1035 159.323 50.7161L169.849 64.1371L175.089 61.1657C175.673 60.8343 176.409 60.9611 176.849 61.4671L180.362 65.5102C180.408 65.5628 180.53 65.7039 180.757 65.5827C180.983 65.4613 180.934 65.2813 180.915 65.2134L179.347 59.5085C179.173 58.8757 178.756 58.3599 178.174 58.0566C177.592 57.7526 176.931 57.7063 176.312 57.9264L172.328 59.34C172.323 59.341 172.319 59.3419 172.316 59.3438L171.37 59.6795C170.648 59.9355 169.853 59.5674 169.581 58.8505L166.669 51.1652C165.681 48.5576 163.144 46.8659 160.356 46.9574C159.579 46.9826 158.927 46.3716 158.901 45.5942C158.877 44.8159 159.487 44.1651 160.264 44.1398C164.258 44.0094 167.89 46.4314 169.304 50.1668L171.706 56.5049Z" fill="white"/>
<path d="M125.312 66.4607C125.298 66.46 124.807 63.6051 124.828 63.6067C124.822 63.4783 124.817 63.3488 124.814 63.2193C124.723 59.0015 126.739 55.0463 130.205 52.6414C130.845 52.197 131.724 52.3564 132.167 52.9961C132.611 53.6361 132.452 54.5141 131.812 54.9575C129.125 56.8221 127.562 59.8885 127.633 63.1588C127.703 66.4298 129.397 69.4256 132.162 71.1727L135.347 73.1855C135.739 73.4334 135.984 73.8579 136.002 74.3213C136.021 74.7838 135.81 75.2266 135.44 75.5053L130.761 79.0143C129.807 79.7294 129.238 80.8671 129.238 82.0592V92.6327C129.238 94.3686 130.651 95.7816 132.388 95.7816H138.737C138.242 94.8972 137.295 94.297 136.21 94.297H134.594C133.816 94.297 133.185 93.6663 133.185 92.8878V84.2433C133.185 83.4659 133.816 82.834 134.594 82.834C140.5 82.834 145.306 78.0286 145.306 72.122V61.1286C145.306 60.3503 145.937 59.7194 146.716 59.7194C147.494 59.7194 148.125 60.3503 148.125 61.1286V72.122C148.125 74.9949 147.224 77.6605 145.691 79.8533C144.851 80.9405 143.917 81.9341 142.873 82.8176C140.933 84.3227 138.574 85.3131 136.004 85.5809V91.4786H136.211C139.361 91.4786 141.924 94.041 141.924 97.1918C141.924 97.9703 141.292 98.601 140.514 98.601H132.388C129.097 98.601 126.42 95.9236 126.42 92.6327V82.0592C126.42 79.9847 127.41 78.0043 129.069 76.7598L132.113 74.477L130.656 73.5567C128.03 71.8967 126.155 69.3642 125.312 66.4607Z" fill="white"/>
<path d="M139.291 13.6001C138.51 14.0087 138.181 14.7506 138.218 16.7476C138.218 16.7476 138.605 16.3462 139.231 16.0982C139.688 15.919 140.012 15.6896 140.246 15.5145C140.919 14.9896 141.013 14.3703 140.993 13.293C140.98 13.2932 139.902 13.2472 139.291 13.6001Z" fill="white"/>
<path d="M134.577 13.4981C133.905 14.0756 133.752 15.0509 133.752 15.0509L131.699 23.5519L129.76 16.6616C129.575 15.929 129.217 15.0287 128.693 14.4075C128.048 13.6177 126.733 13.5892 126.576 13.592C126.457 13.5942 125.158 13.6706 124.489 14.4845C123.988 15.1245 123.663 16.0372 123.506 16.776L121.925 23.7308L119.563 15.3106C119.563 15.3106 119.376 14.4072 118.681 13.7891C117.586 12.8367 116 13.1022 116 13.1022L120.494 28.8561C120.494 28.8561 121.863 28.9494 122.54 28.5953C123.438 28.1189 123.892 27.782 124.364 25.6049C124.841 23.6643 126.105 18.0164 126.203 17.6203C126.252 17.4486 126.361 16.9341 126.702 16.9278C127.044 16.9215 127.171 17.3792 127.227 17.6016C127.353 17.9935 128.809 23.5917 129.357 25.5135C129.961 27.6578 130.361 27.9921 131.289 28.4351C131.979 28.7642 133.343 28.6209 133.343 28.6209L137.231 12.7136C137.231 12.7136 135.637 12.5194 134.577 13.4981Z" fill="white"/>
<path d="M141.127 15.1927C141.127 15.1927 140.845 15.5921 140.286 15.944C139.896 16.1746 139.557 16.2991 139.167 16.5296C138.49 16.8837 138.325 17.2284 138.335 17.7408L138.531 28.4742C138.531 28.4742 139.611 28.5727 140.288 28.2187C141.186 27.7422 141.348 27.2924 141.313 25.3612L141.127 15.1927Z" fill="white"/>
<path d="M151.57 21.0504L156.76 13.057C156.76 13.057 154.545 12.7033 153.421 13.749C152.697 14.393 151.983 15.5889 151.983 15.5889L150.104 18.462C149.988 18.6349 149.885 18.7551 149.715 18.7582C149.544 18.7613 149.37 18.5937 149.315 18.4764L147.332 15.674C147.332 15.674 146.523 14.5586 145.827 13.888C144.679 12.8839 142.466 13.3187 142.466 13.3187L147.773 21.1067L142.636 29.086C142.636 29.086 144.967 29.3325 146.091 28.2868C146.815 27.6427 147.479 26.5529 147.479 26.5529L149.358 23.6799C149.473 23.5069 149.576 23.3867 149.747 23.3836C149.918 23.3805 150.091 23.5481 150.146 23.6654L152.129 26.4678C152.129 26.4678 152.885 27.5316 153.58 28.1497C154.728 29.1538 156.996 28.8231 156.996 28.8231L151.57 21.0504Z" fill="white"/>
</g>
</g>
<defs>
<clipPath id="clip0_766_711">
<rect width="200" height="100" fill="white"/>
</clipPath>
<clipPath id="clip1_766_711">
<rect width="95" height="95" fill="white" transform="translate(3 4)"/>
</clipPath>
<clipPath id="clip2_766_711">
<rect width="95" height="95" fill="white" transform="translate(103 4)"/>
</clipPath>
</defs>
</svg>
